/* XPM */
static char *cocoa[] = {
/* columns rows colors chars-per-pixel */
"64 53 256 2 ",
"   c #131314",
".  c #1B1B1B",
"X  c #191818",
"o  c #261A1A",
"O  c #311A19",
"+  c #1C271B",
"@  c #222219",
"#  c #2D2E1B",
"$  c #34361C",
"%  c #2E1F20",
"&  c #232424",
"*  c #2B2B2B",
"=  c #272827",
"-  c #2A322A",
";  c #373626",
":  c #333535",
">  c #3B3C3D",
",  c #363838",
"<  c #2E2B32",
"1  c #1B1D25",
"2  c #4A2E2F",
"3  c #6C3434",
"4  c #384A2F",
"5  c #3A7134",
"6  c #484B24",
"7  c #525530",
"8  c #4C6A31",
"9  c #707334",
"0  c #63502F",
"q  c #5F3550",
"w  c #3E4141",
"e  c #454848",
"r  c #555859",
"t  c #4D5051",
"y  c #6F5250",
"u  c #757954",
"i  c #5B5160",
"p  c #5E6362",
"a  c #666969",
"s  c #6D7373",
"d  c #777B7B",
"f  c #6B7767",
"g  c #62545E",
"h  c #943D3B",
"j  c #A9423F",
"k  c #AA3E45",
"l  c #AE4A4B",
"z  c #994D73",
"x  c #A74B65",
"c  c #B3536B",
"v  c #9B7A77",
"b  c #A36F65",
"n  c #CE4E55",
"m  c #FC544C",
"M  c #F44C57",
"N  c #E8535A",
"B  c #FE5D5C",
"V  c #FA5857",
"C  c #F0474B",
"Z  c #CD7054",
"A  c #F86856",
"S  c #D1526B",
"D  c #FC5B63",
"F  c #F75868",
"G  c #EA5674",
"H  c #FC5776",
"J  c #EF4F63",
"K  c #C9686A",
"L  c #E86769",
"P  c #FD6364",
"I  c #E26E75",
"U  c #478C3C",
"Y  c #7C832E",
"T  c #5BFB3E",
"R  c #578E4A",
"E  c #5BB749",
"W  c #53AC4D",
"Q  c #68AB47",
"!  c #76A846",
"~  c #6FB752",
"^  c #7CB777",
"/  c #71BD66",
"(  c #768F61",
")  c #5AC948",
"_  c #55DD45",
"`  c #5BDD46",
"'  c #5CDC4A",
"]  c #59D646",
"[  c #5CCB53",
"{  c #64DA4A",
"}  c #75D954",
"|  c #6FCD4F",
" . c #55E246",
".. c #5BE245",
"X. c #5BEA43",
"o. c #59E448",
"O. c #5EF644",
"+. c #62ED43",
"@. c #67E748",
"#. c #7CE44A",
"$. c #75E24B",
"%. c #65F144",
"&. c #69F046",
"*. c #79E250",
"=. c #71C565",
"-. c #878F37",
";. c #B0B53C",
":. c #BDC63C",
">. c #CBD53B",
",. c #8E934B",
"<. c #B89A53",
"1. c #88AA45",
"2. c #9BB147",
"3. c #ACB448",
"4. c #8A8764",
"5. c #8F9161",
"6. c #B6887B",
"7. c #AD837D",
"8. c #B3B96A",
"9. c #82B67A",
"0. c #CE8B4D",
"q. c #C7B34D",
"w. c #CC957D",
"e. c #CC9677",
"r. c #8ECF4B",
"t. c #B7C646",
"y. c #B7C84E",
"u. c #82E846",
"i. c #86C974",
"p. c #BCC661",
"a. c #C6CA4A",
"s. c #C8D848",
"d. c #CDD454",
"f. c #CDD856",
"g. c #D3D64E",
"h. c #E9CF4E",
"j. c #CCE647",
"k. c #D9E949",
"l. c #DCF445",
"z. c #D6E758",
"x. c #CDE650",
"c. c #E4ED49",
"v. c #EBFB45",
"b. c #EDFC4B",
"n. c #E5F648",
"m. c #F3FE45",
"M. c #F3FD4C",
"N. c #F6FB48",
"B. c #EDF653",
"V. c #ECFC55",
"C. c #EEFE5B",
"Z. c #E9F558",
"A. c #F3FD54",
"S. c #F7FD5A",
"D. c #E3EC50",
"F. c #F5FC61",
"G. c #E6EA6D",
"H. c #D3DF6C",
"J. c #3A3F88",
"K. c #3C44AE",
"L. c #6F6A8C",
"P. c #5249B8",
"I. c #4951B2",
"U. c #695CB5",
"Y. c #6C68A4",
"T. c #48509D",
"R. c #3E4BF6",
"E. c #3E43FB",
"W. c #3F4DF8",
"Q. c #3D44F4",
"!. c #3F51F6",
"~. c #4E47C9",
"^. c #4D52D9",
"/. c #565ADA",
"(. c #5453C8",
"). c #6256CE",
"_. c #5B65D4",
"`. c #6D71CB",
"'. c #454BE7",
"]. c #4144FC",
"[. c #444EF9",
"{. c #4349F4",
"}. c #4551F8",
"|. c #4F55E9",
" X c #5D5CEB",
".X c #8E7188",
"XX c #9F658A",
"oX c #E45883",
"OX c #DF7597",
"+X c #7B8484",
"@X c #7C85C8",
"#X c #888B8A",
"$X c #969A99",
"%X c #8A918F",
"&X c #BD8C84",
"*X c #B39389",
"=X c #90B68E",
"-X c #AFB291",
";X c #99A3A3",
":X c #A5A9AA",
">X c #A9B8B8",
",X c #B7B9B8",
"<X c #B5B2A7",
"1X c #C89380",
"2X c #D69A81",
"3X c #DA9C82",
"4X c #D39680",
"5X c #CB888E",
"6X c #CDA5A9",
"7X c #CC9E9A",
"8X c #B8C98B",
"9X c #B9C5BF",
"0X c #B6C8BD",
"qX c #AFCFB1",
"wX c #95C690",
"eX c #CAD994",
"rX c #D2E18E",
"tX c #C4CBB4",
"yX c #D7E5A9",
"uX c #E4E5BF",
"iX c #878AC5",
"pX c #9199CA",
"aX c #9CA6CC",
"sX c #AAB4CD",
"dX c #ADBBE2",
"fX c #DCBAC7",
"gX c #BAC5C2",
"hX c #B9C7C6",
"jX c #B7C5D5",
"kX c #B8D7C2",
"lX c #C5C9C8",
"zX c #C4D4D4",
"xX c #CADBDC",
"cX c #C9D7D5",
"vX c #D4D8D6",
"bX c #CAD3D0",
"nX c #E3D3D5",
"mX c #D6E5D5",
"MX c #E6EDD4",
"NX c #CEDFE4",
"BX c #D4E5E5",
"VX c #D6EAEA",
"CX c #DAECEC",
"ZX c #DCE3E4",
"AX c #DEF2EB",
"SX c #DCF2F2",
"DX c #DEEEF0",
"FX c #E6E8E8",
"GX c #E2F4F4",
"HX c #E5FFFF",
"JX c #EBFFFF",
"KX c #E6F6F5",
"LX c #F3FFFF",
"PX c #FEFFFF",
"IX c #E1F2ED",
"UX c None",
/* pixels */
"UXUXUXUXPXPXPXPXPXPXPXPXPXPXPXPXPXPXPXPXLXLXJXJXLXJXJXJXJXHXcX$XIXHXHXHXHXHXHXHXHXHXHXHXHXHXHXHXHXHXHXHXHXHXHXJXJXJXJXJXUXUXUXUX",
"UXUXPXPXPXPXPXPXPXPXPXPXPXPXPXPXPXPXPXLXLXLXLXJXJXJXJXJXJXKX7X4.sXJXHXHXHXHXHXHXHXHXHXHXHXHXHXHXHXHXHXHXHXHXHXHXJXJXJXJXJXLXUXUX",
"UXPXPXPXPXPXPXPXPXPXPXPXPXPXPXPXPXPXPXLXLXLXJXJXJXJXJXJXJXgXe.7.`.BXHXHXHXHXHXHXHXHXHXHXHXHXHXHXHXHXHXHXHXHXHXHXJXJXJXJXJXJXLXUX",
"UXPXPXPXPXPXPXPXPXPXPXPXPXPXPXPXPXPXLXLXJXJXJXJXJXJXJXJXZX1X3X6.(.iXKXHXHXHXHXHXSXHXHXHXHXHXHXHXHXHXHXHXHXHXHXHXHXHXHXJXJXJXJXUX",
"PXPXPXPXPXPXPXPXPXPXPXPXPXPXPXPXPXLXLXLXJXJXJXJXJXJXJXHX<Xw.3Xw.U. XjXJXHXHXHXHXHXHXHXHXHXHXHXHXHXHXHXHXHXHXHXHXHXHXHXJXHXHXHXJX",
"PXPXPXPXPXPXPXPXPXPXPXPXPXPXPXPXPXPXLXLXJXLXJXJXJXJXJXbX1X3X3Xw.Y.}.`.VXJXHXHXHXHXHXHXHXHXHXHXHXHXHXHXHXHXHXHXHXJXJXHXHXHXJXHXJX",
"PXPXPXPXPXPXPXPXPXPXPXPXPXPXPXPXLXLXLXLXJXLXJXJXJXJXCX*X3X3X3Xw..X}.|.aXJXHXHXHXHXHXHXHXHXHXHXHXHXHXHXHXHXHXHXHXHXHXJXHXHXJXHXJX",
"PXPXPXPXPXPXPXPXPXPXPXPXPXPXPXPXPXLXJXJXJXJXJXJXJXHX,Xw.3X2X3X1X7.|.}./.jXHXHXHXHXHXHXHXHXHXHXHXHXHXHXHXHXHXHXHXHXHXHXHXHXHXHXHX",
"PXPXPXPXPXPXPXPXPXPXPXPXPXPXPXLXLXJXJXJXJXJXJXJXHXzX1Xw.4X3X3X1X7.(.[.[.@XSXHXHXHXHXHXHXHXHXHXHXHXHXHXHXHXHXHXHXHXHXHXHXHXHXHXHX",
"PXPXPXPXPXPXPXPXPXPXPXPXPXPXPXLXLXLXJXLXJXJXJXHXGX=X4.e.3X4X3X1X&XU.}.[.'.aXHXHXHXHXHXHXHXHXHXHXHXHXHXHXHXHXHXHXHXHXHXHXHXHXHXHX",
"PXPXPXPXPXPXPXPXPXPXPXPXPXPXLXLXLXJXLXJXJXJXJXJXqX` ) 5.w.3X3X1X6.Y.}.}.{._.xXHXHXHXHXHXHXHXHXHXHXHXHXHXHXHXHXHXHXHXHXHXHXHXHXHX",
"PXPXPXPXPXPXPXPXPXPXPXPXLXLXLXLXJXJXJXJXJXJXJXBX=.T ..` 5.4X4X1X1X.X|.}.!.!.@XHXHXHXHXHXHXHXHXHXHXHXHXHXHXHXHXHXHXHXHXHXHXHXHXHX",
"PXPXPXPXPXPXPXPXPXPXPXPXPXLXLXJXJXLXJXJXJXJXJXwXT O.o.O.] ,.w.1X&Xv ^.[.}.W.^.sXHXHXHXHXHXHXHXHXHXHXHXHXHXHXHXHXHXHXHXHXHXHXHXHX",
"PXPXPXPXPXPXPXPXPXPXLXLXLXJXLXJXJXJXJXJXJXJXhX[ X.X.o.o.X.) 5.w.5X7.(.[.!.!.!._.BXHXHXHXHXHXHXHXHXHXHXHXHXHXHXHXHXHXHXHXHXHXHXHX",
"PXPXPXPXPXPXPXPXLXPXPXLXLXJXJXJXJXJXJXJXHXCX=.%.+.X.o._ X.X.) 4.&X7.Y.{.!.!.W.Q.pXHXHXHXHXHXHXHXHXHXHXHXHXHXHXHXHXHXHXHXHXHXHXHX",
"PXPXPXPXPXPXLXPXLXLXLXLXJXLXJXJXJXJXJXJXJXwX@.%.+.+.X.' X.X...) v 6.L.{.!.W.W.W.^.jXHXHXHXHXHXHXHXHXHXHXHXHXHXHXHXHXHXHXHXHXHXHX",
"PXPXPXPXPXPXLXLXLXLXJXJXJXJXJXJXJXLXJXJXzX[ { &.+.+.O.' ..X.X.X.E 4..X'.}.W.R.R.Q.`.CXHXHXHXHXHXHXHXHXHXHXHXHXHXHXHXHXHXHXHXHXHX",
"PXPXPXLXLXLXLXLXLXJXLXJXJXLXJXJXJXJXHXCX^ ' ' @.%.+.+.X...X.X...@.E f ^.!.].R.W.Q.'.aXHXHXHXHXHXHXHXHXHXHXHXHXHXHXHXHXHXHXHXHXHX",
"PXPXLXPXLXLXJXLXJXLXJXLXJXJXJXJXJXHXJXqX) ' ' ' @.%.%.X.` X.X...@.{ R T.!.W.R.Q.'.E./.zXHXHXHXHXHXHXHXHXHXHXHXHXHXHXHXHXHXHXHXHX",
"LXLXLXLXLXJXJXJXJXJXJXJXJXJXJXLXJXJXxX/ ' ' { ] { &.%.+.` X.X.+.' Q 2.u P.W.{.{.Q.E.{.`.SXHXHXHXHXHXSXHXHXHXHXHXHXHXHXSXHXHXHXHX",
"LXLXLXLXJXJXLXJXJXLXJXJXJXJXJXJXJXKX=X] _ _ ` ' ] @.%.+. .X.O. .Q t.c.<.z P.'.{.E.E.E.'.sXHXHXHXHXHXHXHXHXHXHXHXHXHXHXHXHXHXHXHX",
"JXJXJXJXJXJXJXJXJXJXJXJXJXJXJXHXJXqX)  .` _ _ _ ' ' &.+.X. .) 1.x.l.n.q.K b P.{.E.E.E.E._.NXHXHXHXHXHXHXHXHXHXHXHXHXHXHXHXHXHXHX",
"JXJXJXJXJXJXJXJXJXJXJXJXJXJXHXJXVX/ _ ....` ` ` ` { @.%...E 2.l.n.k.v.>.Z A K P.].E.E.E.Q.iXKXHXHXHXHXHXHXHXHXHXHXHXHXHXHXHXHXHX",
"JXLXLXJXJXJXLXJXJXJXJXJXJXJXJXKX=X] ..` ` ` ` _ ` ' ' { Q t.l.l.l.c.N.c.Z B B x P.E.Q.E.E.^.jXJXHXHXHXHXHXHXHXHXHXHXHXHXHXHXHXHX",
"JXJXLXJXJXJXJXJXJXJXJXJXHXHXJXzX[ o.o.' .._ _ _ ..` E ! y.l.l.l.k.c.v.v.0.A P G c ~.].].].E.`.ZXHXHXHXHXHXHXHXHXHXHXHXHXHXHXHXHX",
"JXJXJXJXJXJXJXHXHXJXJXHXJXHXCX^ ' o.o.o. .....` _ E 1.>.l.l.l.v.c.c.v.v.q.L P P P c ~.].].].'.pXSXHXHXHXHXHXHXHXHXHXHXHXHXHXHXHX",
"JXJXJXJXJXHXHXHXJXHXHXHXJXJX>X) o. . . ._ ..X.] Q 2.j.j.l.l.n.V.c.v.v.v.a.L P H F P c P.].].]./.jXHXHXHXHXHXHXHXHXHXHXHXHXHXHXHX",
"JXJXJXJXHXHXJXJXHXHXHXJXJXcX/ $.@.o. . . .X.) ! :.l.l.l.l.n.V.n.c.m.b.M.D.K P P P B B c ~.E.E.{.@XSXHXHXHXHXHXHXHXHXHXHXHXHXHXHX",
"JXJXJXHXHXHXHXHXHXJXJXHXGX=X} #.*.#.$.` _ E 1.>.l.l.n.v.v.l.B.n.B.C.A.C.D.Z D D D V V m x ~.].].^.aXHXHXHXHXHXHXHXHXHXHXHXHXHXHX",
"JXJXHXJXHXJXHXHXHXHXHXJXqX=.#.u.u.#.u.u.! ;.c.v.v.v.v.n.v.v.c.D.V.F.C.C.C.<.V J J V V V m c ~.].}.`.xXHXHXHXHXHXHXHXHXSXHXHXHXHX",
"HXHXHXHXHXHXHXHXHXHXJXBX^ } u.#.u.u.| 1.j.m.v.v.v.v.v.b.V.V.n.D.V.Z.C.Z.C.q.N G D B B B B B c ~.[.|.iXKXHXHXHXHXHXHXHXHXHXHXHXHX",
"JXHXJXHXJXHXHXHXHXHXKXwX| *.u.u.u.! 2.v.m.m.v.m.v.v.b.V.V.B.N.c.Z.C.C.C.C.a.L oXD P B B B B D c ~.|.).jXHXHXHXHXHXHXHXHXHXHXHXHX",
"HXJXJXHXHXHXHXJXHXJXhX=.} #.u.u.1.y.N.N.M.b.M.A.A.B.B.b.M.N.m.v.Z.Z.C.C.C.z.Z oXF D D B P D V m x ~. X`.ZXHXHXHXHXHXHXHXHXHXHXHX",
"HXHXHXKXHXKXIXIXGXCX9.} *.u.r.,.g.N.N.A.S.S.V.V.B.B.M.M.M.v.k.j.x.f.Z.C.C.Z.Z G F H H H D D m m m x ).).pXKXHXHXKXKXHXHXHXHXHXHX",
"JXHXJXLXKXFXFXZXFXlXi.} #.~ 2.D.A.S.S.S.S.B.B.M.M.N.M.m.j.r.) | Q U.+Xf.V.V.<.C M J H oXD V V m m m x ).).bXJXfXnXFXKXJXHXHXHXHX",
"HXJXKX,X%Xd #X:XvXZXi.) ! y.S.F.S.S.S.S.A.A.M.N.M.M.v.l.~ W U 5 e J.I.XXh.Z.q.C C C M M F V V V m m M z ).@XvXOXOX,X,XzXHXHXHXHX",
"JXxXp & 1 < * 1 > ( [ | d.S.F.F.F.G.G.d.j.l.b.m.m.m.m.s.8 +   @ o   1 q Z N.g.n C C n S I I A B B B J J z U.XXoXx & . e BXHXHXHX",
"CXp   # 5.cXzXf + X U z.F.F.Z.G.uXZXFXwX[ { r.c.m.m.v.9   @ Y :.>.;.6 X 3 h.k.Z 0.L.^.iXFXnXnXOXN B J H J z S oX3     @ >XJXHXHX",
"$X. . u MXJXmX^ R ,.d.F.S.A.H.tX<X%X.Xf U ) | s.c.m.:.@ X -.v.m.b.A.k.-.:.D.c.:.d.s K.a #X#X;XlX7XJ J J G N N n o 1 # X L.JXHXHX",
"r   e -XmXJX%X( q.F.S.S.N.b.( > X + $ # @ # 8 >.c.v.-.  $ >.m.v.v.A.A.A.A.N.k.s.-.= X o O O o < g n M J J n V 3   i #XX t CXHXHX",
":   a <XcXgXu 3.d.d.d.d.d.-.X X 7 3.t.3.Y - X 7 >.s.6   6 s.a.s.a.d.d.d.d.s.x.-.@ X 2 j l j h %   2 l n n C n O . :XfX* & jXHXHX",
"*   v <XqXcXgXhXgX9XgXgX:X= X d gXgXgX9XhX,Xr X 9 8X>   p 9X0X0XgXgX9XgX9X9X8.$ . d gX,XgX,XgX,Xr   g ,XK m h   > :X:Xe   #XJXHX",
"=   d -XyXJXKXJXJXJXJXLX:X. > bXJXHXJXHXJXJX9X& - lXw   d LXHXHXHXHXHXHXJXJX4.  e CXJXJXJXHXJXKX<X. e nXI N 2   %XnXc g   t cXCX",
">   i H.G.IXHXHXHXHXKXLX%X  r vXAXHXHXHXHXHXVX> 1 0Xt   s IXHXHXHXHXHXSXHXHX+X  a HXHXHXHXHXJXmX,X< - 6.N j X & $X7.k q X * hXVX",
"a   ; k.v.eXDXHXJXKX9Xi.(   t eXrXSXHXHXHXHXbX, = hXp   p eXAXHXHXGXuX2X6XJX+X  a IXHXHXHXHXMXH.8X* o n N 2   & < < * = X X $XJX",
";X@ o ;.j.i.bXZXZXvX9X=.=X1 ; p.x.8XqXkXqXeX8.+ , VX%XX < p.H.eXyXrXz.0.S FX;XX w 5X6XdXdX7Xe.z.,.X < b y . # ;XhXhXhXgXa   p HX",
"FXr   6 ~ kXFXFXmXd r =XGXi   Y x.} =.=./ r.9 1 +XHXzX:   9 <.f.k.k.t.0 h cXxX, o k z _. XU.Z y.6 o $X<X4   p KXJXJXJXKX:XX : xX",
"LXhXw   , $X<X:Xr . e zXJXhX> . 8 W ~ W R 4 . p BXHXHX;X=   > -.2.-.$ + s AXHX;X= O i (.^.(.g ; 1 #XKXlX* 1 :XJXHXHXHXJXvX: X ;X",
"LXLXzXs : = = * > +XBXHXHXJXzXs , - - - - e +XVXHXHXHXSX>Xt - - = - t ;XSXHXHXHX>Xr : < < < : r :XKXJX;X: r VXHXHXHXHXHXKXs < s ",
"UXJXJXJXNXhX>XhXBXJXHXHXHXHXJXHXNXhX>X>XjXSXHXHXHXHXHXHXHXSXjX>X>XzXSXHXHXHXHXHXHXGXxX>X>X0XxXGXJXHXHXVXxXVXHXHXHXHXHXHXHXVXzXvX",
"UXLXJXJXJXLXJXJXJXHXHXHXHXHXHXHXHXHXHXHXHXHXHXHXHXHXHXHXHXSXHXHXHXHXHXHXHXHXHXHXHXHXHXHXHXHXHXHXHXHXHXHXHXHXHXHXHXHXHXHXHXHXLXUX",
"UXUXLXLXJXJXHXJXHXJXHXHXHXHXHXHXHXHXHXHXHXHXHXHXHXHXHXHXHXHXSXHXHXHXHXHXHXHXHXHXHXHXHXHXHXHXHXHXHXHXHXHXHXHXHXHXHXHXHXHXJXJXUXUX",
"UXUXUXUXJXJXJXHXHXHXHXHXHXHXHXHXHXHXHXHXHXHXHXHXHXHXSXHXHXSXHXSXHXHXHXHXHXHXHXHXHXHXHXHXHXHXHXHXHXHXHXHXHXHXHXHXHXHXHXJXUXUXUXUX"
};
