/* XPM */
static char *x[] = {
/* columns rows colors chars-per-pixel */
"64 64 96 2",
"   c #0721065F0562",
".  c #09AF08AA0730",
"X  c #122310380D0A",
"o  c #1808154E10C1",
"O  c #21201CED1697",
"+  c #277E22741A9A",
"@  c #298A24441C36",
"#  c #2DE629302056",
"$  c #2FDA2A172107",
"%  c #3A6F2BB7212F",
"&  c #3A8F33422735",
"*  c #3EE236C82988",
"=  c #463634FC2924",
"-  c #45973BDD2DA7",
";  c #4C0C41D231FD",
":  c #558E420232B8",
">  c #58DE41A631A2",
",  c #57104B0337ED",
"<  c #5B644EFA3A97",
"1  c #5E5051433C4B",
"2  c #6A224CDA3A01",
"3  c #630552383E16",
"4  c #630D563D41A9",
"5  c #65BF58854293",
"6  c #6CB45D7B4527",
"7  c #7EBA5BA543BD",
"8  c #6F97614749C1",
"9  c #702B60D6479A",
"0  c #74EE65504C87",
"q  c #7D03622E48F2",
"w  c #7B9B6A124DE1",
"e  c #7F826DDF5183",
"r  c #774772995A1E",
"t  c #782673235AAF",
"y  c #7FC07B2D6202",
"u  c #82FD5EDA4678",
"i  c #8DC666D74CC5",
"p  c #933B6AD64DC5",
"a  c #81736FA45344",
"s  c #979A6D2250D9",
"d  c #99006D545107",
"f  c #84F071F95452",
"g  c #8C2B781D576B",
"h  c #8E097A195A16",
"j  c #9D2571E75316",
"k  c #94D67FAD5DBC",
"l  c #AB9D7C055BF4",
"z  c #82707CF362F9",
"x  c #983C81D45EA7",
"c  c #B47A81F05E8E",
"v  c #86D380C064AC",
"b  c #8D8286C16913",
"n  c #973E826D60F0",
"m  c #9C0F858A6148",
"M  c #9FC588C762CF",
"N  c #919E8AAA6C35",
"B  c #9E1495027333",
"V  c #A3528B2F64C1",
"C  c #A69F8F0068E8",
"Z  c #BA6B868F616C",
"A  c #BC668C0164F5",
"S  c #A0CB91CF6DF5",
"D  c #AD6294276BAF",
"F  c #B27E97A86C43",
"G  c #B5B59A4D6E0D",
"H  c #BA099BB86D97",
"J  c #A0DA985A75D9",
"K  c #A3CB9C7479D7",
"L  c #B6729B4F7056",
"P  c #BA129E3171E0",
"I  c #B00FA5DE7F1B",
"U  c #BEAAA1D073C3",
"Y  c #BB9EA9B27CD7",
"T  c #C3478CFD65F8",
"R  c #CA168FDC6764",
"E  c #C7DE8EC567FD",
"W  c #C9668FCB6A24",
"Q  c #C6E7912B6726",
"!  c #C8ED90F26793",
"~  c #C7D592386819",
"^  c #C913953268F0",
"/  c #C9C99A0E6A8E",
"(  c #C3FD9FA2712F",
")  c #C8C0A04E6F7C",
"_  c #C9A8AAC26FD9",
"`  c #C76EA78374D5",
"'  c #C8B9A7BB737E",
"]  c #C7B4A86C76D6",
"[  c #C989A8C67422",
"{  c #C4CAA77779E7",
"}  c #C737A96379CB",
"|  c #C9C8AAE47A11",
" . c #B5D7AB6F83EA",
".. c #BA4FABB580FA",
"X. c #B3C6ADD68A3A",
"o. c None",
/* pixels */
"o.o.o.o.o.o.o.o.o.o.o.o.o.o.o.o.o.o.o.o.o.o.o.o.o.o.o.o.o.o.o.o.o.o.o.o.o.o.o.o.o.o.o.o.o.o.o.o.o.o.o.o.o.o.o.o.o.o.o.o.o.o.o.o.",
"o.o.o.o.o.o.o.o.o.o.o.o.o.o.o.o.o.o.o.o.o.o.o.o.o.o.o.o.o.o.o.o.o.o.o.o.o.o.o.o.o.o.o.o.o.o.o.o.o.o.o.o.o.o.o.o.o.o.o.o.o.o.o.o.",
"o.o.o.o.o.o.o.o.o.o.o.o.o.o.o.o.o.o.o.o.o.o.o.o.o.o.o.o.o.o.o.o.o.o.o.o.o.o.o.o.o.o.o.o.o.o.o.o.o.o.o.o.o.o.o.o.o.o.o.o.o.o.o.o.",
"o.o.o.o.o.o.o.o.o.o.o.o.o.o.o.o.o.o.o.! ! ! ! ^ ! ! ! ! T o.o.o.o.o.o.o.o.o.o.o.o.o.o.o.o.o.o.o.o.o.o.o.o.o.o.o.o.o.o.o.o.o.o.o.",
"o.o.o.o.o.o.o.o.o.o.o.o.o.o.o.o.o.o.! ! ^ ^ ^ ^ ^ ^ ^ ^ ~ T o.o.o.o.o.o.o.o.o.o.o.o.o.o.o.o.o.o.o.o.o.o.o.o.o.o.o.o.o.o.o.o.o.o.",
"o.o.o.o.o.o.o.o.o.o.o.o.o.o.o.o.o.Q ^ ^ ^ ^ ^ ^ ^ / ^ ^ ^ ~ c o.o.o.o.o.o.o.o.o.o.o.o.o.o.o.o.o.o.o.o.o.o.o.o.o.o.o.o.o.o.o.o.o.",
"o.o.o.o.o.o.o.o.o.o.o.o.o.o.o.o.^ ^ ^ ^ ^ ^ / / ^ / ^ ^ ^ ^ ~ Z o.o.o.o.o.o.o.o.o.o.o.o.o.o.o.o.o.o.o.o.o.o.o.o.o.o.o.o.o.o.o.o.",
"o.o.o.o.o.o.o.o.o.o.o.o.o.o.o.! ^ ^ ^ / ^ / / / / / / / ^ ^ ^ Z o.o.o.o.o.o.o.o.o.o.o.o.o.o.o.o.o.o.o.o.o.o.o.o.o.o.o.o.o.o.o.o.",
"o.o.o.o.o.o.o.o.o.o.o.o.o.o.W ! ^ ^ / / / / / / / / / / ^ ^ ! T i o.o.o.o.o.o.o.o.o.o.o.o.o.o.o.o.o.o.o.o.o.o.o.o.o.o.o.o.o.o.o.",
"o.o.o.o.o.o.o.o.o.o.o.o.o.o.W ^ ^ ^ ^ / / / / / / / / / / ^ ^ R d o.o.o.o.o.o.o.o.o.o.o.o.o.o.o.o.o.o.o.o.o.o.o.o.o.o.o.o.o.o.o.",
"o.o.o.o.o.o.o.o.o.o.o.o.o.o.W ! ^ ^ ^ / ) / ) / / / / ^ / ^ ^ / i o.o.o.o.o.o.o.o.o.o.o.o.o.o.o.o.o.o.o.o.o.o.o.o.o.o.o.o.o.o.o.",
"o.o.o.o.o.o.o.o.o.o.o.o.o.o.! ^ ^ ^ / / / / / / / ^ ^ ^ / ^ ^ ^ p o.o.o.o.o.o.o.o.o.o.o.o.o.o.o.o.o.o.o.o.o.o.o.o.o.o.o.o.o.o.o.",
"o.o.o.o.o.o.o.o.o.o.o.o.o.o.W ! ^ ^ / / / / / / ^ ^ ^ ^ / ^ ^ / p o.o.o.o.o.o.o.o.o.o.o.o.o.o.o.o.o.o.o.o.o.o.o.o.o.o.o.o.o.o.o.",
"o.o.o.o.o.o.o.o.o.o.o.o.o.o.E ! ^ ^ ^ / / / / ^ ^ ^ Q ^ ^ ^ ^ ^ 7 o.o.o.o.o.o.o.o.o.o.o.o.o.o.o.o.o.o.o.o.o.o.o.o.o.o.o.o.o.o.o.",
"o.o.o.o.o.o.o.o.o.o.o.o.o.o.o.! ^ ^ ^ / / / / ( ) ) q j ! ^ ^ R 2 o.o.o.o.o.o.o.o.o.o.o.o.o.o.o.o.o.o.o.o.o.o.o.o.o.o.o.o.o.o.o.",
"o.o.o.o.o.o.o.o.o.o.o.o.o.o.o.c A ^ ~ ^ / ) [ ` ` ' 9 > Q ! ^ c = o.o.o.o.o.o.o.o.o.o.o.o.o.o.o.o.o.o.o.o.o.o.o.o.o.o.o.o.o.o.o.",
"o.o.o.o.o.o.o.o.o.o.o.o.o.o.o.o.l T R ! / [ | | | | x > c / ! u o.o.o.o.o.o.o.o.o.o.o.o.o.o.o.o.o.o.o.o.o.o.o.o.o.o.o.o.o.o.o.o.",
"o.o.o.o.o.o.o.o.o.o.o.o.o.o.o.o.o.o.T ' | | | | ` ` G 3 c ^ l % o.o.o.o.o.o.o.o.o.o.o.o.o.o.o.o.o.o.o.o.o.o.o.o.o.o.o.o.o.o.o.o.",
"o.o.o.o.o.o.o.o.o.o.o.o.o.o.o.o.o.o.' [ | [ [ [ ` ` F - d Z > o.o.o.o.o.o.o.o.o.o.o.o.o.o.o.o.o.o.o.o.o.o.o.o.o.o.o.o.o.o.o.o.o.",
"o.o.o.o.o.o.o.o.o.o.o.o.o.o.o.o.o.| ` G ' ' ' _ _ | G & o.o.o.o.o.o.o.o.| } } } | | { o.o.o.o.o.o.o.o.o.o.o.o.o.o.o.o.o.o.o.o.o.",
"o.o.o.o.o.o.o.o.o.o.o.o.o.o.o.o.o.o.o.f ` [ [ ' [ | F 4 o.o.o.o.o.o.| } [ { ` ` { ` { { { o.o.o.o.o.o.o.o.o.o.o.o.o.o.o.o.o.o.o.",
"o.o.o.o.o.o.o.o.o.o.o.o.o.o.o.o.o.o.o.o.U [ [ ` ` ` F 3 o.o.o.o.o.} | { ` ` ' ` ` ` ` ' ` ` P o.o.o.o.o.o.o.o.o.o.o.o.o.o.o.o.o.",
"o.o.o.o.o.o.o.o.o.o.o.o.o.o.o.o.o.o.o.o.o.` ` ` ' | F 5 o.o.o.o.} ` ' ` ` ' ` ` ` ` ' ` ` ' ` L o.o.o.o.o.o.o.o.o.o.o.o.o.o.o.o.",
"o.o.o.o.o.o.o.o.o.o.o.o.o.o.o.o.o.o.o.o.o.{ ` ` ` } F 5 o.o.o.| ] ` ` ' ` ` ' ' ' ' ` ` ` ` { { o.o.o.o.o.o.o.o.o.o.o.o.o.o.o.o.",
"o.o.o.o.o.o.o.o.o.o.o.o.o.o.o.o.o.o.o.o.o.o.U ` ` { P h o.o.o.` ` ' ' ` ' ' ' ' _ ' ' ' ' ' ' ` C o.o.o.o.o.o.o.o.o.o.o.o.o.o.o.",
"o.o.o.o.o.o.o.o.o.o.o.o.o.o.o.o.o.o.o.o.o.o.U [ ` [ U C o.o.o.| { ` ` ' | ' [ ' [ [ ' ' ' ' ' | k o.o.o.o.o.o.o.o.o.o.o.o.o.o.o.",
"o.o.o.o.o.o.o.o.o.o.o.o.o.o.o.o.o.o.o.o.o.o.} ` ` ` { g o.o.} ' ' ` ' ' [ ' [ [ [ [ [ [ ' ` ` ] V o.o.o.o.o.o.o.o.o.o.o.o.o.o.o.",
"o.o.o.o.o.o.o.o.o.o.o.o.o.o.o.o.o.o.o.o.o.o.} { ` ` ` 4 o.o.{ { ' ' ` ' [ ' _ [ [ _ [ ' ' ` ` ' V o.o.o.o.o.o.o.o.o.o.o.o.o.o.o.",
"o.o.o.o.o.o.o.o.o.o.o.o.o.o.o.o.o.o.o.o.o.o.} ` ` ` | w o.} ` ` ' ' ' ' [ [ _ [ [ [ _ [ ` ' ' [ V o.o.o.o.o.o.o.o.o.o.o.o.o.o.o.",
"o.o.o.o.o.o.o.o.o.o.o.o.o.o.o.o.o.o.o.o.o.o.} ` ' ` | g o.P { ` ' ' ' [ ' [ [ [ [ [ [ ' ' ` ` | V o.o.o.o.o.o.o.o.o.o.o.o.o.o.o.",
"o.o.o.o.o.o.o.o.o.o.o.o.o.o.o.o.o.o.o.o.o.o.} ` ` ' } V a P ` ` ' ' [ [ [ [ [ [ [ [ [ ' ` ` ` | h o.o.o.o.o.o.o.o.o.o.o.o.o.o.o.",
"o.o.o.o.o.o.o.o.o.o.o.o.o.o.o.o.o.o.o.o.o.| } [ ` ` ' { C ` ` ` ' ' [ _ [ [ [ _ ' ' _ ' ' ` ' | a o.o.o.o.o.o.o.o.o.o.o.o.o.o.o.",
"o.o.o.o.o.o.o.o.o.o.o.o.o.o.o.o.o.o.o.o.o.` ` ` ` ' ' ' ' ` ` ` ' ' ' ` ' ' ' ' ' ' [ ' ' ' ` ` < o.o.o.o.o.o.o.o.o.o.o.o.o.o.o.",
"o.o.o.o.o.o.o.o.o.o.o.o.o.o.o.o.o.o.o.o.} ` ' ` ' ' ' ' ` ` ' ` ' ' ' ` ` ` ' ' _ [ ' ' ` ` ` G ; o.o.o.o.o.o.o.o.o.o.o.o.o.o.o.",
"o.o.o.o.o.o.o.o.o.o.o.o.o.o.o.o.o.o.} } ` ` ` ' ' ' ` ` ` ' ' ' ' ' ` ' ` ' ' ' ' [ ' ` ` ` | V @ o.o.o.o.o.o.o.o.o.o.o.o.o.o.o.",
"o.o.o.o.o.o.o.o.o.o.o.o.o.o.o.o.o.} { ` ' ` ' ' ' ' [ ' ' ` ' ' ' ` ` ' { ` ` ' ' ' ' _ ' ` ` w o.o.o.o.o.o.o.o.o.o.o.o.o.o.o.o.",
"o.o.o.o.o.o.o.o.o.o.o.o.o.o.o.} | ` ` ` ` ` ` ' ' [ [ ' ' ' ' ' ` ` P f k ` ` ` ' ' ' ` ' | F * o.o.o.o.o.o.o.o.o.o.o.o.o.o.o.o.",
"o.o.o.o.o.o.o.o.o.o.o.o.o.o.| { ` ' ` ` _ ` ' _ ' [ [ [ [ [ ' ` ` | D # % P { ` ` ` ` ` ' } w o.o.o.o.o.o.o.o.o.o.o.o.o.o.o.o.o.",
"o.o.o.o.o.o.o.o.o.o.o.o.o.| } ` ` ` ' ` ' [ _ [ [ [ [ [ [ ' ' ` ' ' F * o.} ` ` ' ` ' ' | D - o.o.o.o.o.o.o.o.o.o.o.o.o.o.o.o.o.",
"o.o.o.o.o.o.o.o.o.o.o.o.o.o.` ` ' ` ' ` [ [ [ [ [ _ [ [ [ ' ' ` ` ` ` 0 o.{ ` ` ` ` ' | H , . o.o.o.o.o.o.o.o.o.o.o.o.o.o.o.o.o.",
"o.o.o.o.o.o.o.o.o.o.o.o.o.o.o.{ ` ` ` ` ` ` ` ' ' ' [ _ ' ' ' ` ` ` ` h 8 { ` ` ` ` [ U 6 X o.o.o.o.o.o.o.o.o.o.o.o.o.o.o.o.o.o.",
"o.o.o.o.o.o.o.o.o.o.o.o.o.o.o.o.D L { { ` ` ` ` ' ' [ [ ' [ ' ' ` | G 0 m { ` ` [ } L 3 o o.o.o.o.o.o.o.o.o.o.o.o.o.o.o.o.o.o.o.",
"o.o.o.o.o.o.o.o.o.o.o.o.o.o.o.o.o.o.D U ` ' ` ' _ ' [ [ [ ' ' ' ` { k n ` ` ' | ` m , X o.o.o.o.o.o.o.o.o.o.o.o.o.o.o.o.o.o.o.o.",
"o.o.o.o.o.o.o.o.o.o.o.o.o.o.o.o.o.o.o.o.n P ` ` ` ` ' [ ' ' ' ' ' L D ` ` ` H m < O o.o.o.o.o.o.o.o.o.o.o.o.o.o.o.o.o.o.o.o.o.o.",
"o.o.o.o.o.o.o.o.o.o.o.o.o.o.o.o.o.o.o.o.o.o.` ` ' ` ' [ ` [ [ [ F V x C C a - + o.o.o.o.o.o.o.o.o.o.o.o.o.o.o.o.o.o.o.o.o.o.o.o.",
"o.o.o.o.o.o.o.o.o.o.o.o.o.o.o.o.o.o.o.o.o.o.o.{ ` ` ` ` ` ` [ D & @ o.o.o.o.o.o.o.o.o.o.o.o.o.o.o.o.o.o.o.o.o.o.o.o.o.o.o.o.o.o.",
"o.o.o.o.o.o.o.o.o.o.o.o.o.o.o.o.o.o.o.o.o.o.o.U ` ` [ [ ` ` [ 5   o.o.o.o.o.o.o.o.o.o.o.o.o.o.o.o.o.o.o.o.o.o.o.o.o.o.o.o.o.o.o.",
"o.o.o.o.o.o.o.o.o.o.o.o.o.o.o.o.o.o.o.o.o.o.o.o.Y Y Y { Y Y S # o.o.o.o.o.o.o.o.o.o.o.o.o.o.o.o.o.o.o.o.o.o.o.o.o.o.o.o.o.o.o.o.",
"o.o.o.o.o.o.o.o.o.o.o.o.o.o.o.o.o.o.o.o.o.o.o.X.Y Y Y Y  ...t o.o.o.o.o.o.o.o.o.o.o.o.o.o.o.o.o.o.o.o.o.o.o.o.o.o.o.o.o.o.o.o.o.",
"o.o.o.o.o.o.o.o.o.o.o.o.o.o.o.o.o.o.o.o.o.o.o.X.Y Y Y Y Y ..t o.o.o.o.o.o.o.o.o.o.o.o.o.o.o.o.o.o.o.o.o.o.o.o.o.o.o.o.o.o.o.o.o.",
"o.o.o.o.o.o.o.o.o.o.o.o.o.o.o.o.o.o.o.o.o.o.o. . .Y Y Y Y ..v o.o.o.o.o.o.o.o.o.o.o.o.o.o.o.o.o.o.o.o.o.o.o.o.o.o.o.o.o.o.o.o.o.",
"o.o.o.o.o.o.o.o.o.o.o.o.o.o.o.o.o.o.o.o.o.o.X.Y Y Y Y Y Y ..J o.o.o.o.o.o.o.o.o.o.o.o.o.o.o.o.o.o.o.o.o.o.o.o.o.o.o.o.o.o.o.o.o.",
"o.o.o.o.o.o.o.o.o.o.o.o.o.o.o.o.o.o.o.o.o.X. .Y Y Y Y Y Y Y Y y o.o.o.o.o.o.o.o.o.o.o.o.o.o.o.o.o.o.o.o.o.o.o.o.o.o.o.o.o.o.o.o.",
"o.o.o.o.o.o.o.o.o.o.o.o.o.o.o.o.o.o.o.o.X.X.Y Y Y Y Y ` Y Y Y I b o.o.o.o.o.o.o.o.o.o.o.o.o.o.o.o.o.o.o.o.o.o.o.o.o.o.o.o.o.o.o.",
"o.o.o.o.o.o.o.o.o.o.o.o.o.o.o.o.o.o.o.o.X.Y Y Y Y ` Y Y Y Y Y Y K o.o.o.o.o.o.o.o.o.o.o.o.o.o.o.o.o.o.o.o.o.o.o.o.o.o.o.o.o.o.o.",
"o.o.o.o.o.o.o.o.o.o.o.o.o.o.o.o.o.o.o.X.Y Y Y Y Y Y Y Y Y Y Y Y B o.o.o.o.o.o.o.o.o.o.o.o.o.o.o.o.o.o.o.o.o.o.o.o.o.o.o.o.o.o.o.",
"o.o.o.o.o.o.o.o.o.o.o.o.o.o.o.o.o.o.o.X.Y Y Y Y Y Y Y Y Y Y Y ..B o.o.o.o.o.o.o.o.o.o.o.o.o.o.o.o.o.o.o.o.o.o.o.o.o.o.o.o.o.o.o.",
"o.o.o.o.o.o.o.o.o.o.o.o.o.o.o.o.o.o.o.X. .Y Y Y Y Y Y Y Y ..Y ..B o.o.o.o.o.o.o.o.o.o.o.o.o.o.o.o.o.o.o.o.o.o.o.o.o.o.o.o.o.o.o.",
"o.o.o.o.o.o.o.o.o.o.o.o.o.o.o.o.o.o.o.X. ....... .Y ............B o.o.o.o.o.o.o.o.o.o.o.o.o.o.o.o.o.o.o.o.o.o.o.o.o.o.o.o.o.o.o.",
"o.o.o.o.o.o.o.o.o.o.o.o.o.o.o.o.o.o.o.o.B N b b b b b b b b b b y o.o.o.o.o.o.o.o.o.o.o.o.o.o.o.o.o.o.o.o.o.o.o.o.o.o.o.o.o.o.o.",
"o.o.o.o.o.o.o.o.o.o.o.o.o.o.o.o.o.o.o.o.o.o.o.o.o.o.o.o.o.o.o.o.o.o.o.o.o.o.o.o.o.o.o.o.o.o.o.o.o.o.o.o.o.o.o.o.o.o.o.o.o.o.o.o.",
"o.o.o.o.o.o.o.o.o.o.o.o.o.o.o.o.o.o.o.o.o.o.o.o.o.o.o.o.o.o.o.o.o.o.o.o.o.o.o.o.o.o.o.o.o.o.o.o.o.o.o.o.o.o.o.o.o.o.o.o.o.o.o.o.",
"o.o.o.o.o.o.o.o.o.o.o.o.o.o.o.o.o.o.o.o.o.o.o.o.o.o.o.o.o.o.o.o.o.o.o.o.o.o.o.o.o.o.o.o.o.o.o.o.o.o.o.o.o.o.o.o.o.o.o.o.o.o.o.o.",
"o.o.o.o.o.o.o.o.o.o.o.o.o.o.o.o.o.o.o.o.o.o.o.o.o.o.o.o.o.o.o.o.o.o.o.o.o.o.o.o.o.o.o.o.o.o.o.o.o.o.o.o.o.o.o.o.o.o.o.o.o.o.o.o."
};
