/* XPM */
static char *drgeo[] = {
/* columns rows colors chars-per-pixel */
"64 64 256 2",
"   c #181211",
".  c #282319",
"X  c #282E23",
"o  c #581D0E",
"O  c #6F3918",
"+  c #5B3019",
"@  c #344926",
"#  c #39592C",
"$  c #086C38",
"%  c #3B6E2B",
"&  c #18552D",
"*  c #5B4628",
"=  c #454935",
"-  c #475836",
";  c #4C5229",
":  c #774C30",
">  c #785736",
",  c #6F4C2E",
"<  c #4A623C",
"1  c #536939",
"2  c #51712B",
"3  c #7B663E",
"4  c #6E6C37",
"5  c #40591F",
"6  c #585B43",
"7  c #555A4E",
"8  c #6D574C",
"9  c #596B43",
"0  c #5C7545",
"q  c #54704A",
"w  c #656B45",
"e  c #786743",
"r  c #677848",
"t  c #777B54",
"y  c #6D754E",
"u  c #6F6F6A",
"i  c #8E2F11",
"p  c #851F02",
"a  c #C4360A",
"s  c #844B1B",
"d  c #95542C",
"f  c #864F32",
"g  c #885A36",
"h  c #92542C",
"j  c #A85C32",
"k  c #AD5C2D",
"l  c #926938",
"z  c #BB642C",
"x  c #BA6A36",
"c  c #B3703C",
"v  c #C46D36",
"b  c #C6743A",
"n  c #D17837",
"m  c #9A6C42",
"M  c #887E56",
"N  c #8B7145",
"B  c #A87243",
"V  c #B97845",
"C  c #A36C40",
"Z  c #C97C45",
"A  c #17823B",
"S  c #52902C",
"D  c #67BB35",
"F  c #69B72D",
"G  c #67A132",
"H  c #6AC634",
"J  c #73C936",
"K  c #6CCC33",
"L  c #00884E",
"P  c #5C8245",
"I  c #67864A",
"U  c #77864B",
"Y  c #6A8754",
"T  c #778956",
"R  c #6E9754",
"E  c #7B965B",
"W  c #789758",
"Q  c #6D934A",
"!  c #7BA85A",
"~  c #78B65A",
"^  c #7B9762",
"/  c #7F827A",
"(  c #7FA565",
")  c #7FC060",
"_  c #C98B2C",
"`  c #ECA12D",
"'  c #EFA93A",
"]  c #E29623",
"[  c #87875A",
"{  c #978A56",
"}  c #82985B",
"|  c #978A51",
" . c #A89458",
".. c #AE8F51",
"X. c #84A75D",
"o. c #90AF5E",
"O. c #A9A655",
"+. c #889864",
"@. c #969967",
"#. c #91916D",
"$. c #A59A66",
"%. c #A3986E",
"&. c #88A964",
"*. c #89B667",
"=. c #93B769",
"-. c #9AAE73",
";. c #A9A56B",
":. c #A9A877",
">. c #B7B47B",
",. c #B4AE6D",
"<. c #C6854C",
"1. c #CC8A4E",
"2. c #C98549",
"3. c #D3884A",
"4. c #CE8C51",
"5. c #D29153",
"6. c #C7AE5A",
"7. c #E8A942",
"8. c #ECBB56",
"9. c #F2BC59",
"0. c #EEB54A",
"q. c #C2AE66",
"w. c #C6B768",
"e. c #C7B978",
"r. c #D6B868",
"t. c #E4AE53",
"y. c #8EC35D",
"u. c #86C563",
"i. c #8AC465",
"p. c #8BCA68",
"a. c #94C76C",
"s. c #8DD16A",
"d. c #94D66C",
"f. c #9AC373",
"g. c #9BCC74",
"h. c #9CC879",
"j. c #9AD375",
"k. c #B9D06A",
"l. c #A2CD75",
"z. c #A4CD79",
"x. c #ABD67C",
"c. c #ACDB7E",
"v. c #A5D679",
"b. c #B0DC7E",
"n. c #BDD270",
"m. c #B1D06D",
"M. c #ACE07C",
"N. c #B3E37E",
"B. c #EEC55D",
"V. c #F6C45C",
"C. c #C9C879",
"Z. c #D7C870",
"A. c #ECC967",
"S. c #F3CC63",
"D. c #F2CD6B",
"F. c #F6CB69",
"G. c #F4D36D",
"H. c #F8D56A",
"J. c #E8CD74",
"K. c #F4CC72",
"L. c #EBD779",
"P. c #F4D573",
"I. c #F9D674",
"U. c #F4D975",
"Y. c #FADA75",
"T. c #F4D57A",
"R. c #F5DB7B",
"E. c #FADC7C",
"W. c #F9D67A",
"Q. c #E7D36C",
"!. c #F5E17E",
"~. c #FBE17D",
"^. c #F9E87E",
"/. c #FFF36B",
"(. c #B39F29",
"). c #B9B982",
"_. c #A8B583",
"`. c #AEADAE",
"'. c #858781",
"]. c #AEDC81",
"[. c #A8D781",
"{. c #B1DD83",
"}. c #B2DC88",
"|. c #A8CF80",
" X c #AEE182",
".X c #AEE586",
"XX c #B4E484",
"oX c #B4EA85",
"OX c #B5EB89",
"+X c #B9E888",
"@X c #BCF389",
"#X c #BCEE94",
"$X c #C9C889",
"%X c #D6CA87",
"&X c #DAD788",
"*X c #D7D898",
"=X c #D4CB94",
"-X c #EADB85",
";X c #F4DD83",
":X c #FBDE82",
">X c #F2DB88",
",X c #E3DA96",
"<X c #ECD68D",
"1X c #D0E88E",
"2X c #EDE48D",
"3X c #ECE88A",
"4X c #F5E284",
"5X c #FBE283",
"6X c #FBEC84",
"7X c #F3E58C",
"8X c #FAE58B",
"9X c #F6EA8C",
"0X c #FBEA8C",
"qX c #FDF08A",
"wX c #ECE492",
"eX c #EEEC9C",
"rX c #E9E996",
"tX c #F3E592",
"yX c #F4EB94",
"uX c #FAEC93",
"iX c #F4EE9B",
"pX c #FAEE9A",
"aX c #F4E69C",
"sX c #F6F096",
"dX c #FBF195",
"fX c #F4F29C",
"gX c #FAF29D",
"hX c #FDFD9D",
"jX c #F9F893",
"kX c #EDF292",
"lX c #DBDBA3",
"zX c #E9E9A5",
"xX c #F4EFA2",
"cX c #FAEDA3",
"vX c #FAECAE",
"bX c #F5F3A3",
"nX c #FAF5A3",
"mX c #F6F9A4",
"MX c #FBFAA5",
"NX c #F6F6AA",
"BX c #FBF6A9",
"VX c #F6FAAC",
"CX c #FCFDAD",
"ZX c #F8ECB5",
"AX c #FDFEB2",
"SX c #FDFEBB",
"DX c #F5FAB5",
"FX c #EDF0AA",
"GX c #DBE7A9",
"HX c #CFCDCF",
"JX c #FDFDC3",
"KX c #FDFDCC",
"LX c #FDFED3",
"PX c #FEFEDB",
"IX c #FBFAFA",
"UX c #FFFFE2",
/* pixels */
"VXnXeXCXCXMXeX5X5X~.Y.G.U.T.G.G.;X7.:XJXCXVXbXAXsXE.8XnXVXzXZ.&X*X&XzX2X-X-X>XL.wX&XzXFXzXe.' r.8.J.*X3X,X,XJ.Z.0XW.:X:X5XT.4XmX",
"AXAXNXeXVXbXmX9X7XyX7XyXnXxXbXVXAXfXcX0XuXhXBXbXuX5XMXCXAXfXiXBXnXaX9X~.~.~.~.~.7XAXAXAXAXBX5X5X4XU.yXmXfX7XU.Y.R.E.U.5XT.E.8XnX",
"AXCXAXmXyXaXiXgXCXAXbXBXmXCXAXCXAX9XR.5X:X:XgXBXtXmXSXCXnXyXnXbXgXBXwX4X:X5X7XP.:XMXCXCXCXBXuX5X~.4X8XbXBXyX4XE.W.P.H.D.E.5X5XMX",
"AXnXuXyXQ.4XDXCXAXCXiXiXBXCXAXAXAX!.R.5X5X:X8XAXBXfXBXCXiXiXMXgXgXVXfX9X:X4XI.W.5XgXAXAXCXmXgXgXE.5XdXNXiXiX5X5X^.5XA.S.R.E.0XCX",
"SXyXI.I.G.yXfXVXAXMXwXMXAXCXCXAXAX:XY.5X5X5X0XCXSXyX' cXVXiXCXmXbXCXfXnXR.` P.pXMXAXAXCXCXBXnXBXuXBXCXCXMXtXuX5X5XP.Y.P.W.T.fXAX",
"bX7X:XE.Y.gXVXiXCXmX7XCXAXAXCXCXAXtXW.5X5X:XdXCXAXVXtX4XmXiXBXfXfXMXfXCXR.;XMXAXAXCXCXAXAXBXpXSXCXAXCXVXAXtXmXgXU.W.5XY.!.nXbXxX",
"nXuXE.U.Y.gXAXnXbXxXpXAXAXAXCXAXAXbXuX0X7XpXCXCXAXAXBX;X!.R.5XfXBXBXbXnXiXVXAXCXCXAXCXCXCXCXcXAXCXCXAXCXBX9XbXcXfXgXnXfXaXCXVXBX",
"AXgXuX7XdXmXAXBXxXL.9XCXCXAXCXAXAX:XyXCXCXCXAXCXCXCXyX5XE.P.W.U.>XmXyXVXVXiXCXCXAXCXAXCXSXpX;XAXMXnXuX~.:X7X-XxXCXAXAXAXfXnXuXAX",
"CXAXnXiXmXfXtX>XiXP.A.T.W.tXmXbXVX8.:XSXCXCXCXAXAXVXyX5X:XY.T.S.D.yXnXAXCXfXNXCXAXCXAXCXAXR.0.6XW.P.D.S.W.L.-XiX7XwXiXcXyXR.~.iX",
"gXmXwXiXfXyXmXMXDX7XH.U.!.R.4XuXnXtXsXCXCXCXCXCXCXBXsX8X:X5XE.Q.L.nXCXCXCXbXmXAXCXCXgXpX5XP.D.U.W.P.Y.4X9XtXfXAXCXnXiXbX4XD.Y.E.",
"fXnXfXNXbXVXAXAXCXpXF.~.T.5X;XR.CXpXsX7XgXVXAXAXAXnXbX5X:X5X0X8.A.DXCXCXCXnXfXAXCXAXmXE.I.I.W.8XL.5X5XP.nXeXbXCXCXAXVX4XE.W.W.T.",
"CXgXR.R.yXmXAXAXCXnXF.~.R.P.5XmXfXbXsX~.R.;XpXBXAXfXBX5X5X5XU.9XmXgXCXnX9X4XT.gXCXmXbXnXgX;XI.R.~.5XG.9XAX2XnXAXCXCXCXuXP.P.:X5X",
"dX~.D.U.E.5XnXAXAXnXG.U.5X;X2XAXbXyX8X:X5X~.T.R.dXfXBX5X5XR.4XsXmXBXyX:X5XR.I.5XuXmXCXAXAXgXP.W.5XL.R.MXbXtXCXAXCXAXCXCXyXA.4X:X",
"5XR.A.5X5X5XtXAXAXBXI.P.R.VXNXiXBX7X4X5X5X5X^.Y.yXsXBX5XW.E.:XuXNXSX8XI.5X5XP.U.5XCXCXMXVXBX8XfXP.R.uXmXfXiXCXAXAXCXCXCXAX;XE.E.",
"5XY.I.8X5X5X5XBXAXAX4X4XfXgXAXiXt.7XE.5X5X5X5X8XVXtXCX;XE.5X5XfXNXSXyX^.J.6XH.;XiXAXAXAXAXmXyX0.4XuXtXVXBXmXAXgX0XuXuX8XuXiXbX9X",
"6XB.V.R.W.Y.U.iXVXT.A.:XnXyX2X>X:X0.S.E.W.Y.W.5XVX7X;XyXgXpXnXL.T.VX0Xw.* N I.W.8XnXbXnXCX7X8.W.3X7XfXnXpXT.-XuXI.Y.Y.I.4XQ.W.AX",
"^.S.9.E.Y.I.E.gXMXF.P.tXuXgXgXuXgX9.S.E.I.Y.Y.uXmX>X7XtXgXnXAXK.D.NXcX%X~...B.4XgXCXnXcXnXK.9.mXgXMXgXgXyXP.D.uXW.Y.E.W.5XK.R.SX",
"uX5X8X5X5X5XgXAXCXSXJXmXNXAXAXAXAXbXNXiXnXpXtXCXNXyXCXmXNXAXCXmXBXJXzX). .;.<XMXzX[ :.SXbXbXnXCXgXuXgXnXmXAXSXgX5X5X5X5X8XSXSXDX",
"K.U.8XE.5XdXCXAXCXCXgX0X7XBXCXCXAXfXBXVXbXSXCXfXmXbXmXCXfXBXAXnXwXt @ ^ ( 0 8 zX%X:.6 $XCXnX~.8X~.5X:X9XCXCXAXuX5X:X~.!.4XDXsXL.",
"0.L.AXnXMXAXCXCXAXpX;X4XE.gXAXAXAXiXmXAXVX>X4XVXAXbXcXAXbXiXAX$X= 7 #.&.@X@XE 1 @.E T r :.BXI.:X:X5XP.yXAXVXCXnXuXdXdX0XgXAX;X0.",
"AXmXmXAXCXCXCXCXAXMX5X5X5X9XCXCXCXcXMXVXnX0.B.nXBXMXiXAXVX~.;.r 7 IXIX#.m.].#X*.v.+X}.+XE zX5X:X:X:XP.uXAXCXAXAXAXAXAXVXCXnXNXAX",
"AXCXNXnXAXAXAXAXSXCXuX5X4XuXfXBXCXnXgX9XP.~.~.P.!.mXcXAXAX;.o.r HXHXHX'.M.oXW 7 q x.c.+X} @.uX8XE.T.:X:XCXAXAXAXCXCXCXAXbXmXAXAX",
"CXBXVXVXbXCXCXAXCXAXnXE.5X0XnXfXAXfX8XW.:X5XE.R.U.6XcXZX>.*.l.u HX  7 h.OXY u IX`.W +Xc.v.Q t w.~.E.7X8XnXCXCXCXCXAXVXnXBXCXCXAX",
"CXnXyXnXgXgXAXAXAXCXCX5XE.I.aXeXtX9XD.P.E.~.5X5XE.P.MXn.} OXf.u u   Y OX=.7 IXIXHXT +Xc.c.M.p.T  .E.Y.Y.pXCXAXAXAXnX5X:XpXnXCXAX",
"AXpX~.:X0XP.7.nXmXfXbX7XI.I.R.nXfXL.G.E.Y.U.T.R.~.5X&X} N.].c.E 6 r {.OXr `.HXu `.&.}.].].p.u.N.!  .~.U.>XiXmXBXuX' F.5X5X5XnXCX",
"AXuX~.5X5XR.V.S.U.4XNXBX0X5XdXCXmX2XP.:X5X5X!.U.U.Y.{ h.XXc. X].v.OX{.XXq HX7 . q v.c.].].v.g.x.OXW 6.8X4XmXBX7XS.V.E.9X5XE.5XCX",
"BX5X:X5X:XP.5X:X~.uXCXFX%X>.%.e.AXnXR.P.E.5X5X5X5Xq.X..Xc.{.].{.].].].XXr `.. . =.{.c.].x.c.{.].a.x.T R.~.nXAX7XU.!.U.R.5X5X!.gX",
"nX~.5XE.I.Y.L.r.O.{ { N m C V B ;.*XgX0XL.P.E.~.:X} x.{.].].].c.].].].}.=.u 7 +.+X].].].g.p.[.oX+.z.W e.MXBXmX4XY.E.U.G.W.5X~.nX",
"dX^.G.P.A.3 > N j B Z <.1.4.4.4.V m { { 3 N 5X8Xe.&.XXc.].].].{.]. X].]..Xv.].+Xc.{.].XXj.a.v.c.=.E a.%.SXaXeX9XU.E.E.U.G.G.4XBX",
"G.F.G.6X,.f 5.4.5.5.4.<.1.1.<.<.1.1.<.V Z N *XAX@.l.{.].].{.].].].].].{.].].c.[.].].].].]. Xx.j.f.I j.M pX>X7XmX~.E.~.~.!.H.U.yX",
"8.B.Y.P.> V 3.<.<.3.2.<.l B 4.1.2.n n z j O %.cXE  Xb.].].].].c.].].].].].].].].].].c.{.x.j. XXXf.W v.e ;XK.B.mX7XP.G.G.P.7XL.L.",
"qX^.r.N l 4.1.1...g m Z > f x j f : : e M _.zX=X} +X].].].].].{.c.{.].].].].].{.{.c.{.{.c.x.].XX&.f.x.T CX>XfXCXDXAXnXgXxX7X9XpX",
"$X{ > B 5.<.2.3.Z : : j , * > N $.>.lXAXSXAXCX$X&.+X].XX].].].].]. X].{.].].{.].].{.{.].{.].c.].g.XXf.[ CXbXtXiXfXiXiXyXwXmXuXE.",
":.g 5.3.Z b k h f O * , h f { qXCXnXCXBXyX%XCX,X+..X[.*.x. X}.].b.].].].c. X].c.XXl.z.{.{.].].].].OX*.@.AXDXmXyXCXBXbXiXVXAX0X~.",
"zX, j f f , t | $X_.g 3.v v l rXgXfXxXnX$X, VXZXE N.=.. i.x.f.].c.].].c.].].b.c..XW g. X{.].].b.v.OXE ).SXAXAXgX4XNXmXCXBXAX0X:X",
"JX[ > { $X2X9.MXBXeX> c v v f GXMX>XnXSXM f dXBX@.j.x.X *.U @ N.b.].].{.].].].OX=.I j.s.x. X].].c.+Xt &XMXfXfXfXeX8.pXCXCXAXuXE.",
"BX9X5XqX0X9XP.VXNXCX[ c b c j ;.jXL.:XT.O | ^.AX$XE @Xo.v.0 T XX].M.].].{.oXXX=.4 ) p.u.d.l.[.b.N.l.[ fXfXmXMXCXVXS.;XAXCXAX0X:X",
"iXE.5X5XU.4XAXCXCXSX).g n v z N VX4XI.6.o ,.5XnXnXT g.XXc.x. Xc.].x.oXoXh.+.I I u.p.u.p.u.*.b.].oX&.>.AXCXAXBXuX8XuX:XiXAXAX0XE.",
"9X~.5XW.E.5XMXAXAXCXzXe Z x v g GXhXJ.> o Z.0XL.AX=Xr XX].M.].].XX{.*.1 1 P ~ u.u.u.s.p.I g.}.c.XXE eXAXCXAXnX:X5XE.5XfXnXCX8X:X",
"fX5XT.5X:XuXCXAXCXCXAX[ B v n d >.CXl _ l r.H.!.VXAX;.T OXx.].@X-.0 1 R d.d.d.s.s.s.! 9 ! +X]. Xg.@.CXCXAXAXCX9XE.5X:XyXMXxXuX5X",
"3X;XE.:X8XnXCXAXCXCXAX_.l Z v k $.).s ] s _ S.CXAXnXCX#.U .Xx.0 - q 0 r 9 0 P I 0 < 1 ~ d.{.c.+X&.*XnXmXAXCXCXpXE.5X8XdXCXAX;XD.",
"0.R.AXgXCXAXCXCXAXAXAXrXg Z x v g 8 O d * kXMXfXAXnXnXAX$.r T %.w %.eXiXlXC.[ - R ! s.p.g.{.b.].-.AXnXfXAXCXCXnXgXBXAXCXMXAXH.` ",
"BXAXAXAXCXAXAXAXCXAXCXqXN V v b d i i o e AXCXmXNXyX9XyXsX*XzXCXeXDXCXfXVXSX=XI d.p.u.i.v.c.XXa.$XCXBXbXVXAXVXAXAXAXAXVXCXAXNXBX",
"AXnXmXVXMXCXCXMXCXBXyX~. .m Z x d i a p ;.AXBXCXmX2X4XG.P.hXBXiXnXAXAXNXyXCXC.P s.i.p.i.[.c.].-.5X5XiXmXfXBXmXAXCXCXCXCXCXbXmXAX",
"AXK.8.BXfXpXfXpXmX9.' H.6., 3.x i i s * %XgXiXiXbX>XS.G.D.H.U.P.R.yXfXgXtX9Xe.P d.i.u.j.].].j.P | F.Y.W.2XB.9.mXtXiXpXiXBX8.A.AX",
"CXgX2XAXCXCXCXAXAXnXuXL.t 1 3.j i O f.h.-.eXCXAXAXuXyXY.P.Y.5XR.I.~.yXCX7XjX .Q s.i.p.v.].+X! $ L - r.dXAXgXfX5X:X:X0XnXAX2XiXAX",
"CXmXtXAXCXAXCXMXMXCXCX#.&.&.e , o [ +X{.l.+.FXAXxX7XCX;XP.I.5XP.W.gXAXfX5XL.e ) p.i.a. X].c.R # $ L @ Q :.,X0X:X:X5X5X5XCXyXnXAX",
"CXBX4XCXgXuX8X5XgXAXpXt c.+X Xz.; =.N.v.{.h.+.eXmXiXAXpXY.F.!.;XfXAXbXnXL.U ) p.i.i.v.].c.x.j.v.y & $ S F 2 | R.6XE.:X~.yX7XBXAX",
"AXfXL.R.5X~.5X5X0XVXuX@.I *.=.W - |.XX! |.+Xf.@.DXpXBXnX5XR.R.mXnXbXCX*X! p.s.u.u.j.oXN..Xv.[.].OXU $ % J K S 1 q.0X:X~.4XtXVXCX",
"mXgXP.E.R.5X5X5X5XnX>XSXt q I 9 # @X*.t OXx.XX=.-.nXnXCX9XBXnX7XeXAX$X4 Q ~ u.u.d.].f.o.U l 2 f.f.t & A H F J D %  .qXU.7XbXBXMX",
"bXaXK.E.W.R.5X5X8XiXnXe.! @XXX1Xy 7 * e .Xb.}.+X&.;.MXCXDXAXSXT.^.$X,.qXZ.o.X.*.=.o.O.w.Q./.(.W oX&.6 & J K D H J 2  .^.fXaXbXiX",
"CXmXP.H.W.P.G.I.E.;XuXe.9 M. Xv.4   j g h.x.l.x.XX} :.SXVXAXyXqXO.:.SXSXCXdX3X1X3XgXhXhXMXCXA.U oXXXM.r # D J D H K 2 >.jXwXBXAX",
"VXAX8XI.~.E.T.G.G.A.-XpX>.0 Y = o + b d 9 ^ v.{.b.N.W >.SXnX,X| #.PXLXKXKXAXhXCXSXSXJXJXKXKXxXr [.}.b.+X+.@ D H H J H 2 wXAXCXAX",
"CXAXpXI.!.;X~.5XT.W.nXAXFXt l.} . > Z k w XX{.].c.M.N.W @.,.w q KXKXKXLXPXVXBXLXKXLXKXLXLXLXLX{ &.+Xb.x.@X&.@ D H D K S [ SXmXAX",
"fXVXMXP.4XuXpX7XfXnXtXSX=XQ @X+XY m Z v > j. X].].].].+X=.=.r ZXPXKXLXLXSXC.KXLXLXLXLXLXLXLXPX*X! +Xb.c.x.OX=.5 D J H H 2 *XCXbX",
"MXiXgXbXgXAXiXNXAXmX3XAXFXT &.M.z.e Z b h &.XX].{.].].c.+XE e.AXZXSXJXUX$X$XUXLXLXLXLXLXLXLXPXZX} }.b.{.{.x.OX=.# H J J S @.MXNX",
"AXCXbXbXaXyXmXCXCXBXtXfXAXFX@.} 9 g 4.b j t +Xx.].].b.}.&.[ KXLXKXJXAXmX .jXSXCXAXAXSXSXSXJXKXJX[ v.XX].].].[.+X&.2 J H F 1 mXCX",
"AXAXVXNX;X4XmXBXCXAXfXfXnXAXAXuXw.> 5.b z 4 [.c.].c.}.].w zXPXKXLXKXLX*XO.CXKXKXKXKXSXSXSXSXVXCX[ &.+Xc.].]. Xc.OXQ S K K 2 =XAX",
"AXgX6XG.R.4XgXfXfXnXyXmXbXNXnX5X5XN V 2.v f *.XX].x.OXW ;.LXLXLXLXKXUXw.Z.PXKXLXLXLXLXLXPXPXLXKX>.r +Xc.].].].].c.}.4 G K S :.AX",
"nX8XL.W.5XW.4XCXnXmXtX7XbX9XK.F.5X| l 3.b j I XXc.M.[.w DXPXKXLXLXLXKX,.&XPXLXKXLXLXLXLXLXLXLXLXeX9 v.N.].{.c.{.c.XXg.S K S t SX",
":XG.U.5X5X5XP.cXAXCXVXyXmX!.U.-XuX6.: 3.b z 1 s.c.OXW ;.KXKXLXPXLXPXKXk.bXPXLXLXPXPXLXLXLXLXLXLXAX[ E +Xx.{.].].c.x.OXQ D D 9 iX",
"` 9.8X5X:X:X:X>XCXCXVXmX9X0XmXAXAXDXe ..2.n > ~ j.z.w fXMXnXVXSXSXSXCXC.DXKXKXKXKXKXLXLXLXLXLXLXSX&X9 {.}.c.].].b.c.N.a.S K * 7.",
"R.P.Y.5X:X5X:XpXmXAXAXVXiXAXAXAXBXSX@.l 4.Z d Q d.0 ;.JXKXLXLXKXSXCXhXkXhXMXMXMXBXCXAXAXSXKXJXKXSXhX#.W OXc..X]. X XM.M.P H 5 %X",
"5XG.S.F.P.I.T.8XwXuXpXuX>XtXuXuX0XpXq.g 3.b z 3 y.4 L.vXZXvXZXZXZXZX0X^.dXcXvXcXcXcXiXyX6X3X6X9X^.^.!.3 m.k.m.k.k.k.m.Z.N F 1 e."
};
