/* XPM */
static char *euler[] = {
/* columns rows colors chars-per-pixel */
"62 64 163 2",
"   c #000000",
".  c #010000",
"X  c #000100",
"o  c #000200",
"O  c #000300",
"+  c #020302",
"@  c #050000",
"#  c #050100",
"$  c #040200",
"%  c #000400",
"&  c #000500",
"*  c #000600",
"=  c #000700",
"-  c #000800",
";  c #000900",
":  c #000A00",
">  c #000B00",
",  c #050800",
"<  c #000C00",
"1  c #000D00",
"2  c #000E00",
"3  c #000F00",
"4  c #060B06",
"5  c #060C06",
"6  c #060D06",
"7  c #110000",
"8  c #110100",
"9  c #190000",
"0  c #001000",
"q  c #001100",
"w  c #001200",
"e  c #001300",
"r  c #031300",
"t  c #051100",
"y  c #001400",
"u  c #001500",
"i  c #001600",
"p  c #001700",
"a  c #0D1000",
"s  c #0D1500",
"d  c #001800",
"f  c #001900",
"g  c #021900",
"h  c #001A00",
"j  c #001B00",
"k  c #001C00",
"l  c #001D00",
"z  c #001E00",
"x  c #001F00",
"c  c #091800",
"v  c #151700",
"b  c #181300",
"n  c #101D00",
"m  c #1D1D00",
"M  c #260100",
"N  c #2D0200",
"B  c #230F00",
"V  c #320900",
"C  c #330B00",
"Z  c #291100",
"A  c #2D1600",
"S  c #311600",
"D  c #311B00",
"F  c #002000",
"G  c #002100",
"H  c #002200",
"J  c #002300",
"K  c #032300",
"L  c #002400",
"P  c #002500",
"I  c #002600",
"U  c #012600",
"Y  c #002700",
"T  c #082400",
"R  c #002800",
"E  c #002900",
"W  c #002A00",
"Q  c #002B00",
"!  c #062800",
"~  c #002C00",
"^  c #002D00",
"/  c #002E00",
"(  c #012E00",
")  c #002F00",
"_  c #092F00",
"`  c #1F2000",
"'  c #003000",
"]  c #003100",
"[  c #003200",
"{  c #003300",
"}  c #003400",
"|  c #003500",
" . c #003600",
".. c #003700",
"X. c #093100",
"o. c #093200",
"O. c #003800",
"+. c #003900",
"@. c #003A00",
"#. c #003B00",
"$. c #003C00",
"%. c #003D00",
"&. c #003E00",
"*. c #003F00",
"=. c #093800",
"-. c #093900",
";. c #162B16",
":. c #1F3F1F",
">. c #232600",
",. c #312100",
"<. c #312500",
"1. c #312600",
"2. c #233100",
"3. c #263B00",
"4. c #313000",
"5. c #313300",
"6. c #400400",
"7. c #430600",
"8. c #4A0100",
"9. c #530000",
"0. c #5B0000",
"q. c #5D0000",
"w. c #660000",
"e. c #680000",
"r. c #6A0000",
"t. c #004000",
"y. c #004100",
"u. c #004200",
"i. c #004300",
"p. c #004400",
"a. c #004500",
"s. c #004600",
"d. c #004700",
"f. c #004800",
"g. c #004900",
"h. c #004A00",
"j. c #004B00",
"k. c #004D00",
"l. c #004E00",
"z. c #004F00",
"x. c #005000",
"c. c #005100",
"v. c #025000",
"b. c #005300",
"n. c #005400",
"m. c #005500",
"M. c #005600",
"N. c #095600",
"B. c #005800",
"V. c #015800",
"C. c #005900",
"Z. c #005A00",
"A. c #005B00",
"S. c #005C00",
"D. c #005D00",
"F. c #005F00",
"G. c #006000",
"H. c #006100",
"J. c #006200",
"K. c #006500",
"L. c #006600",
"P. c #006800",
"I. c None",
/* pixels */
"I.I.I.I.I.I.I.I.I.I.I.I.I.I.I.I.I.I.I.I.I.I.e.e.w.w.w.w.r.e.r.I.r.e.I.I.I.I.I.I.I.I.I.I.I.I.I.I.I.I.I.I.I.I.I.I.I.I.I.I.I.I.",
"I.I.I.I.I.I.I.I.I.I.I.I.I.I.I.I.I.I.I.I.I.I.I.I.I.I.I.I.I.I.I.I.I.I.I.I.I.I.I.I.I.I.I.I.I.I.I.I.I.I.I.I.I.I.I.I.w.w.w.w.w.w.",
"w.w.w.w.w.w.w.w.w.I.I.I.I.I.I.I.I.I.I.I.I.I.I.I.I.I.I.I.I.I.q q I.I.I.I.I.I.I.I.I.I.I.I.I.I.I.I.I.I.I.I.I.I.I.I.I.w.I.I.I.w.",
"w.I.I.I.I.I.I.I.I.I.I.I.I.I.I.I.I.I.I.I.I.I.I.I.w.w.I.I.I.I.Z 6 9 I.I.I.I.I.I.I.I.I.I.I.I.I.I.I.I.I.I.I.I.I.I.I.I.I.I.I.I.w.",
"w.I.I.I.I.I.I.I.I.I.I.I.I.I.I.I.I.I.I.I.I.I.I.I.w.I.I.I.I.I.m 7.q.I.I.I.I.I.I.I.I.I.I.I.I.I.I.I.I.I.I.I.I.I.I.I.I.I.I.I.I.I.",
"I.I.I.I.I.I.I.I.I.I.I.I.I.I.I.I.I.I.I.I.I.I.I.I.I.I.I.I.I.I.q I.I.I.I.I.I.I.I.I.I.I.I.I.I.I.I.I.I.w.I.I.I.I.I.I.I.I.I.I.I.I.",
"I.I.I.I.I.I.I.I.I.I.I.I.I.I.I.I.I.I.I.I.I.I.I.I.I.I.I.I.I.+ + I.I.I.I.I.I.I.I.I.I.I.I.I.I.I.I.I.I.I.I.I.I.I.I.I.I.I.I.I.I.I.",
"I.I.I.I.I.I.I.I.I.I.I.I.I.I.I.I.I.I.I.I.I.I.I.I.I.I.I.I.4 4 + I.I.I.I.I.I.I.I.I.I.I.I.I.I.I.I.I.I.I.I.I.I.I.I.I.I.I.I.I.I.I.",
"I.I.I.I.I.I.I.I.I.I.I.I.I.I.I.I.I.I.I.I.I.I.I.I.I.I.I.+ 6 ;.  I.I.I.I.I.I.I.I.I.I.I.I.I.I.I.I.I.I.I.I.I.I.I.I.I.I.I.I.I.I.I.",
"I.I.I.I.I.I.I.I.I.I.I.I.I.I.I.I.I.I.I.I.I.I.I.I.I.I.+ 4       I.I.I.I.I.I.I.I.I.I.I.I.I.I.I.I.I.I.I.I.I.I.I.I.I.I.I.I.I.I.I.",
"I.I.I.I.I.I.I.I.I.I.I.I.I.I.I.I.I.I.I.I.I.I.I.I.I.I.I.7       I.I.I.I.I.I.I.I.I.I.I.I.I.I.I.I.I.I.I.I.I.I.I.I.I.I.I.I.I.I.I.",
"I.I.I.I.I.I.I.I.I.I.I.I.I.I.I.I.I.I.I.I.I.I.I.I.I.I.I.I.t.6   I.I.I.I.I.I.I.I.I.I.I.I.I.I.I.I.I.I.I.I.I.I.I.I.I.I.I.I.I.I.I.",
"I.I.I.I.I.I.I.I.I.I.I.I.I.I.I.I.I.I.I.I.I.I.I.I.I.I.I.I.I.I.    + I.I.I.I.I.I.I.I.I.I.I.I.I.I.I.I.I.I.I.I.I.I.I.I.I.I.I.I.I.",
"I.I.I.I.I.I.I.I.I.I.I.I.I.I.I.I.I.I.I.I.I.I.I.I.I.I.I.I.I.I.    % 3   I.I.I.I.I.I.I.I.I.I.I.I.I.I.I.I.I.I.I.I.I.I.I.I.I.I.I.",
"I.I.I.I.I.I.I.I.I.I.I.I.I.I.I.I.I.I.I.I.I.I.I.I.I.I.I.I.I.I.  ; { y J ; I.I.I.I.I.I.I.I.I.I.I.I.I.I.I.I.I.I.I.I.I.I.I.I.I.I.",
"I.I.I.I.I.I.I.I.I.I.I.I.I.I.I.I.I.I.I.I.I.I.I.I.I.I.I.I.I.I.  ; d % x y % x I.I.I.I.I.I.I.I.I.I.I.I.I.I.I.I.I.I.I.I.I.I.I.I.",
"I.I.I.I.I.I.I.I.I.I.I.I.I.I.I.I.I.I.I.I.I.I.I.I.I.I.I.I.I.I.  d 3 w   d 3 d % I.I.I.I.I.I.I.I.I.I.I.I.I.I.I.I.I.I.I.I.I.I.I.",
"I.I.I.I.I.I.I.I.I.I.I.I.I.I.I.I.I.I.I.I.I.I.I.I.I.I.I.I.I.I.x d 3 w w y y ; x I.I.I.I.I.I.I.I.I.I.I.I.I.I.I.I.I.I.I.I.I.I.I.",
"I.I.I.I.I.I.I.I.I.I.I.I.I.I.I.I.I.I.I.I.I.I.I.I.I.I.I.I.I.I.y y x ; E 3 w y y I.I.I.I.I.I.I.I.I.I.I.I.I.I.I.I.I.I.I.I.I.I.I.",
"I.I.I.I.I.I.I.I.I.I.I.I.I.I.I.I.I.I.I.I.I.I.I.I.I.I.I.I.I.I.w d +.; % 3 / 3 d I.I.I.I.I.I.I.I.I.I.I.I.I.I.I.I.I.I.I.I.I.I.I.",
"I.I.I.I.I.I.I.I.I.I.I.I.I.I.I.I.I.I.I.I.I.I.I.I.I.I.I.I.I.I./ / { d y J J P I.I.I.I.I.I.I.I.I.I.I.I.I.I.I.I.I.I.I.I.I.w.I.I.",
"I.I.I.I.I.I.I.I.I.I.I.I.I.I.I.I.I.I.I.I.I.I.I.I.I.I.I.I.I.I.j./ / 3   3 w I.I.I.I.I.I.I.I.I.I.I.I.I.I.I.I.I.I.I.I.I.I.I.I.I.",
"I.I.w.I.I.I.I.I.I.I.I.I.I.I.I.I.I.I.I.I.I.I.I.I.I.I.I.I.I.I.y { d   3 J I.I.I.I.I.I.I.I.I.I.I.I.I.I.I.I.I.I.I.I.I.I.I.I.I.I.",
"I.I.I.I.I.I.I.I.I.I.I.I.I.I.I.I.I.I.I.I.I.I.I.I.I.9.I.y J   y J x J I.I.I.I.I.I.I.I.I.I.I.I.I.I.I.I.I.I.I.I.I.I.I.I.I.I.I.I.",
"I.I.I.I.I.I.I.I.I.I.I.I.I.I.I.I.I.I.I.            @ P w %         I.I.I.I.I.I.I.I.I.I.I.I.I.I.I.I.I.I.I.I.I.I.I.I.I.I.I.I.I.",
"I.I.I.I.I.I.I.I.I.I.I.I.I.I.I.I.I.I.I.          @ 8 3           % d   y I.I.I.I.I.I.I.I.I.I.I.I.I.I.I.I.I.I.I.I.I.I.I.I.I.I.",
"I.I.I.I.I.I.I.I.I.I.I.I.I.I.I.I.I.I.I.I.I.I.I.I.I.I.I.I.      % ; ; +./ w d d I.I.I.I.I.I.I.I.I.I.I.I.I.I.I.I.I.I.I.I.I.I.I.",
"I.I.I.I.I.I.I.I.I.I.I.I.I.I.I.I.I.I.I.I.I.I.I.I.I.I.I.I.I.I.  x x / P J / P J / P I.I.I.I.I.I.w.I.I.I.I.I.I.I.I.I.I.I.I.I.I.",
"I.I.I.I.I.I.I.I.I.I.I.I.I.I.I.I.I.I.I.I.I.I.I.I.I.I.I.I.I.I.  d J { w E d x P J ..$.E I.I.I.I.w.I.I.I.I.I.I.I.I.I.I.I.I.I.I.",
"I.I.I.I.I.I.I.I.I.I.I.I.I.I.I.I.I.I.I.I.I.I.I.I.I.I.I.I.I.I.3 w d P E x ....x { J P j.E I.I.I.w.I.I.I.I.I.I.I.I.I.I.I.I.I.I.",
"I.I.I.I.I.I.I.I.I.I.I.I.I.I.I.I.I.I.I.I.I.I.I.I.I.I.I.I.I.I.y x J E { P ....J d P d J / P I.I.w.I.I.I.I.I.I.I.I.I.I.I.I.I.I.",
"I.I.I.I.I.I.I.I.I.I.I.I.I.I.I.I.I.I.I.I.I.I.I.I.I.I.I.I.I.I.w x / E P J E / $.{ ..j.$...x.d I.w.I.I.I.I.I.I.I.I.I.I.I.I.I.I.",
"I.I.I.I.I.I.I.I.I.I.I.I.I.I.I.I.I.I.I.I.I.I.I.I.I.I.I.I.I.I.w P P E J / P { J x x { J E u.{ I.I.I.I.I.I.I.I.I.I.I.I.I.I.I.I.",
"I.I.I.I.I.I.I.I.I.I.I.I.I.I.I.I.I.I.I.I.I.I.I.I.I.I.I.I.I.I.; x J J P { / s./ $.P { ../ x P , I.I.I.I.I.I.I.I.I.I.I.I.I.I.I.",
"I.I.I.I.I.I.I.I.I.I.I.I.I.I.I.I.I.I.I.I.I.I.I.d @ 8       3 x x P +.P d / +...{ E k.$.A...M.v I.I.I.I.I.I.I.I.I.I.I.I.I.I.I.",
"I.I.I.I.I.I.I.I.I.I.I.I.I.I.I.I.I.3 w E w   3 E d         w j.s.P { E / k.E P / J E J $.$.j.V I.I.I.I.I.I.I.I.I.I.I.I.I.I.I.",
"I.I.I.I.I.I.I.I.I.I.I.I.I.I.I.P { / E x E 3     x / x d E d +.E { ..s./ / u.s.s.s...k.P ] K I.I.I.I.I.I.I.I.I.I.I.I.I.I.I.I.",
"I.I.I.I.I.I.I.I.I.I.I.I.I.I.E { { { / x y / / d   y w 3 y w E x d ..$...{ E / $.$.j...x.h.I.I.I.I.I.I.I.I.I.I.I.I.I.I.I.I.I.",
"I.I.I.I.I.I.I.I.I.I.I.I.I.x J J x +./ $.t b y d       { $.x J P E / u.+...E P P ..u.J.x.K I.I.I.I.I.I.I.I.I.I.I.I.I.I.I.I.I.",
"I.I.I.I.I.I.I.I.I.I.I.I.y k.{ s./ P J x P r d P       J P w w ..$.d P J J { $.$.+...u...{ P C I.I.I.I.I.I.I.I.I.I.I.I.I.I.I.",
"I.I.I.I.I.I.I.I.I.I.I.I.x $.J { x d / 3 { / E y E d J w E { P w { { x / u.$.+.u.+.J P u.M.+.2.C I.I.I.I.I.I.I.I.I.I.I.I.I.I.",
"I.I.I.I.I.I.I.I.I.I.I.I.P / $.{ k.$...d w x s.u.+.u.M.P x   d $.j.S.P / { ....P / k.u.s.s.A.>.>.n 8.I.I.I.I.I.I.I.I.I.I.I.I.",
"I.I.I.I.I.I.I.I.I.I.I.I.I.I...u.J E / { +.+.E J J J x x d d x E E P E x / P j.$.j.s.M...u.x.3.v P d I.I.I.I.w.I.I.I.I.I.I.I.",
"I.I.I.I.I.I.I.I.I.I.I.I.I.I.I.I.x E 3 P s.E x x.x.{ E / d E E / ../ $.k.$...x...J J E / E =.4.M...A.x I.I.I.I.I.w.I.I.I.I.I.",
"I.I.I.I.I.I.I.I.I.I.I.I.I.I.I.I.I.I.I.I.w   % y w y d d 3 w w P P +.P +.x E x x.{ j...M.+.N.<.A.u.x.u.I.I.I.I.I.I.I.I.I.I.I.",
"I.I.I.I.I.I.I.I.I.I.I.I.I.I.I.I.I.I.I.I.I.I.I.I.I.I.I.I.I.I.% E x E d u...k.+.S.k.u.k.u.k.=.D s.A.+.A.{ I.I.I.I.I.I.I.I.I.I.",
"I.I.I.I.I.I.I.I.I.I.I.I.I.I.I.I.I.I.I.I.I.I.I.I.I.I.I.I.I.I.E s.J ../ +...x J P / x { d / c S J x./ s.+.I.I.I.I.I.I.I.I.I.I.",
"I.I.I.I.I.I.I.I.I.I.I.I.I.I.I.I.I.I.I.I.I.I.I.I.I.I.I.I.I.I.I.I.I.x x +.+.u.u.j.k.+.S.{ S._ ,...E ..J $.d I.I.I.I.I.I.I.I.I.",
"I.I.I.I.I.w.I.I.I.I.I.I.I.I.I.I.I.I.I.I.I.I.I.I.I.I.I.I.I.I.I.I.I.I.I.I.P ..P s...M.A.$.P.o.<.k.s.J...P./ I.I.I.I.I.I.I.I.I.",
"I.I.I.I.I.e.w.I.I.I.I.I.I.I.I.I.I.I.I.I.I.I.I.I.I.I.I.I.I.I.I.I.I.I.I.I.I.I.s.$.3 x E $.A.o.4.u.k.x.$.L.! 0.I.I.I.I.I.I.I.I.",
"I.I.I.I.I.I.I.I.I.I.I.I.I.I.I.I.I.I.I.I.I.I.I.I.I.I.I.I.I.I.I.I.I.I.I.I.I.I.I.I.I.I.I.I.x T 4...L.+.A.M.B I.I.I.I.I.I.I.I.I.",
"I.I.I.I.I.I.I.I.I.I.I.I.I.I.I.I.I.I.I.I.I.I.I.I.I.I.I.I.I.I.I.I.I.I.I.I.I.I.I.I.I.I.I.I.I.N A d +./ j.j.M I.I.I.I.I.I.I.I.I.",
"I.I.I.I.I.I.I.I.I.I.I.I.I.I.I.I.I.I.I.I.I.I.I.I.I.I.I.I.I.I.I.I.I.I.I.I.I.I.I.I.I.I.I.I.I.I.I.I.I.; w K I.I.I.I.I.I.I.I.I.I.",
"I.I.I.I.I.I.I.I.I.I.I.I.I.I.I.I.I.I.I.I.I.I.I.I.I.I.I.I.I.I.I.I.I.I.I.I.I.I.I.I.I.I.I.I.I.I.I.I.I.I.I.I.I.I.I.I.I.I.I.I.I.I.",
"I.I.I.I.I.I.I.I.I.I.I.I.I.I.I.I.I.I.I.I.I.I.I.I.I.I.I.I.I.I.I.I.I.I.I.I.I.I.I.I.I.I.I.I.I.I.I.I.I.I.I.I.I.I.I.I.I.I.I.I.I.I.",
"I.I.I.I.I.I.I.I.I.I.I.I.I.I.I.I.I.I.I.I.I.I.I.I.I.I.I.I.I.I.I.I.I.I.I.I.I.I.I.I.I.I.I.I.I.I.I.I.I.I.I.I.I.I.I.I.I.I.I.I.I.I.",
"I.I.I.I.I.I.I.I.I.I.I.I.I.I.I.I.I.I.I.I.I.I.I.I.I.I.I.I.I.I.I.I.I.I.I.I.I.I.I.I.I.I.I.I.I.I.I.I.I.I.I.I.I.I.I.I.I.I.I.I.I.I.",
"I.I.I.I.I.I.I.I.I.I.I.I.I.I.I.I.I.I.I.I.I.I.I.I.I.I.I.I.I.I.I.I.I.I.I.I.I.I.I.I.I.I.I.I.I.I.I.I.I.I.I.I.I.I.I.I.I.I.I.I.I.I.",
"I.I.I.I.I.I.I.I.I.I.I.I.I.I.I.I.I.I.I.I.I.I.I.I.I.I.I.I.I.w.I.I.I.I.I.I.I.I.I.I.I.I.I.I.I.I.I.I.I.I.I.I.I.I.I.I.I.I.I.I.I.I.",
"I.I.I.I.I.I.I.I.I.I.I.I.I.I.I.I.I.I.I.I.I.I.I.I.I.I.I.I.I.I.I.I.I.I.I.I.I.I.I.I.I.I.I.I.I.I.I.I.I.I.I.I.I.I.I.I.I.I.I.I.I.I.",
"I.I.I.I.I.I.I.I.I.I.I.I.I.I.I.I.I.I.I.I.I.I.I.I.I.I.I.I.I.I.I.I.I.I.I.I.I.I.I.I.I.I.I.I.I.I.I.I.I.I.I.I.I.I.I.I.I.I.I.I.I.I.",
"I.I.I.I.I.I.I.I.I.I.I.I.I.I.I.I.I.I.I.I.I.I.I.I.I.I.I.I.I.I.I.I.I.I.I.I.I.w.I.I.I.I.I.I.I.I.I.I.I.I.I.I.I.I.I.I.I.I.I.I.I.I.",
"I.I.I.I.I.I.I.I.I.I.I.I.I.I.I.I.I.I.I.I.I.I.I.I.I.I.I.I.I.I.I.I.I.I.I.I.I.I.I.I.w.I.I.I.I.w.I.I.I.I.I.I.I.I.I.I.I.I.I.I.I.I.",
"I.I.I.I.I.I.I.I.I.I.I.I.I.I.I.I.I.I.I.I.I.I.I.I.I.I.I.I.I.I.I.I.I.I.I.I.I.I.I.I.I.I.I.w.I.w.I.I.I.I.I.I.I.I.I.I.I.I.I.I.I.I."
};
