/* XPM */
static char *evolver[] = {
/* columns rows colors chars-per-pixel */
"64 64 171 2",
"   c #5E5E5E",
".  c #5F5F5F",
"X  c #606060",
"o  c #616161",
"O  c #626262",
"+  c #636363",
"@  c #646464",
"#  c #656565",
"$  c #666666",
"%  c #686868",
"&  c #696969",
"*  c #6A6A6A",
"=  c #6B6B6B",
"-  c #6D6D6D",
";  c #6D6E6D",
":  c #6E6E6E",
">  c #6F6F6F",
",  c #707070",
"<  c #717171",
"1  c #727172",
"2  c #727272",
"3  c #737373",
"4  c #747474",
"5  c #757575",
"6  c #767676",
"7  c #777777",
"8  c #787878",
"9  c #797979",
"0  c #7A7A7A",
"q  c #7B7B7B",
"w  c #7C7C7C",
"e  c #7D7D7D",
"r  c #7E7E7E",
"t  c #7F7F7F",
"y  c #808080",
"u  c #818181",
"i  c #828282",
"p  c #838383",
"a  c #848484",
"s  c #858585",
"d  c #868686",
"f  c #878787",
"g  c #888888",
"h  c #898989",
"j  c #8A8A8A",
"k  c #8B8B8B",
"l  c #8C8C8C",
"z  c #8D8D8D",
"x  c #8E8E8E",
"c  c #8F8F8F",
"v  c #909090",
"b  c #919191",
"n  c #929292",
"m  c #939393",
"M  c #949494",
"N  c #949594",
"B  c #959595",
"V  c #969696",
"C  c #979797",
"Z  c #989898",
"A  c #999999",
"S  c #9A9A9A",
"D  c #9B9B9B",
"F  c #9C9C9C",
"G  c #9C9C9D",
"H  c #9D9D9D",
"J  c #9E9E9E",
"K  c #9F9F9F",
"L  c #A0A0A0",
"P  c #A1A1A1",
"I  c #A2A2A2",
"U  c #A3A3A3",
"Y  c #A4A4A4",
"T  c #A5A5A5",
"R  c #A6A6A5",
"E  c #A6A6A6",
"W  c #A7A7A7",
"Q  c #A8A8A8",
"!  c #A9A8A9",
"~  c #A9A9A9",
"^  c #AAAAAA",
"/  c #ABABAB",
"(  c #ABABAC",
")  c #ACACAC",
"_  c #ADADAD",
"`  c #AEAEAE",
"'  c #AFAFAF",
"]  c #AFB0AF",
"[  c #B0B0B0",
"{  c #B1B1B1",
"}  c #B2B2B2",
"|  c #B2B2B3",
" . c #B3B3B3",
".. c #B4B4B4",
"X. c #B5B5B5",
"o. c #B6B6B6",
"O. c #B7B6B6",
"+. c #B7B7B7",
"@. c #B8B8B8",
"#. c #B9B9B9",
"$. c #B9B9BA",
"%. c #BABABA",
"&. c #BBBBBB",
"*. c #BCBCBC",
"=. c #BDBDBD",
"-. c #BEBEBE",
";. c #BFBEBF",
":. c #BFBFBF",
">. c #BFC0BF",
",. c #C0C0C0",
"<. c #C0C1C1",
"1. c #C1C1C1",
"2. c #C2C2C2",
"3. c #C3C3C3",
"4. c #C4C4C4",
"5. c #C4C4C5",
"6. c #C5C5C5",
"7. c #C6C6C6",
"8. c #C7C7C7",
"9. c #C8C8C8",
"0. c #C9C9C9",
"q. c #CACACA",
"w. c #CBCBCB",
"e. c #CCCCCC",
"r. c #CDCDCD",
"t. c #CECECE",
"y. c #CFCFCF",
"u. c #D0D0D0",
"i. c #D1D1D1",
"p. c #D2D2D2",
"a. c #D3D3D3",
"s. c #D4D4D4",
"d. c #D5D5D5",
"f. c #D6D6D6",
"g. c #D7D7D7",
"h. c #D9D9D9",
"j. c #DADADA",
"k. c #DCDCDC",
"l. c #DDDDDD",
"z. c #DEDEDE",
"x. c #DFDFDF",
"c. c #E0E0E0",
"v. c #E1E1E1",
"b. c #E2E2E2",
"n. c #E3E3E3",
"m. c #E4E4E4",
"M. c #E6E6E6",
"N. c #E7E7E7",
"B. c #E8E8E8",
"V. c #E9E9E9",
"C. c #EAEAEA",
"Z. c #EBEBEB",
"A. c #ECECEC",
"S. c #EDEDED",
"D. c #EEEEEE",
"F. c #EFEFEF",
"G. c #F0F0F0",
"H. c #F1F1F1",
"J. c #F4F4F4",
"K. c #F5F5F5",
"L. c #F6F6F6",
"P. c #F7F7F7",
"I. c #F7F7F8",
"U. c #F8F8F8",
"Y. c #F9F9F9",
"T. c #FAFAFA",
"R. c #FBFBFB",
"E. c #FCFCFC",
"W. c #FDFDFD",
"Q. c #FEFEFE",
"!. c #FFFFFF",
/* pixels */
"!.!.!.!.!.!.!.!.!.!.!.!.!.!.!.!.!.!.!.!.!.!.!.!.!.!.!.!.!.!.!.!.!.!.!.!.!.!.!.!.!.!.!.!.!.!.!.!.!.!.!.!.!.!.!.!.!.!.!.!.!.!.!.!.",
"!.!.!.!.!.!.!.!.!.!.!.!.!.!.!.!.!.!.!.!.!.!.!.!.!.!.!.!.!.!.!.!.!.!.!.!.!.!.!.!.!.!.!.!.!.!.!.!.!.!.!.!.!.!.!.!.!.!.!.!.!.!.!.!.",
"!.!.!.!.!.!.!.!.!.!.!.!.!.!.!.!.!.!.!.!.!.!.!.!.!.!.!.!.!.!.!.!.!.!.!.!.!.!.!.!.!.!.!.!.!.!.!.!.!.!.!.!.!.!.!.!.!.!.!.!.!.!.!.!.",
"!.!.!.!.!.!.!.!.!.!.!.!.!.!.!.!.!.!.!.!.!.!.!.!.!.!.!.!.!.!.!.!.!.!.!.!.!.!.!.!.!.!.!.!.!.!.!.!.!.!.!.!.!.!.!.!.!.!.!.!.!.!.!.!.",
"!.!.!.!.!.!.!.!.!.!.!.!.!.!.!.!.!.!.!.!.!.!.!.!.!.!.!.!.!.!.!.!.!.!.!.!.!.!.!.!.!.!.!.!.!.!.!.!.!.!.!.!.!.!.!.!.!.!.!.!.!.!.!.!.",
"!.!.!.!.!.!.!.!.!.!.!.!.!.!.!.!.!.!.!.!.!.!.!.!.!.!.!.!.!.!.!.!.!.!.!.!.!.!.!.!.!.!.!.!.!.!.!.!.!.!.!.!.!.!.!.!.!.!.!.!.!.!.!.!.",
"!.!.!.!.!.!.!.!.!.!.!.!.!.!.!.!.!.!.!.!.!.!.!.!.!.!.!.!.!.!.!.!.!.!.!.!.!.!.!.!.!.!.!.!.!.!.!.!.!.!.!.!.!.!.!.!.!.!.!.!.!.!.!.!.",
"!.!.!.!.!.!.!.!.!.!.!.!.!.!.!.!.!.!.!.!.!.!.!.!.!.!.!.!.!.!.!.!.!.!.!.!.!.!.!.!.!.!.!.!.!.!.!.!.!.!.!.!.!.!.!.!.!.!.!.!.!.!.!.!.",
"!.!.!.!.!.!.!.!.!.!.!.!.!.!.!.!.!.!.!.!.!.!.!.!.!.!.!.!.!.!.!.!.!.!.!.!.!.!.!.!.!.!.!.!.!.!.!.!.!.!.!.!.!.!.!.!.!.!.!.!.!.!.!.!.",
"!.!.!.!.!.!.!.!.!.!.!.!.!.!.!.!.!.!.!.!.!.!.!.!.!.!.!.!.!.!.!.!.!.!.!.!.!.!.!.!.!.!.!.!.!.!.!.!.!.!.!.!.!.!.!.!.!.!.!.!.!.!.!.!.",
"!.!.!.!.!.!.!.!.!.!.!.!.!.!.!.!.!.!.!.!.!.!.!.!.!.!.!.!.!.!.!.!.!.!.!.!.!.!.!.!.!.!.!.!.!.!.!.!.!.!.!.!.!.!.!.!.!.!.!.!.!.!.!.!.",
"!.!.!.!.!.!.!.!.!.!.!.!.!.!.!.!.!.!.!.!.R.K.G.S.N.x.x.j.f.s.s.p.p.f.p.f.j.x.b.N.S.G.K.R.!.!.!.!.!.!.!.!.!.!.!.!.!.!.!.!.!.!.!.!.",
"!.!.!.!.!.!.!.!.!.!.!.!.!.R.G.b.p.3.#.[ / W T T T T / / ) ) [ ( ) [ ) ) / / T T / T W ) [ *.8.p.b.G.R.!.!.!.!.!.!.!.!.!.!.!.!.!.",
"!.!.!.!.!.!.!.!.!.R.N.r.#./ T / ) O.#.>.2.8.8.8.8.8.8.8.2.8.8.8.8.8.2.8.8.8.8.8.8.8.8.2.*.*.O.) / T / #.r.N.R.!.!.!.!.!.!.!.!.!.",
"!.!.!.!.!.!.!.C.2.) / [ #.2.8.9.9.8.8.8.3.2.2.2.2.2.2.*.2.2.2.2.>.2.2.2.*.2.2.8.2.2.4.2.8.8.8.8.9.8.2.*.[ W / 2.C.!.!.!.!.!.!.!.",
"!.!.!.!.!.K.#.T O.8.r.9.9.8.8.8.3.2.2.2.2.2.>.2.>.2.2.*.2.*.>.*.*.*.*.2.*.2.2.*.*.2.2.2.2.2.8.2.8.8.8.9.9.9.8.O.T #.K.!.!.!.!.!.",
"!.!.!.!.R.[ @.r.r.9.9.8.8.8.8.2.2.2.2.2.*.*.*.*.*.*.*.*.*.*.#.*.*.#.#.#.*.*.*.*.*.*.*.*.*.2.2.2.2.2.8.8.8.8.9.r.r.O.[ R.!.!.!.!.",
"!.!.!.!.N.W p.r.9.9.9.8.2.2.2.2.>.*.*.*.*.*.#.*.#.#.#.#.#.#.#.#.#.#.#.O.#.#.#.#.*.*.*.*.*.*.*.2.2.2.2.2.8.8.8.9.r.p.T N.!.!.!.!.",
"!.!.!.!.K./ #.r.9.8.8.2.2.2.*.*.*.*.#.#.#.#.#.#.#.+.O.O.O.O.O.+.O.O.O.O.O.O.@.O.#.O.O.#.#.*.#.*.*.*.*.2.2.8.8.9.r.#.( R.!.!.!.!.",
"!.!.!.!.!.S.b x  .8.2.2.*.*.*.*.#.#.#.O.O. .O.O.[ O.[ O.[ [ [ [ [ [ O.[ ..[ [ O...O.O.O.O.#.@.#.*.*.*.2.2.2.8.O.x b S.!.!.!.!.!.",
"!.!.!.!.!.!.x.7 @ 7 b / O.#.#.#.#.O.O.O.[ [ [ [ [ [ [ [ ] [ [ [ ) [ [ [ [ [ [ [ [ [ O.[ O.O.O.#.*.*.#.O.T b q @ 7 x.!.!.!.!.!.!.",
"!.!.!.!.!.!.!.*.7 - @ @ & 3 f b F T / ) [ [ [ [ ) ) ) ) ) ) ) ) ) ) ) ) ) ) ) [ ) [ [ [ ) / T D b u 7 & @ @ & 7 #.!.!.!.!.!.!.!.",
"!.!.!.!.!.!.!.S.x 7 7 3 3 & @ o o o @ - - q e u f g x x b b M M M M b b x x f f u e 7 - & @ o   o @ & - 7 7 7 b S.!.!.!.!.!.!.!.",
"!.!.!.!.!.!.!.!.2.q 7 7 7 3 3 3 3 - - & & @ o o o               X     o       o o @ @ & & = 3 , 3 7 7 3 7 q q *.!.!.!.!.!.!.!.!.",
"!.!.!.!.!.!.!.!.C.x e q q 7 7 3 3 3 3 - - - 3 - - - - - - - - - - - - - 3 - - - - - - - 3 3 3 3 7 3 7 7 q e x C.!.!.!.!.!.!.!.!.",
"!.!.!.!.!.!.!.!.!.) u e e q 7 7 7 3 3 7 3 3 3 3 3 3 - 3 3 - 3 - 3 3 - - , 3 3 3 3 3 7 3 3 3 3 7 7 q q e e u ) !.!.!.!.!.!.!.!.!.",
"!.!.!.!.!.!.!.!.!.p.f u e e e e q q 7 7 7 7 3 7 3 3 3 3 3 3 3 3 3 3 3 3 3 3 3 3 3 7 7 7 7 7 q q q q e u u g p.!.!.!.!.!.!.!.!.!.",
"!.!.!.!.!.!.!.!.!.C.M g f u u e q q q q q 7 7 7 7 7 7 7 3 7 3 7 3 7 3 7 3 7 7 7 7 7 7 q q q q e e e u f g M N.!.!.!.!.!.!.!.!.!.",
"!.!.!.!.!.!.!.!.!.K.T x g f f u u e e e e e e q q q q q 7 7 q 7 q 8 q q q q 8 q q e e e e e t u a a f g x U K.!.!.!.!.!.!.!.!.!.",
"!.!.!.!.!.!.!.!.!.!.[ b x g g g f p u u u u y e e q e e q e e e q q q e q e e e e u e u u u f f f g g x x O.!.!.!.!.!.!.!.!.!.!.",
"!.!.!.!.!.!.!.!.!.!.*.M b x x g g f f f u u u u u u u u e e u u e e y e u u u u u u f u f f g g g x x b b *.!.!.!.!.!.!.!.!.!.!.",
"!.!.!.!.!.!.!.!.!.!.2.M M b b x x g g g g f g f f u u p f u u u u p a u u u u f u f f f g g g x x b b M M 8.!.!.!.!.!.!.!.!.!.!.",
"!.!.!.!.!.!.!.!.!.!.9.F S M M b b x x x x g g g g f f f f f f f f f g f f g g g g g x x k x b b b b M S F 8.!.!.!.!.!.!.!.!.!.!.",
"!.!.!.!.!.!.!.!.!.!.8.F F S S M M b b b x x x x x x l l g l g g k g g g x g g x x x x x b b b b M S D F F 8.!.!.!.!.!.!.!.!.!.!.",
"!.!.!.!.!.!.!.!.!.!.2.T U F F S C M M M b b b b x c b c c x x x x c x b b b b b b b b M b M M S S D F U T 2.!.!.!.!.!.!.!.!.!.!.",
"!.!.!.!.!.!.!.!.!.K.#.T U U F D F S S S M M M M M M b M b b b b b b b m b b b M M M M M C S S F F F U T T #.R.!.!.!.!.!.!.!.!.!.",
"!.!.!.!.!.!.!.!.!.G.O./ / U U U K F D S S S S S M M S M M M M M M M M M M M S M S M S D S F F F U U T / / O.S.!.!.!.!.!.!.!.!.!.",
"!.!.!.!.!.!.!.!.!.b.O.) / / T T U U U L F F D S F S S S S S S S S S S S S S S F D S F F F U U U T T / ) ) [ b.!.!.!.!.!.!.!.!.!.",
"!.!.!.!.!.!.!.!.!.p.[ [ [ ) / / T U U U U F U F F D F F D F D S F F S F F F F F F U U U T T T T W / ) [ [ O.u.!.!.!.!.!.!.!.!.!.",
"!.!.!.!.!.!.!.!.K.2.#.O.[ ) ) ) / / T T T U U U U U U U U F U U F U U F U U U T U U U T T T / / ( ) ) [ O.#.2.K.!.!.!.!.!.!.!.!.",
"!.!.!.!.!.!.!.!.b.*.*.#.O.[ [ [ ) ) / / / / T T T T T T T T T U T U T T T T T T T T / / ) ) ) ) ) [ [ O.#.#.*.b.!.!.!.!.!.!.!.!.",
"!.!.!.!.!.!.!.I.r.*.*.#.O.O.[ [ [ ] ] ) / / / / / / / T / T T / T / W T W / / / / / / / ) [ [ [ ....O.#.#.*.*.r.R.!.!.!.!.!.!.!.",
"!.!.!.!.!.!.!.b.2.2.*.*.#.#.O.O.O.[ [ [ [ [ ) ) ) ) ) ) / ( / ) ) ) ) ( ) ) ) ) ] ) ) [ [ [ [ O.O.O.#.#.*.*.2.3.b.!.!.!.!.!.!.!.",
"!.!.!.!.!.!.K.r.8.8.2.*.*.&.#.#.O.O.O.....[ ..[ [ [ ] [ ) ] ) [ ) [ ) ] [ [ [ [ [ [ ..[ [ O.O.#.@.#.*.*.*.2.2.8.r.K.!.!.!.!.!.!.",
"!.!.!.!.!.R.k.9.8.8.2.>.>.*.*.#.#.#.#.O.O.O.O.[ O.[ ..[ O.[ [ [ O.[ [ [ O.[ O.[ O.O.O.O.O.O.#.#.#.&.*.2.*.3.8.8.9.x.R.!.!.!.!.!.",
"!.!.!.!.R.9.y.9.9.8.8.2.2.2.>.*.*.*.#.#.#.#.@.#.O.#.O.O.O.O.O.O.O.O.O.O.O.O.O.#.O.@.#.#.#.#.#.&.*.2.*.2.2.8.8.8.9.r.r.K.!.!.!.!.",
"!.!.!.!.C.[ p.r.9.9.8.4.2.2.2.2.*.2.*.*.*.#.#.#.#.#.#.#.O.O.#.O.O.#.@.#.#.#.#.#.#.*.*.*.*.*.*.2.2.2.3.8.8.8.9.9.r.p.] C.!.!.!.!.",
"!.!.!.!.R.[ O.r.r.9.8.8.8.8.2.2.2.2.2.>.>.2.*.*.*.*.&.*.*.&.*.*.&.*.#.*.*.*.*.*.*.*.*.>.2.2.2.2.2.2.3.8.9.9.9.r.r.O.O.R.!.!.!.!.",
"!.!.!.!.!.G.*.T O.8.9.r.9.8.8.2.8.2.2.2.*.2.2.2.*.2.*.2.*.2.*.*.*.*.2.*.*.2.*.2.2.2.2.2.2.2.2.8.3.8.8.9.9.r.8.O.T &.G.!.!.!.!.!.",
"!.!.!.!.!.!.!.C.2./ Q [ *.8.8.9.9.9.8.8.2.8.2.2.2.2.2.2.2.*.2.2.2.2.2.*.2.2.2.2.2.3.2.2.8.8.8.8.9.8.4.&.[ T / 2.C.!.!.!.!.!.!.!.",
"!.!.!.!.!.!.!.!.!.R.N.9.#./ T / ) O.#.*.2.8.8.8.8.8.8.2.8.8.8.8.8.8.8.8.8.8.8.8.8.8.2.2.*.#.O./ T T / @.r.N.R.!.!.!.!.!.!.!.!.!.",
"!.!.!.!.!.!.!.!.!.!.!.!.!.R.S.b.p.8.#.[ / T U T T / / / / ) ) ) ) ) ) / / T T T T U / / ) #.2.p.b.G.R.!.!.!.!.!.!.!.!.!.!.!.!.!.",
"!.!.!.!.!.!.!.!.!.!.!.!.!.!.!.!.!.!.!.!.!.K.G.C.N.x.x.j.f.p.p.p.f.p.p.f.j.j.b.N.C.G.K.!.!.!.!.!.!.!.!.!.!.!.!.!.!.!.!.!.!.!.!.!.",
"!.!.!.!.!.!.!.!.!.!.!.!.!.!.!.!.!.!.!.!.!.!.!.!.!.!.!.!.!.!.!.!.!.!.!.!.!.!.!.!.!.!.!.!.!.!.!.!.!.!.!.!.!.!.!.!.!.!.!.!.!.!.!.!.",
"!.!.!.!.!.!.!.!.!.!.!.!.!.!.!.!.!.!.!.!.!.!.!.!.!.!.!.!.!.!.!.!.!.!.!.!.!.!.!.!.!.!.!.!.!.!.!.!.!.!.!.!.!.!.!.!.!.!.!.!.!.!.!.!.",
"!.!.!.!.!.!.!.!.!.!.!.!.!.!.!.!.!.!.!.!.!.!.!.!.!.!.!.!.!.!.!.!.!.!.!.!.!.!.!.!.!.!.!.!.!.!.!.!.!.!.!.!.!.!.!.!.!.!.!.!.!.!.!.!.",
"!.!.!.!.!.!.!.!.!.!.!.!.!.!.!.!.!.!.!.!.!.!.!.!.!.!.!.!.!.!.!.!.!.!.!.!.!.!.!.!.!.!.!.!.!.!.!.!.!.!.!.!.!.!.!.!.!.!.!.!.!.!.!.!.",
"!.!.!.!.!.!.!.!.!.!.!.!.!.!.!.!.!.!.!.!.!.!.!.!.!.!.!.!.!.!.!.!.!.!.!.!.!.!.!.!.!.!.!.!.!.!.!.!.!.!.!.!.!.!.!.!.!.!.!.!.!.!.!.!.",
"!.!.!.!.!.!.!.!.!.!.!.!.!.!.!.!.!.!.!.!.!.!.!.!.!.!.!.!.!.!.!.!.!.!.!.!.!.!.!.!.!.!.!.!.!.!.!.!.!.!.!.!.!.!.!.!.!.!.!.!.!.!.!.!.",
"!.!.!.!.!.!.!.!.!.!.!.!.!.!.!.!.!.!.!.!.!.!.!.!.!.!.!.!.!.!.!.!.!.!.!.!.!.!.!.!.!.!.!.!.!.!.!.!.!.!.!.!.!.!.!.!.!.!.!.!.!.!.!.!.",
"!.!.!.!.!.!.!.!.!.!.!.!.!.!.!.!.!.!.!.!.!.!.!.!.!.!.!.!.!.!.!.!.!.!.!.!.!.!.!.!.!.!.!.!.!.!.!.!.!.!.!.!.!.!.!.!.!.!.!.!.!.!.!.!.",
"!.!.!.!.!.!.!.!.!.!.!.!.!.!.!.!.!.!.!.!.!.!.!.!.!.!.!.!.!.!.!.!.!.!.!.!.!.!.!.!.!.!.!.!.!.!.!.!.!.!.!.!.!.!.!.!.!.!.!.!.!.!.!.!.",
"!.!.!.!.!.!.!.!.!.!.!.!.!.!.!.!.!.!.!.!.!.!.!.!.!.!.!.!.!.!.!.!.!.!.!.!.!.!.!.!.!.!.!.!.!.!.!.!.!.!.!.!.!.!.!.!.!.!.!.!.!.!.!.!.",
"!.!.!.!.!.!.!.!.!.!.!.!.!.!.!.!.!.!.!.!.!.!.!.!.!.!.!.!.!.!.!.!.!.!.!.!.!.!.!.!.!.!.!.!.!.!.!.!.!.!.!.!.!.!.!.!.!.!.!.!.!.!.!.!."
};
