/* XPM */
static char *geogebra[]={
"64 64 530 2",
"Qt c None",
"dq c #2b2b2e",
"aY c #2f2f29",
"c4 c #30302e",
"e4 c #31313e",
"et c #32323e",
"aZ c #333339",
"dr c #37374d",
"c3 c #383843",
"b0 c #383848",
"#x c #393957",
"#j c #3a3a57",
"ek c #3b3b4b",
"c2 c #3c3c4c",
"b# c #3d3d40",
"bK c #3d3d43",
"a# c #3d3d50",
"f2 c #3e3e41",
"eJ c #3e3e4a",
"#I c #3e3e57",
".L c #3f3f4b",
"fv c #404053",
"eE c #414167",
"fE c #42423c",
"eV c #42425e",
"ft c #43433d",
"fl c #43434d",
"aX c #444440",
"eU c #444445",
"#X c #444450",
"c1 c #454545",
"dz c #454547",
"fP c #45455d",
"c5 c #464643",
"a0 c #464648",
"cQ c #47476a",
"eI c #49494b",
"du c #4a4a64",
".4 c #4a4a6d",
"dA c #4b4b4d",
"#m c #4b4b55",
"bJ c #4b4b6a",
"bv c #4c4c48",
"#A c #4c4c56",
"fQ c #4d4d49",
"af c #4d4d68",
"bL c #4e4e4c",
".5 c #4e4e51",
"#w c #4f4f4e",
"el c #4f4f51",
"fu c #505050",
"cd c #505055",
"cm c #50506a",
"fb c #51514d",
"ff c #51517d",
"ej c #515181",
"fF c #52525c",
"e1 c #52526e",
"f1 c #525281",
"#H c #535353",
"eb c #545452",
"fD c #54547d",
"bk c #545480",
"dy c #555556",
"dg c #55556b",
"fG c #555579",
"fs c #55557f",
".K c #55558f",
"a. c #565657",
"bz c #56566b",
"ds c #565686",
"eK c #57577f",
"fM c #585874",
"ck c #595970",
"bI c #595980",
".F c #595983",
"fk c #5a5a58",
"dc c #5a5a59",
"b1 c #5a5a5a",
"fh c #5a5a7c",
"#L c #5a5a87",
".s c #5a5a8d",
"dt c #5a5a8e",
"#l c #5a5a93",
"#Y c #5a5a98",
"f3 c #5b5b5a",
".Z c #5b5b6f",
"bZ c #5b5b92",
"bw c #5c5c5a",
"#W c #5c5c5b",
"dd c #5c5c5c",
"ea c #5c5c62",
"#z c #5c5c97",
"#n c #5e5e5c",
"#i c #5e5e5e",
"cc c #5e5e9c",
"#B c #5f5f5d",
".M c #5f5f5e",
"dJ c #5f5f5f",
"cR c #5f5f60",
".n c #5f5f87",
"fm c #5f5f98",
"dU c #606060",
"#M c #606066",
"cX c #60607c",
"g. c #606097",
"fd c #60609a",
".6 c #616160",
"dE c #616161",
"bP c #616194",
"dH c #626261",
".9 c #626262",
"eN c #626282",
"aw c #62628b",
".8 c #636363",
"at c #636382",
"cC c #63638e",
"eg c #6363a2",
"fi c #64645f",
".7 c #646464",
"eF c #646466",
"cf c #64649b",
"es c #6464a7",
"#9 c #656564",
"#p c #656565",
"eY c #656579",
"gb c #656591",
"#C c #666666",
"ba c #6666a5",
"#o c #676767",
"fJ c #67677f",
"#. c #686868",
"f9 c #686878",
"cu c #686898",
"c9 c #6868a8",
"fY c #6868a9",
"eX c #6868ac",
"eS c #6868ad",
"am c #696969",
"fx c #696998",
"cI c #69699d",
"dh c #6969b0",
"#q c #6a6a6a",
"fe c #6a6a6b",
"cs c #6a6a90",
"aa c #6a6aaf",
"aO c #6b6b6a",
"#G c #6b6b6b",
".h c #6b6b89",
"cG c #6b6b90",
"fa c #6c6c6c",
"eT c #6c6c71",
"fI c #6c6ca4",
"eM c #6c6ca7",
"e6 c #6c6cab",
"eL c #6c6cac",
"#P c #6d6d6d",
"gh c #6d6d8a",
"bp c #6d6d8f",
"bH c #6d6d96",
"cL c #6d6d9c",
"cx c #6d6da2",
"#Q c #6e6e6e",
"ef c #6e6e8a",
"au c #6e6eab",
"eC c #6e6eb1",
"bM c #6f6f6f",
"cU c #6f6f90",
"bV c #6f6fa5",
"c# c #6f6faa",
"av c #6f6faf",
"a5 c #707070",
"fX c #707075",
".t c #70707f",
"e# c #707085",
"be c #70708a",
"e. c #70708c",
"fA c #7070ab",
"dx c #717171",
"e7 c #717179",
"eo c #717191",
"fq c #7171b4",
".N c #727272",
"ax c #72727f",
"bd c #7272af",
"bx c #737373",
"ch c #737391",
"fH c #7373bb",
"#N c #747473",
"#O c #747474",
"bj c #747477",
"bG c #747491",
"b7 c #74749a",
"b4 c #7474b9",
"cP c #7474bc",
"bc c #7474bd",
"bb c #7474be",
"ga c #7474c3",
"## c #757575",
".0 c #7575c6",
"#V c #767676",
"dl c #76768a",
".i c #76768f",
"d9 c #767690",
"cM c #7676be",
"fc c #7676c5",
"eR c #7676c7",
"e0 c #777773",
"aG c #777777",
"#0 c #77778c",
"gg c #77778f",
"eQ c #777792",
"bS c #77779b",
"bu c #787872",
".O c #787878",
"dv c #78787c",
"eO c #787882",
"bB c #7878c1",
"fO c #7878c7",
"ei c #7878c8",
"e2 c #7878ca",
"a1 c #797974",
"dM c #797979",
"d. c #7979c3",
"co c #7979c5",
".o c #7979c8",
"bo c #7979c9",
"eu c #7a7a7a",
"e3 c #7a7a7e",
"as c #7a7a82",
"gi c #7a7a8e",
"dk c #7a7ac7",
"aF c #7b7b7b",
"#Z c #7b7bcb",
"ep c #7b7bcf",
"#r c #7c7c7c",
"cp c #7c7c94",
"eW c #7c7ccd",
"#v c #7d7d7d",
".g c #7d7d92",
"bW c #7d7dd2",
".P c #7e7e7e",
"cO c #7e7ecf",
"bl c #7e7ed2",
"f# c #7f7f7f",
"cN c #7f7fd2",
"g# c #7f7fd5",
"aS c #808080",
"fp c #808081",
"d# c #808085",
"c8 c #80808e",
"bR c #8080d7",
"cB c #8080d8",
"b6 c #8080d9",
"al c #818181",
"bC c #818195",
"bY c #8181d8",
"a4 c #828282",
"bA c #8282d6",
"dn c #838383",
"ae c #8383d9",
"dS c #848484",
"cw c #848489",
"fg c #8484da",
".r c #8484dd",
"ci c #8484de",
"aT c #858585",
"d8 c #858591",
"e5 c #8585dd",
"cn c #8585de",
"b. c #868686",
"db c #878787",
"eh c #8787e4",
".Q c #888888",
"fy c #88888d",
"gc c #888894",
"eB c #888899",
"dV c #898989",
"cK c #898991",
".3 c #8989e6",
"cV c #8989e7",
"#F c #8a8a8a",
"fU c #8a8a94",
"bU c #8a8a9b",
"cy c #8a8ae5",
"fC c #8a8ae8",
"#a c #8b8b8b",
"fr c #8b8be9",
".G c #8b8beb",
"f0 c #8b8bed",
"#J c #8c8cea",
".p c #8c8cec",
"bX c #8c8ced",
"b3 c #8d8d8c",
"fn c #8d8deb",
".q c #8d8dee",
"an c #8e8e8e",
".j c #8e8e95",
"fw c #8e8eeb",
"#4 c #8f8f8f",
"dB c #8f8f90",
"#K c #8f8fef",
"#8 c #909090",
"cH c #9090f5",
"#h c #919191",
"ct c #9191f5",
"fT c #92929b",
"cW c #9292f3",
"c0 c #93938f",
"d6 c #939393",
"cD c #939395",
"gf c #93939c",
"bQ c #9393f6",
"bn c #9393f9",
"ca c #9393fa",
"aN c #949494",
"cj c #9494f6",
"ab c #9494f7",
"dW c #959595",
"eD c #9595f8",
"b5 c #9595f9",
"dP c #969696",
"dj c #9696f9",
"fB c #9696fa",
"cz c #9696fb",
"bm c #9696fc",
"fZ c #9696fd",
"c6 c #979796",
"fj c #979797",
"ex c #97979f",
"#k c #9797fb",
"ad c #9797fc",
"cA c #9797fd",
"er c #9797fe",
"aC c #989898",
"fK c #98989c",
"aK c #9898a0",
"di c #9898fd",
".1 c #9898fe",
"ac c #9898ff",
".R c #999999",
"fz c #99999a",
"bF c #9999a1",
"c. c #9999a5",
"#y c #9999fe",
".2 c #9999ff",
"bf c #9a9a9a",
".I c #9a9aff",
"em c #9b9b9b",
".m c #9b9ba5",
".J c #9b9bff",
"dT c #9c9c9c",
"aJ c #9c9ca3",
".H c #9c9cff",
"#R c #9d9d9d",
"cb c #9d9dff",
"a6 c #9e9e9e",
"fN c #9e9eff",
"de c #9f9f9f",
"b2 c #a0a0a0",
"ey c #a0a0a7",
"eq c #a0a0ff",
"#s c #a1a1a1",
"fV c #a1a1a8",
"ap c #a2a2a2",
"#3 c #a3a3a3",
"ag c #a3a3a5",
"d5 c #a4a4a4",
"#U c #a5a5a5",
"ew c #a5a5a9",
"ge c #a6a6a6",
"bq c #a6a6a7",
".E c #a6a6ac",
"do c #a7a7a7",
"bt c #a8a8a2",
"dD c #a8a8a8",
".f c #a8a8ad",
"bN c #a9a9a9",
"gj c #a9a9af",
"ce c #ababab",
"aP c #acacab",
"#b c #acacac",
".u c #acacad",
"gd c #adadab",
"bi c #adadad",
".S c #aeaeae",
"cv c #aeaeb2",
".Y c #afafae",
"by c #afafaf",
"dX c #b0b0b0",
"cr c #b1b1ab",
"d4 c #b1b1af",
"#u c #b1b1b1",
"cF c #b2b2ac",
"eG c #b3b3b3",
"fS c #b3b3b6",
"aB c #b4b4b4",
"bO c #b5b5b4",
"f4 c #b5b5b5",
"ay c #b5b5b7",
"dI c #b6b6b5",
"df c #b6b6b6",
"#g c #b7b7b7",
"ee c #b7b7bc",
"dO c #b8b8b8",
"en c #b8b8ba",
"f. c #b9b9b9",
"aL c #b9b9bd",
"cT c #babab5",
"#1 c #babab9",
"ev c #bbbbbb",
"ao c #bcbcbc",
"eZ c #bdbdbb",
"#E c #bebebe",
"dL c #bfbfbf",
".b c #c0c0bb",
"aE c #c0c0c0",
"ar c #c0c0c1",
"gn c #c1c1bc",
"b8 c #c1c1bd",
"dK c #c1c1c1",
"d7 c #c1c1c2",
"dY c #c2c2c2",
"bs c #c3c3be",
"aR c #c4c4c4",
"ez c #c4c4c7",
"cg c #c5c5c0",
"d2 c #c5c5c1",
".T c #c5c5c5",
"bT c #c6c6c2",
"eP c #c6c6c7",
"aI c #c6c6c8",
"d3 c #c7c7c4",
".v c #c7c7c7",
"dN c #c8c8c8",
"d1 c #c9c9c5",
"#2 c #c9c9c9",
".c c #cacac5",
"a2 c #cacac6",
"dZ c #cacaca",
"e8 c #cbcbca",
"aq c #cbcbcb",
"cY c #cbcbcd",
"dF c #cccccc",
"gm c #cdcdc9",
"aH c #cdcdcd",
"fR c #cececd",
"#7 c #cecece",
".w c #cfcfcf",
"cS c #d1d1d0",
"#c c #d1d1d1",
"fW c #d1d1d2",
"cl c #d1d1d3",
"f5 c #d2d2d2",
"fL c #d2d2d3",
".a c #d3d3cf",
"go c #d3d3d0",
".k c #d3d3d2",
"a7 c #d3d3d3",
"ak c #d4d4d4",
"bE c #d5d5d4",
".x c #d5d5d5",
"cq c #d6d6d3",
"#5 c #d7d7d7",
"dw c #d7d7d8",
"dm c #d8d8d8",
".y c #d9d9d9",
"c7 c #dadad8",
"dG c #dadada",
"bD c #dbdbd8",
".U c #dbdbdb",
"bh c #dcdcdc",
".z c #dedede",
"aD c #dfdfdf",
"#f c #e0e0e0",
"eA c #e1e1de",
"d0 c #e1e1df",
"dQ c #e1e1e1",
"aM c #e2e2e1",
"a9 c #e2e2e2",
"gk c #e3e3e2",
"dp c #e3e3e3",
"fo c #e3e3e4",
"#T c #e4e4e4",
"bg c #e5e5e4",
"aA c #e5e5e5",
".A c #e6e6e6",
"eH c #e7e7e7",
"b9 c #e8e8e6",
".e c #e8e8e8",
"f7 c #e9e9e7",
".d c #e9e9e8",
"aj c #e9e9e9",
"dC c #eaeaea",
"f6 c #ebebea",
"e9 c #ebebeb",
"#d c #ececec",
"aV c #ededeb",
"br c #ededec",
"#D c #ededed",
".D c #eeeeed",
"cJ c #eeeeee",
"da c #efefee",
".B c #efefef",
"f8 c #f0f0ee",
"ah c #f0f0ef",
"dR c #f0f0f0",
"aQ c #f1f1f1",
"ed c #f2f2f1",
"ai c #f2f2f2",
"gp c #f3f3f2",
"ec c #f3f3f3",
"cE c #f4f4f3",
"a8 c #f4f4f4",
".# c #f5f5f4",
".X c #f5f5f5",
"#t c #f6f6f6",
"aW c #f7f7f6",
".C c #f7f7f7",
"gl c #f8f8f7",
".l c #f8f8f8",
"#S c #f9f9f9",
"aU c #fafaf9",
"#6 c #fafafa",
"cZ c #fbfbfa",
".V c #fbfbfb",
"az c #fcfcfc",
"#e c #fdfdfd",
".W c #fefefe",
"a3 c #fffffe",
"QtQtQtQtQtQtQtQtQtQtQtQtQtQtQtQtQtQtQtQtQtQtQtQtQtQtQtQtQtQtQtQtQtQtQtQtQtQtQtQtQtQtQtQtQtQtQtQtQtQtQtQtQtQtQtQtQtQtQtQtQtQtQtQt",
"QtQtQtQtQtQtQtQtQtQtQtQtQtQtQtQtQtQtQtQtQtQtQtQtQtQtQtQtQtQtQtQtQtQtQtQtQtQtQtQtQtQtQtQtQtQtQtQtQtQtQtQtQtQtQtQtQtQtQtQtQtQtQtQt",
"QtQtQtQtQtQtQtQtQtQtQtQtQtQtQtQtQtQtQtQtQtQtQtQtQtQtQtQtQtQtQtQtQtQtQtQtQtQtQtQtQtQtQtQtQtQtQtQtQtQtQtQtQtQtQtQtQtQtQtQtQtQtQtQt",
"QtQtQtQtQtQtQtQtQtQtQtQtQtQtQtQtQtQtQtQtQtQtQtQtQtQtQtQtQtQtQtQtQtQtQtQtQtQtQtQtQtQtQtQtQtQtQtQtQtQtQtQtQtQtQtQtQtQtQtQtQtQtQtQt",
"QtQtQtQtQtQtQtQtQtQtQtQtQtQtQtQtQtQtQtQtQtQtQtQtQtQtQtQtQtQtQtQtQtQtQtQtQtQtQtQtQtQtQtQtQtQtQtQtQtQtQtQtQtQtQtQtQtQtQtQtQtQtQtQt",
"QtQtQtQtQtQtQtQtQtQtQtQtQtQtQtQtQtQtQtQtQtQtQtQtQtQtQtQtQtQtQtQtQtQtQtQtQtQtQtQtQtQtQtQtQtQtQtQtQtQtQtQtQtQtQtQtQtQtQtQtQtQtQtQt",
"QtQtQtQtQtQtQtQtQtQtQtQtQtQtQtQtQtQtQtQtQtQtQtQtQtQtQtQtQtQtQtQtQtQtQtQtQtQtQtQtQtQtQtQtQtQtQtQtQtQtQtQtQtQtQtQtQtQtQtQtQtQtQtQt",
"QtQtQtQtQtQtQtQtQtQtQtQtQtQtQtQtQtQtQtQtQtQtQtQtQtQtQtQt.#.a.b.b.c.dQtQtQtQtQtQtQtQtQtQtQtQtQtQtQtQtQtQtQtQtQtQtQtQtQtQtQtQtQtQt",
"QtQtQtQtQtQtQtQtQtQtQtQtQtQtQtQtQtQtQtQtQtQtQtQtQtQtQt.e.f.g.h.h.i.j.k.lQtQtQtQtQtQtQtQtQtQtQtQtQtQtQtQtQtQtQtQtQtQtQtQtQtQtQtQt",
"QtQtQtQtQtQtQtQtQtQtQtQtQtQtQtQtQtQtQtQtQtQtQtQtQtQt.e.m.n.o.p.q.r.s.t.u.v.w.x.y.z.A.B.CQtQtQtQtQtQtQtQtQtQtQtQtQtQtQtQtQtQtQtQt",
"QtQtQtQtQtQtQtQtQtQtQtQtQtQtQtQtQtQtQtQtQtQtQtQtQt.D.E.F.G.H.I.I.J.H.K.L.M.N.O.P.Q.R.S.T.U.B.VQtQtQtQtQtQtQtQtQtQtQtQtQtQtQtQtQt",
"QtQtQtQtQtQtQtQtQtQtQtQtQtQtQtQtQtQtQtQtQtQt.W.X.A.Y.Z.0.H.1.2.2.1.I.3.4.5.6.7.8.9.8#.###a#b#c#d.VQtQtQtQtQtQtQtQtQtQtQtQtQtQtQt",
"QtQtQtQtQtQtQtQtQtQtQtQtQtQtQtQtQtQtQtQt#e.C#f#g#h#i#j.2.2.2.2.2.2.2#k#l#m#n#o#p#p#p#p.7#p#q#r#s.x#t.WQtQtQtQtQtQtQtQtQtQtQtQtQt",
"QtQtQtQtQtQtQtQtQtQtQtQtQtQtQtQtQtQt.W.C#f#u#v.7#o#w#x.J.2.1.2.2.1.2#y#z#A#B#o#C#p#p#p#p#p#p.7#p.N#g.e.VQtQtQtQtQtQtQtQtQtQtQtQt",
"QtQtQtQtQtQtQtQtQtQtQtQtQtQtQtQtQtQt#D#E#F#G.7#p#.#H#I#J.I.2.2.2.2.2#K#L#M#N#O#P#.#C#C#p#p#p#p#p#p#Q#R.y#SQtQtQtQtQtQtQtQtQtQtQt",
"QtQtQtQtQtQtQtQtQtQtQtQtQtQtQtQt#e#T#U#V#C#p#p#p#o#W#X#Y.I.2.2.2.2.I#Z#0#1.x#2#g#3#a.N#C#p#p#p#p#p#p#G#4#5.VQtQtQtQtQtQtQtQtQtQt",
"QtQtQtQtQtQtQtQtQtQtQtQtQtQtQt#6#7#8#Q#C#p#p#p#p#p#9a.a#aaab.1acadaeafagahQtQtQtaiajak.Sal#.#p#p#p#p#paman.U.WQtQtQtQtQtQtQtQtQt",
"QtQtQtQtQtQtQtQtQtQtQtQtQt.W.Cao.Pam#p#p#C#p#pam#rapaqarasatauavawaxay.BQtQtQtQtQtQtaz.CaAaB.P#.#p#p#p#p#oaCaD.WQtQtQtQtQtQtQtQt",
"QtQtQtQtQtQtQtQtQtQtQtQtQt#taEaF#o#p#p#C#p.8aG#saH#D.V#6.daIaJaKaLaM.CQtQtQtQtQtQtQtQtQt.Wai#7aN#G#p#C#.#.aOaPaQQtQtQtQtQtQtQtQt",
"QtQtQtQtQtQtQtQtQtQtQtQt.CaRaS#o#p#p#C.8#paT#Eaj#SQtQtQtQtaU.DaVaWQtQtQtQtQtQtQtQtQtQtQtQtQt.l.U.R#..6aXaYaZa0a1a2a3QtQtQtQtQtQt",
"QtQtQtQtQtQtQtQtQtQtQt.l#2a4#o#p#p#p.8a5a6a7a8QtQtQtQtQtQtQtQtQtQtQtQtQtQtQtQtQtQtQtQtQtQtQtQtaza9b.b#.4babbbcbdbebfbgQtQtQtQtQt",
"QtQtQtQtQtQtQtQtQtQtQtbhan#.#p#p#p.8##bi#TazQtQtQtQtQtQtQtQtQtQtQtQtQtQtQtQtQtQtQtQtQtQtQtQtQtQtQtbjbkblbm.I.IbnbobpbqQtQtQtQtQt",
"QtQtQtQtQtQtQtQtbrbsbtbubvbw#o#C.8bxbyajQtQtQtQtQtQtQtQtQtQtQtQtQtQtQtQtQtQtQtQtQtQtQtQtQtQtQtQt.BbzbA.I.I.2.2.JacbBbCbDQtQtQtQt",
"QtQtQtQtQtQt#6bEbFbGbHbIbJbKbL#pbMbN.eQtQtQtQtQtQtQtQtQtQtQtQtQtQtQtQtQtQtQtQtQtQtQtQtQtQtQtQt#ebObPbQ.I.1#y.2.2.JbRbSbTQtQtQtQt",
"QtQtQtQtQtQtakbUbVbWbX.pbYbZb0b1b2#T#eQtQtQtQtQtQtQtQtQtQtQtQtQtQtQtQtQtQtQtQtQtQtQtQtQtQtQtQt#eb3b4b5.2.1.2.2.1.Hb6b7b8QtQtQtQt",
"QtQtQtQtQtb9c.c#cacb.I.J.H.Jcccdak.WQtQtQtQtQtQtQtQtQtQtQtQtQtQtQtQtQtQtQtQtQtQtQtQtQtQtQtQtQt#ececfbQ.I.1.2.2.2.JbRbScgQtQtQtQt",
"QtQtQtQtQt.bchci.H.1.2.1.2.2cjckclazQtQtQtQtQtQtQtQtQtQtQtQtQtQtQtQtQtQtQtQtQtQtQtQtQtQtQtQtQtQt.ecmcn.2.I.2.2.I.2cocpcqQtQtQtQt",
"QtQtQtQtQtcrcsct.I.2.2.2.2.1adcucv.#QtQtQtQtQtQtQtQtQtQtQtQtQtQtQtQtQtQtQtQtQtQtQtQtQtQtQtQtQtQtQtcwcxcycz.1.1cAcBcCcDcEQtQtQtQt",
"QtQtQtQtQtcFcGcH.I.1.2.2.2.1adcI.fcEQtQtQtQtQtQtQtQtQtQtQtQtQtQtQtQtQtQtQtQtQtQtQtQtQtQtQtQtQtQtQtcJcKcLcMcNcOcPcQcRcSQtQtQtQtQt",
"QtQtQtQtQtcTcUcV.J.1.1.1.2.2cWcXcYcZQtQtQtQtQtQtQtQtQtQtQtQtQtQtQtQtQtQtQtQtQtQtQtQtQtQtQtQtQtQtQtQt#Dc0c1c2c3c4c5c6#DQtQtQtQtQt",
"QtQtQtQtQtc7c8c9.I.2.2.2.2czd.d#daQtQtQtQtQtQtQtQtQtQtQtQtQtQtQtQtQtQtQtQtQtQtQtQtQtQtQtQtQtQtQtQtQtQt.Adbdcdd.7#qde#dQtQtQtQtQt",
"QtQtQtQtQtQtdfdgdh.Idididjdkdl.xazQtQtQtQtQtQtQtQtQtQtQtQtQtQtQtQtQtQtQtQtQtQtQtQtQtQtQtQtQtQtQtQtQtQtdmdn#p#p.7#qdoa8QtQtQtQtQt",
"QtQtQtQtQtQtdp.PdqdrdsdtdudvdwazQtQtQtQtQtQtQtQtQtQtQtQtQtQtQtQtQtQtQtQtQtQtQtQtQtQtQtQtQtQtQtQtQtQtQtaE.O#p#p.8dx#g#eQtQtQtQtQt",
"QtQtQtQtQtQt.z#F#WdydzdAdBdC#eQtQtQtQtQtQtQtQtQtQtQtQtQtQtQtQtQtQtQtQtQtQtQtQtQtQtQtQtQtQtQtQtQtQtQt#tdDbM.7#pdE.PdFQtQtQtQtQtQt",
"QtQtQtQtQtQtdGaTdE.7dH#QdIazQtQtQtQtQtQtQtQtQtQtQtQtQtQtQtQtQtQtQtQtQtQtQtQtQtQtQtQtQtQtQtQtQtQtQtQta9anam#p#pdJ#8a9QtQtQtQtQtQt",
"QtQtQtQtQtQt.ydndE#C#C##dK.WQtQtQtQtQtQtQtQtQtQtQtQtQtQtQtQtQtQtQtQtQtQtQtQtQtQtQtQtQtQtQtQtQtQtQtazdLaG#p#p#p.8do#tQtQtQtQtQtQt",
"QtQtQtQtQtQt.ydndE#p#pbxao.WQtQtQtQtQtQtQtQtQtQtQtQtQtQtQtQtQtQtQtQtQtQtQtQtQtQtQtQtQtQtQtQtQtQtQt.A#8am#p#p.9dMdNQtQtQtQtQtQtQt",
"QtQtQtQtQtQt.UdbdE#p#pbM#b.lQtQtQtQtQtQtQtQtQtQtQtQtQtQtQtQtQtQtQtQtQtQtQtQtQtQtQtQtQtQtQtQtQtQtQtdO.N#p#p#p.7dPdQQtQtQtQtQtQtQt",
"QtQtQtQtQtQt#fandE#p#p#G#RdRQtQtQtQtQtQtQtQtQtQtQtQtQtQtQtQtQtQtQtQtQtQtQtQtQtQtQtQtQtQtQtQtQtQt#TdS#o#p#C.8.N#ga8QtQtQtQtQtQtQt",
"QtQtQtQtQtQtajdTdU#p#p#.dVa9.WQtQtQtQtQtQtQtQtQtQtQtQtQtQtQtQtQtQtQtQtQtQtQtQtQtQtQtQtQtQtQt.Wajap#q#p#p#p#CdWbhQtQtQtQtQtQtQtQt",
"QtQtQtQtQtQt.X#u.7#p#p#C##aR.VQtQtQtQtQtQtQtQtQtQtQtQtQtQtQtQtQtQtQtQtQtQtQtQtQtQtQtQtQtQtQtcJdXa5#p#p#C.8dMdY#tQtQtQtQtQtQtQtQt",
"QtQtQtQtQtQt#edZ##.8#C#pamaC#d.WQtQtQtQtQtQtQtQtQtQtQtQtQtQtQtQtQtQtQtQtQtQtQtQtQtazd0d1d2d3d4#r#C#p#C.7#.d5.eQtQtQtQtQtQtQtQtQt",
"QtQtQtQtQtQtQtdQd6.9#p#p#CbxdY.VQtQtQtQtQtQtQtQtQtQtQtQtQtQtQtQtQtQtQtQtQtQtQtQt.#d7d8d9e.e#eaeb.8#p#p.7#a.yQtQtQtQtQtQtQtQtQtQt",
"QtQtQtQtQtQtQtecdOa5.7#C#p#Cb..zazQtQtQtQtQtQtQtQtQtQtQtQtQtQtQtQtQtQtQtQtQtQtedeeefegcneheiejekel.7#C#v#2QtQtQtQtQtQtQtQtQtQtQt",
"QtQtQtQtQtQtQt.W.zd6#p#p#p#p#pem.zaQbrdaaUQtQtQtQtQtQtQtQtQtQtQtQtQtQtQtQtQt#Seneoepeq.J.I.Hereset.9eueva8QtQtQtQtQtQtQtQtQtQtQt",
"QtQtQtQtQtQtQtQta8dL##.7#p#p#p#.#8ewexeyez.AcZQtQtQtQtQtQtQtQtQtQtQtQtQtQtQteAeBeCac.2.1.1.2.2eDeEeFeG#DQtQtQtQtQtQtQtQtQtQtQtQt",
"QtQtQtQtQtQtQtQt.WeH#s#o#p#p.9eIeJeKeLeMeNeOePQtQtQtQtQtQtQtQtQtQtQtQtQt#e.WbTeQeR.H.2.2.2.1.2.1eSeTeHQtQtQtQtQtQtQtQtQtQtQtQtQt",
"QtQtQtQtQtQtQtQtQt#e#f#a#.#peUeVeWeD.2#yczeXeYeZQtQtQtQtQtQtQtQtQtQtQtdRdQdLe0e1e2cb.2.2.2.1.2.1.oe3edQtQtQtQtQtQtQtQtQtQtQtQtQt",
"QtQtQtQtQtQtQtQtQtQt.V#5#a.9e4e5.1.2.2.2.2.He6e7e8e9cJaiecaQ#DeHa9a7f.a6f#fafbdufc.J.2.2.2.2.2cAfdewaWQtQtQtQtQtQtQtQtQtQtQtQtQt",
"QtQtQtQtQtQtQtQtQtQtQt.l#cfeffab.2.2.2.2.2.HfgfhfidW.R#sd5b2fj#8dbaF#Q#o#C#ofkflfmb5.I.2.2.2.1fncmfoQtQtQtQtQtQtQtQtQtQtQtQtQtQt",
"QtQtQtQtQtQtQtQtQtQtQtQtecfpfqcz.2.1.2.2ac.Jfrfsftfaam#G#G#qam#.#o#C#C#p#p#C#pfufveX.Hac.2.2fwfxfy.CQtQtQtQtQtQtQtQtQtQtQtQtQtQt",
"QtQtQtQtQtQtQtQtQtQtQtQt#SfzfAfB.2.1.2.2.1.JfCfDfEam#p#p#p#p#p#p#p#p#p#p#p#p.7#o.8fFfGfqfHfIfJfKaAQtQtQtQtQtQtQtQtQtQtQtQtQtQtQt",
"QtQtQtQtQtQtQtQtQtQtQtQt#efLfMb5.2#y.1.1.1fNfOfPfQ#.#p#p#p#p#p#p#p#p.7.8.8#Gal#sdYfRfSfTfUfVfWaQQtQtQtQtQtQtQtQtQtQtQtQtQtQtQtQt",
"QtQtQtQtQtQtQtQtQtQtQtQtQt.CfXfYfZ.J.I.IfNf0f1f2f3dEdUdEdEdEdUdUdU.8a5dn.Rf4f5.eQtQtQtf6f7f8QtQtQtQtQtQtQtQtQtQtQtQtQtQtQtQtQtQt",
"QtQtQtQtQtQtQtQtQtQtQtQtQtQtf5f9g.g#.qbXgagbgcgdge.RaN#8#4#8dWdT#UaBdZ.U.AQtQtQtQtQtQtQtQtQtQtQtQtQtQtQtQtQtQtQtQtQtQtQtQtQtQtQt",
"QtQtQtQtQtQtQtQtQtQtQtQtQtQtQte8gfgg.hghgigjgkglQtQtQtQtQtQtQtQtcJQtQtQtQtQtQtQtQtQtQtQtQtQtQtQtQtQtQtQtQtQtQtQtQtQtQtQtQtQtQtQt",
"QtQtQtQtQtQtQtQtQtQtQtQtQtQtQtQtf7gm.bgngogpQtQtQtQtQtQtQtQtQtQtQtQtQtQtQtQtQtQtQtQtQtQtQtQtQtQtQtQtQtQtQtQtQtQtQtQtQtQtQtQtQtQt",
"QtQtQtQtQtQtQtQtQtQtQtQtQtQtQtQtQtQtQtQtQtQtQtQtQtQtQtQtQtQtQtQtQtQtQtQtQtQtQtQtQtQtQtQtQtQtQtQtQtQtQtQtQtQtQtQtQtQtQtQtQtQtQtQt",
"QtQtQtQtQtQtQtQtQtQtQtQtQtQtQtQtQtQtQtQtQtQtQtQtQtQtQtQtQtQtQtQtQtQtQtQtQtQtQtQtQtQtQtQtQtQtQtQtQtQtQtQtQtQtQtQtQtQtQtQtQtQtQtQt",
"QtQtQtQtQtQtQtQtQtQtQtQtQtQtQtQtQtQtQtQtQtQtQtQtQtQtQtQtQtQtQtQtQtQtQtQtQtQtQtQtQtQtQtQtQtQtQtQtQtQtQtQtQtQtQtQtQtQtQtQtQtQtQtQt",
"QtQtQtQtQtQtQtQtQtQtQtQtQtQtQtQtQtQtQtQtQtQtQtQtQtQtQtQtQtQtQtQtQtQtQtQtQtQtQtQtQtQtQtQtQtQtQtQtQtQtQtQtQtQtQtQtQtQtQtQtQtQtQtQt",
"QtQtQtQtQtQtQtQtQtQtQtQtQtQtQtQtQtQtQtQtQtQtQtQtQtQtQtQtQtQtQtQtQtQtQtQtQtQtQtQtQtQtQtQtQtQtQtQtQtQtQtQtQtQtQtQtQtQtQtQtQtQtQtQt",
"QtQtQtQtQtQtQtQtQtQtQtQtQtQtQtQtQtQtQtQtQtQtQtQtQtQtQtQtQtQtQtQtQtQtQtQtQtQtQtQtQtQtQtQtQtQtQtQtQtQtQtQtQtQtQtQtQtQtQtQtQtQtQtQt",
"QtQtQtQtQtQtQtQtQtQtQtQtQtQtQtQtQtQtQtQtQtQtQtQtQtQtQtQtQtQtQtQtQtQtQtQtQtQtQtQtQtQtQtQtQtQtQtQtQtQtQtQtQtQtQtQtQtQtQtQtQtQtQtQt"};
