/* XPM */
static char *geomview[] = {
/* columns rows colors chars-per-pixel */
"64 64 117 2",
"   c #030202",
".  c #0A0200",
"X  c #030906",
"o  c #0C0A01",
"O  c #00020B",
"+  c #010C0B",
"@  c #130200",
"#  c #1B0200",
"$  c #120E00",
"%  c #01110E",
"&  c #151100",
"*  c #181400",
"=  c #1E1900",
"-  c #000214",
";  c #000C10",
":  c #00021C",
">  c #021511",
",  c #001B15",
"<  c #011619",
"1  c #011C1B",
"2  c #240300",
"3  c #2C0400",
"4  c #330500",
"5  c #3B0500",
"6  c #241D00",
"7  c #00241E",
"8  c #2E2600",
"9  c #312700",
"0  c #342A00",
"q  c #392E00",
"w  c #3E3100",
"e  c #000224",
"r  c #00032C",
"t  c #001E20",
"y  c #000334",
"u  c #00043B",
"i  c #012226",
"p  c #002D25",
"a  c #02282A",
"s  c #003026",
"d  c #00352B",
"f  c #003A2F",
"g  c #022D31",
"h  c #003034",
"j  c #003F33",
"k  c #01363B",
"l  c #00393E",
"z  c #430600",
"x  c #4B0600",
"c  c #530700",
"v  c #5B0700",
"b  c #570801",
"n  c #5C0800",
"m  c #600700",
"M  c #670800",
"N  c #6C0900",
"B  c #740A00",
"V  c #780A00",
"C  c #423500",
"Z  c #463800",
"A  c #4A3B00",
"S  c #004337",
"D  c #004638",
"F  c #004B3C",
"G  c #544400",
"H  c #5C4A00",
"J  c #614E00",
"K  c #675300",
"L  c #6B5500",
"P  c #6F5900",
"I  c #725C00",
"U  c #000544",
"Y  c #000548",
"T  c #003E44",
"R  c #014147",
"E  c #004E40",
"W  c #004349",
"Q  c #005545",
"!  c #005C4B",
"~  c #004D54",
"^  c #00545D",
"/  c #00604E",
"(  c #006551",
")  c #006A56",
"_  c #006F59",
"`  c #00745E",
"'  c #005A64",
"]  c #005F68",
"[  c #006771",
"{  c #006F79",
"}  c #00707C",
"|  c #870C00",
" . c #8C0C00",
".. c #970D00",
"X. c #007480",
"o. c #007A87",
"O. c #00808C",
"+. c #008490",
"@. c #008C9A",
"#. c #00909E",
"$. c #0094A2",
"%. c #0098A7",
"&. c #009BAA",
"*. c #00A2B3",
"=. c #00A7B8",
"-. c #00B1C2",
";. c #00B8CA",
":. c #00BFD2",
">. c #00C0D3",
",. c #00C7DB",
"<. c #00D0E5",
"1. c #00D6EC",
"2. c #00D8EE",
"3. c #00DDF3",
"4. c #00E0F6",
"5. c #00E3FA",
"6. c None",
/* pixels */
"6.6.6.6.6.6.6.6.6.6.6.6.6.6.6.6.6.6.6.6.6.6.6.6.6.    X X   6.6.6.6.6.6.6.6.6.6.6.6.6.6.6.6.6.6.6.6.6.6.6.6.6.6.6.6.6.6.6.6.6.6.",
"6.6.6.6.6.6.6.6.6.6.6.6.6.6.6.6.6.6.6.6.6.6.6.X X p ( ! E j p 1 + X   X X   6.6.6.6.6.6.6.6.6.6.6.6.6.6.6.6.6.6.6.6.6.6.6.6.6.6.",
"6.6.6.6.6.6.6.6.6.6.6.6.6.6.6.6.6.6.6.6.6.    d _ ` ` ` ` ` ` ` ` ` _ ! F f p > +     X X   6.6.6.6.6.6.6.6.6.6.6.6.6.6.6.6.6.6.",
"6.6.6.6.6.6.6.6.6.6.6.6.6.6.6.6.6.6.6.X X j _ ` ` ` ` ` ` ` ` ` ` ` ` ` ` ` ` ` ` ` ) Q d X   6.6.6.6.6.6.6.6.6.6.6.6.6.6.6.6.6.",
"6.6.6.6.6.6.6.6.6.6.6.6.6.6.6.6.6.X X j _ ` ` ` ` ` ` ` ` ` ` ` ` ` ` ` ` ` ` ` ` ` ` ` S X o 6.6.6.6.6.6.6.6.6.6.6.6.6.6.6.6.6.",
"6.6.6.6.6.6.6.6.6.6.6.6.6.6.6.X + D ` ` ` ` ` ` ` ` ` ` ` ` ` ` ` ` ` ` ` ` ` ` ` ` ` ` p 6 H o 6.6.6.6.6.6.6.6.6.6.6.6.6.6.6.6.",
"6.6.6.6.6.6.6.6.6.6.6.6.6.  % F ` ` ` ` ` ` ` ` ` ` ` ` ` ` ` ` ` ` ` ` ` ` ` ` ` ` ` ` % w I G   6.6.6.6.6.6.6.6.6.6.6.6.6.6.6.",
"6.6.6.6.6.6.6.6.6.6.6.  > Q ` ` ` ` ` ` ` ` ` ` ` ` ` ` ` ` ` ` ` ` ` ` ` ` ` ` ` ` ` `   H I I Z   6.6.6.6.6.6.6.6.6.6.6.6.6.6.",
"6.6.6.6.6.6.6.6.6.X , Q ` ` ` ` ` ` ` ` ` ` ` ` ` ` ` ` ` ` ` ` ` ` ` ` ` ` ` ` ` ` ` /   I I I I q   6.6.6.6.6.6.6.6.6.6.6.6.6.",
"6.6.6.6.6.6.6.6.    s ` ` ` ` ` ` ` ` ` ` ` ` ` ` ` ` ` ` ` ` ` ` ` ` ` ` ` ` ` ` ` ` D X I I I I I 6   6.6.6.6.6.6.6.6.6.6.6.6.",
"6.6.6.6.6.6.6.6.  y   f ` ` ` ` ` ` ` ` ` ` ` ` ` ` ` ` ` ` ` ` ` ` ` ` ` ` ` ` ` ` ` p * I I I I I P &   6.6.6.6.6.6.6.6.6.6.6.",
"6.6.6.6.6.6.6.  : Y r   D ` ` ` ` ` ` ` ` ` ` ` ` ` ` ` ` ` ` ` ` ` ` ` ` ` ` ` ` ` ` , 9 I I I I I I L $ 6.6.6.6.6.6.6.6.6.6.6.",
"6.6.6.6.6.6.6.  U Y Y e   F ` ` ` ` ` ` ` ` ` ` ` ` ` ` ` ` ` ` ` ` ` ` ` ` ` ` ` ` `   G I I I I I I I J   6.6.6.6.6.6.6.6.6.6.",
"6.6.6.6.6.6.  - Y Y Y Y e   Q ` ` ` ` ` ` ` ` ` ` ` ` ` ` ` ` ` ` ` ` ` ` ` ` ` ` ` (   I I I I I I I I I G   6.6.6.6.6.6.6.6.6.",
"6.6.6.6.6.6.  u Y Y Y Y Y - X ! ` ` ` ` ` ` ` ` ` ` ` ` ` ` ` ` ` ` ` ` _ Q F f 7 > X X P I I I I I I I I I A   6.6.6.6.6.6.6.6.",
"6.6.6.6.6.6.O Y Y Y Y Y Y Y - X ( ` ` ` ` ` ` ` ` ` ` ` ` _ Q D d 7 % X   X + < h ^ o.X G I I I I I I I I I I q   6.6.6.6.6.6.6.",
"6.6.6.6.6.  r Y Y Y Y Y Y Y Y O + ) ` ` ` ` ) Q S s 7 + X   X + 1 k ' #.1.5.5.5.5.5.5.~ * I I I I I I I I I I I 6   6.6.6.6.6.6.",
"6.6.6.6.6.O Y Y Y Y Y Y Y Y Y Y O > p , + X   X % t l ] %.3.5.5.3.5.5.5.5.5.5.5.5.5.5.3.X A I I I I I I I I I I I * 6.6.6.6.6.6.",
"6.6.6.6.  e Y Y Y Y Y Y Y Y Y Y Y   < T [ *.3.5.5.5.5.5.5.5.5.5.5.5.5.5.5.5.5.5.5.5.5.5.' $ I I I I I I I I I I I A   6.6.6.6.6.",
"6.6.6.6.  Y Y Y Y Y Y Y Y Y Y Y U   2.5.5.5.5.5.5.5.5.5.5.5.5.5.5.5.5.5.5.5.5.5.5.5.5.5.3.. A I I I I I I I I I I J   6.6.6.6.6.",
"6.6.6.  e Y Y Y Y Y Y Y Y Y Y Y u   5.5.5.5.5.5.5.5.5.5.5.5.5.5.5.5.5.5.5.5.5.5.5.5.5.5.5.] $ I I I I I I I I I I I   6.6.6.6.6.",
"6.6.6.  u Y Y Y Y Y Y Y Y Y Y Y r ; 5.5.5.5.5.5.5.5.5.5.5.5.5.5.5.5.5.5.5.5.5.5.5.5.5.5.5.5.X A I I I I I I I I I I 6 6.6.6.6.6.",
"6.6.6.- Y Y Y Y Y Y Y Y Y Y Y Y e t 5.5.5.5.5.5.5.5.5.5.5.5.5.5.5.5.5.5.5.5.5.5.5.5.5.5.5.5.[ $ I I I I I I I I I I w   6.6.6.6.",
"6.6.  u Y Y Y Y Y Y Y Y Y Y Y Y - T 5.5.5.5.5.5.5.5.5.5.5.5.5.5.5.5.5.5.5.5.5.5.5.5.5.5.5.5.5.X Z I I I I I I I I I G o 6.6.6.6.",
"6.6.- Y Y Y Y Y Y Y Y Y Y Y Y Y O { 5.5.5.5.5.5.5.5.5.5.5.5.5.5.5.5.5.5.5.5.5.5.5.5.5.5.5.5.5.} o P I I I I I I I I P   6.6.6.6.",
"6.  r Y Y Y Y Y Y Y Y Y Y Y Y Y   ;.5.5.5.5.5.5.5.5.5.5.5.5.5.5.5.5.5.5.5.5.5.5.5.5.5.5.5.5.5.5.+ C I I I I I I I I I & 6.6.6.6.",
"6.  r Y Y Y Y Y Y Y Y Y Y Y Y u   5.5.5.5.5.5.5.5.5.5.5.5.5.5.5.5.5.5.5.5.5.5.5.5.5.5.5.5.5.5.5.o.o P I I I I I I I I 8 6.6.6.6.",
"6.  e Y Y Y Y Y Y Y Y Y Y Y Y r O 5.5.5.5.5.5.5.5.5.5.5.5.5.5.5.5.5.5.5.5.5.5.5.5.5.5.5.5.5.5.5.5.% C I I I I I I I I A o 6.6.6.",
"6.  : Y Y Y Y Y Y Y Y Y Y Y Y e < 5.5.5.5.5.5.5.5.5.5.5.5.5.5.5.5.5.5.5.5.5.5.5.5.5.5.5.5.5.5.5.5.+.o L I I I I I I I K   6.6.6.",
"6.6.: Y Y Y Y Y Y Y Y Y Y Y Y : g 5.5.5.5.5.5.5.5.5.5.5.5.5.5.5.5.5.5.5.5.5.5.5.5.5.5.5.5.5.5.5.5.5.> q I I I I I I I I   6.6.6.",
"6.6.- Y Y Y Y Y Y Y Y Y Y Y Y - ^ 5.5.5.5.5.5.5.5.5.5.5.5.5.5.5.5.5.5.5.5.5.5.5.5.5.5.5.5.5.5.5.5.5.@.  L I I I I I I I 6 6.6.6.",
"6.6.  Y Y Y Y Y Y Y Y Y Y Y Y   $.5.5.5.5.5.5.5.5.5.5.5.5.5.5.5.5.5.5.5.5.5.5.5.5.5.5.5.5.5.5.5.5.5.5.> 0 I I I I I I I C   6.6.",
"6.6.  Y Y Y Y Y Y Y Y Y Y Y Y   3.5.5.5.5.5.5.5.5.5.5.5.5.5.5.5.5.5.5.5.5.5.5.5.5.5.5.5.5.5.5.5.5.5.5.%.o K I I I I I I H   6.6.",
"6.6.  Y Y Y Y Y Y Y Y Y Y Y y   5.5.5.5.5.5.5.5.5.5.5.5.5.5.5.5.5.5.5.5.5.5.5.5.5.5.5.5.5.5.5.5.5.5.5.5.< 9 I I I I I I I   6.6.",
"6.6.  u Y Y Y Y Y Y Y Y Y Y r ; 5.5.5.5.5.5.5.5.5.5.5.5.5.5.5.5.5.5.5.5.5.5.5.5.5.5.5.5.5.5.5.5.5.5.5.5.*.  K I I I I I I & 6.6.",
"6.6.  u Y Y Y Y Y Y Y Y Y Y e i 5.5.5.5.5.5.5.5.5.5.5.5.5.5.5.5.5.5.5.5.5.5.5.5.5.5.5.5.5.5.5.5.5.5.5.5.5.1 8 I I I I I I 0   6.",
"6.6.  y Y Y Y Y Y Y Y Y Y Y - R 5.5.5.5.5.5.5.5.5.5.5.5.5.5.5.5.5.5.5.5.5.5.5.5.5.5.5.5.5.5.5.5.5.5.5.5.5.&.  o $ $ $ & * $   6.",
"6.6.  r Y Y Y Y Y Y Y Y Y Y O } 5.5.5.5.5.5.5.5.5.5.5.5.5.5.5.5.5.5.5.5.5.5.5.5.5.5.5.5.5.5.5.5.5.5.5.5.,.+ 3 b c x z z 5 .   6.",
"6.6.  e Y Y Y Y Y Y Y Y Y Y   :.5.5.5.5.5.5.5.5.5.5.5.5.5.5.5.5.5.5.5.5.5.5.5.5.5.5.5.5.5.5.5.5.5.5.5.:.X 5 ............m . 6.6.",
"6.6.6.: Y Y Y Y Y Y Y Y Y u   5.5.5.5.5.5.5.5.5.5.5.5.5.5.5.5.5.5.5.5.5.5.5.5.5.5.5.5.5.5.5.5.5.5.5.;.. z ............ .. 6.6.6.",
"6.6.6.- Y Y Y Y Y Y Y Y Y r O 5.5.5.5.5.5.5.5.5.5.5.5.5.5.5.5.5.5.5.5.5.5.5.5.5.5.5.5.5.5.5.5.5.5.-.  z ..............4   6.6.6.",
"6.6.6.- Y Y Y Y Y Y Y Y Y e < 5.5.5.5.5.5.5.5.5.5.5.5.5.5.5.5.5.5.5.5.5.5.5.5.5.5.5.5.5.5.5.5.5.=.  z ..............M   6.6.6.6.",
"6.6.6.  Y Y Y Y Y Y Y U :   X @.5.5.5.5.5.5.5.5.5.5.5.5.5.5.5.5.5.5.5.5.5.5.5.5.5.5.5.5.5.5.3.*.. x ................. 6.6.6.6.6.",
"6.6.6.  Y Y Y Y Y y O   3 c 4 . < &.5.5.5.5.5.5.5.5.5.5.5.5.5.5.5.5.5.5.5.5.5.5.5.5.5.5.5.5.%.  x ................4   6.6.6.6.6.",
"6.6.6.  Y Y Y e   . 4 b M M M n 4   t =.5.5.5.5.5.5.5.5.5.5.5.5.5.5.5.5.5.5.5.5.5.5.5.5.5.@.  c ................N   6.6.6.6.6.6.",
"6.6.6.  y :   . 5 M M M M M M M M n 4   i -.5.5.5.5.5.5.5.5.5.5.5.5.5.5.5.5.5.5.5.5.5.5.+.  b ..................@ 6.6.6.6.6.6.6.",
"6.6.6.    # x M M M M M M M M M M M M b 3   g :.3.5.5.5.5.5.5.5.5.5.5.5.5.5.5.5.5.5.5.o.. n ..................5   6.6.6.6.6.6.6.",
"6.6.6.6.  z M M M M M M M M M M M M M M M c 2   T ,.5.5.5.5.5.5.5.5.5.5.5.5.5.5.5.5.X.  n ..................B   6.6.6.6.6.6.6.6.",
"6.6.6.6.6.  3 M M M M M M M M M M M M M M M M c #   T <.5.5.5.5.5.5.5.5.5.5.5.5.5.[   M ....................@ 6.6.6.6.6.6.6.6.6.",
"6.6.6.6.6.6.  @ m M M M M M M M M M M M M M M M M c #   ~ 2.5.5.5.5.5.5.5.5.5.5.] . M ....................z   6.6.6.6.6.6.6.6.6.",
"6.6.6.6.6.6.6.  . c M M M M M M M N M M M M M M M M M z @   ' 3.5.5.5.5.5.5.5.^   N ....................V   6.6.6.6.6.6.6.6.6.6.",
"6.6.6.6.6.6.6.6.6.  z M M M M M M M M M M M M M M M M M M z @ X [ 3.5.5.5.5.~   N ......................@ 6.6.6.6.6.6.6.6.6.6.6.",
"6.6.6.6.6.6.6.6.6.6.  3 M M M M M M M M M M M M M M M M M M M z . X X.5.5.R . B ....................| 2 . 6.6.6.6.6.6.6.6.6.6.6.",
"6.6.6.6.6.6.6.6.6.6.6.  # m M M M M M M N M M M M M M M M M M M M 5 . ; a . B ....................m   . 6.6.6.6.6.6.6.6.6.6.6.6.",
"6.6.6.6.6.6.6.6.6.6.6.6.  . c M M M M M M M M M M M M M M M M M M M M 4   V ..................| 3   6.6.6.6.6.6.6.6.6.6.6.6.6.6.",
"6.6.6.6.6.6.6.6.6.6.6.6.6.6.  z M M M M M M M M M M M M M M N M M M M c . ..................M . . 6.6.6.6.6.6.6.6.6.6.6.6.6.6.6.",
"6.6.6.6.6.6.6.6.6.6.6.6.6.6.6.  3 M M M M M M M M M M M M M M M M M M z . .............. .3 . 6.6.6.6.6.6.6.6.6.6.6.6.6.6.6.6.6.",
"6.6.6.6.6.6.6.6.6.6.6.6.6.6.6.6.  # n M M M M M M M M M M M M M M M M 5 @ ............M .   6.6.6.6.6.6.6.6.6.6.6.6.6.6.6.6.6.6.",
"6.6.6.6.6.6.6.6.6.6.6.6.6.6.6.6.6..   # 5 m M M M M N M M M M M M M M 4 # ..........5   6.6.6.6.6.6.6.6.6.6.6.6.6.6.6.6.6.6.6.6.",
"6.6.6.6.6.6.6.6.6.6.6.6.6.6.6.6.6.6.6.6.    . 3 x M M M M M M M M M M 3 2 ......N @   6.6.6.6.6.6.6.6.6.6.6.6.6.6.6.6.6.6.6.6.6.",
"6.6.6.6.6.6.6.6.6.6.6.6.6.6.6.6.6.6.6.6.6.6.6.      # 5 b M M M M M M 2 3 ....5   6.6.6.6.6.6.6.6.6.6.6.6.6.6.6.6.6.6.6.6.6.6.6.",
"6.6.6.6.6.6.6.6.6.6.6.6.6.6.6.6.6.6.6.6.6.6.6.6.6.6.6.    . 2 z m M M # 4 B @   6.6.6.6.6.6.6.6.6.6.6.6.6.6.6.6.6.6.6.6.6.6.6.6.",
"6.6.6.6.6.6.6.6.6.6.6.6.6.6.6.6.6.6.6.6.6.6.6.6.6.6.6.6.6.6.6.    @ 4 @ @   6.6.6.6.6.6.6.6.6.6.6.6.6.6.6.6.6.6.6.6.6.6.6.6.6.6.",
"6.6.6.6.6.6.6.6.6.6.6.6.6.6.6.6.6.6.6.6.6.6.6.6.6.6.6.6.6.6.6.6.6.6.    . 6.6.6.6.6.6.6.6.6.6.6.6.6.6.6.6.6.6.6.6.6.6.6.6.6.6.6."
};
