/* XPM */
static char *geonext[] = {
/* columns rows colors chars-per-pixel */
"64 64 80 1",
"  c #00923F",
". c #009441",
"X c #009B44",
"o c #14964D",
"O c #119A4D",
"+ c #199750",
"@ c #179B51",
"# c #199951",
"$ c #269A59",
"% c #01A147",
"& c #02A349",
"* c #02AC4C",
"= c #04B14F",
"- c #13A252",
"; c #1AA557",
": c #13AA55",
"> c #1AA758",
", c #1BAC5B",
"< c #05B451",
"1 c #06BB56",
"2 c #08BF58",
"3 c #1CB05D",
"4 c #27A55E",
"5 c #28A55F",
"6 c #1DBC63",
"7 c #2DBD6C",
"8 c #469F6D",
"9 c #46A26E",
"0 c #46A670",
"q c #46A871",
"w c #57A277",
"e c #57A378",
"r c #5BA37B",
"t c #57AA7B",
"y c #58AA7C",
"u c #58B17F",
"i c #05C057",
"p c #07C459",
"a c #09C45B",
"s c #06C95B",
"d c #0ACA5E",
"f c #0CCE61",
"g c #0ED364",
"h c #0FD867",
"j c #0FDB69",
"k c #10D867",
"l c #12DC6B",
"z c #2EC16E",
"x c #2FC570",
"c c #13E06F",
"v c #16E273",
"b c #18E377",
"n c #1CE57D",
"m c #4BC07E",
"M c #5EAC80",
"N c #5AB481",
"B c #65A581",
"V c #69A684",
"C c #66AC85",
"Z c #69AC86",
"A c #70A688",
"S c #70A989",
"D c #65B186",
"F c #62BD8A",
"G c #1FE782",
"H c #1EE884",
"J c #20E784",
"K c #21E886",
"L c #24EA8C",
"P c #24EC90",
"I c #4EC482",
"U c #4FC884",
"Y c #50CA86",
"T c #53CE8B",
"R c #54D08D",
"E c #56D190",
"W c #59D295",
"Q c #5DD49C",
"! c #7FC7A7",
"~ c None",
/* pixels */
"!QQQQWWERTYYIImmmF~~~~~~~~~~~~~~~~~~~~~~~~~~~~yqq9qq9q9q999q99qZ",
"QPPPLKnbblkggfffsz~~~~~~~~~~~~~~~~~~~~~~~~~~~~4%&%%%&X%XX%%  % 9",
"QPLLLKnbvckkgdfdsz~~~~~~~~~~~~~~~~~~~~~~~~~~~~4X%&X%XX&XXXXX% X0",
"QLPLKnnvvlkgggddpz~~~~~~~~~~~~~~~~~~~~~~~~~~~~4&%X%X&XXXXXXXXX 0",
"QLLLJnbvlkggffddpz~~~~~~~~~~~~~~~~~~~~~~~~~~~~4%X%XX&XXXXXXXXX 0",
"QLLKnnvvlkggdfdapz~~~~~~~~~~~~~~~~~~~~~~~~~~~~4%%X&XXXXXXXXX X 0",
"QLJnnbvlkkgffddai7~~~~~~~~~~~~~~~~~~~~~~~~~~~~4XXXXXXXXXXXX  X q",
"QJnnbvllggggddaai7~~~~~~~~~~~~~~~~~~~~~~~~~~~~4&&XX%XXXXX.XXXX 0",
"Wnnbbllkggffddaai7~~~~~~~~~~~~~~~~~~~~~~~~~~~~4XXXXXXXXXXXX.XX 9",
"Ebbbvlkkgffdaaaa16NNNNNuNuD~~~~~~~~~~Cttttttey-XXXXXXX.XX.X... 9",
"Rvblkgkfffddaa2221111<<<=*3~~~~~~~~~~;&&&&&XX&&XXXXXXXXXXX.X.XX9",
"Rllkkggffddaaa2211<<<<<===3~~~~~~~~~~;%&XX&&&XXXXXXXXX.X XX .. 8",
"Tlkkggfffddaa22211<<<<==*=,~~~~~~~~~~;&&&&&XXXX&XXXXXX.XX..XX. 9",
"Ugkfgffddaaa222111<<<===**,~~~~~~~~~~;&X&X&XX&XX&XXXX.X..X.. . 9",
"Yggfffddaaa22211<<<<=*=***,~~~~~~~~~~;&&&&XXX&XXXX.XXX.XX.X.X. 9",
"mffffdddaa22121<<<<=<==***,~~~~~~~~~~;X&XXX&XXXXXX.XX.X.X... . 9",
"Iffddsssiiii111<<<====****:~~~~~~~~~~;&XX&%XXXXXXXX..X.X .X    9",
"Fxxxzzzz7z1111<<<<==**=**&,~~~~~~~~~~;&&&XXXXXXXX.XXX.@$$$$$$$$r",
"~~~~~~~~~N11<<<<<===******:DZSZSZZCZC-XXXXXXXXX.XX..X.y~~~~~~~~~",
"~~~~~~~~~N11<<<<====*****&*&&*&&&&O&&X&XXXXXXXXX.X.X..w~~~~~~~~~",
"~~~~~~~~~N1<<<====*******&&*%&&%&&&X&XXX&XXXX.XXX.X..Xw~~~~~~~~~",
"~~~~~~~~~N<<<<==*=*****&**&&%%&&&XX&X&X&XXXXXXX..X....y~~~~~~~~~",
"~~~~~~~~~N<<====*=*****&&&&&%%&%&X&XXXXXXXXX.XXXXX.X.Xw~~~~~~~~~",
"~~~~~~~~~N<<===*****&*&**&&&&&&%&&&XXXXXXXXXXX........e~~~~~~~~~",
"~~~~~~~~~u<===*=*****&&*&&&&&%%&X&&XXXXXXX.X.X.X.X....w~~~~~~~~~",
"~~~~~~~~~N=*=*****&***&&&&&&%%%XXXXXXXXXXXXXX.X.. ....w~~~~~~~~~",
"~~~~~~~~~D333,,,,,:**%%%&&&&%%%%&XXXXXXXX.XX.o##@#####B~~~~~~~~~",
"~~~~~~~~~~~~~~~~~~C&&*%&%&&%%%%XXX&XXXXXXX..XV~~~~~~~~~~~~~~~~~~",
"~~~~~~~~~~~~~~~~~~Z**&&&&%%%%%X%XXXXXXX.X.XXXV~~~~~~~~~~~~~~~~~~",
"~~~~~~~~~~~~~~~~~~S&&&&&%%&&X%%XXXXXXXXXX...XV~~~~~~~~~~~~~~~~~~",
"~~~~~~~~~~~~~~~~~~Z&&&&&%%%&%%X%XXXXXXX..X..OB~~~~~~~~~~~~~~~~~~",
"~~~~~~~~~~~~~~~~~~Z&&&&X%%% XXXXXXXX.X.XXX...B~~~~~~~~~~~~~~~~~~",
"~~~~~~~~~~~~~~~~~~Z-&X&XX&X&XXXXXXX.XX.X..X.OV~~~~~~~~~~~~~~~~~~",
"~~~~~~~~~~~~~~~~~~Z&&&&&&&XXXXXXXXXX.XX......V~~~~~~~~~~~~~~~~~~",
"~~~~~~~~~~~~~~~~~~Z&&XX&XXXXXXXXXX..XX.......V~~~~~~~~~~~~~~~~~~",
"~~~~~~~~~~~~~~~~~~V%&&&&&X&XXXXXXXXX..X......A~~~~~~~~~~~~~~~~~~",
"~~~~~~~~~~~~~~~~~~C&&X&XXX&XXXXXX.XX.........V~~~~~~~~~~~~~~~~~~",
"~~~~~~~~~C>;>->>;;-X&XXXXXXXXXX.XX..X..X.....o#$##++++B~~~~~~~~~",
"~~~~~~~~~t&%%%&&&&&&&XXXXXXXX.XX.XX..X........  ......w~~~~~~~~~",
"~~~~~~~~~t*&&&&XX&XXXX&XXXXXXX.XX..X........... ......w~~~~~~~~~",
"~~~~~~~~~y&&&&&&&XX&XXXXXXXXX.X...X........     ... ..w~~~~~~~~~",
"~~~~~~~~~t&&&XX&X&&XXXXXXXX.XX.XX........ .. .    ....w~~~~~~~~~",
"~~~~~~~~~t&%&&X&XX&XXXXXX..X.X.......... . .    .. ...w~~~~~~~~~",
"~~~~~~~~~y%%&X&X&XXXXXXXXXXXX..XX.X...  .. .    . ....w~~~~~~~~~",
"~~~~~~~~~y%%&XX&&XXXXXXXX.XX.OX..XXo  ...  .    ... . w~~~~~~~~~",
"~~~~~~~~~y%%&&XXXXXXXXXXXXoVVVVVVVVVro ...... .  . .. w~~~~~~~~~",
"M44444444-X&XXXXXXXXXXXXX.@~~~~~~~~~~+ .  ..        ..+$$$$$$$$r",
"q%&%&X&&%X&X&X&XXXX.XXX .X#~~~~~~~~~~+ ....       .            8",
"q&&%&%%&XXXX&XXXXX.X.XX...@~~~~~~~~~~+ .    .           ..     w",
"q%%%%%%%X&&XXXXXXXXX.XX.X @~~~~~~~~~~+..   .       .  ...      8",
"q%%%&%&X%&X%&XXXXX.XX.XX.X#~~~~~~~~~~+..      .     .  . . o   8",
"q%%%X&X&XXXXXXXXXXXX.X....#~~~~~~~~~~+...     ..     ...       8",
"q%%%X%XXXXXXXXX.X.X.X.... #~~~~~~~~~~+.. . ...... .....    o   w",
"q%%%%X&XXXXXXXXXXX.X..XX X#~~~~~~~~~~+.... .....  . ..         8",
"q%%XXXXXXXXXXXX..@yeyweeywB~~~~~~~~~~BeewMBBMB+.  ..           8",
"q%X%X%%XXXXXX.XXX$~~~~~~~~~~~~~~~~~~~~~~~~~~~~$.   . .  o      8",
"9%&XX%XXXXXX..X.X$~~~~~~~~~~~~~~~~~~~~~~~~~~~~$.      o        w",
"qXX%XXXXXXXXXXXX $~~~~~~~~~~~~~~~~~~~~~~~~~~~~$.o              8",
"9%XXXXXXXX..X... 4~~~~~~~~~~~~~~~~~~~~~~~~~~~~5.               8",
"qXX&XXXXXXXXXX.X 4~~~~~~~~~~~~~~~~~~~~~~~~~~~~$.   o       o   8",
"9XXXXXXX.XXX..X  $~~~~~~~~~~~~~~~~~~~~~~~~~~~~$    o           w",
"qXXXXXX XX...XX. $~~~~~~~~~~~~~~~~~~~~~~~~~~~~$                8",
"q X XX X X XX    $~~~~~~~~~~~~~~~~~~~~~~~~~~~~$                8",
"S0qq9q99999999999r~~~~~~~~~~~~~~~~~~~~~~~~~~~~B8888888888w88888A"
};
