/* XPM */
static char *geoproof__[] = {
/* columns rows colors chars-per-pixel */
"64 64 256 2",
"   c #38C835241E73",
".  c #1E9210402B04",
"X  c #1E8810812ECD",
"o  c #215F13142DCC",
"O  c #296A1D172EA9",
"+  c #24A616443112",
"@  c #26D318B0330D",
"#  c #29331B103547",
"$  c #2BB81EBC38AC",
"%  c #34EA1A263951",
"&  c #322F25E7274B",
"*  c #2E12205E39FF",
"=  c #3252248E3DEC",
"-  c #369529953CC3",
";  c #36CA2EA82D4D",
":  c #5E0B3CF01178",
">  c #4A3E35A11DD5",
",  c #6EAB38CC12C0",
"<  c #5BDB31902A5A",
"1  c #3D0841C519D9",
"2  c #48DB47191799",
"3  c #5A6D525C1582",
"4  c #56EE521318B7",
"5  c #587A49EF199C",
"6  c #68995C5A180D",
"7  c #729068B01800",
"8  c #54A550672D36",
"9  c #68FA52392CDE",
"0  c #724B6D17301E",
"q  c #3643293F4229",
"w  c #3A662D3545B4",
"e  c #37DD2A37437F",
"r  c #3DBF31364926",
"t  c #41F234FE4D67",
"y  c #453438B24FC2",
"u  c #47D33C0C530D",
"i  c #527920754A8D",
"p  c #691A173654D0",
"a  c #4DC142BB58CB",
"s  c #527847035D63",
"d  c #54AB51DE4D95",
"f  c #6B67574E461C",
"g  c #78AF761158CC",
"h  c #70036D5F4E54",
"j  c #57074CC6624A",
"k  c #5D02528A684F",
"l  c #632558A56AFC",
"z  c #69565DCF72EF",
"x  c #6CD1636376A0",
"c  c #74286A2C7CEC",
"v  c #7A30773167FA",
"b  c #B9F511C90296",
"n  c #92DB2F071178",
"m  c #A85A22E51214",
"M  c #B3503ED4353E",
"N  c #CD750A7E082A",
"B  c #E962199434CC",
"V  c #D97E323D3405",
"C  c #F1462B44324C",
"Z  c #E0441AE31F85",
"A  c #933345CB17A3",
"S  c #88D2780A0D5D",
"D  c #845B7D902BAF",
"F  c #A3144BD22C2B",
"G  c #B3741ADF6AE2",
"H  c #B880331E439C",
"J  c #D9E92D6E55EC",
"K  c #EF0538094450",
"L  c #D260381A66FC",
"P  c #C7C61D1D5511",
"I  c #869E74F04A29",
"U  c #9529718D6C1C",
"Y  c #AFC272CC7457",
"T  c #94D159BF4AED",
"R  c #F1C44F2353D7",
"E  c #D1A956067069",
"W  c #EE925C07663E",
"Q  c #F59F67D76CE1",
"!  c #F5CA711672C4",
"~  c #D568669656CE",
"^  c #9772841609EF",
"/  c #87A5839F1A4D",
"(  c #A6E28E8F08DA",
")  c #A9B592BA081A",
"_  c #B5D59ADB07A0",
"`  c #B9BEA4E612FB",
"'  c #930C887D275F",
"]  c #948C8CB1302B",
"[  c #B700ACB4332B",
"{  c #A7BB9DFD2561",
"}  c #C9BDAD4C01B8",
"|  c #DC50BA700097",
" . c #D5A9B57D0249",
".. c #CC6CB22F063B",
"X. c #C730BA7C2EA5",
"o. c #E377BDC50000",
"O. c #E646C4D7006B",
"+. c #E9C6C5D100BD",
"@. c #EB7CCC43009D",
"#. c #E89DCADF0730",
"$. c #EEB0D2DD0167",
"%. c #EE66D44C0A1C",
"&. c #F1FAD9810663",
"*. c #F24ADA2B165D",
"=. c #EBE1D00016FA",
"-. c #F237DC6734E9",
";. c #ED84D6AE2A62",
":. c #E4E8D0282666",
">. c #98859421789C",
",. c #923D89FD73EC",
"<. c #AE01A4C35AE1",
"1. c #CBA4BFF44606",
"2. c #D843CBC94BEE",
"3. c #EA88DB2252B2",
"4. c #F613E47F4764",
"5. c #F53BE4C45A79",
"6. c #E5B2DAD06757",
"7. c #F728E98766FE",
"8. c #F9A4ED0C78B0",
"9. c #F4DDEB38739A",
"0. c #D7B0CDAB71F7",
"q. c #2ADE30F8A936",
"w. c #314A294681C9",
"e. c #73042ECAA33D",
"r. c #6C52571B81C7",
"t. c #7B8272CC83F6",
"y. c #79D274938B8C",
"u. c #74466DA8870B",
"i. c #2C3032F2D67B",
"p. c #11D708A2F88D",
"a. c #28A62D0DFC15",
"s. c #2EEB33A5FE9C",
"d. c #36453967FB58",
"f. c #2F5C2D83EE53",
"g. c #6BCE31D8C56C",
"h. c #4A643B9BDEBC",
"j. c #3F5742C8FFA0",
"k. c #563954B5DA94",
"l. c #70E74E8ACB08",
"z. c #765C7330C80A",
"x. c #48E84942FC87",
"c. c #58B05813FD40",
"v. c #56A24CEEEB61",
"b. c #659C5AF3F8BC",
"n. c #6D286C26FEDE",
"m. c #67E86425FC93",
"M. c #7974785BFCE4",
"N. c #6DAD6BDCF780",
"B. c #5FCD6423FE5F",
"V. c #9C4F299787DD",
"C. c #84DF7C0A8B72",
"Z. c #88B97F6C91D8",
"A. c #A7FE58ACA620",
"S. c #CCA26CC888A9",
"D. c #F0C8795D888B",
"F. c #8B685157C912",
"G. c #82817D47F8EE",
"H. c #89167558E740",
"J. c #B9557D61C3B2",
"K. c #8CEA846F97B0",
"L. c #939E8B2A99BE",
"P. c #991994F89A12",
"I. c #90CE84B989B4",
"U. c #A6639DEE9575",
"Y. c #A0219CDF8FD9",
"T. c #AAB9A58E9B29",
"R. c #9BE79584A498",
"E. c #924F8AB0A469",
"W. c #A2AC9A12AC41",
"Q. c #A6DF9B5AB7D0",
"!. c #A92AA45CAA88",
"~. c #B470AD31A83E",
"^. c #B7ABB43AAAB6",
"/. c #AB86A509B3E5",
"(. c #ACAFA868B747",
"). c #B22CAD88B584",
"_. c #B4C3AB2EBACC",
"`. c #B965B53EBCB2",
"'. c #B981B5A3B903",
"]. c #AFC3B0F2B56A",
"[. c #D3B68DD2903E",
"{. c #F74E863F8C52",
"}. c #F3679421985F",
"|. c #CE268C81B5A8",
" X c #F2E69AD4A440",
".X c #C818B4DFB8F4",
"XX c #F25BB325B9FC",
"oX c #FA04EFF08707",
"OX c #CC07C7BEBE83",
"+X c #CD95C9B687B1",
"@X c #975790FBCFBB",
"#X c #BCFAB8A4C432",
"$X c #B438ADB5C94E",
"%X c #897087E4FC0A",
"&X c #97FF96ADFA28",
"*X c #96EA8E7EE977",
"=X c #A5679E88F6FE",
"-X c #A804A55BF872",
";X c #B9D1B717F8F6",
":X c #B520AF50EA7E",
">X c #A6308045D96F",
",X c #C2CEBD60C57A",
"<X c #C472BD0FCB1E",
"1X c #D165B661D0CC",
"2X c #F3FFBDA4C4CD",
"3X c #C8C0BDD7F214",
"4X c #CD6A991ECA66",
"5X c #C667C2FFCBC6",
"6X c #CA3DC4A7CDC1",
"7X c #C8A4C598C8EA",
"8X c #D5FBCA5FCBD5",
"9X c #CEB6CAD0D3BC",
"0X c #CA7CC49BD476",
"qX c #D3ACCC51D55D",
"wX c #D443CD97DAF6",
"eX c #D593C11ED8B8",
"rX c #D67ED366DC04",
"tX c #D9D4D460DE12",
"yX c #D605D35AD6FE",
"uX c #F090CEC0D8DA",
"iX c #DC18D5B3E3E5",
"pX c #DD90DA33E35E",
"aX c #DA78D6F4E7E9",
"sX c #C9B2C89FFB1C",
"dX c #D343CD7EF8E7",
"fX c #D9B9D68AF857",
"gX c #D113CC58E36D",
"hX c #E1D7DD94E55F",
"jX c #E57CDDCDEDB8",
"kX c #E8FEDEF7EFB0",
"lX c #E80BD993EAC3",
"zX c #F31BDBC4E641",
"xX c #E58EDEAFF294",
"cX c #E9A8DFC8F25D",
"vX c #E20BD840F371",
"bX c #E617E344EBF1",
"nX c #EA57E3D0EED3",
"mX c #EC70E96CEE7E",
"MX c #E3C4E1D4E5C7",
"NX c #F2C4E501EF4C",
"BX c #F22BE75EEB77",
"VX c #E6A4E1DDF2C8",
"CX c #ECA3E5F9F345",
"ZX c #EE8DEB18F533",
"AX c #EEF7EDD1F997",
"SX c #E8ACE545F9F8",
"DX c #F284ED52F636",
"FX c #F3CFEE52F99E",
"GX c #F1D2E77AF1D3",
"HX c #F572F278F707",
"JX c #F611F459FAF4",
"KX c #F9E4F75EFBE5",
"LX c #FCA3FA92FE3E",
"PX c #F99DF8C0FA1E",
"IX c #DFACE0A2FF1C",
"UX c None",
/* pixels */
"UXUXUXUXUXUXUXUXUXUXUXUXUXUXUXUXUXUXUXUXUXUXUXUXUXUXUXUXUXUXUXUXUXUXUXUXUXUXUXUXUXUXUXUXUXUXUXUXUXUXUXUXUXUXUXUXUXUXUXUXUXUXUXUX",
"UXUXUXUXUXUXUXUXUXUXUXUXUXUXUXUX# o . . . o . . + + @ + @ UXUXUXUXUXUXUXUXUXUXUXUXUXUXUXUXUXUXUXUXUXUXUXUXUXUXUXUXUXUXUXUXUXUXUX",
"UXUXUXUXUXUXUXUXUXUXUXUXUXUXUXUX@ t j k j j s s u t w * @ o UXUXUXUXUXUXUXUXUXUXUXUXUXUXUXUXUXUXUXUXUXUXUXUXUXUXUXUXUXUXUXUXUXUX",
"UXUXUXUXUXUXUXUXUXUXUXUXUXUXUXUX$ t.,X9X<X#X(./.R.C.u.l a y t w w q q q * # @ UXUXUXUXUXUXUXUXUXUXUXUXUXUXUXUXUXUXUXUXUXUXUXUXUX",
"UXUXUXUXUXUXUXUXUXUXUXUXUXUXUX$ t (.HXAXZXmXmXnXjXpXaXiXtXwX<X_.R.K.y.z s q @ # # # # # @ UXUXUXUXUXUXUXUXUXUXUXUXUXUXUXUXUXUXUX",
"UXUXUXUXUXUXUXUXUXUXUXUXUXUXUX= c 0XLXLXHXHXHXHXJXFXJXJXJXJXZXhXaXrX9X#X#XQ.R.C.t.l a t $ o . X o + UXUXUXUXUXUXUXUXUXUXUXUXUXUX",
"UXUXUXUXUXUXUXUXUXUXUXUXUXUX+ r /.bXKXKXHXFXFXFXAXAXFXDXAXAXZXZXAXFXAXZXFXFXVXiX0X$XW.K.u.z k j y e $ UXUXUXUXUXUXUXUXUXUXUXUXUX",
"UXUXUXUXUXUXUXUXUXUXUXUXUX@ # j iXKXJXFXHXJXDXDXDXHXHXDXZXDXZXZXCXCXZXZXCXCXCXSXVXSXVXxXjXhX<X/.K.x s w = # # UXUXUXUXUXUXUXUXUX",
"UXUXUXUXUXUXUXUXUXUXUXUXUX+ r C.nXKXHXHXHXFXFXFXFXDXDXDXDXZXDXDXZXCXCXZXZXCXCXCXkXCXNXNXVXcXjXaXiXgX1X_.z e + UXUXUXUXUXUXUXUXUX",
"UXUXUXUXUXUXUXUXUXUXUXUXUXo s #XHXuXuXKXFXHXFXDXFXDXDXDXGXZXZXZXZXCXCXCXCXCXnXNXnXxXcXnXVXcXxXcXcXSXSXgXZ.t + UXUXUXUXUXUXUXUXUX",
"UXUXUXUXUXUXUXUXUXUXUXUXUX# x hXDX|.|.xXFXJXHXFXFXDXDXDXDXZXDXCXDXCXCXDXCXCXGXNXVXSXxXVXVXnXjXxXcXvXcXiXZ.y + UXUXUXUXUXUXUXUXUX",
"UXUXUXUXUXUXUXUXUXUXUXUX# t K.FXxXF.g.-XSXLXKXFXFXDXFXDXGXDXDXGXZXDXCXCXCXZXCXCXCXVXbXVXbXnXVXjXjXlXcXgXz e # UXUXUXUXUXUXUXUXUX",
"UXUXUXUXUXUXUXUXUXUXUXUX# l `.KXAXb.p.x.dXHXDXHXDXDXFXDXFXAXZXNXZXZXCXGXCXCXVXCXVXVXcXVXVXVXxXjXjXjXjX0Xu $ # UX2 3 2   UXUXUXUX",
"UXUXUXUXUXUXUXUXUXUXUXUX# C.pXLXAXB.p.d.%XfXHXDXHXDXFXDXDXFXZXGXZXZXZXZXZXZXCXnXnXVXcXnXkXxXjXjXxXjXpX$Xt + UX: A F F 6 : UXUXUX",
"UXUXUXUXUXUXUXUXUXUXUXUXe !.HXKXAXB.f.k.x.-XSXJXHXDXFXDXDXDXDXCXZXZXZXCXZXCXSXnXCXCXcXcXkXxXjXlXjXxXtXR.w & n m R Q ! ~ F , UXUX",
"UXUXUXUXUXUXUXUXUXUXUX* j 5XLXFXZXm.v.z.f.N.3XDXDXDXHXGXCXZXDXZXAXCXCXCXCXVXnXCXCXCXCXcXnXkXkXkXjXVX1XC.- > n C 0.}.}.! V n : UX",
"UXUXUXUXUXUXUXUXUXUXUXq C.rXLXLXLXM.v.@X*Xc.M.mXFXFXFXFXZXmXZXCXAXZXGXZXCXZXCXnXnXCXCXnXnXnXVXlXjXcX$Xl 8 8 U [.}.! R Z N b n UX",
"UXUXUXUXUXUXUXUXUXUXo r `.ZXLXJXJX%Xc.:X@Xk.c.-XSXJXDXDXDXDXDXZXGXZXZXCXCXCXCXnXCXVXnXVXnXkXjXjXjXpX!.8 g T.8X8X,.F N N N n , UX",
"UXUXUXUXUXUXUXUXUX@ * s tXLXKXHXHX%Xn.=X!.*Xn.c.dXFXHXDXFXFXFXZXCXZXZXCXCXCXkXVXVXCXnXxXnXxXxXjXMX].g 8 ~.MXLXMXU.T m b b , 2 UX",
"UXUXUXUXUXUXUXUXUX+ w t.MXLXLXJXHX&Xn.&X(.9X&Xs.=XfXHXDXDXDXDXZXCXCXGXCXGXZXCXCXVXVXkXkXnXxXxXlX5XI 4 g tXPXAXbXzX^.T m n : 1 UX",
"UXUXUXUXUXUXUXUXUX+ s (.ZXLXKXLXJX=XN.%X0XyX:XG.x.-XKXZXmXZXDXNXGXSXGXGXCXZXSXVXZXcXkXCXcXjXcXqXg / [ +XOXMXZXAXDXmX~.9 5 UXUXUX",
"UXUXUXUXUXUXUXUX# + x tXPXKXJXLXJX-XM.%XfX7X5X3Xx.M.dXFXDXZXZXDXAXGXCXGXNXNXCXZXCXcXcXnXnXCX9X>.0 [ 9.oX+X<.^.mXDXHXT.8 UXUXUXUX",
"UXUXUXUXUXUXUXUX# q K.HXLXKXJXLXJX;XM.M.IX,X,XVX%Xc.%XSXDXDXZXZXZXZXCXZXNXCXCXSXCXVXVXnXmXqXT.0 [ 6.oX7.-.{ <.^.8X^.v 8 UXUXUXUX",
"UXUXUXUXUXUXUXUX@ s !.LXLXLXLXJXJX;XM.M.fX7X5XmXfXc.x.sXCXDXDXGXFXZXSXGXCXCXCXnXxXCXcXkXpXT.g ] 6.oX8.-.&.$.` / >.h 2 1 UXUXUXUX",
"UXUXUXUXUXUXUXUX# t.9XJXKXLXJXKXJXsX%Xm.fXMX8X9XmX-Xc.m.fXHXGXBXAXCXZXZXNXNXCXCXVXVXCXaX^.g ' 3.8.8.4.&.&.$.@...' 4 2 UXUXUXUXUX",
"UXUXUXUXUXUXUX@ $ R.ZXLXLXJXJXLXJXdXG.c.fXHXyX'.bXIX%Xj.-XvXDXDXZXCXZXZXCXCXCXCXnXnXMX5Xg ' 2.8.8.4.*.&.&.$.@.} 7 4 UXUXUXUXUXUX",
"UXUXUXUXUXUXUX# u `.LXLXLXLXJXJXPXfX%Xj.fXPXyX].bXPX;Xm.c.;XDXFXCXZXZXCXCXnXnXnXCXCX5X>.D X.7.8.4.*.&.$.$.@...^ 3 UXUXUXUXUXUXUX",
"UXUXUXUXUXUXUXq x 6XLXLXLXLXLXJXJXSX%Xj.fXPXtX'.MXHXSX;Xs.G.vXHXCXCXZXZXCXCXCXCXSXaXY.0 X.7.oX5.&.&.$.$.@. .^ 2 UXUXUXUXUXUXUXUX",
"UXUXUXUXUXUXUXw P.tXLXLXLXJXJXFXJXHX%Xa.dXPXmXtX6XMXFXfXM.v.H.DXGXDXCXCXCXCXVXcXbXT.h { 6.8.4.*.&.$.$.@.O.^ 4 1 UXUXUXUXUXUXUXUX",
"UXUXUXUXUXUX+ t 5XPXLXPXLXLXJXJXJXPX&Xa.fXPXHXbX`.tXHXZX3Xv.v.sXSXDXCXCXNXDXZXkXOXg ' 2.8.4.*.%.&.$.@.| ) 6 1 UXUXUXUXUXUXUXUXUX",
"UXUXUXUXUX# $ j tXLXLXLXLXLXLXJXJXPX&Xa.:XHXPXMX].qXHXGX9XH.c.M.fXDXCXGXNXDXCXtX,.I 1.9.7.;.&.%.@.@.| ` 6 2 UXUXUXUXUXUXUXUXUXUX",
"UXUXUXUXUX@ r y.mXLXLXLXLXLXJXJXLXLX=Xa.@XyXmXmX`.qXNXnX).$XM.d.;XVXZXCXZXSXpX~.0 [ 7.7.-.*.$.@.@.$._ 7 2 UXUXUXUXUXUXUXUXUXUXUX",
"UXUXUXUXUXo s (.ZXLXJXLXKXLXLXJXLXLX-Xs.*X$X5XnXhX7X7XzX$XeX-Xb.m.;XDXCXCXCX^.h { 6.7.*.%.#.@.@.@.} S 2 UXUXUXUXUXUXUXUXUXUXUXUX",
"UXUXUXUXUX. l rXKXLXLXKXLXKXKXHXHXLX-Xx.-X0X5X,XpX,X~..X[. XuXJ.j.%XfXNXDX.X,./ 2.5.-.$.@.@.@.O.} S 3 UXUXUXUXUXUXUXUXUXUXUXUXUX",
"UXUXUXUXUX* c HXLXLXKXLXKXJXJXLXKXPX;Xx.-XIXzX.X[.S.E W Q D.0.D.e.l.=XCXtX>.0 [ 7.4.=.@.#.#.O.} S 3 UXUXUXUXUXUXUXUXUXUXUXUXUXUX",
"UXUXUXUX# y R.LXLXLXLXLXLXJXKXLXLXPX;Xc.&XaXzX XR C Z B Q Q C C R V.F.3XT.h { 7.4.;.%.@.O.O.} ^ 3 UXUXUXUXUXUXUXUXUXUXUXUXUXUXUX",
"UXUXUXUX# z ,XLXLXLXLXLXLXLXLXHXHXHX3Xm.G.4X! C Q [.U T 1XzXuXuXD.J P A.f { 2.5.=.@.@.+.+...^ 2 UXUXUXUXUXUXUXUXUXUXUXUXUXUXUXUX",
"UXUXUXUX@ K.MXLXLXLXLXJXKXKXLXKXHXKXsXn.H.S.R D.2XOXK.U (.rXZXZXuX[.E A D 1.4.:.+.+.@.+. .^ 4   UXUXUXUXUXUXUXUXUXUXUXUXUXUXUXUX",
"UXUXUXUX= !.LXLXLXLXLXJXLXKXKXKXHXHXsXG.A.J ! BXAX5XR.(.].,X9XpXDXeX,.7 X.3.-.O.+.+.O. .( 5     UXUXUXUXUXUXUXUXUXUXUXUXUXUXUXUX",
"UXUXUX* a ,XLXLXLXLXLXLXLXLXKXFXLXHXdXH.J Q 2XmXmX<X).5XrX7X`.,XpXT.I ' 2.-.#.O.O.+. .( 5   ; UXUXUXUXUXUXUXUXUXUXUXUXUXUXUXUXUX",
"UXUXUXq t.yXLXLXLXJXLXPXJXPXLXLXLXPXdXH.C {.NXBX7X9XtXpX`.rXMX#XP.h ' :.;.=.O.+.O.| ( 4 ; ; & UXUXUXUXUXUXUXUXUXUXUXUXUXUXUXUXUX",
"UXUXUXw !.bXLXLXLXLXJXLXPXKXJXJXHXPXdXJ.B  XLXGX`.9XAXbX].rXHX7Xg 7 { -.=.#.O.O. .^ 0 f ; O UXUXUXUXUXUXUXUXUXUXUXUXUXUXUXUXUXUX",
"UXUXo y 6XLXLXLXLXLXLXKXKXLXJXAXKXPXlX|.V  XLXbX`.iXJXnX`.rXMX.X0 ) #.:.#.O.#.| ) 0 h z - UXUXUXUXUXUXUXUXUXUXUXUXUXUXUXUXUXUXUX",
"UX$ $ s MXLXLXLXLXLXLXLXLXLXKXJXLXPXvX4XB }.ZXyX5XpXJXVX5X9X`.>.' } @.| O.O. ._ 4 v ,.l = UXUXUXUXUXUXUXUXUXUXUXUXUXUXUXUXUXUXUX",
"UX@ w c bXLXLXLXLXLXKXKXLXJXJXKXJXHXSX1XB {.eX'.hXGXDXDXmX5XI.h { | @.+.o.| ) 8 l Y.P.u % UXUXUXUXUXUXUXUXUXUXUXUXUXUXUXUXUXUXUX",
"UX@ u P.ZXLXLXLXLXLXLXLXLXLXJXKXHXJXAX3XG L [.'.bXFXDXDXAX5Xv 6 ..#.+.+.o.( 6 d q.@XK.- UXUXUXUXUXUXUXUXUXUXUXUXUXUXUXUXUXUXUXUX",
"UXo j ,XHXLXLXLXLXLXKXLXLXLXJXJXJXJXJXgXg.G R [.BXHXJXFXAX'.h 4 )  .o.} ) 7 f r.i.l.z @ UXUXUXUXUXUXUXUXUXUXUXUXUXUXUXUXUXUXUXUX",
"UX. z MXLXLXLXLXLXLXLXKXPXLXKXJXJXJXPXsXa.V.C R XXzXkXmXmXT.f 2 6 ) ` S 8 d u.z.j.e.p + UXUXUXUXUXUXUXUXUXUXUXUXUXUXUXUXUXUXUXUX",
"UX. x mXLXLXLXLXLXLXLXKXLXLXLXLXKXJXKXdXs.l.Y R C Q  X2XiXI.9 > 2 4 5 d w.q.i.c.b.e.i # UXUXUXUXUXUXUXUXUXUXUXUXUXUXUXUXUXUXUXUX",
"UX+ t I.`.mXLXLXLXLXPXLXKXPXLXJXJXHXLXfXj.k.>XQ.L L L L R H < < 8 k u.E.@X*X=X:X:Xz % UXUXUXUXUXUXUXUXUXUXUXUXUXUXUXUXUXUXUXUXUX",
"UXUX$ e z P.#XhXLXLXLXLXLXKXHXJXKXHXKXaXl.h.b.M.H.F.A.L W E Y U Z.Q.:XgXCXGXGXmX<Xk . UXUXUXUXUXUXUXUXUXUXUXUXUXUXUXUXUXUXUXUXUX",
"UXUXUX@ # O a L.qXMXmXHXJXLXJXFXLXKXJXzXS.g.v.N.G.=X;XsXSXZXZXSXNXGXCXCXCXGXCXaXR.u o UXUXUXUXUXUXUXUXUXUXUXUXUXUXUXUXUXUXUXUXUX",
"UXUXUXUXUX# * w r j C.`.MXAXJXJXFXKXLXFXzXvXfXvXcXcXZXZXZXZXZXZXFXFXZXCXCXZXFXiXx e @ UXUXUXUXUXUXUXUXUXUXUXUXUXUXUXUXUXUXUXUXUX",
"UXUXUXUXUXUXUXUXUXq r s x I./.wXZXKXKXKXLXKXKXHXFXFXFXDXDXDXDXCXSXFXFXCXCXCXCX<Xa $ UXUXUXUXUXUXUXUXUXUXUXUXUXUXUXUXUXUXUXUXUXUX",
"UXUXUXUXUXUXUXUXUXUX+ o o - j y.W.`.9XMXHXKXHXHXFXFXDXDXDXFXZXCXCXZXCXCXCXCXiXW.r UXUXUXUXUXUXUXUXUXUXUXUXUXUXUXUXUXUXUXUXUXUXUX",
"UXUXUXUXUXUXUXUXUXUXUXUX# # # @ # a y./.qXpXhXbXDXFXDXDXDXZXAXDXZXCXCXCXNXFX<Xu.q UXUXUXUXUXUXUXUXUXUXUXUXUXUXUXUXUXUXUXUXUXUXUX",
"UXUXUXUXUXUXUXUXUXUXUXUXUXUXUXUX@ $ q w u l C.Q.eXkXFXZXZXZXZXAXDXFXZXCXNXFX_.u * UXUXUXUXUXUXUXUXUXUXUXUXUXUXUXUXUXUXUXUXUXUXUX",
"UXUXUXUXUXUXUXUXUXUXUXUXUXUXUXUXUXUXUXUX+ = t a l c L./.5XjXJXFXFXCXZXCXCXlXR.q UXUXUXUXUXUXUXUXUXUXUXUXUXUXUXUXUXUXUXUXUXUXUXUX",
"UXUXUXUXUXUXUXUXUXUXUXUXUXUXUXUXUXUXUXUX# # # + o # t k c L./.#X0XqXiXcXAX<Xc @ UXUXUXUXUXUXUXUXUXUXUXUXUXUXUXUXUXUXUXUXUXUXUXUX",
"UXUXUXUXUXUXUXUXUXUXUXUXUXUXUXUXUXUXUXUXUXUXUXUXUXO # # # # w k u.Z.W.<X1XK.u @ UXUXUXUXUXUXUXUXUXUXUXUXUXUXUXUXUXUXUXUXUXUXUXUX",
"UXUXUXUXUXUXUXUXUXUXUXUXUXUXUXUXUXUXUXUXUXUXUXUXUXUXUXUXUX@ $ = q e w t y w * # UXUXUXUXUXUXUXUXUXUXUXUXUXUXUXUXUXUXUXUXUXUXUXUX",
"UXUXUXUXUXUXUXUXUXUXUXUXUXUXUXUXUXUXUXUXUXUXUXUXUXUXUXUXUXUXUXUXUXUXUXUXUXUXUXUXUXUXUXUXUXUXUXUXUXUXUXUXUXUXUXUXUXUXUXUXUXUXUXUX",
"UXUXUXUXUXUXUXUXUXUXUXUXUXUXUXUXUXUXUXUXUXUXUXUXUXUXUXUXUXUXUXUXUXUXUXUXUXUXUXUXUXUXUXUXUXUXUXUXUXUXUXUXUXUXUXUXUXUXUXUXUXUXUXUX",
"UXUXUXUXUXUXUXUXUXUXUXUXUXUXUXUXUXUXUXUXUXUXUXUXUXUXUXUXUXUXUXUXUXUXUXUXUXUXUXUXUXUXUXUXUXUXUXUXUXUXUXUXUXUXUXUXUXUXUXUXUXUXUXUX"
};
