/* XPM */
static char *gnuplot[] = {
/* columns rows colors chars-per-pixel */
"32 32 6 1",
"  c #000000000000",
". c #FFFF00000000",
"X c #000080800000",
"o c #00000000FFFF",
"O c #C0C0C0C0C0C0",
"+ c #FFFFFFFFFFFF",
/* pixels */
"                                ",
" +++++ ++++++O+++++++O++X++++O+ ",
" +++++ ++++++O+++++++O+X+++++O+ ",
" +++++ ++++++O+++++++O+X+++++O+ ",
" +++++ ++++++O+++++++OX++++++O+ ",
" +++++ ++++++O+++++++X+++++++O+ ",
" OOOOO OOOOOOOOOOOOOOXOOOOOOOOO ",
" +++++ ++++++O++++++XO+++++++O+ ",
" +++++ ++++++O+++++X+O+++++++O+ ",
" .++++ ++++++O+++++X+O+++++++O+ ",
" +.+++ ++++++X++++X++O+++++++O+ ",
" +.+++ +++++XOX++X+++O+++++++O+ ",
" ++.++ +++++XO+X+X+++O+++++++O+ ",
" +++.+ ++++X+O++X++o+O+++++++Oo ",
" +++.+ +++X++O++++o+oO+++++++o+ ",
" OOOO. OOOXOOOOOOoOOoOOOOOOOoOO ",
" +++++ .+X+++O++o++++o++++++oO+ ",
" X++++ +X++++O+o+++++Oo++++o+O+ ",
" +X+++ +X++++Oo++++++O+o++o++O+ ",
" +X+++ X+.+++o+++++++O.o+o+++O+ ",
" ++X+X +++.+oO+++++++..+o++++O+ ",
" +++X+ ++++.+O+++++++.+.+++++O+ ",
" +++++ +++o.+O++++++.O++.++++O+ ",
" +++++ ++o++.O+++++.+O+++.+++O+ ",
"                                ",
" +++++ +o++++.++++.++O++++.++O+ ",
" +++++ +o++++O..+.+++O+++++.+O+ ",
" +++++ o+++++O++.++++O++++++.O+ ",
" ++++o ++++++O+++++++O+++++++.+ ",
" +++o+ ++++++O+++++++O+++++++O. ",
" ++o++ ++++++O+++++++O+++++++O+ ",
"                                "
};
