/* XPM */
static char *gureko_bunao[] = {
/* columns rows colors chars-per-pixel */
"64 64 256 2",
"   c #010101",
".  c #080702",
"X  c #0D0B03",
"o  c #0C0C0B",
"O  c #100E05",
"+  c #100F0B",
"@  c #14120A",
"#  c #1D1A0A",
"$  c #191607",
"%  c #0E0F17",
"&  c #191917",
"*  c #221E0A",
"=  c #241E00",
"-  c #201F16",
";  c #2A250B",
":  c #2D290C",
">  c #262208",
",  c #332D0C",
"<  c #302901",
"1  c #36310D",
"2  c #3A340D",
"3  c #3E380F",
"4  c #3B3402",
"5  c #282513",
"6  c #312D17",
"7  c #3B3510",
"8  c #3F3910",
"9  c #3B3719",
"0  c #191A25",
"q  c #1E2026",
"w  c #282826",
"e  c #383626",
"r  c #393938",
"t  c #2A2C32",
"y  c #433C0C",
"u  c #403700",
"i  c #433D11",
"p  c #463E1B",
"a  c #403D29",
"s  c #4C4309",
"d  c #574C0A",
"f  c #5D5209",
"g  c #4B4312",
"h  c #544B14",
"j  c #584F14",
"k  c #514918",
"l  c #5C5315",
"z  c #5A5319",
"x  c #675B0B",
"c  c #645B16",
"v  c #685E19",
"b  c #665C17",
"n  c #6E620C",
"m  c #7A6A0D",
"M  c #6D6114",
"N  c #6C6219",
"B  c #6F6819",
"V  c #716619",
"C  c #756A1A",
"Z  c #796D1B",
"A  c #776B15",
"S  c #7D711C",
"D  c #7A700E",
"F  c #5A532A",
"G  c #464537",
"H  c #524C2C",
"J  c #645C2C",
"K  c #756A25",
"L  c #7C7125",
"P  c #6D652F",
"I  c #3B3D46",
"U  c #3F414B",
"Y  c #444443",
"T  c #4B4B4A",
"R  c #585544",
"E  c #494B58",
"W  c #555558",
"Q  c #656454",
"!  c #746F4F",
"~  c #585963",
"^  c #575A70",
"/  c #5F6069",
"(  c #676768",
")  c #6A6B74",
"_  c #757575",
"`  c #78787B",
"'  c #74756F",
"]  c #8B7C13",
"[  c #82751C",
"{  c #867A1C",
"}  c #8B7C1E",
"|  c #867816",
" . c #887706",
".. c #897A21",
"X. c #837E59",
"o. c #8C811B",
"O. c #94841E",
"+. c #9A8B1D",
"@. c #968719",
"#. c #9D8A0F",
"$. c #AB9718",
"%. c #B39E18",
"&. c #A18E19",
"*. c #B8A31D",
"=. c #AFA319",
"-. c #948520",
";. c #9C8C21",
":. c #988823",
">. c #9E9022",
",. c #918628",
"<. c #A08F21",
"1. c #A49322",
"2. c #AD9B24",
"3. c #A89825",
"4. c #B19E24",
"5. c #A99A3E",
"6. c #B5A225",
"7. c #B9A526",
"8. c #BEAA26",
"9. c #B7A829",
"0. c #BCB329",
"q. c #BAAA36",
"w. c #AAA127",
"e. c #C4AE1D",
"r. c #D0B71D",
"t. c #CCB51D",
"y. c #C2AD26",
"u. c #C3AE29",
"i. c #C6B127",
"p. c #C5B229",
"a. c #CAB529",
"s. c #CDBA2A",
"d. c #C8B826",
"f. c #D3BD2B",
"g. c #D4BD26",
"h. c #C8B73B",
"j. c #CDC12C",
"k. c #D4C22B",
"l. c #DCC42C",
"z. c #DDC92D",
"x. c #DBC625",
"c. c #DBC734",
"v. c #DFD130",
"b. c #E4CC2D",
"n. c #E9CF2E",
"m. c #E3C925",
"M. c #E5D12E",
"N. c #ECD32E",
"B. c #EBD82B",
"V. c #FCDE27",
"C. c #FBDE2E",
"Z. c #F2D72B",
"A. c #E5CF30",
"S. c #ECD531",
"D. c #ECDA31",
"F. c #E8D635",
"G. c #F2D630",
"H. c #F5DA31",
"J. c #FBDE31",
"K. c #F1D93A",
"L. c #FFE126",
"P. c #FFE22E",
"I. c #FFEB2C",
"U. c #F7E42A",
"Y. c #FFF22B",
"T. c #FFFA2F",
"R. c #F5E232",
"E. c #FEE232",
"W. c #FFEB34",
"Q. c #FDE33C",
"!. c #FFEB3B",
"~. c #FFF335",
"^. c #FFFA37",
"/. c #FFF439",
"(. c #FFFE3A",
"). c #EAE134",
"_. c #FFF019",
"`. c #8D864D",
"'. c #B4A74C",
"]. c #80807F",
"[. c #B2AA7A",
"{. c #C1B140",
"}. c #EDD84E",
"|. c #FDE443",
" X c #FDE44B",
".X c #FAEA44",
"XX c #FFF242",
"oX c #FFFD4B",
"OX c #FDE654",
"+X c #FBE659",
"@X c #FBE757",
"#X c #FFF059",
"$X c #FDE967",
"%X c #FBEA7A",
"&X c #FFF97A",
"*X c #DDCD66",
"=X c #767883",
"-X c #72758A",
";X c #7F818A",
":X c #838383",
">X c #8B8B8B",
",X c #87868A",
"<X c #8A8B96",
"1X c #9A9A9A",
"2X c #949599",
"3X c #9A9786",
"4X c #BEBA9B",
"5X c #989AA4",
"6X c #9699B5",
"7X c #9FA0A1",
"8X c #A2A2A2",
"9X c #A8A7AA",
"0X c #A9AAB5",
"qX c #B7B7B8",
"wX c #B0AEB5",
"eX c #F5949D",
"rX c #FFA6AB",
"tX c #E9B4B9",
"yX c #F1ABB2",
"uX c #C1AFB7",
"iX c #DDD182",
"pX c #CBC58F",
"aX c #E7DA86",
"sX c #FDEC86",
"dX c #FEEE88",
"fX c #F3E487",
"gX c #FFF188",
"hX c #FFF789",
"jX c #FAED91",
"kX c #FEF599",
"lX c #CCC9AE",
"zX c #FEF5A8",
"xX c #FBF2AF",
"cX c #BBBCC6",
"vX c #F0BFC4",
"bX c #BFC0CB",
"nX c #C3C3C3",
"mX c #CACACB",
"MX c #DBDCDC",
"NX c #D4D4D5",
"BX c #CCCBD5",
"VX c #FAC7CB",
"CX c #E9D9DF",
"ZX c #FFFAD9",
"AX c #FBF7D4",
"SX c #F4F2CC",
"DX c #D8DAE7",
"FX c #EBEBEB",
"GX c #E4E4E5",
"HX c #FAF8E9",
"JX c #EBECF3",
"KX c #F4F4F4",
"LX c #FFFFFE",
"PX c #F9FAF7",
"IX c #F4EFF4",
"UX c #D7E0E6",
/* pixels */
"LXLXLXLXLXLXLXLXLXLXLXLXLXLXLXLXLXLXLXLXLXLXLXLXLXLXLXLXLXLXLXLXLXPXLXLXLXLXLXLXLXLXLXLXLXLXLXLXLXLXLXLXLXLXLXLXLXLXLXLXLXLXLXLX",
"LXLXLXLXLXLXLXLXLXLXLXLXLXLXLXLXLXLXLXLXLXLXLXLXLXLXLXLXLXLXLXLXLXLXLXLXLXLXLXLXLXLXLXLXLXLXLXLXLXLXLXLXLXLXLXLXLXLXLXLXLXLXLXLX",
"LXLXLXLXLXLXLXLXLXLXLXLXLXLXLXLXLXLXLXLXLXLXLXLXLXLXLXLXLXLXLXZXZXZXZXZXZXZXZXZXZXZXZXZXZXZXZXZXZXZXZXZXZXZXZXZXZXZXZXZXZXZXZXHX",
"LXLXLXLXLXLXLXLXLXLXLXLXLXLXLXLXLXLXLXPXLXLXLXLXLXAXgXxXSXdX$XP.P.P.P.P.P.P.P.P.C.P.P.P.P.P.P.P.P.P.P.P.P.E.P.C.P.P.P.P.P.P.L.sX",
"LXLXLXLXLXLXLXLXLXLXLXLXLXLXLXLXLXLXLXLXLXLXPXSXdX|.Q.|.P.L.V.E.J.E.E.E.E.E.E.E.E.E.E.E.E.E.E.E.E.E.E.E.E.E.E.E.E.E.E.E.E.E.L.gX",
"LXLXLXLXLXLXLXLXLXLXLXLXLXLXLXLXPXHXZXHXkX#X$X+X X%XQ.P.Q.E.E.E.E.E.E.E.E.E.E.E.E.J.E.E.E.E.E.E.E.E.E.E.E.E.E.E.E.E.E.E.E.E.L.dX",
"LXLXLXLXLXLXLXLXLXLXLXLXHXAXI qXhX%XjXkX&X$X@X$X X|.E.E.E.E.E.E.E.E.E.E.E.J.E.E.E.E.E.E.E.E.E.E.E.E.E.E.J.E.E.E.E.J.E.E.E.E.L.dX",
"LXLXLXLXLXLXLXLXPXkXhXhXzX}.O 1 .X#X/.8.K a.P.V.P.P.J.J.J.E.E.E.E.E.E.E.E.E.E.E.E.E.E.E.E.J.E.E.E.E.J.E.E.E.E.E.E.E.E.E.E.E.L.dX",
"LXLXLXLXAXSXlX$X+Xm.h.pXaX*Xh A G  Xl g * 2.(.!.~.W.~.~.~.E.E.E.E.E.E.P.E.E.E.E.E.E.J.J.E.E.E.J.E.E.E.E.J.E.E.E.E.E.E.E.E.E.V.dX",
"HXHXjXOXW.h.O 4 9 9 p i 7 9 . 6.| X [ W.j s.-.c j l l Z 6.n.E.E.E.E.J.E.E.E.E.E.E.J.W.~.E.N.D.~.~.H.N.E.~.W.J.E.E.E.E.E.E.E.L.dX",
"@X|.V.P.W.K.6 p.N.J.W.W.C.k.c O.~.k.W.J.h g Z 2.y.a.u.:.  g E.E.E.E.E.E.E.E.E.E.E.~.a.c i i 2 h h , 1 , l y./.R.J.E.E.E.E.E.L.dX",
"P.E.E.E.C.~.N S ^.J.J.E.E.W.W.W.E.W.E.E.A.D.^.~.W.~.D.h -.H.E.E.E.E.E.E.E.E.J.W.R.c 7 O.l.E.N.7.6.n.H.l.-., h F.W.J.E.E.E.E.L.dX",
"E.E.E.J.Q.(.s.O l.W.J.E.E.P.J.E.E.J.E.E.E.E.J.J.P.H., 6.^.E.J.J.J.J.P.E.J.J.W.z.2 { W.~.E.E.E.W.W.E.E.W.~.W.[ > s.W.J.E.Q.J.V.dX",
"|.E.J./.D.v ; b N.E.E.E.E.E.E.E.E.E.E.E.E.E.E.E.E.E.V c R.~.W.~.W.W.W.W.W.~.k.: 8.^.J.J.W.~.~.E.W.W.~.W.J.H.^.8.$ u./.J.W.W.I.gX",
"W.W./.9.# c n.~.E.E.E.E.J.E.J.J.E.E.J.J.E.P.E.E.E.E.~.} k f.6.6.a.f.y.a.a.a.: 8./.J.W.~.f.} l h h j Z y.W.~.H./.p.# u.b.f.f.r.aX",
"2.y.-.+ 8.^.E.J.E.E.E.E.W./.W.W.E.J.W./.W.W.J.E.E.E.J.(.} ; 2.@.6.6.<.3.6.# +.^.H.W.s.h g } 8.f.f.y.[ 2 7 6.W.H.^.;.# b.b.g.x.aX",
"8.N . k.~.J.E.E.E.E.J.W.a.4 > +.~.^.6.< < 7.W.E.E.E.E.J./.N 0.(.W.W.W.(.3.h ~.J.W.u.g y./.(.~.W.I.(.oX^.9.* o.~.J.~.h { (.W.U.gX",
"W.i 9.(.R.E.E.E.E.E.E.R.$ =X9X% | +.@ <X<Xo z.W.J.E.E.J.E.f.h W.E.E.E.J.8 k.W.J.E.c ).I.r.p.f.F.q.Z m &.R.R.1 A.E.E.z.; M.W.L.gX",
"s.@ Z 6.l.C.E.E.E.J./.x 0 PXLX(     Y LXLXI 4 ~.E.E.E.E.W.(.C y.E.N.W.1.N ^.J.W.f.h O.! 9XNXIXPXKXBX5XW @ N : +.~.J.~.N [ W.m.fX",
"f.<.g @ , E.E.E.R.(.] E w :XqX+ wXNXo 9X8X& I x ^.H.W.8.h >.S 3 2.+.} 1 s.W.J.W.k.A F GXLXLXLXLXLXLXLXLXmX. : 3.W.J.W.p.> p.e.iX",
">.S 3.1 2.W.J.W.c f R LXqXw & :XLXLX7X0 0 7XLXT 4 > H.u.h S i ;.~.W.M.j E.E.E.W.W.1.qXLXPXLXLXLXLXLXPXPXLX( s /.~.E.E.E.1 f.~.sX",
"^.F.o.b (.E.E.m.G E MXLXLXLXLXLXLXLXLXLXLXLXLXGXU q %.!.l 0.W.H.J.W.7.M ~.J.E.g.K wXLXPXLXLXLXLXLXLXLXLXLXPXW > 6.E.E.~.h -.Y.fX",
"E.n.2 c N N /.%.=XLXLXLXLXLXLXLXLXLXPXLXLXLXLXPXLX<Xn (.V +.W.E.J.~.-.-.~.E.x.' JXLXLXLXLXLXLXLXLXLXLXLXLXLXLXwX& p.E./.S b Y.sX",
"E.n.N N 7.+.(.@.9XLX:X` KXLXLXLXLXLXLXLXLXLX>X_ LXcX3 } g -.W.E.J.~.{ 2.W.W.*.9XLXmX_ FXLXLXLXLXLXLXLXLXFX` nXLX( o./.~.;.h Y.sX",
"W.k.s.(.W.1.M 1 BXLXNX>X7XLXLXLXLXLXLXLXLXqX` mXPXGX@ # S 2.E.E.E.~.{ 8.~.~.@.cXLXnX1X2XLXLXLXLXLXLXLXLX2X1XnXLX2Xd W.^.;.h ~.sX",
"W.s.p.E.~.n ^ ) MXLXLXLXKXLXLXLXLXLXLXLXLXKXLXLXLXFXr =XM 6.E.E.J.~.O.7.S.8 6 MXLXPXLXMXLXLXLXLXLXLXLXLXMXLXPXLXqXo 9 C.-.M _.%X",
"W.y.p.W./.x 1X1XGXLX9XY LXLXLXLXLXLXLXLXLXLX~ >XLXKXY 2Xh 6.J.E.J.W.1.1.A -X` MXLXKXNXLXLXLXLXLXLXLXLXLXLXNXIXLXmXW ) ] ..,.kXAX",
"W.a.p.W.W.=.U ].FXLX2X5 LXLXLXLXLXLXLXLXLXLXr ) LXLXY 0 @.7.H.E.E.~.s.Z n 5X_ GXLX9X. IXLXLXLXLXLXLXLXLXKXo 1XLXMXT <XD z lXAXZX",
"W.s.i.W.J.W.| w GXyXtXNXLXLXLXLXLXLXLXLXLXLXGXtXyXIXr @.W.2.E.E.J.l./.b @.r W KXLX0Xo FXLXLXLXLXLXLXLXLXPX% 8XLXFXt a | z oXs.jX",
"W.k.a.W.E.E.(.O.qXrXyXLXLXLXLXLXPXLXLXLXLXLXLXtXrXuX7 ~.E.y.H.E.N.# -.s.V $.e CXeXyXMXLXLXLXLXLXLXLXLXLXLXMXyXeXBX6 +.k v.-.o *X",
"E.n.f.E.J.J.W.i.Q KXLXLXLXPXLX2XW _ nXLXPXLXLXLXKXt } W.E.p.C.E.J.y C Z h N N 9XVXvXLXLXLXLXLXLXLXLXLXLXLXLXVXVX,Xu b P P ..y iX",
"W.m.f.W.E.E.E.l.8.! cXLXLXLXLXmXFXMXnXPXLXLXFX5X0 n W.E.W.p.C.J.~.N -./.g.u.v q UXLXPXLXLXPX` nXNX9XPXLXLXPXLXBX- O.f.6.W.0.s hX",
"E.n.f.E.E.E.W.y.A.I.2.Y ) lXMXFXLXJXqX:X( t - d 8.W.E.C.W.6.H.E.W.M.* { J.n.c O.p =XBXPXLXLXnX:X>XNXLXLXKXbX) # y.N y.(.8.@ a.kX",
"W.b.y.W.J.J.W.p.b.S.3 M c +./.F BXqX8 d.s A , S (.H.E.E.E.i.H.E.E.W.b.h : ; c W.B.@.c w T ~ ,X2X1X>X~ Y w g D S.^.q.& 1 , y.XXzX",
"E.n.y.W.J.E.W.k.p.# -.(.w.{ (.t.Y H Z.v.c (.H.h b ~.E.E.W.p.H.E.E.J.W.~.G.E.j.n.E.(.[ $ s %.X . .   ] ] 1 M.(.E.J.!.b.5.#XXX XjX",
"W.N.a.W.E.J.W.p.O >.~.E.s.M ^.F.1 l.(.{ >.W.C.~.l N ~.J.E.6.H.E.E.E.J.J.E.W.6.S.W.8 l z.z (.9.5 @ [ (.>.u.N h.XX|.+X}.0.Q.J.|.kX",
"E.N.y.W.E.E.W.3 [ (.E.W.A.l D.k 0.~.H.j N.W.E.W.~.g 2.~.E.7.H.E.E.E.E.E.E.W.7.R.h h ^.E.k b.(.y z ^.H.N W.F.h z.!.|.}.'.#X|.OXzX",
"W.n.6.W.J.~.S g M.>.O.s.p.;.* 1.~.W.6.S S.s.m.l.E.z.g H.W.8.G.E.E.J.E.E.J.E.f.{ , W.J.^.{ 4.p.@ g.W.j.S D.D.k.l W.E.H.8.E.E.J.zX",
"E.H.8.E.E.H.: k.!.R.4.+ M S C ~.J.~.l k.k.; ( q.x.^.B 2.~.u.C.W.E.E.E.E.E.W.y.* s.~.k.b b y h X e ! 4 h g y.(.{ O.~.|.'.+XE.V.dX",
"E.H.8.E.W.k.1 p.n '.FX9X, V W.J.W.d.l (.| 5XLX4Xe w.6.O.^.8.G.E.P.E.E.E.C.~.O.1 ~.E.9.6.f.n./.$.E T d 6.a.l.E.D.l E.Q.a.Q.Q.E.zX",
"E.E.p.E.E.E.1   ( 0XLXLX<X+./.G.~.l p.x.' LXLXMX0XF A 2.^.y.H.E.E.E.E.E.P.W.2.# D.E.R.~.W.R.~.7.s m.~.~.W.E.E.R.h H.Q.8.Q.OXOXzX",
"E.H.p.E.C.~.o.  2XLXPXLXwX;.(.(.p.N oXz.Q KXLXLX;XX k H.W.p.H.E.E.J.E.E.E.E.z.N j ^.E.W.E.E.~.} 0.^.C.J.C.W.R.l 2.W.E.p.Q.OX|.kX",
"E.E.8.E.J.W.c.1 l ' 8X` & l { ;.3 S 7.w.s w ! R M X ;.~.E.a.H.E.J.E.E.E.E.E.a.R.2 [ l.s.x.S.W.f 6.C.E.W.~.R.g :.~.E.E.p.Q.OX XdX",
"E.E.p.E.E.E.W.b i s   D G.9.# % _ wXE 5 k y $.g.-.g E.J.W.f.G.E.E.E.E.E.E.E.f.J.M.i * y 1 X > r G 5 6 g V , :.^.E.E.E.a.C.P.V.dX",
"E.J.p.E.E.E.J.l.6.z c /.!.B.F DX( Q 9XX.U.s.V # g R.E.E.E.l.H.E.E.E.E.E.E.E.k.G.~.Z B (.$.W ;X<X5X5XG *.s.8 ..W.J.E.E.g.C.E.R.kX",
"E.E.p.E.E.E.J.x.(.c z (.P.F DXPX,. .bXcX&.^.(.g 3 W.J.E.E.z.D.E.J.E.E.E.E.E.l.W.3.o 3.V.G LX3X .j mXqX$.(.} * N.W.E.W.m.H.W.U.gX",
"E.W.f.E.W.E.E.b.n.O g z.N.L 9X0Xd.0.) ,X1.E.S.l i 9.~.E.~.M.H.W.E.E.C.J.E.E.k.n.j 2 j.^.[ 6X`.T.=.5XDXF ~.+.i <.H.A.N.a.b.n.m.fX",
"l.f.4.7.7.u.9.8.C S C ; 1 2 . o g g . X i i 3 V p.g ;.} $.3.1.O.O.S C Z A S S h l 1 2.n.P.S >.oXB.F L l.~.} C j V { V b L Z n [.",
"C.J.H.J.H.C.H.W.g p.^.E.N.z.k.b.i X f.k.f.A.E.W.W.l c.+XK.G.K.N.H.J.J.C.J.Z.~.c 1.;., 1 , s h h j 3 h j s 8 a.S d.~.E.W.W.!.U.gX",
"E.E.E.E.E.E.W.l.2 E.H.H.E.W.W.b.8 y l.~.E.W.E.b.~.[ 3./.|.Q.Q.E.E.E.E.E.E.W.D.1 M.~.W.J.b.a.p.g . 9.a.g.N.R./.1.{ ~.J.E.E.J.L.dX",
"E.E.E.E.E.J.~.-.h ^.p.H.E.E.W.2.l V 2.~.E.E.E.p.R.i.N XXJ.E.E.E.E.E.E.E.J.~.>.g ~.J.S.H.W.E.^.l X M.~.W.s.H.W.b.c W.Q.E.E.E.L.dX",
"E.E.E.E.E.H./.z o.~.3.E.E.J.~.[ Z -.[ ~.J.J.W.p.a.E.j K.Q.J.E.R.E.E.E.E.J.~.b [ ~.E.f.H.E.R.H.g 8 $.W.W.8.k.E.E.l z.!.J.E.Q.L.dX",
"E.E.E.E.W.~.E.8 j.R.+.W.W.W.(.M   . N ~.E.E.!.k.O.(.c s.(.W.E.E.E.J.E.W.W.W.g 1.(.W.2.C.E.W.z.O   o.^.!.p.6.~.(.o.:.~.~.W.J.L.dX",
"E.E.W.E.7.l *   f 7.@.L.e.$.6.;     3 G.x.Z.I.D.M g.> $ M y.W.E.E.W.E.2.h $   . x Z.o.C.P.E.2.    k x.E.g.O.Z.#.2   , Z f.W.L.dX",
"C.E.N.i         r t , G W W .         O G R J N 6 w .       h C.W.f.;         t -Xe 6 k F e X       T P H e R :X&         V L.dX",
"J.~.[   X . .   :X8X) <X7X` .           W ,X=X( ,X`   . . .   :.(.j   X . .   - >X_ ~ / ) r         T ,X` >XqXwX&     . .   e.hX",
"E.E.x.;                                                     i S.W.i.#                                                     z V.dX",
"@X|..X X1.g +                                         @ h 4.R.E.E.W.D.O.3 X                                         # l y.W.L.sX",
"sXQ.$XkXXXW.}.h.,.P H e - + X X . . X O $ > 6 H K :.h.G.W.~.J.E.E.J.E.~.W.n.8.} c g , ; $ $ $ O X X O $ > 2 h C 1.s.H.~.W.E.L.dX",
"L.P.P.P.C.J.P.W.~.XX&XsXsX$XA.b.b.b.b.N.G.J.!.XX/.XXXXE.J.J.E.E.P.E.E.J.J.W.W.~./.~.E.E.H.G.G.n.n.n.A.H.Q.!.~.~.!.W.E.E.E.|.P.%X",
"Q.E.E.E.E.E.E.J.J.J.V.V.C.P.W.E.E.W.W.E.E.E.E.C.J.J.J.E.E.E.E.E.E.E.E.E.E.E.J.J. XOXQ.E.E.E.E.E.E.E.W.Q.@X XJ.J.C.Q.Q.E.|.OXP.$X",
"E.E.E.E.E.E.E.E.E.E.E.E.E.J.E.E.E.C.J.E.E.J.E.E.E.E.E.E.E.E.E.E.J.E.E.E.E.E.E.E.P.E.E.J.E.E.E.E.E.E.E.E.C.P.E.Q.E.Q.E.J.E.P.E.$X",
"E.E.E.E.J.E.E.E.E.E.E.E.E.E.E.E.E.E.E.E.E.E.E.E.E.E.E.E.E.J.E.E.E.E.E.E.E.E.E.E.E.E.E.E.E.E.C.E.E.E.E.E.E.E.E.J.E.E.E.E.E.E.E. X",
"E.E.E.E.E.E.E.Q.E.E.E.E.E.E.E.E.E.E.E.E.E.E.E.J.E.E.E.E.E.E.E.E.E.E.E.J.E.E.E.E.E.E.E.E.E.E.E.E.E.E.E.E.E.E.E.E.E.E.E.E.E.E.E.E."
};
