/* XPM */
static char *h[] = {
/* columns rows colors chars-per-pixel */
"64 64 217 2",
"   c #1E3A108E0000",
".  c #0FF800001EBB",
"X  c #35C120540000",
"o  c #3A1423AA0000",
"O  c #3D6828500084",
"+  c #43A32B370000",
"@  c #49152EDB0000",
"#  c #4D0031C30000",
"$  c #52E3351D0003",
"%  c #5B2B37970000",
"&  c #5CD33B7B0048",
"*  c #48FD25C010FC",
"=  c #63B93E510000",
"-  c #61FD35E70F2D",
";  c #63E63A760AA0",
":  c #698037D115D2",
">  c #6B0539FD1E4B",
",  c #5E7F275824AF",
"<  c #64BE2F8F25E9",
"1  c #6B3034A822BE",
"2  c #6D5F2B7D334A",
"3  c #64EA258039FD",
"4  c #78B6333C33C9",
"5  c #653941720000",
"6  c #6CF345AE0066",
"7  c #6E08482000C4",
"8  c #714646BD0000",
"9  c #75B74C3E0000",
"0  c #79384E610000",
"q  c #7DF851020000",
"w  c #7A2D41201551",
"e  c #7FC348B71FBC",
"r  c #30F800005336",
"t  c #379600B05A61",
"y  c #3BE700A55DDC",
"u  c #3E3B00806418",
"i  c #4A7F0F5E4C9B",
"p  c #5675172C4A9C",
"a  c #5E151B445253",
"s  c #68531E045664",
"d  c #62BB180259D1",
"f  c #66CF21A1486F",
"g  c #6AFD238A4ACE",
"h  c #76512CD6483B",
"j  c #7437222A5B94",
"k  c #70DA311B535D",
"l  c #414300006CC3",
"z  c #4789000074A2",
"x  c #4C6B030E75E0",
"c  c #584A071875C4",
"v  c #563505C27F50",
"b  c #662F178566E9",
"n  c #693016736388",
"m  c #6DC41B7D61A2",
"M  c #727819806C55",
"N  c #77751A8A75C2",
"B  c #78971CC372B8",
"V  c #7E863D09680C",
"C  c #6DAE24667331",
"Z  c #76772073707A",
"A  c #8123398F3962",
"S  c #846C555B0001",
"D  c #899F56D00000",
"F  c #879257F70000",
"G  c #8D175B220000",
"H  c #92AA5E5A0000",
"J  c #9F0F56491EC8",
"K  c #A2075EEA13F7",
"L  c #A3AD59E21E62",
"P  c #960561500000",
"I  c #9C2A650A0001",
"U  c #996561100BA3",
"Y  c #8A5D666F1099",
"T  c #A0BD66DB0000",
"R  c #A47C6A4C0000",
"E  c #AB4B6E7C0006",
"W  c #A8666BAC078A",
"Q  c #B0F56E4C0172",
"!  c #AE75712D0000",
"~  c #B52F74F0000D",
"^  c #B95777450000",
"/  c #B45A78D30014",
"(  c #BC7A7ADB0000",
")  c #B2F1660012DE",
"_  c #B1BA6EDA132F",
"`  c #B03265D017D8",
"'  c #BD866E021810",
"]  c #A71770731ADD",
"[  c #B00F70CB1E93",
"{  c #BFC9746B1749",
"}  c #BC9B75E217DD",
"|  c #8BCD45DC2C00",
" . c #9B234F9922ED",
".. c #9BEB51C8242A",
"X. c #A8EF5E0D20F2",
"o. c #AC735B272C48",
"O. c #AF3B5593332C",
"+. c #A18B56693B5E",
"@. c #BE3777F635AB",
"#. c #C4097E4E003A",
"$. c #C34474DC0C18",
"%. c #C82478C912EF",
"&. c #86AE1BD17BC2",
"*. c #96A034F66785",
"=. c #90DE21F67F41",
"-. c #8DE7406848C4",
";. c #98C646FE4192",
":. c #A78A4EA156B6",
">. c #A7B345CD5CBD",
",. c #B07A622D4B89",
"<. c #ACDA6B80567F",
"1. c #A016409761BA",
"2. c #BD0C949421EE",
"3. c #C4EB82FA0001",
"4. c #CC72850F003C",
"5. c #C7668A250000",
"6. c #CD7F8AC90000",
"7. c #CFE2860A0F52",
"8. c #CFC48F7D093F",
"9. c #D1EE871A00A0",
"0. c #D4E48B400014",
"q. c #DAEC8E1A002F",
"w. c #D631875E0C89",
"e. c #DE8C8D7B0B57",
"r. c #CFFD90780000",
"t. c #D33493770000",
"y. c #DCDC92150003",
"u. c #D60098CF0000",
"i. c #DFAB996D0000",
"p. c #D6AE939909A4",
"a. c #D2A49E561B32",
"s. c #E3128FC10AB6",
"d. c #E4E09483001B",
"f. c #E875969B0000",
"g. c #E621993A00F9",
"h. c #EC729B65000C",
"j. c #E0759B060A4D",
"k. c #F35C9F160013",
"l. c #DFEEA0E71242",
"z. c #DBCCA2DA1A0D",
"x. c #E17CA4C60000",
"c. c #EE1AA1F00000",
"v. c #E7E0AAB40000",
"b. c #EB8BB00A0000",
"n. c #EBA8A1070796",
"m. c #F57DA24A0000",
"M. c #FF36A5530000",
"N. c #FF69AB740000",
"B. c #F3B5B71C0000",
"V. c #F581B9380000",
"C. c #FC0BBEB50000",
"Z. c #CB809FEC2492",
"A. c #DAC3AC8B2816",
"S. c #E7A7B5482892",
"D. c #FFDEC38B0000",
"F. c #4A42000080F2",
"G. c #550800008BA4",
"H. c #5C4A02C29001",
"J. c #5A74000093CB",
"K. c #5EC100009B67",
"L. c #611E04C08DF4",
"P. c #725B113986CE",
"I. c #60EC043E9216",
"U. c #62720000A01C",
"Y. c #64DC07DA9D45",
"T. c #6C25086298B1",
"R. c #70FC06C69D09",
"E. c #6390001BA25A",
"W. c #68BA019FA6CC",
"Q. c #6ACB0000ADF7",
"!. c #74FF082AA7FF",
"~. c #792608A9A439",
"^. c #79771E48AD9D",
"/. c #677E0000B10F",
"(. c #6C1C0000B346",
"). c #78190398B81D",
"_. c #763C0000BE7C",
"`. c #7A620C0DBDB9",
"'. c #7A8714D8B58C",
"]. c #7DF826EDBE24",
"[. c #7A3500A1C5D3",
"{. c #7E2C0000CDE6",
"}. c #7F880000D0AF",
"|. c #8D3B1F6B80DC",
" X c #81E10F33994D",
".X c #88810E70AF2C",
"XX c #860D0FFFA20C",
"oX c #82010740BA83",
"OX c #853A0BAEB857",
"+X c #87253C71B6BC",
"@X c #949B4743A074",
"#X c #83F602DBCD07",
"$X c #8412022CD3B8",
"%X c #85EE0013D9CC",
"&X c #89C50073DE1B",
"*X c #8CC6116ED848",
"=X c #8BF52304C961",
"-X c #994E38E2D0C1",
";X c #8C560007E47C",
":X c #8EEA0000EB25",
">X c #92260000EEC4",
",X c #8FE40000F160",
"<X c #93260000F1A6",
"1X c #97BC5688C478",
"2X c #A13F5F72C786",
"3X c #A67E4A43D822",
"4X c #AD4A5139DC0F",
"5X c #AA616A78D1DD",
"6X c #B8CD624FD9FB",
"7X c #BAAE60CFE61D",
"8X c #C49A690AF120",
"9X c #C9926E73F45D",
"0X c #CAE86FF5F659",
"qX c #D10C7580FB89",
"wX c #C6B88540F377",
"eX c #CE738FE6FB1A",
"rX c None",
/* pixels */
"rXrXrXrXrXrXrXrXrXrXrXrXrXrXrXrXrXrXrXrXrXrXrXrXrXrXrXrXrXrXrXrXrXrXrXrXrXrXrXrXrXrXrXrXrXrXrXrXrXrXrXrXrXrXrXrXrXrXrXrXrXrXrXrX",
"rXrXrXrXrXrXrXrXrXrXrXrXrXrXrXrXrXrXrXrXrXrXrXrXrXrXrXrXrXrXrXrXrXrXrXrXrXrXrXrXrXy rXrXrXrXrXrXrXrXrXrXrXrXrXrXrXrXrXrXrXrXrXrX",
"rXrXrXrXrXrXrXrXrXrXrXrXrXrXrXrXrXrXrXrXrXrXrXrXrXrXrXrXrXrXrXrXrXrXrXrXrXrXrXrX, L.G.rXrXrXrXrXrXrXrXrXrXrXrXrXrXrXrXrXrXrXrXrX",
"rXrXrXrXrXrXrXrXrXrXrXrXrXrXrXrXrXrXrXrXrXrXrXrXrXrXrXrXrXrXrXrXrXrXrXrXrXrXrXrXh Q.U.rXrXrXrXrXrXrXrXrXrXrXrXrXrXrXrXrXrXrXrXrX",
"rXrXrXrXrXrXrXrXrXrXrXrXrXrXrXrXrXrXrXrXrXrXrXrXrXrXrXrXrXrXrXrXrXrXrXrXrXrXrX~ M (.Q.J.rXrXrXrXrXrXrXrXrXrXrXrXrXrXrXrXrXrXrXrX",
"rXrXrXrXrXrXrXrXrXrXrXrXrXrXrXrXrXrXrXrXrXrXrXrXrXrXrXrXrXrXrXrXrXrXrXrXrXrXrX` T.(.(.E.rXrXrXrXrXrXrXrXrXrXrXrXrXrXrXrXrXrXrXrX",
"rXrXrXrXrXrXrXrXrXrXrXrXrXrXrXrXrXrXrXrXrXrXrXrXrXrXrXrXrXrXrXrXrXrXrXrXrXrX6.;.Q.W.B | 2 rXrXrXrXrXrXrXrXrXrXrXrXrXrXrXrXrXrXrX",
"rXrXrXrXrXrXrXrXrXrXrXrXrXrXrXrXrXrXrXrXrXrXrXrXrXrXrXrXrXrXrXrXrXrXrXrXrXrX9.M N o.e.0.$.p rXrXrXrXrXrXrXrXrXrXrXrXrXrXrXrXrXrX",
"rXrXrXrXrXrXrXrXrXrXrXrXrXrXrXrXrXrXrXrXrXrXrXrXrXrXrXrXrXrXrXrXrXrXrXrXrXy.3.X.s.N.q.0.f. .rXrXrXrXrXrXrXrXrXrXrXrXrXrXrXrXrXrX",
"rXrXrXrXrXrXrXrXrXrXrXrXrXrXrXrXrXrXrXrXrXrXrXrXrXrXrXrXrXrXrXrXrXrXrXrXrXy.3.m.N.k.4.d.f.#.4 rXrXrXrXrXrXrXrXrXrXrXrXrXrXrXrXrX",
"rXrXrXrXrXrXrXrXrXrXrXrXrXrXrXrXrXrXrXrXrXrXrXrXrXrXrXrXrXrXrXrXrXrXrXrX/ d.y.m.M.0.q.d.d.d.) i rXrXrXrXrXy x F.x rXrXrXrXrXrXrX",
"rXrXrXrXrXrXrXrXrXrXrXrXrXrXrXrXrXrXrXrXrXrXrXrXrXrXrXrXrXrXrXrXrXrXrXW g.m.0.m.h.4.d.d.d.d.d.| l J.J.K.K.K.I.m ..Q rXrXrXrXrXrX",
"rXrXrXrXrXrXrXrXrXrXrXrXrXrXrXrXrXrXrXrXrXrXrXrXrXrXrXrXrXrXrXrXrXrXrXh.M.m.0.m.q.q.d.d.d.d.d.#.a K.E.E.I.j X.#.0.~ rXrXrXrXrXrX",
"rXrXrXrXrXrXrXrXrXrXrXrXrXrXrXrXrXrXrXrXrXrXrXrXrXrXrXrXrXrXrXrXrXrXg.M.M.m.y.h.4.d.d.d.d.d.d.d.K v J.j L #.9.9.#.rXrXrXrXrXrXrX",
"rXrXrXrXrXrXrXrXrXrXrXrXrXrXrXrXrXrXrXrXrXrXrXrXrXrXrXrXrXrXrXrX6 y.N.M.M.m.q.0.q.d.d.d.d.f.d.q.#.1 L 4.q.0.9.0.#.rXrXrXrXrXrXrX",
"rXrXrXrXrXrXrXrXrXrXrXrXrXrXrXrXrXrXrXrXrXrXrXrXrXrXrXrXrXrXrXI y.M.M.M.M.k.6.4.d.d.d.q.#.#.$.~ ~ D #.0.9.9.q.9.R rXrXrXrXrXrXrX",
"rXrXrXrXrXrXrXrXrXrXrXrXrXrXrXrXrXrXrXrXrXrXrXrXrXrXrXrXrXrXH q.m.m.m.m.M.h.^ q.0.#.( ^ ~ #.#.#.~ H T 4.9.q.9.#.rXrXrXrXrXrXrXrX",
"rXrXrXrXrXrXrXrXrXrXrXrXrXrXrXrXrXrXrXrXrXrXrXrXrXrXrXrXD D #.9.9.9.0.0.0.( H ~ ^ ^ #.#.#.#.#.#.R I I ~ 0.9.0.( rXrXrXrXrXrXrXrX",
"rXrXrXrXrXrXrXrXrXrXrXrXrXrXrXrXrXrXrXrXrXrXrXrXrXH H T R ~ d.f.f.d.f.y.9.( I ^ #.#.#.#.#.#.#.#.I I I I 4.q.9.~ rXrXrXrXrXrXrXrX",
"rXrXrXrXrXrXrXrXrXrXrXrXrXrXrXrXrXrXrXrXrXD H I R E Q ~ R #.f.d.f.d.q.0.h.0.E E ^ #.#.#.#.#.#.#.I I T I E 0.#.rXrXrXrXrXrXrXrXrX",
"rXrXrXrXrXrXrXrXrXrXrXrXrXrXrXrXrXrX0 H T R E E E ~ E E R q.f.f.d.9.d.k.M.0.E ~ E ( #.#.#.#.#.^ P I T I I 3.~ rXrXrXrXrXrXrXrXrX",
"rXrXrXrXrXrXrXrXrXrXrXrX$ rX% = = 8 G H T E E ! E E E R ^ f.d.0.0.k.M.M.M.4.E ~ Q E ^ #.#.#.#.E I T I R I T T rXrXrXrXrXrXrXrXrX",
"rXrXrXrXrXrXrX% $ = = 5 6 6 6 6 5 D I P G G I E E E E R 9.d.9.d.k.M.M.M.M.#.Q ~ ^ Q E ^ #.#.#.I I T T I I q rXrXrXrXrXrXrXrXrXrX",
"rXrXrXrXrXrXc s ; 6 7 8 6 6 7 7 6 H I I I I H G I R E E 9.0.k.M.M.M.M.M.M.( ~ ~ ~ ~ Q E ^ #.#.I I T I G q 8 rXrXrXrXrXrXrXrXrXrX",
"rXrXrXrXrXrXrX%X~.3 5 8 7 7 7 6 7 P I I I I I I P D F R f.M.M.M.M.M.M.M.k.( ~ ~ ~ ~ ~ Q R ( ^ P I H 0 S S 6 rXrXrXrXrXrXrXrXrXrX",
"rXrXrXrXrXrXrX{.<X&XP.< 6 7 7 6 0 I I I I P P G G P G R 0.m.M.M.M.M.M.M.m.^ Q ~ ~ ~ ~ ~ ~ E I D S 0 S S S 8 rXrXrXrXrXrXrXrXrXrX",
"rXrXrXrXrXrXrXrX;X<X<X#Xn % 6 6 S I P P H H I R ~ ~ R ! ~ ^ d.M.M.M.k.M.k.~ ~ ~ ~ ~ ~ ~ ~ I 6 9 S S S S S = rXrXrXrXrXrXrXrXrXrX",
"rXrXrXrXrXrXrXrX[.>X>X>X%XR.f ; F G H I R ~ ~ ^ / ~ T / ~ ~ ! 3.k.M.M.M.k.E ~ ~ ~ ~ / I D G 8 5 S S S S 9 rXrXrXrXrXrXrXrXrXrXrX",
"rXrXrXrXrXrXrXrXU.;X>X:X#X>X;Xd F ! / ~ ~ ~ ~ ~ ~ ~ I ~ ^ ^ ^ ~ ~ q.m.M.k.Q ~ ~ ~ I G D H H q # 9 S S S S rXrXrXrXrXrXrXrXrXrXrX",
"rXrXrXrXrXrXrXrXrX#X>X{.&X>X:Xg 9 I ~ / ~ ~ ~ ~ ~ ~ T ^ ^ ~ ^ ~ ~ ! #.f.f.E E I D G H H H H S $ & S S S 9 rXrXrXrXrXrXrXrXrXrXrX",
"rXrXrXrXrXrXrXrXrX_.&X$X>X&X).: 0 9 H / ~ ~ ~ ~ / ~ I ~ ~ ~ ^ ^ ~ ^ ~ ! ! G G G H H H H H H D $ @ 8 S S = rXrXrXrXrXrXrXrXrXrXrX",
"rXrXrXrXrXrXrXrXrXrXT.`.=X-XC 6 0 0 9 F ~ ~ ~ ~ ~ E R ^ ^ ^ ~ ^ ^ ~ ~ ! E T H H H H H H H H G % # % 0 S 9 rXrXrXrXrXrXrXrXrXrXrX",
"rXrXrXrXrXrXrXrXrXrX^.7X0X8Xk 9 9 0 0 9 S ! ~ / ~ E E ~ ^ ~ ^ ~ ~ E #.q.9.h.q.T G P H H H H H & # # 5 0 & rXrXrXrXrXrXrXrXrXrXrX",
"rXrXrXrXrXrXrXrXrX[.$X4XqX6X1 9 0 0 0 0 9 q R ^ ~ R E ^ ~ ~ ~ ! #.q.d.d.4.k.M.m.( P G H H H P 5 # $ $ 6 rXrXrXrXrXrXrXrXrXrXrXrX",
"rXrXrXrXrXrXrXrXrX;X:X=X0X@X6 0 0 0 0 0 0 9 0 I ~ R ! ^ ~ E ( q.d.d.d.d.4.m.M.M.M.d.R G H H P 6 # # # @ rXrXrXrXrXrXrXrXrXrXrXrX",
"rXrXrXrXrXrXrXrX$X>X<X$X3XV 7 9 9 9 0 9 9 9 9 9 I I E ! #.q.d.f.d.d.d.d.4.m.M.M.M.M.m.4.P G H 9 # $ # o rXrXrXrXrXrXrXrXrXrXrXrX",
"rXrXrXrXrXrXrXE.;X>X>X>X'.< q q q q q q S S S q 6 8 / q.f.d.d.d.d.d.d.d.0.m.M.M.M.M.M.M.g.! G q # @ + O rXrXrXrXrXrXrXrXrXrXrXrX",
"rXrXrXrXrXrXrX{.:X>X>X>X{.| h.h.h.h.h.c.c.g.5.( #.E t.4.q.f.d.d.d.d.d.d.0.m.M.M.M.M.M.N.M.m.0.D + + # + o rXrXrXrXrXrXrXrXrXrXrX",
"rXrXrXrXrXrX).>X>X>X>X>X>XZ j.M.M.N.m.i.6.4.d.m.m.3.V.v.6.6.d.d.d.d.d.q.0.M.M.M.M.M.M.M.m.k.d.( = + # @ X rXrXrXrXrXrXrXrXrXrXrX",
"rXrXrXrXrXrX%X<X>X>X>X>X<X[.} N.h.0.4.0.k.m.M.m.m.3.V.D.D.x.3.0.d.d.f.q.q.N.M.M.M.M.k.d.q.y.h.y.3.& @ # + rXrXrXrXrXrXrXrXrXrXrX",
"rXrXrXrXrX%X>X<X<X<X<X:X;X$X-.3.6.f.m.M.M.M.M.M.m.5.V.D.D.D.b.u.4.y.f.q.y.M.M.m.h.q.y.f.m.M.M.0.m./ + # + rXrXrXrXrXrXrXrXrXrXrX",
"rXrXrXrXrX[.#XOX X&.*.:.,.@.] G p.j.k.m.M.M.M.M.c.6.D.D.D.D.D.D.B.6.0.9.y.h.y.q.d.k.M.M.M.M.k.0.m.m.G O @ o rXrXrXrXrXrXrXrXrXrX",
"rXrXrXrXrXy rX| U E q.h.n.i.rX7 2.A.a.l.j.k.M.M.m.3.C.D.D.D.D.D.V.b.3.I ( y.h.M.M.M.M.M.M.M.g.y.N.M.h.5 + o rXrXrXrXrXrXrXrXrXrX",
"rXrXrXrXrXrXrXrXrXrXrXrXrXrXrXrXrXrXY Z.S.z.8.0.0.5.V.V.v.t.t.r.3.6.t.( #.h.M.M.M.M.M.M.M.M.y.h.M.M.M.4.@ o rXrXrXrXrXrXrXrXrXrX",
"rXrXrXrXrXrXrXrXrXrXrXrXrXrXrXrXrXrXrXrXrXrXrXrX9 P ( 3.0.q.h.k.m.M.M.0.h.t.f.m.M.M.M.M.M.M.0.m.M.M.M.M.R X rXrXrXrXrXrXrXrXrXrX",
"rXrXrXrXrXrXrXrXrXrXrXrXrXrXrXrXrXrXrXrXrXrXrXrXrXrX3.m.M.M.M.M.M.M.M.3.m.N.g.i.M.M.M.M.M.k.0.M.M.M.M.M.m.9   rXrXrXrXrXrXrXrXrX",
"rXrXrXrXrXrXrXrXrXrXrXrXrXrXrXrXrXrXrXrXrXrXrXrXrXrXrXS h.M.M.M.M.M.m.3.m.N.N.h.q.m.M.M.M.f.y.M.M.M.M.M.M.i.$ rXrXrXrXrXrXrXrXrX",
"rXrXrXrXrXrXrXrXrXrXrXrXrXrXrXrXrXrXrXrXrXrXrXrXrXrXrXrX/ m.M.M.M.M.k.4.m.N.N.N.f.0.m.M.M.q.h.M.M.M.M.M.M.N.3.O rXrXrXrXrXrXrXrX",
"rXrXrXrXrXrXrXrXrXrXrXrXrXrXrXrXrXrXrXrXrXrXrXrXrXrXrXrXrX6.m.M.M.M.h.0.N.N.N.N.N.h.d.m.m.0.m.M.M.M.M.m.h.e.' * rXrXrXrXrXrXrXrX",
"rXrXrXrXrXrXrXrXrXrXrXrXrXrXrXrXrXrXrXrXrXrXrXrXrXrXrXrXrXrX! h.M.M.h.6.N.N.N.N.N.N.m.y.h.y.m.k.s.%.O.1.|..X$Xl . rXrXrXrXrXrXrX",
"rXrXrXrXrXrXrXrXrXrXrXrXrXrXrXrXrXrXrXrXrXrXrXrXrXrXrXrXrXrXrX/ k.N.d.0.N.N.N.N.N.N.m.c.~ ..>.|.XX!.&X>X,X<X>X;Xu rXrXrXrXrXrXrX",
"rXrXrXrXrXrXrXrXrXrXrXrXrXrXrXrXrXrXrXrXrXrXrXrXrXrXrXrXrXrXrXrX^ h.t.t.N.N.N.m.g.6.3.0._ oX<X<X{.%X<X>X>X<X:X<X{.r rXrXrXrXrXrX",
"rXrXrXrXrXrXrXrXrXrXrXrXrXrXrXrXrXrXrXrXrXrXrXrXrXrXrXrXrXrXrXrXrXrX( i.h.0.5.4.t.h.m.N.{ #X<X;X[.:X,X>X>X>X>X:X<XQ.rXrXrXrXrXrX",
"rXrXrXrXrXrXrXrXrXrXrXrXrXrXrXrXrXrXrXrXrXrXrXrXrXrXrXrXrXrXrXrXrXrXrX( 6.d.m.m.M.M.M.M.w.].*X[.{.>X<X:X:X:X:X;X:X%Xt rXrXrXrXrX",
"rXrXrXrXrXrXrXrXrXrXrXrXrXrXrXrXrXrXrXrXrXrXrXrXrXrXrXrXrXrXrXrXrXrXrXrXm.M.M.M.M.M.M.N.X.1X+Xz rX[.[.[.[.(.E.E.E.rXrXrXrXrXrXrX",
"rXrXrXrXrXrXrXrXrXrXrXrXrXrXrXrXrXrXrXrXrXrXrXrXrXrXrXrXrXrXrXrXrXrXrXrXrXh.N.M.M.M.M.m.+.wX5XrXrXrXrXrXrXrXrXrXrXrXrXrXrXrXrXrX",
"rXrXrXrXrXrXrXrXrXrXrXrXrXrXrXrXrXrXrXrXrXrXrXrXrXrXrXrXrXrXrXrXrXrXrXrXrXrXh.M.M.M.M.m.[ eX2XrXrXrXrXrXrXrXrXrXrXrXrXrXrXrXrXrX",
"rXrXrXrXrXrXrXrXrXrXrXrXrXrXrXrXrXrXrXrXrXrXrXrXrXrXrXrXrXrXrXrXrXrXrXrXrXrXrXg.M.M.M.h.<.rXrXrXrXrXrXrXrXrXrXrXrXrXrXrXrXrXrXrX",
"rXrXrXrXrXrXrXrXrXrXrXrXrXrXrXrXrXrXrXrXrXrXrXrXrXrXrXrXrXrXrXrXrXrXrXrXrXrXrXrXd.M.M.f.A rXrXrXrXrXrXrXrXrXrXrXrXrXrXrXrXrXrXrX",
"rXrXrXrXrXrXrXrXrXrXrXrXrXrXrXrXrXrXrXrXrXrXrXrXrXrXrXrXrXrXrXrXrXrXrXrXrXrXrXrXrXy.N.e.m rXrXrXrXrXrXrXrXrXrXrXrXrXrXrXrXrXrXrX",
"rXrXrXrXrXrXrXrXrXrXrXrXrXrXrXrXrXrXrXrXrXrXrXrXrXrXrXrXrXrXrXrXrXrXrXrXrXrXrXrXrXrXy.7.b rXrXrXrXrXrXrXrXrXrXrXrXrXrXrXrXrXrXrX",
"rXrXrXrXrXrXrXrXrXrXrXrXrXrXrXrXrXrXrXrXrXrXrXrXrXrXrXrXrXrXrXrXrXrXrXrXrXrXrXrXrXrXrXW rXrXrXrXrXrXrXrXrXrXrXrXrXrXrXrXrXrXrXrX",
"rXrXrXrXrXrXrXrXrXrXrXrXrXrXrXrXrXrXrXrXrXrXrXrXrXrXrXrXrXrXrXrXrXrXrXrXrXrXrXrXrXrXrXrXrXrXrXrXrXrXrXrXrXrXrXrXrXrXrXrXrXrXrXrX",
"rXrXrXrXrXrXrXrXrXrXrXrXrXrXrXrXrXrXrXrXrXrXrXrXrXrXrXrXrXrXrXrXrXrXrXrXrXrXrXrXrXrXrXrXrXrXrXrXrXrXrXrXrXrXrXrXrXrXrXrXrXrXrXrX"
};
