/* XPM */
static char *k3dsurf[]={
"64 64 509 2",
"Qt c None",
".V c #000100",
".W c #000200",
"#l c #000300",
"#T c #000400",
"b4 c #000500",
"#1 c #000600",
"a5 c #000700",
".k c #000800",
"#0 c #000900",
".# c #000a00",
"#C c #000b00",
"d2 c #000d00",
"as c #000e00",
"#7 c #000f00",
"#P c #001000",
"aW c #001200",
".l c #001400",
".D c #001500",
".C c #001700",
"bQ c #001800",
"aV c #001900",
"#b c #001b00",
"aK c #001e00",
"a4 c #001f00",
".a c #002100",
".j c #002200",
"aE c #002300",
"cc c #002400",
"bS c #002500",
"d3 c #002700",
"a7 c #002a00",
"#6 c #002c00",
"#v c #002d00",
".U c #002e00",
"bb c #003200",
"a0 c #003300",
"cz c #003400",
"bF c #003500",
"#I c #003700",
".X c #003800",
".i c #003a00",
".b c #003b00",
"aD c #003c00",
"bT c #003d00",
"aS c #003e00",
"a1 c #003f00",
".m c #004000",
"bs c #004100",
"bm c #004200",
"#k c #004300",
"a3 c #004400",
"aT c #004500",
"aR c #004600",
"a8 c #004700",
"#m c #004800",
"a2 c #004900",
"#c c #004a00",
"be c #004b00",
"bn c #004c00",
"a# c #004d00",
"aN c #004e00",
".B c #004f00",
".c c #005000",
"ax c #005100",
"aM c #005200",
"#B c #005300",
"aO c #005400",
"bk c #005500",
"bh c #005700",
"aL c #005800",
"aP c #005900",
"#Q c #005a00",
"#u c #005b00",
"aG c #005c00",
".d c #005d00",
"ac c #005e00",
"aH c #005f00",
".h c #006000",
"aF c #006100",
"ar c #006200",
"ag c #006300",
"aA c #006400",
"aI c #006500",
"az c #006600",
"al c #006700",
"af c #006800",
"aJ c #006900",
"ay c #006a00",
"aQ c #006b00",
"aB c #006c00",
"au c #006d00",
"at c #006e00",
"av c #006f00",
"aw c #007000",
".e c #007100",
".g c #007200",
"aC c #007300",
".f c #007400",
"an c #007500",
"ao c #007600",
".T c #007700",
"#D c #007800",
"ap c #007900",
"ai c #007a00",
"ah c #007b00",
"aj c #007c00",
"#U c #007d00",
"ak c #007e00",
".A c #007f00",
"ae c #008000",
"#Z c #008100",
"ad c #008200",
"ab c #008300",
"aa c #008400",
"a. c #008500",
"aq c #008600",
"#9 c #008700",
"#5 c #008800",
"#8 c #008900",
"#4 c #008a00",
"#O c #008b00",
".Y c #008c00",
"#Y c #008d00",
"#X c #008e00",
"#W c #008f00",
"#S c #009000",
"#R c #009100",
"#N c #009200",
".E c #009300",
"#M c #009400",
"#L c #009500",
"#A c #009600",
"#H c #009700",
"#K c #009800",
".n c #009900",
"#G c #009a00",
"am c #009b00",
"#s c #009c00",
"#z c #009d00",
"#t c #009e00",
"#y c #009f00",
"#j c #00a000",
".z c #00a100",
"#i c #00a200",
"#r c #00a300",
"#F c #00a400",
"#x c #00a500",
"#h c #00a600",
"#. c #00a700",
".S c #00a800",
"## c #00a900",
".9 c #00aa00",
"#J c #00ab00",
"#3 c #00ac00",
"#g c #00ad00",
".8 c #00ae00",
"#f c #00af00",
"#a c #00b000",
".7 c #00b100",
".Q c #00b200",
".6 c #00b300",
".P c #00b400",
"#q c #00b500",
".o c #00b600",
"#e c #00b700",
".O c #00b800",
".R c #00b900",
".N c #00ba00",
"#p c #00bb00",
".M c #00bc00",
".5 c #00bd00",
".L c #00be00",
".4 c #00bf00",
".y c #00c000",
".3 c #00c100",
".K c #00c200",
".2 c #00c300",
".F c #00c400",
".x c #00c500",
"#V c #00c600",
".w c #00c700",
".p c #00c800",
".v c #00c900",
".1 c #00ca00",
".u c #00cb00",
"#d c #00cc00",
".t c #00cd00",
".J c #00ce00",
".s c #00cf00",
".0 c #00d000",
".q c #00d100",
".r c #00d200",
"#E c #00d300",
".I c #00d400",
"#w c #00d500",
"#2 c #00d600",
".G c #00d700",
"#o c #00d800",
".H c #00d900",
".Z c #00dc00",
"#n c #00dd00",
"b5 c #010000",
"b. c #010200",
"bj c #010300",
"bl c #010500",
"a6 c #010700",
"b# c #010800",
"bc c #010f00",
"b3 c #011b00",
"a9 c #012200",
"aU c #012400",
"br c #012600",
"bz c #012800",
"ba c #012900",
"b6 c #012a00",
"aZ c #012c00",
"by c #013100",
"bH c #013200",
"d4 c #013e00",
"d# c #016700",
"cX c #016800",
"cd c #016900",
"dp c #016a00",
"bI c #016c00",
"dC c #016d00",
"bt c #016e00",
"bo c #016f00",
"bf c #017000",
"dz c #017200",
"bR c #020300",
"bd c #020600",
"aX c #021300",
"aY c #021900",
"bG c #022300",
"cA c #026900",
"d. c #026b00",
"bU c #026c00",
"dB c #026d00",
"dA c #027100",
"bi c #027700",
"cp c #030200",
"cW c #036900",
"dn c #036a00",
"cq c #036b00",
"b7 c #036c00",
"bu c #037000",
"bg c #037f00",
"c9 c #046a00",
"do c #046b00",
"dD c #046c00",
"ce c #046d00",
"bV c #046e00",
"bJ c #046f00",
"bA c #047000",
"c8 c #050400",
"eT c #080500",
"f6 c #080600",
"d8 c #087400",
"fO c #090600",
"f1 c #0a0700",
"d1 c #0c0900",
"cf c #0d7100",
"dQ c #0d7300",
"d9 c #0d7500",
"e4 c #0f0a00",
"ft c #100d00",
"cy c #110c00",
"cV c #150f00",
"bp c #177d00",
"d7 c #187700",
"d5 c #196f00",
"f2 c #1a1400",
"e# c #1a7700",
"fG c #1b1300",
"e. c #1b7700",
"cJ c #1c1500",
"ez c #1d1400",
"dE c #1d7800",
"d6 c #1d7b00",
"cY c #1e7800",
"ey c #1f1700",
"da c #1f7900",
"fj c #221700",
"f5 c #241b00",
"f3 c #251c00",
"bP c #2b1d00",
"e8 c #2c1d00",
"ea c #2d7b00",
"eZ c #342600",
"cr c #357d00",
"dq c #358100",
"fN c #362a00",
"fF c #372b00",
"dR c #388000",
"cK c #388100",
"eU c #392700",
"fi c #392b00",
"fb c #3a2700",
"f4 c #3a2b00",
"bx c #3c2b00",
"eb c #438000",
"fP c #473400",
"dP c #493600",
"f0 c #4c3a00",
"e3 c #564000",
"fa c #584200",
"ek c #5b3d00",
"ec c #678900",
"bq c #6b5e00",
"bK c #6b8800",
"bW c #6d8900",
"dF c #6d9400",
"e7 c #6f5400",
"b2 c #755000",
"cB c #779300",
"dS c #7b9600",
"fu c #7c5700",
"eM c #7f6000",
"bB c #808c00",
"fH c #876100",
"ej c #8a6800",
"fZ c #8a6a00",
"b8 c #8c9200",
"dy c #8d6700",
"ed c #8d9400",
"fQ c #8f6900",
"e0 c #956600",
"db c #96a300",
"bv c #978e00",
"fs c #9d7700",
"fM c #9d7900",
"dr c #9fa700",
"eN c #a16e00",
"cZ c #a1a500",
"cb c #ae7800",
"bE c #af7800",
"cg c #b09d00",
"fE c #b78c00",
"dm c #be8900",
"ee c #bea400",
"dT c #bead00",
"fY c #bf9200",
"fR c #c69200",
"dG c #cab600",
"fk c #cd8f00",
"eS c #cd9e00",
"cL c #ceb100",
"en c #cf9a00",
"e5 c #d49300",
"eo c #d69c00",
"co c #d79400",
"em c #da9900",
"cs c #dcad00",
"c7 c #de9e00",
"d0 c #e0a700",
"fh c #e1af00",
"fI c #e2a300",
"eA c #e39a00",
"fX c #e3ad00",
"fS c #e4aa00",
"ep c #e8a100",
"eO c #eaa000",
"eq c #eaa400",
"cx c #eba200",
"fc c #eba500",
"ef c #ebb300",
"eB c #eca000",
"el c #eca400",
"bM c #eda300",
"fL c #edb600",
"e9 c #efa700",
"bN c #f0a400",
"cU c #f0a800",
"ex c #f0b600",
"eC c #f1a100",
"b0 c #f1a400",
"eP c #f1a500",
"e1 c #f2a500",
"bO c #f2a600",
"eD c #f3a400",
"bY c #f3a700",
"eE c #f4a500",
"bZ c #f4a700",
"fv c #f4af00",
"ds c #f4c800",
"eQ c #f5a700",
"ca c #f6a800",
"bD c #f6aa00",
"fT c #f6b800",
"fW c #f6bb00",
"eY c #f6c000",
"dU c #f6c300",
"dc c #f6c700",
"cI c #f7ac00",
"bC c #f8a200",
"eF c #f8a800",
"eV c #f8a900",
"c. c #f8aa00",
"c# c #f9aa00",
"cC c #f9bb00",
"er c #faa900",
"eG c #faab00",
"ci c #faae00",
"fU c #fabd00",
"fV c #fabe00",
"cm c #fbab00",
"f. c #fbac00",
"fd c #fbae00",
"eI c #fbb000",
"cu c #fbb200",
"fm c #fbb300",
"eJ c #fbb400",
"dx c #fbb600",
"fw c #fbb900",
"ei c #fbba00",
"eL c #fbbb00",
"et c #fbc000",
"c2 c #fbc100",
"fp c #fbc200",
"eg c #fbc600",
"f# c #fbc700",
"dI c #fbca00",
"eW c #fcac00",
"eH c #fcae00",
"dl c #fcb500",
"cE c #fcb700",
"fx c #fcbb00",
"eR c #fcbd00",
"cN c #fcbe00",
"ff c #fcc200",
"eu c #fcc300",
"df c #fcc400",
"de c #fcc600",
"dv c #fcc800",
"eh c #fcc900",
"cl c #fdad00",
"cj c #fdae00",
"c6 c #fdb400",
"fl c #fdb600",
"fn c #fdb700",
"dO c #fdb800",
"dZ c #fdbb00",
"cO c #fdbc00",
"fy c #fdbd00",
"eX c #fdc100",
"e2 c #fdc200",
"fq c #fdc300",
"c0 c #fdc600",
"dW c #fdca00",
"du c #fdcb00",
"bL c #fea600",
"ck c #feae00",
"cH c #feb100",
"cT c #feb300",
"fe c #feb400",
"eK c #febb00",
"es c #febd00",
"ew c #febe00",
"fz c #febf00",
"c3 c #fec000",
"fA c #fec200",
"fB c #fec300",
"fo c #fec400",
"ev c #fec600",
"fJ c #fec900",
"fD c #feca00",
"dJ c #fecb00",
"dH c #fecc00",
"fK c #fed100",
"bw c #ffa900",
"bX c #ffaa00",
"b9 c #ffae00",
"e6 c #ffaf00",
"cw c #ffb000",
"cv c #ffb100",
"cn c #ffb200",
"b1 c #ffb300",
"ch c #ffb400",
"cG c #ffb500",
"cS c #ffb600",
"cF c #ffb700",
"cR c #ffb800",
"ct c #ffb900",
"cQ c #ffba00",
"cP c #ffbb00",
"cD c #ffbc00",
"c5 c #ffbd00",
"dk c #ffbe00",
"c4 c #ffbf00",
"dj c #ffc000",
"di c #ffc100",
"dN c #ffc200",
"dh c #ffc300",
"dg c #ffc400",
"cM c #ffc500",
"dM c #ffc600",
"c1 c #ffc700",
"dw c #ffc800",
"dL c #ffc900",
"dK c #ffca00",
"dY c #ffcb00",
"dX c #ffcc00",
"dV c #ffcd00",
"dd c #ffce00",
"fr c #ffd000",
"dt c #ffd100",
"fC c #ffd200",
"fg c #ffd300",
"QtQtQtQtQtQtQtQtQtQtQtQtQtQtQtQtQtQtQtQtQtQtQtQtQtQtQtQtQtQtQtQtQtQtQtQtQtQtQtQtQtQtQtQtQtQtQtQtQtQtQtQtQtQtQtQtQtQtQtQtQtQtQtQt",
"QtQtQtQtQtQtQtQtQtQtQtQtQtQtQtQtQtQtQtQtQtQtQtQtQtQtQtQtQtQtQtQtQtQtQtQtQtQtQtQtQtQtQtQtQtQtQtQtQtQtQtQtQtQtQtQtQtQtQtQtQtQtQtQt",
"QtQtQtQtQtQtQtQtQtQtQtQtQtQtQtQtQtQtQtQtQtQtQtQtQtQtQtQtQtQtQtQtQtQtQtQtQtQtQtQtQtQtQtQtQtQtQtQtQtQtQtQtQtQtQtQtQtQtQtQtQtQtQtQt",
"QtQtQtQtQtQtQtQtQtQtQtQtQtQtQtQtQtQtQtQtQtQtQtQtQtQtQtQtQtQtQtQtQtQtQtQtQtQtQtQtQtQtQtQtQtQtQtQtQtQtQtQtQtQtQtQtQtQtQtQtQtQtQtQt",
"QtQtQtQtQtQtQtQtQtQtQtQtQtQtQtQtQtQtQtQtQtQtQtQtQtQtQtQtQtQtQtQtQtQtQtQtQtQtQtQtQtQtQtQtQtQtQtQtQtQtQtQtQtQtQtQtQtQtQtQtQtQtQtQt",
"QtQtQtQtQtQtQtQtQtQtQtQtQtQtQtQtQtQtQtQtQtQtQtQtQtQtQtQtQtQtQtQtQtQtQtQtQtQtQtQtQtQtQtQtQtQtQtQtQtQtQtQtQtQtQtQtQtQtQtQtQtQtQtQt",
"QtQtQtQtQtQtQtQtQtQtQtQtQtQtQtQtQtQtQtQtQtQtQtQtQtQtQtQtQtQtQtQtQtQt.#.a.b.c.d.e.f.g.g.h.c.i.j.kQtQtQtQtQtQtQtQtQtQtQtQtQtQtQtQt",
"QtQtQtQtQtQtQtQtQtQtQtQtQtQtQtQtQtQtQtQtQtQtQtQtQtQtQtQtQtQt.l.m.e.n.o.p.q.r.q.s.t.u.v.w.x.y.o.z.A.B.CQtQtQtQtQtQtQtQtQtQtQtQtQt",
"QtQtQtQtQtQtQtQtQtQtQtQtQtQtQtQtQtQtQtQtQtQtQtQtQtQtQt.D.c.E.F.G.H.I.J.p.F.K.y.L.M.N.O.o.P.Q.Q.P.O.R.S.T.U.VQtQtQtQtQtQtQtQtQtQt",
"QtQtQtQtQtQtQtQtQtQtQtQtQtQtQtQtQtQtQtQtQtQtQtQt.W.X.Y.w.Z.H.0.1.v.v.v.p.w.x.2.3.4.5.N.O.o.6.7.8.9#.###a.8.T#bQtQtQtQtQtQtQtQtQt",
"QtQtQtQtQtQtQtQtQtQtQtQtQtQtQtQtQtQtQtQtQtQt.k#c##.H.Z.q#d#d.J.J.t#d.u.v.w.x.2.3.L.M.R#e.P.7#f#g.9.S#h#i#j.9#j#kQtQtQtQtQtQtQtQt",
"QtQtQtQtQtQtQtQtQtQtQtQtQtQtQtQtQtQtQtQt#l#m.6#n#o.J.t.0.0.0.0.s.J.t.u.1.p.x.2.y.L#p.O#q.Q#f#g.9.S#h#r#i#j#s#t.S#uQtQtQtQtQtQtQt",
"QtQtQtQtQtQtQtQtQtQtQtQtQtQtQtQtQtQtQt#v#i.Z#w#d.s.q.q.r.r.q.q.0.s.J#d.1.p.x.2.y.5.N.o.6#a#g.9.S#x#r.z#y#z#s.n#A#.#BQtQtQtQtQtQt",
"QtQtQtQtQtQtQtQtQtQtQtQtQtQtQtQtQt#C#D.I#o.u.J.q.q.r.r#E#E.r.r.q.0.J#d.1.p.x.K.4#p.O.P.7.8.9#.#F#i#y#z#s#G.n#H#A.E#t#IQtQtQtQtQt",
"QtQtQtQtQtQtQtQtQtQtQtQtQtQtQtQt#v.7.Z#d#d.0.0.q.r#E#E.I.I#E#E.r.0.s.t.1.w.F.3.5.R.o.Q.8#J#.#F.z#t#s#G#K#H#L#M.E#N#M#O#PQtQtQtQt",
"QtQtQtQtQtQtQtQtQtQtQtQtQtQtQt#Q.0.r.p.t.s.0.q.r#E.I.I#w#w.I.I#E.q.s.t.1.w.2.4#p#e.6#f#J#.#r#j#z#G#K#A#M.E#N#R#S#S.Y#G.cQtQtQtQt",
"QtQtQtQtQtQtQtQtQtQtQtQtQt#T#U#o.v.p#d.J.s.0.q#E.I.I#w#w#w#w.I#E.q.s.t.1#V.K.L.R#q#a#J#.#r#y#s.n#A#M#N#S#W#X#X#Y#Y.Y#W#Z#0QtQtQt",
"QtQtQtQtQtQtQtQtQtQtQtQt#1#W#o.F.p.u#d.t.s.0.q#E.I#w#w#2#2#2#w#E.r.s#d.v.x.y#p#e.7#3#.#r#t#G#H#M#R#W#X.Y#O#O#4#4#4#4#5#N#6QtQtQt",
"QtQtQtQtQtQtQtQtQtQtQt#7#t.q.K.w.p.1.u.t.J.0.q#E.I#w#2#2#2#2#w#E.q.J.u.w.2.L.R.6#g.S#r#z.n#L#R#X.Y#4#8#5#9#9#9#9#9#9a.#Ra#QtQtQt",
"QtQtQtQtQtQtQtQtQtQt#T#A.q.4.x#V.w.v.1#d.t.s.q.r#E.I#w#2#2#w.I#E.0.t.1.x.y#p#q#f###r#z#H.E#W#O#8#9a.aaababababaaaaaaab#YacQtQtQt",
"QtQtQtQtQtQtQtQtQtQtab.J.5.K.2.x#V.w.v.u#d.J.s.q.r.I.I#w#w.I#E.q.s.u.w.K.5#e#a.9#r#s#A#R.Y#5a.ad#Zae.A.A.A.Aae#Z#Zad#Z#8afQtQtQt",
"QtQtQtQtQtQtQtQtQtag#d.N.4.y.3.2.F#V.w.v.1#d.J.s.q.r#E#E#E#E.q.s#d.p.F.L.O.Q#J#r#s#L#X#8aaae#Uahaiaiaiaiahaj#Uak.Aae.A#9alQtQtQt",
"QtQtQtQtQtQtQtQt.b.F.N.M.5.L.4.3.K.2.x#V.p.1.u.t.J.0.0.q.q.0.J#d.p.F.4.R.Q#J#ram#M.Ya..Aah.Tan.f.f.fanao.Tapaiahajak#UaqarQtQtQt",
"QtQtQtQtQtQtQtas.S.L.O.N#p.M.5.L.4.y.K.2.x#V.p.1.u#d.t.t.t#d.1.w.2.L.O.7.9#i#G#N#4adahan.eatauauatavaw.g.fao.Tapaiajah#9axQtQtQt",
"QtQtQtQtQtQtQtat.2.6#e.O.O.R.N#p.M.5.L.4.3.K.F.x.w.p.p.p.p#V.2.4#p#q.8#.#y#H#WaqakaoavayazaAaAazafayaBav.eaCan.TapaiapaqaDQtQtQt",
"QtQtQtQtQtQtaE.o.6.P.P#q#q.o.o#e.O.R.N#p.M.5.4.y.3.K.K.K.y.L.N.o#a##.z.n#R#5ae#DawafaF.d#Q#QaGaHaraIaJaBat.eaCan.TapapaeaKQtQtQt",
"QtQtQtQtQtQt.f.M.8.7.7.7.Q.Q.Q.6.6.P#q.o#e.O.R.N.N#p.N.R#e.P#f.S.z#K#Waq#UanauaIacaLaMaNa#.caOaPacarazaJaBav.g.fao.T#UaQ#lQtQtQt",
"QtQtQtQtQt#b#g#f.8.8.8.8.8.8.8.8.8#f#f#a#a#a.7.Q.Q.Q.7#f#J#h#j#H#Yad.Tatag#QaMa##caR.maS.maRaNaO#QaHaAafaQat.eaCanan#ZaTQtQtQtQt",
"QtQtQtQtQtaL.O.S#J#J#J.9.9.9####################.S#.#x#i#z#A.Y.AaCaA.B#IaUaVaWaXaY.jaZ#va0a1a2axaLacagalayauaw.g.fao#D.DQtQtQtQt",
"QtQtQtQtQt#4#a#..S#.#.#h#h#x#x#F#r#r#i.z.z#j#y#t#zam#K.E.Y#ZaCaga3a4a5QtQtQtQtQtQtQta6aKa7.ia8axaLacagalayauaw.g.gak.BQtQtQtQtQt",
"QtQtQtQt.C#F#.#x#x#F#r#i.z#j#y#t#z#s#G.n#K#A#L.E#R#X#8ad.TaJaxa9b.QtQtQtQtQtQtQtQtQtQtb#ba.b#maMaPacagalayauaw.gan.faWQtQtQtQtQt",
"QtQtQtQtbb#g.z#i.z#j#y#t#z#s#G#K#H#L.E#R#X.Y#8aqab.AapavaF#kbcQtQtQtQtQtQtQtQtQtQtQtQtbdaZ.mbeaO#QaHaAalaQauawbfbgaSQtQtQtQtQtQt",
"QtQtQtQta2#g#t#y#t#z#s#G.n#H#L.E#R#X#O#5a.adakaianaval#ua1#0QtQtQtQtQtQtQtQtQtQtQtQtQtaX.XaT.BbhaGaFaIafaQatbfbiaPbjQtQtQtQtQtQt",
"QtQtQtQtbe.9am#sam.n#K#A#M#N#S#Y#O#5aaaeaj.T.gauazaHbk#kasQtQtQtQtQtQtQtQtQtQtQtQtQtbl#vbmbnaO#QaHagalayaBboavbpbqQtQtQtQtQtQtQt",
"QtQtQtQta2#.#K.n#K#A#M#N#S#X#O#5a.adakap.fatafaFaP.BaTaKQtQtQtQtQtQtQtQtQtQtQtQtQt.Wbrbs#c#BaPacarazaJaBbtbuavbvbwbxQtQtQtQtQtQt",
"QtQtQtQt#m#x#L#A#L.E#R#W#Y#4#9aaaeaj#DaCaualaHbhbnbsbya6QtQtQtQtQtQtQtQtQtQtQtQtbdbz.ma2axbhaG.haAalaQaubAatbBbCbDbEQtQtQtQtQtQt",
"QtQtQtQtbF#j.E#M#N#S#X.Y#8#9abaeaj#D.fatafaF#Q.caT#IbGb.QtQtQtQtQtQtQtQtQtQtQt#7bH#k#caMbhaG.hagazaJbIbJaBbKbLbMbNbObPQtQtQtQtQt",
"QtQtQtQtbQ#L.E#R#S#X#O#8aqaa#Z#Uapan.eaQazaHbhaN#kbFbGbRQtQtQtQtQtQtQtQtQt#CbSbTa8a##BaLaG.hagazaJbUbVaQbWbXbYbZb0b1b2QtQtQtQtQt",
"QtQtQtQtQtah#A#X#Y#O#8#9aa#Zakah.TaCavayaIaHaL.c#mbTbyb3b4b5QtQtQtb.b#.Db6aDaRbe.cbk#Q.daFaAazaJb7bIaBb8b9c.c#c#cab1cbQtQtQtQtQt",
"QtQtQtQtQtaT#G#O.Y#8#9a.ad.Aajapao.gatayaI.h#QbkaN#mbs.bbbbzccccbzby.i#k#mbe.caOaLaGaHaraAalcdceaJcfcgchcicjckclcmcncocpQtQtQtQt",
"QtQtQtQtQt.k#Z#W#8#5aqab#Zakah#Dan.gatayazaracaPbkaxa#a2a8aRaRa8#m#cbnaNaxbkaL#uac.hagaIalcqb7alcrcsctcucncvcwcwcjcvcxcyQtQtQtQt",
"QtQtQtQtQtQtcz#Maqaqaaadae#Uah#Dan.gavaQafaIaFac#uaLbk#BaMax.caxaM#Bbkbh#QaGac.hagaAazcAb7afbUcBcCcDcEcFcGchb1cncHcncIcJQtQtQtQt",
"QtQtQtQtQtQtQtbk.Eadab#Z.A#Uai#Dan.gawauayalaIar.hacaG#u#QaPaPaP#Q#uaGac.haFagaIazcAcqcdalcKcLcMcNcOcPcQcRcFcScGcTcGcUcVQtQtQtQt",
"QtQtQtQtQtQtQt#laF#Raeae.Aajai#DaoaC.eavaBayafazaAagaF.h.haHaH.h.haFaragaAaIalcWcqcXazcYcZc0c1c2c3c4c5cDcPctcRcFc6cQc7c8QtQtQtQt",
"QtQtQtQtQtQtQtQt#Tax#Oabajajah#Dao.f.gawatauaQaJafalazaIaAaAaAaAaIaIazalcAc9d.d#azdadbdcdddedfdgdhdidjdkcDcPcQcRdlc4dmQtQtQtQtQt",
"QtQtQtQtQtQtQtQtQtQt.U#D#5.Aap#D.Tan.f.gawavauaBaQayaJaJafafafafcddndod.aJazdpdqdrdsdtdudvdwc1cMdgdhdidjdkc5cPcQdxdgdyQtQtQtQtQt",
"QtQtQtQtQtQtQtQtQtQtQt.#bsaoaaaeapanaC.gdzdAbfbobtdBdCbUb7dDcebUaQaJalaydEdFdGdHdtdHdIdJdKdLdwdMcMdgdNdic4dkcDcPdOdNdPQtQtQtQtQt",
"QtQtQtQtQtQtQtQtQtQtQtQtQt.#bbaGan.A.A#Uan.e.e.eawatataBaQayayaBdQdRdSdTdUdddVdWdIdHdXdYdYdKdLdwcMdgdhdNdjc4dkdZdjd0d1QtQtQtQtQt",
"QtQtQtQtQtQtQtQtQtQtQtQtQtQtQtQtd2d3d4.Bd5d6d7d8d9e.e#eaebecedeeefc4dMdwdMegehdYdYdXdXdYdYdKdLdwc1cMdhdNdidjc4eidLejQtQtQtQtQtQt",
"QtQtQtQtQtQtQtQtQtQtQtQtQtQtQtQtQtQtcpQtekelemeneoepeqerb9chcRcPcDeseteuevdwdLdKdYdYdYdYdYdKdLdwc1dMdgdNdNdjewdjexeyQtQtQtQtQtQt",
"QtQtQtQtQtQtQtQtQtQtQtQtQtQtQtQtQtQtQtQtezeAeBeCeDeEeFeGeHeIeJcEeKdkdidgdMdwdLdKdYdYdYdYdKdKdLdwc1dMcMdhdidieLddeMQtQtQtQtQtQtQt",
"QtQtQtQtQtQtQtQtQtQtQtQtQtQtQtQtQtQtQtQtQteNeGeOePeQc.clcwb1cSctcDc4didhcMc1dwdLdKdKdKdKdKdLdwdwc1dMdgdhdNeRdLeSeTQtQtQtQtQtQtQt",
"QtQtQtQtQtQtQtQtQtQtQtQtQtQtQtQtQtQtQtQtQteUcabNeQeVeWckcvchcFcQcDc4didhcMdMdwdLdLdLdKdLdLdLdwc1dMcMdgdheXdheYeZQtQtQtQtQtQtQtQt",
"QtQtQtQtQtQtQtQtQtQtQtQtQtQtQtQtQtQtQtQtQtQte0che1cmclcwcncGcRcQcDc4didhdgdMc1dwdwdLdLdLdwdwc1c1dMcMdge2e2dKe3QtQtQtQtQtQtQtQtQt",
"QtQtQtQtQtQtQtQtQtQtQtQtQtQtQtQtQtQtQtQtQtQte4e5cveVe6cvb1cScRcQcDc4djdNdgcMdMc1c1dwdwdwdwc1c1dMcMcMeXdfdde7QtQtQtQtQtQtQtQtQtQt",
"QtQtQtQtQtQtQtQtQtQtQtQtQtQtQtQtQtQtQtQtQtQtQte8e9b1f.cnchcScRcQcDdkdjdNdhdgcMdMdMc1c1c1c1dMdMdMcMetdKf#faQtQtQtQtQtQtQtQtQtQtQt",
"QtQtQtQtQtQtQtQtQtQtQtQtQtQtQtQtQtQtQtQtQtQtQtQtfbfccQfdfecFcRcQcDdkc4didNdhdgcMcMdMdMdMdMdMcMffeufgfhfiQtQtQtQtQtQtQtQtQtQtQtQt",
"QtQtQtQtQtQtQtQtQtQtQtQtQtQtQtQtQtQtQtQtQtQtQtQtQtfjfkdNflfmfncQcDdkc4djdidhdhdgcMcMcMcMfofpfqfrdYfsftQtQtQtQtQtQtQtQtQtQtQtQtQt",
"QtQtQtQtQtQtQtQtQtQtQtQtQtQtQtQtQtQtQtQtQtQtQtQtQtQtc8fufvcMesdOfwfxfyfzc3dNfAfBe2ffc2ffdwfCfDfEfFQtQtQtQtQtQtQtQtQtQtQtQtQtQtQt",
"QtQtQtQtQtQtQtQtQtQtQtQtQtQtQtQtQtQtQtQtQtQtQtQtQtQtQtQtfGfHfIdhfJdMdhdidic3dhdgdwdVfKddfLfMfNQtQtQtQtQtQtQtQtQtQtQtQtQtQtQtQtQt",
"QtQtQtQtQtQtQtQtQtQtQtQtQtQtQtQtQtQtQtQtQtQtQtQtQtQtQtQtQtQtfOfPfQfRfSfTfUc1fVfWfXfYfZf0ftQtQtQtQtQtQtQtQtQtQtQtQtQtQtQtQtQtQtQt",
"QtQtQtQtQtQtQtQtQtQtQtQtQtQtQtQtQtQtQtQtQtQtQtQtQtQtQtQtQtQtQtQtQtQtf1f2f3f4f5f2f6QtQtQtQtQtQtQtQtQtQtQtQtQtQtQtQtQtQtQtQtQtQtQt",
"QtQtQtQtQtQtQtQtQtQtQtQtQtQtQtQtQtQtQtQtQtQtQtQtQtQtQtQtQtQtQtQtQtQtQtQtQtQtQtQtQtQtQtQtQtQtQtQtQtQtQtQtQtQtQtQtQtQtQtQtQtQtQtQt",
"QtQtQtQtQtQtQtQtQtQtQtQtQtQtQtQtQtQtQtQtQtQtQtQtQtQtQtQtQtQtQtQtQtQtQtQtQtQtQtQtQtQtQtQtQtQtQtQtQtQtQtQtQtQtQtQtQtQtQtQtQtQtQtQt"};
