/* XPM */
static char *ketpic[] = {
/* columns rows colors chars-per-pixel */
"64 64 64 1",
"  c #030303",
". c #050505",
"X c #0A0A0A",
"o c #0F0F0F",
"O c #111111",
"+ c #141414",
"@ c #191919",
"# c #1D1D1D",
"$ c #202020",
"% c #242424",
"& c #2B2B2B",
"* c #2D2D2D",
"= c #323232",
"- c #353535",
"; c #3A3A3A",
": c #3E3E3E",
"> c #424242",
", c #454545",
"< c #4C4C4C",
"1 c #4F4F4F",
"2 c #515151",
"3 c #565656",
"4 c #595959",
"5 c #5C5C5C",
"6 c #606060",
"7 c #656565",
"8 c #686868",
"9 c #6D6D6D",
"0 c #717171",
"q c #767676",
"w c #7B7B7B",
"e c #7F7F7F",
"r c #828282",
"t c #848484",
"y c #8B8B8B",
"u c #8C8C8C",
"i c #929292",
"p c #969696",
"a c #9A9A9A",
"s c #9E9E9E",
"d c #A0A0A0",
"f c #A7A7A7",
"g c #ABABAB",
"h c #ADADAD",
"j c #B2B2B2",
"k c #B5B5B5",
"l c #B8B8B8",
"z c #BFBFBF",
"x c #C0C0C0",
"c c #C5C5C5",
"v c #C9C9C9",
"b c #CCCCCC",
"n c #D1D1D1",
"m c #D6D6D6",
"M c #DADADA",
"N c #DCDCDC",
"B c #E2E2E2",
"V c #E5E5E5",
"C c #EBEBEB",
"Z c #EEEEEE",
"A c #F2F2F2",
"S c #F7F7F7",
"D c #FBFBFB",
"F c #FFFFFF",
/* pixels */
"FFFFFFFFFFFFFFFFFFFFFFFFFFFFFFFFFFFFFFFFFFFFFFFFFFFFFFFFFFFFFFFF",
"FFFFFFFFFFFFFFFFFFFFFFFFFFFFFFFFFFFFFFFFFFFFFFFFFFFFFFFFFFFFFFFF",
"FFFFFFFFFFFFFFFFFFFFFFFFFFFFFFFFFFFFFFFFFFFFFFFFFFFFFFFFFFFFFFFF",
"FFFFFFFFFFFFFFFFFFFFFFFFFFFFFFFFFFFFFFFFFFFFFFFFFFFFFFFFFFFFFFFF",
"FFFFFFFFFFFFFFFFFFFFFFFFFFFFFFFFFFFFFFFFFFFFFFFFFFFFFFFFFFFFFFFF",
"FFFFFFFFFFFFFFFFFFFFFFFFFFFFFFFFFFFFFFFFFFFFFFFFFFFFFFFFFFFFFFFF",
"FFFFFFFFFFFFFFFFFFFFFFFFFFFFFFFFFFFFFFFFFFFFFFFFFFFFFFFFFFFFFFFF",
"FFFFFFFFFFFFFFFFFFFFFFFFFFFFFFFFFFFFFFFFFFFFFFFFFFFFFFFFFFFFFFFF",
"FFFFFFFFFFFFFFFFFFFFFFFFFFFFFFFFFFFFFFFFFFFFFFFFFFFFFFFFFFFFFFFF",
"FFFFFFFFFFFFFFFFFFFFFFFFFFFFFFFFFFFFFFFFFFFFFFFFFFFFFFFFFFFFFFFF",
"FFFFFFFFFFFFFFFFFFFFFFFFFFFFFFFFFFFFFFFFFFFFFFFFFFFFFFFFFFFFFFFF",
"FFFFFFFFFFFFFFFFFFFFFFFFFFFFFFFFFFFFFFFFFFFFFFFFFFFFFFFFFFFFFFFF",
"FFFFFFFFFFFFFFFFFFFFFFFFFFFFFFFFFFFFFFFFFFFFFFFFFFFFFFFFFFFFFFFF",
"FFFFFFFFFFFFFFFFFFFFFFFFFFFFFFFFFFFFFFFFFFFFFFFFFFFFFFFFFFFFFFFF",
"FFFFFFFFFFFFFFFFFFFFFFFFFFFFFFFFFFFFFFFFFFFFFFFFFFFFFFFFFFFFFFFF",
"FFFFFFFFFFFFFFFFFFFFFFFFFFFFFFFFFFFFFFFFFFFFFFFFFFFFFFFFFFFFFFFF",
"FFFFFFFFFFFFFFFFFFFFFFFFFFFFFFFFFFFFFFFFFFFFFFFFFFFFFFFFFFFFFFFF",
"FFFFFFFFFFFFFFFFFFFFFFFFFFFFFFFFFFFFFFFFFFFFFFFFFFFFFFFFFFFFFFFF",
"FFFFFFFFFFFFFFFFFFFFFFFFFFFFFFFFFFFFFFFFFFFFFFFFFFFFFFFFFFFFFFFF",
"FFFFFFFFFFFFFFFFFFFFFFFFFFFFFFFFFFFFFFFFFFFFFFFFFFFFFFFFFFFFFFFF",
"FFFFFFFFFFFFFFFFFFFFFFFFFFFFFFFFFFFFFFFFFFFFFFFFFFFFFFFFFFFFFFFF",
"FFFFFFFFFFFFFFFFFFFFFFFFFFFFFFFFFFFFFFFFFFFFFFFFFFFFFFFFFFFFFFFF",
"FFFFFFFFFFFFFFFFFFFFFFFFFFFFFFFFFFFFFFFFFFFFFFFFFFFFFFFFFFFFFFFF",
"AbvbbvvCFFZbvvvZFFFFFFFDBmmmmMMmmmmMAFFFFFFFFFFFFFBlNFFFFFFFFFFF",
"Vp9&$6umFFM9=5yMFFFFFFFV3-6q7-&308>-xFFFFFFFFFFFFS9O8AFFFFFFFFFF",
"FSz#XaDDFFNqeMSDFFFFFFFM;rMCz$ tZVh-fFFFFFFFFFFFFS9o9AFFFFFFFFFF",
"FFc#.dFDFn0aAFFFFFFFFFFb6BFFn% pFFDrpFFFFFFFFFFFDDBkNFFFDFFFFFDF",
"FFc#XsFFx9gAAmbnnnbbnnndwAFFb$ iFFFfiDAZZSSCCDFFFSAAAFFFFDCBVADF",
"FFc#XdSg,gDDMt5&&5qq03*=jFDFb% pFFFNnCt44pau0rnFFc92tSFFNu0te8xF",
"FFc#Xia&XtSFDAfOOfZZZMt*cFFFb% pFFFFFSz-X8vBj=:vFBto2AFN3-kCsX6A",
"FFc$.>w9X#hFFFjOOkFFFFC7jFFFb%.pFFFFFFZ1ohFFDr.7SFz+2AFy.0SFm7dD",
"FFc# 8VC4 ;bFFjOOjFAgVFidFFFb% pFFFFFFZ1OjFFFhX=BFlO2AZ2.pFFFADF",
"FFc$.sFFb; 4VFjOOjFn5mFMMDDFb% pFFFFFFZ1OkFFFko&MFlO2AC,.pFFFFFF",
"FFc#XsFFFh@XyDk+X7y1;mFFFFFFb$ pFFFFFFZ<OkFFFs 1CFl+2AA6 tFFDDCS",
"FFc#.dFFFSrX#hj+oqf7:mFFDDFFb% pFFFFFFZ1XpDFC3OaDFl+2AFh@,BFFmyB",
"Cfq#O7sNFVr#o:6XOjFN7mFZjNjar$o6psVFFFC1.3dkq-tZFmq@;fSAp;9jjtjD",
"CjhhhhhBFVhhhheoOkFSzCFm9NzfhhhhgfCFFFZ<OsldgvSFFmghglAFDngshnDF",
"DFFFFFFFFFFFFFjO+jFFFFFg9AFFFFFFFFFFFFZ1OjFFFFFFFFFFFFDDFFFFFFFF",
"DFFFFDFDFFFFFFjOOjFFFDb1wDFFDFFFFFFFFDn:oaZDFDFFFDFFFFFFFDDFFFDF",
"FFFFFFFFFFFFVf9OO0aapw>OaFDFFFFFFFFFFCy429zFFFFFFFFFFFFFFFFFFFFF",
"FFFFFFFFFFFFVfapaaaaappaNFFFFFFFFFFFFSCCZCAFFFFFFFFFFFFFFFFFFFFF",
"FFFFFFFFFFFFFFFFFFFFFFFFFFFFFFFFFFFFFFFFFFFFFFFFFFFFFFFFFFFFFFFF",
"FFFFFFFFFFFFFFFFFFFFFFFFFFFFFFFFFFFFFFFFFFFFFFFFFFFFFFFFFFFFFFFF",
"FFFFFFFFFFFFFFFFFFFFFFFFFFFFFFFFFFFFFFFFFFFFFFFFFFFFFFFFFFFFFFFF",
"FFFFFFFFFFFFFFFFFFFFFFFFFFFFFFFFFFFFFFFFFFFFFFFFFFFFFFFFFFFFFFFF",
"FFFFFFFFFFFFFFFFFFFFFFFFFFFFFFFFFFFFFFFFFFFFFFFFFFFFFFFFFFFFFFFF",
"FFFFFFFFFFFFFFFFFFFFFFFFFFFFFFFFFFFFFFFFFFFFFFFFFFFFFFFFFFFFFFFF",
"FFFFFFFFFFFFFFFFFFFFFFFFFFFFFFFFFFFFFFFFFFFFFFFFFFFFFFFFFFFFFFFF",
"FFFFFFFFFFFFFFFFFFFFFFFFFFFFFFFFFFFFFFFFFFFFFFFFFFFFFFFFFFFFFFFF",
"FFFFFFFFFFFFFFFFFFFFFFFFFFFFFFFFFFFFFFFFFFFFFFFFFFFFFFFFFFFFFFFF",
"FFFFFFFFFFFFFFFFFFFFFFFFFFFFFFFFFFFFFFFFFFFFFFFFFFFFFFFFFFFFFFFF",
"FFFFFFFFFFFFFFFFFFFFFFFFFFFFFFFFFFFFFFFFFFFFFFFFFFFFFFFFFFFFFFFF",
"FFFFFFFFFFFFFFFFFFFFFFFFFFFFFFFFFFFFFFFFFFFFFFFFFFFFFFFFFFFFFFFF",
"FFFFFFFFFFFFFFFFFFFFFFFFFFFFFFFFFFFFFFFFFFFFFFFFFFFFFFFFFFFFFFFF",
"FFFFFFFFFFFFFFFFFFFFFFFFFFFFFFFFFFFFFFFFFFFFFFFFFFFFFFFFFFFFFFFF",
"FFFFFFFFFFFFFFFFFFFFFFFFFFFFFFFFFFFFFFFFFFFFFFFFFFFFFFFFFFFFFFFF",
"FFFFFFFFFFFFFFFFFFFFFFFFFFFFFFFFFFFFFFFFFFFFFFFFFFFFFFFFFFFFFFFF",
"FFFFFFFFFFFFFFFFFFFFFFFFFFFFFFFFFFFFFFFFFFFFFFFFFFFFFFFFFFFFFFFF",
"FFFFFFFFFFFFFFFFFFFFFFFFFFFFFFFFFFFFFFFFFFFFFFFFFFFFFFFFFFFFFFFF",
"FFFFFFFFFFFFFFFFFFFFFFFFFFFFFFFFFFFFFFFFFFFFFFFFFFFFFFFFFFFFFFFF",
"FFFFFFFFFFFFFFFFFFFFFFFFFFFFFFFFFFFFFFFFFFFFFFFFFFFFFFFFFFFFFFFF",
"FFFFFFFFFFFFFFFFFFFFFFFFFFFFFFFFFFFFFFFFFFFFFFFFFFFFFFFFFFFFFFFF",
"FFFFFFFFFFFFFFFFFFFFFFFFFFFFFFFFFFFFFFFFFFFFFFFFFFFFFFFFFFFFFFFF",
"FFFFFFFFFFFFFFFFFFFFFFFFFFFFFFFFFFFFFFFFFFFFFFFFFFFFFFFFFFFFFFFF"
};
