/* XPM */
static char *t[] = {
/* width height ncolors chars_per_pixel */
"64 64 250 2",
/* colors */
"   c #FFC02A",
" . c #C5B493",
" X c #EB504C",
" o c #F5CB55",
" O c #F4D44A",
" + c #FFCA16",
" @ c #0C0905",
" # c #C59012",
" $ c #FFD362",
" % c #A3A3A3",
" & c #FCBD09",
" * c #D89B0A",
" = c #CFD0CE",
" - c #503A0C",
" ; c #FFEA5B",
" : c #C14340",
" > c #FF9C16",
" , c #51504F",
" < c #E8C78A",
" 1 c #F6AD03",
" 2 c #7D5656",
" 3 c #241B0F",
" 4 c #C38A13",
" 5 c #EABE82",
" 6 c #FAA428",
" 7 c #382712",
" 8 c #FFC005",
" 9 c #EC8681",
" 0 c #574A2D",
" q c #FFCA1C",
" w c #706060",
" e c #B2902D",
" r c #787575",
" t c #69470D",
" y c #763C3B",
" u c #934A47",
" i c #040303",
" p c #EBC647",
" a c #D0AB33",
" s c #EE9F29",
" d c #FFA312",
" f c #FEDD6A",
" g c #4B360D",
" h c #737373",
" j c #D38F0B",
" k c #BF6C68",
" l c #EDDC63",
" z c #FFD12C",
" x c #BC8A12",
" c c #9B8458",
" v c #FECC4C",
" b c #CB413F",
" n c #98762A",
" m c #636363",
" M c #181816",
" N c #B5AA8F",
" B c #CA8D05",
" V c #948F89",
" C c #EC6F69",
" Z c #F2B54A",
" A c #FFDA3C",
" S c #535353",
" D c #B5A6A6",
" F c #FFBC25",
" G c #91504E",
" H c #907A50",
" J c #FFB225",
" K c #B8B7B6",
" L c #F0C280",
" P c #E7A60A",
" I c #886006",
" U c #FACA37",
" Y c #D9C052",
" T c #FECB5C",
" R c #0F1010",
" E c #434343",
" W c #FABE62",
" Q c #120D09",
" ! c #E6B76C",
" ~ c #F0EEF0",
" ^ c #EC9D1C",
" / c #FEDA55",
" ( c #A88725",
" ) c #D6BD87",
" _ c #E4E4E4",
" ` c #FFEB63",
" ' c #2B2B2B",
" ] c #A58F8F",
" [ c #E1A714",
" { c #D5BF5E",
" } c #232323",
" | c #F5B60D",
".  c #4A453C",
".. c #FEB602",
".X c #E3C59A",
".o c #1B1B1B",
".O c #CCCCCC",
".+ c #EAD0AE",
".@ c #DA3532",
".# c #C69898",
".$ c #131313",
".% c #C4C4C4",
".& c #C4AD78",
".* c #B29538",
".= c #DAC7A8",
".- c #E7C66C",
".; c #FBB737",
".: c #E3E1DF",
".> c #090909",
"., c #D0B548",
".< c #080708",
".1 c #FFC313",
".2 c #3C3C3B",
".3 c #EDB05E",
".4 c #E0C8A7",
".5 c #332511",
".6 c #FADA46",
".7 c #D9D0CB",
".8 c #D55854",
".9 c #F3AD46",
".0 c #FFC155",
".q c #AAAAAA",
".w c #FFD837",
".e c #59461F",
".r c #E2DED7",
".t c #FFCF6C",
".y c #BF5852",
".u c #FFC541",
".i c #B1706F",
".p c #FDCB2B",
".a c #FFCC23",
".s c #9C9C9C",
".d c #C1A7A6",
".f c #8A8887",
".g c #EC342F",
".h c #FFA00C",
".j c #E8C755",
".k c #FFAD2D",
".l c #F6C41A",
".z c #949494",
".x c #D6A64A",
".c c #767166",
".v c #BE211C",
".b c #8C8C8C",
".n c #8F887B",
".m c #848484",
".M c #FFAB30",
".N c #FFF575",
".B c #FFE14A",
".V c #EDA19C",
".C c #1C160A",
".Z c #7C7C7C",
".A c #F7F8F8",
".S c #3A362E",
".D c #FDA91A",
".F c #FDA71A",
".G c #F7B60A",
".H c #933E3D",
".J c #E5D2B8",
".K c #AF7676",
".L c #A57816",
".P c #E2CEB5",
".I c #E0AD3C",
".U c #8B4C4C",
".Y c #FFC30B",
".T c #C39930",
".R c #6C6C6C",
".E c #2C2716",
".W c #C9C3BA",
".Q c #ECB216",
".! c #151006",
".~ c #D89B09",
".^ c #35302C",
"./ c #322308",
".( c #6F4F0F",
".) c #FFB82C",
"._ c #8D3C3A",
".` c #7B5828",
".' c #8D6A68",
".] c #7C6440",
".[ c #E9B62A",
".{ c #5C5C5C",
".} c #F2C275",
".| c #18140C",
"X  c #FFE046",
"X. c #FFBC04",
"XX c #B38216",
"Xo c #DFAA5F",
"XO c #FFC45A",
"X+ c #FAE46C",
"X@ c #ECE1D2",
"X# c #B61413",
"X$ c #F4AC38",
"X% c #B57C04",
"X& c #CCAB56",
"X* c #FFFFFF",
"X= c #4C4C4C",
"X- c #FEEA73",
"X; c #E4D9CA",
"X: c #E8E7E5",
"X> c #EABB7A",
"X, c #ED9E31",
"X< c #D7AA2F",
"X1 c #F3F3F3",
"X2 c #AF3330",
"X3 c #B04948",
"X4 c #FFBB53",
"X5 c #FEE555",
"X6 c #FFB41E",
"X7 c #EBEBEB",
"X8 c #FF9A07",
"X9 c #C78E08",
"X0 c #FFF16D",
"Xq c #DDA40D",
"Xw c #C4AA47",
"Xe c #343434",
"Xr c #8C6A1A",
"Xt c #945957",
"Xy c #FFD877",
"Xu c #E31917",
"Xi c #DBDBDB",
"Xp c #FFE384",
"Xa c #FF9A0A",
"Xs c #080602",
"Xd c #C9C9C6",
"Xf c #D8D7D8",
"Xg c #FDCA61",
"Xh c #E4D8C6",
"Xj c #D3D3D3",
"Xk c #FCC260",
"Xl c #C77675",
"Xz c #F1B213",
"Xx c #D8C28F",
"Xc c #FFA624",
"Xv c #A0720C",
"Xb c #E0C7A4",
"Xn c #D9A665",
"Xm c #FCBD59",
"XM c #BBBBBB",
"XN c #FFD469",
"XB c #FFD534",
"XV c #62605D",
"XC c #9F7318",
"XZ c #F7B754",
"XA c #FFD62A",
"XS c #DAD8D6",
"XD c #0000FF",
"XF c #B3B3B3",
"XG c #C33432",
"XH c None",
/* pixels */
"XHXHXHXHXHXHXHXHXHXHXHXHXHXHXHXHXHXHXHXHXHXHXHXHXHXHXHXHXHXHXHXHXHXHXHXHXHXHXHXHXHXHXHXHXHXHXHXHXHXHXHXHXHXHXHXHXHXHXHXHXHXHXHXH",
"XHXHXHXHXHXHXHXHXHXHXHXHXHXHXHXHXHXHXHXHXHXHXHXHXHXHXHXHXHXHXH.A.A.A.AXHXHXHXHXHXHXHXHXHXHXHXHXHXHXHXHXHXHXHXHXHXHXHXHXHXHXHXHXH",
"XHXHXHXHXHXHXHXHXHXHXHXHXHXHXHXHXHXHXHXHXHXHXHXHXH.AX7X7 _ _ _ _ _ _ _ _ _X7X7X1XHXHXHXHXHXHXHXHXHXHXHXHXHXHXHXHXHXHXHXHXHXHXHXH",
"XHXHXHXHXHXHXHXHXHXHXHXHXHXHXHXHXHXHXHXHXHXHX1X: _ _ _X: _ _ _ _ _ _ _Xi _Xi _ _Xi _X7.AXHXHXHXHXHXHXHXHXHXHXHXHXHXHXHXHXHXHXHXH",
"XHXHXHXHXHXHXHXHXHXHXHXHXHXHXHXHXHXHXH.AX7 _ _ _ _ _ _ _ _ _ _ _ _ _ _ _ _ _ _Xi _ _XiXi _ ~XHXHXHXHXHXHXHXHXHXHXHXHXHXHXHXHXHXH",
"XHXHXHXHXHXHXHXHXHXHXHXHXHXHXHXHXHXHX7 _ _ _ _ _ _ _ _ _ _X7 _ _Xi _ _ _ _ _X: _ _ _ _ _ _Xi _ ~XHXHXHXHXHXHXHXHXHXHXHXHXHXHXHXH",
"XHXHXHXHXHXHXHXHXHXHXHXHXHXHXHXHX1 _ _ _ _X7 _X7X:X: _ _.q.R E }.o } 'X=.Z.% _ _ _ _ _Xi _ _Xi _X:X1XHXHXHXHXHXHXHXHXHXHXHXHXHXH",
"XHXHXHXHXHXHXHXHXHXHXHXHXHXH.AX7 _ _ _X7 _ _ _X7 _Xj r.o.<.<.>.<.<.<.<.<.<.>Xe % _ _ _ _ _ _ _ _.:.:X7XHXHXHXHXHXHXHXHXHXHXHXHXH",
"XHXHXHXHXHXHXHXHXHXHXHXHXHX1X: _ _X7 _ _ _X7 _ _.f.o.>.>.>.>.<.<.<.>.>.<.>.>.>.>X=Xd _ _ _ _ _ _ _Xi _X:.AXHXHXHXHXHXHXHXHXHXHXH",
"XHXHXHXHXHXHXHXHXHXHXHXHX7X:X:X: _X7X7X7 _X7XjX=.>.>.>.<.<.<.<.<.<.<.<.>.>.>.> i.>.o % _ _ _ _ _ _ _ _Xi _.AXHXHXHXHXHXHXHXHXHXH",
"XHXHXHXHXHXHXHXHXHXHXHX7 _ _X7 _X7 _X7X7X7.O '.> i.>.> E r.R }.<.>.<.>.o S S }.> i.> R.zX7 _ _ _ _.:Xi _ _ _.AXHXHXHXHXHXHXHXHXH",
"XHXHXHXHXHXHXHXHXHXHX7X:X7 _X7X7 _X7X7X7.O '.>.>.>.>.bX1 _Xf.% E.<.> EXiX7Xj.% S.>.>.> R.zX7 _ _ _ _ _ _ _XiXi.AXHXHXHXHXHXHXHXH",
"XHXHXHXHXHXHXHXHXH ~ _X7 _ _X7X7X7X7X7XiXe.>.> i i S _ ~ _XfXj.%.o } = ~ _XiXj.OXe.>.>.> RXF _X7 _ _ _ _ _Xi _ _.AXHXHXHXHXHXHXH",
"XHXHXHXHXHXHXHXHX1 _X7 _X7X7X7X7X7X7 _ S i.$.o i iXFXi _ _ _.:Xf h.mXf _ _ _XiXf.z.> i.>.> }Xf _ _ _ _ _ _ _ _Xi _XHXHXHXHXHXHXH",
"XHXHXHXHXHXHXH.A _X: _X7 _X7X7X7 ~X7.z.> } E } i.oXj _ _X7X7X7X:XF.OXi _ _X7 _ _.O R.>.>.>.>.{X7X: _ _ _ _Xi _ _.rX7XHXHXHXHXHXH",
"XHXHXHXHXHXHXHX7 _X7X7X7X7X7X7X7X7Xf.o }.{ E } i }XiX7X1.A.A.A ~ =XiX: ~X1.A.A ~ _.$.>.>.>.>.>.qX7X7 _ _ _ _.: _Xi.:X1XHXHXHXHXH",
"XHXHXHXHXHXHX1X:X:X7 _X7X7X7X7X7X1.R.o.R.{.2.o i.$Xf ~X7.z %X*.AXF = ~.A.%.q.A.AXj R.>.>.<.< iXe _X7 _ _ _ _ _ _ _ _ _.AXHXHXHXH",
"XHXHXHXHXH.AX:X:X7X7X7X7X7X7X7X7 = R S h SXe R i i.qX1 h ' }.q.A m.bX1.qXe.o.m.A %.>.<.<.<.>.>.>.z _ _X7 _ _ _ _ _XiXiX7XHXHXHXH",
"XHXHXHXHXH ~X:X7X7X7X7X7X7X7X1X1.R } h m E.o i i.> EX:XeXe S.bXd.S. XS.R 'X=.{ ~Xe.>.<.>.<.<.<.< ' _X7 _X7 _ _ _ _Xi _ _X1XHXHXH",
"XHXHXHXH.AX7 _X7X7X7X7X7X7X1X7Xi M.2.{ E ' R i R.$.E H.cXe S N.j O.6.-.z 'X=.n c.E R.>.>.<.>.<.<.<.sX7X7 _X7 _ _ _ _ _XiX:XHXHXH",
"XHXHXHXH ~X:X7X7X7X7X7X7 ~ ~ ~.z.>.2 E ' R i.|.( B 1X.Xz e a O.j ` ; p p e ( P.. 1X% -.!.<.<.<.<.< EX7X7 _ _ _ _ _ _Xi _ _.AXHXH",
"XHXHXHXH _X7 _X7X7X7X1X7 ~ ~ ~ E.>.o }.>.<./.~X.X......Y.a A., l.NX0 Y.I.p q.......... B./.>.<.<.> R.% _ _X7X7 _ _ _ _ _ _X7XHXH",
"XHXHXH ~.fXM _ ~X7X7X7X7 ~ ~Xf.$.>.>.>.>.> IX.X...X.X..1.a.wX5 `.NX0 ;.6.p.1............ B.>.>.>.>.< rX7X7X7 _ _ _ _ _XiXi _XHXH",
"XHXHXHX7.R , m.zXM.:X1 ~ ~ ~.s i i i.>.>.> -...~XC..X..Y q.w.BX5 ; ;.B.w.a.1X.X... 1Xr 1X%.>.>.>.>.<Xe _X7 _X7 _ _ _ _ _ _XiX1XH",
"XHXHXH _XM S S S S.{.R.m.f h } i i i.>.>.$.oX9Xq.LX.X.X. qXA AX .B.B AXB q &X.X.X. *.L P g.>.>.>.< i.< KX7 _X7 _ _ _ _.%.z.{XiXH",
"XHXH.AX: _.f S S S S S S SXe.> i i i.>.>.$ }.e.. xXqX.X..Y q zXB.w.w z.a.Y 8X.X. 1XC..Xv.o R.>.>.< i i.2.O _ _ = K.z.R S S.R _XH",
"XHXHX1 _X7Xi m S.{ S S SXe }.$ i i.>.>.$.o '.S.L.GXCX. 8 8.Y + + q q +.1X. 8X.X..L P.~.^ }.$.>.>.< i i R '.{.{ S SX= SX= S K _.A",
"XHXHX7X7X7X7.O.{.R.R m E '.2.< i i.>.>.$ } '.2X= [Xq 4 8 8 8 8 8.Y 8 8 8 8X. & # # 1 0Xe }.o.>.>.<.< i R }.2 S S S SX= S.b _ _X1",
"XHXHX7X:X7X7X7XF.{ h h 'X= ' i i i.>.>.o }Xe.2.Z . | xXq 8 8 8 8 8 8 8 8 8 & *XX.G c EXe '.o.$.>.<.< i iXe } S S , S S.RXf _Xi ~",
"XHXHX7X7X7 ~X7 ~ %.{ E SX=.$ i i i.< R.o 'Xe S.%XfXx &XXXq 8 8.Y + + + 8X. *XX |.&Xd h.2 ' }.$.>.<.< i i 'XeXe S.{.{.{ = _ _ _X7",
"XHXHX:X7X7X7 ~X7X7.m.2.{.2 R i i i i.>.o '.2.zXfX1.A ).G x #.1XAXA.w.w.lXX x |.&.O.OXF E ' }.$.> i i i i.o E ' m.R.{XM _Xi _ _X:",
"XH.AX:X7X7X7X7 ~X7 h.R.2 ' R i i i i.> } ' S.OX1X*X*.AXx.GXq (.*XwXw.* e.Q.Q ..O.O.O.O.RXe }.o.> i i i i R EX=X=.{XM _ _ _ _ _X:",
"XH.AX7X7X7X7X7 ~XF h.m ,.o i i i i i R.o '.mXfX*X*X*X* ~.=.[.a.6 lX0.BXAXw.W =.O =.O.O %Xe }.$.> i i i i.<.2 S '.qX: _ _ _ _ _ _",
"XH.AX:X7X7X7 ~X7.Z.m h.{ E.< i i i i.>.o 'XFX7X*X*X*X* ~ _.OX&.[XA U p N.O = =.O.O.O.O.% E }.o.< i i i i i 'X=X=.%X7 _ _ _ _XiX7",
"XH.AX7X7X7X7 ~ = m.Z m S S R i i i i.>.o.2 = ~X*X*X*.AX7 _XjXjXdXMXdXjXjXjXj = =.O.O.OXd m }.$ i i i i i i }.{ h.s _ _ _ _ _ _X7",
"XHXHX7X7X7X7 ~.z.R m S S S R i.> i i.>.o.{XjX7.AX*X1 ~ _Xi =XjXfXfXiXiXiXiXfXj =.O.O.O.O.m }.$ i i i i i i.2 m.Z h _X7 _ _ _XiX7",
"XHXHX7X:X7 ~X7 m S S S S m.o.>.>.< i.> M.Z.OXi ~X7X7 _.:XjXj k.V 9 C C X X.g.g.v =.O.OXd.s.o R i i i i i i E S h.{Xf _ _ _ _Xi ~",
"XHXHX7X7X7X7Xd S S S m KX7 E.>.>.<.<.>.o.b.OXjXiXiXfXfXj =.%.y.'Xt G G.U u._._ yXj =.O.OXF.o R i i i i i i.2 S.{.{XM _ _ _ _ _X1",
"XHXH ~X:X7X7.q S S hXiX1 ~ S.>.>.>.> R.o.s.O.OXjXjXj = =Xj.#.H % %.q.q.q.q %.s %XfXj.O.O K.o.>.< i.>.<.< i E S S S % _ _ _ _Xi.A",
"XHXHX1X7X7X7.m S.Z _ ~X1X1.R.>.>.<.<.<.$.s.O =.O.O = = =XfXl.UXFXdXiXfXfXfXjXj.OXiXj =.OXM.o.>.> i.>.<.<.>.qXV S S.Z _ _ _ _ _XH",
"XHXH.AX7X7X7 m.Z _X1X1X1X1.z.>.>.<.>.>.$.s.O.O =.O.OXjXjXf.8.'XM.O hX=XF.%Xe mXfXiXf =.OXM.o.>.>.>.<.>.> RXf.%.{ S.R _ _ _ _ _XH",
"XHXHXHX7X7 _.Z _X7X1X7X1X1.%.>.>.<.>.< R.b.O.O.O.OXj.OXjXf b.f.% _Xd.o.2.R.Z.z.% _Xf.O.O.q R.>.>.<.>.<.<.o _X7.q S m _ _ _ _ ~XH",
"XHXHXHX7X7X7X7X7X7X1X1X7X7X7.$.>.<.<.>.> h.O.O.O.O.O.d.d.OXG %.OX: ~ E i.sXd.OXj _Xi =.O.s R.>.<.> i.<.<.2X7X7 _.m m _ _ _ _.AXH",
"XHXHXH.AX7X7X7X7X7X1X7X1X1X1X=.>.>.>.>.>X=.O.O.OXj.i.8Xt DX2XFXjX1X1.{ i.Z.O _ _ _XiXj.O r.>.<.>.>.>.<.<.RX7 _X7Xi.m _ _ _X:XHXH",
"XHXHXHXHX7X7X7X7X7X1X7X1 ~X1.z.<.>.>.<.> }.%.O.O.O 2 G :Xt.HXM.q.R r.f i '.m.O _ _XfXj.OX=.>.>.<.>.> i.>.q _X7X7 _ _ _.: _ ~XHXH",
"XHXHXHXH.AX7X7X7X7X1X1X7 ~ ~.: M.<.<.>.<.<.q.O.OXd.% ].@X# 2 K.s '.fXj h }.Z = _ _Xi =.%.o.>.>.<.>.>.>.o _X: _X: _ _ _ _ _.AXHXH",
"XHXHXHXHXHX7X7X7 ~X7X7X1 ~ ~X1XV.>.<.<.>.> mXd.O.OXdXMXGXu wXFXfXi.OXi _ =.%XjXiXiXfXj.z.>.>.<.>.<.<.>.RX7X7 _X7 _ _ _ _X7XHXHXH",
"XHXHXHXHXHX1X7X7X7X7 ~X7 ~ ~.:.W.>.>.>.>.< }XMXdXd.O.OX3Xu rXM.:X7 _ ~.A ~ _ _ _ _Xf = E.>.>.>.<.<.<.> ..JX; _X: _ _ _X:XHXHXHXH",
"XHXHXHXHXHXHX7X7X7X7 ~X7X@.}XkXO.`XsXsXs.>.> rXdXd.OXd.KX#.bXM _X7X1X1.AX1 ~X7 _.:Xj %.>.>.>.>XsXsXs.`.0X4XZ 5 _ _ _.: ~XHXHXHXH",
"XHXHXHXHXHXH.AX7X7X7X7X7.}.tXpXyXZ 7.>XsXs i.$XFXdXdXd.q y %.% _X7X7 ~X7 ~X7 _ _Xf.O.2.>.>Xs iXsXs.5XZXy.tX4X4.P _ _X:XHXHXHXHXH",
"XHXHXHXHXHXHXHX7X7X7X7X7 WXgXNXg.0.x 3Xs @XsXs. .%Xd.%.%XM K.O.r _X7X7X7X:X: _XiXf.R iXs iXsXsXs.C.xXm TXmX4X4.P _ _.AXHXHXHXHXH",
"XHXHXHXHXHXHXHXHX7X7X7X7 LX4.0.0Xm TXw MXsXsXsXs m.%.%.O.OXjXfXiXi _ _ _ _ _XiXS V.>XsXsXsXs i.CX& TXmX4X4X4.3Xf.: ~XHXHXHXHXHXH",
"XHXHXHXHXHXHXHXH.AX7X7X7X;Xm.0.0.0 TX+ Y.5XsXsXs i.{.%.%Xd.OXjXfXiXi _Xi.:XiXj.f.>XsXsXsXsXs.5 { f $ TXmX4X4.X _X7XHXHXHXHXHXHXH",
"XHXHXHXHXHXHXHXHXH.AX7X7X7.+X4X4 T fX+X0X< t @XsXsXs.2.qXd.O =XjXfXfXfXiXSXdXV.>.>XsXsXs.!.( ^ oX- f $.0X4X>.: _XHXHXHXHXHXHXHXH",
"XHXHXHXHXHXHXHXHXHXHX1X7X7X7.4Xm T $X+X$.D.D 4 - @XsXs Q S.sXd.O = = = K.R.oXs iXs @.! t j > J.F o f TXZX>.rX7XHXHXHXHXHXHXHXHXH",
"XHXHXHXHXHXHXHXHXHXHXH.AX7X7X7X;.} T.9 J J.h dX6X<Xr g @XsXs MXe.2.2.o.>XsXs @.E.( (.[ F.h d.; J 6XgXm.X.rX7XHXHXHXHXHXHXHXHXHXH",
"XHXHXHXHXHXHXHXHXHXHXHXH.AX7X7X7X:.= s U.)Xa d.D  .p A O.,.* n.].b.b.b.b.n.T.jX5.w.p FX6.hX8 > >X8 !XhX:X7XHXHXHXHXHXHXHXHXHXHXH",
"XHXHXHXHXHXHXHXHXHXHXHXHXHXHX7X7X7 _.9X$.FXa d.DX6  .u / / O < _ ~ ~ ~X7X7X;.- v.u F J.D dXaXa > 6.7 _X1XHXHXHXHXHXHXHXHXHXHXHXH",
"XHXHXHXHXHXHXHXHXHXHXHXHXHXHXHX1X7X7 5.kXc.k.M.k.;.u v o <X@X7X7X7X7X7X7X7X7X7X; < Z.k 6X, 6.M.9.=X:.AXHXHXHXHXHXHXHXHXHXHXHXHXH",
"XHXHXHXHXHXHXHXHXHXHXHXHXHXHXHXH.A ~ _.=X>XoXZXn !.X.J _X7X7X7X7X7X7X7X7X7X7X:X7X:X:.W.=Xb.XXb.r ~XHXHXHXHXHXHXHXHXHXHXHXHXHXHXH",
"XHXHXHXHXHXHXHXHXHXHXHXHXHXHXHXHXHXH.AX7X7 _X7X7X7X7X7X7X7X7X7X7X7X7X7X7X7X7 _X7 _X:X:X7X:X:X7XHXHXHXHXHXHXHXHXHXHXHXHXHXHXHXHXH",
"XHXHXHXHXHXHXHXHXHXHXHXHXHXHXHXHXHXHXHXH.A ~X7X:X7X7X:X: _X7X7X7 _X7X7 _ _X7X7 _X:X: _X7 ~XHXHXHXHXHXHXHXHXHXHXHXHXHXHXHXHXHXHXH",
"XHXHXHXHXHXHXHXHXHXHXHXHXHXHXHXHXHXHXHXHXHXHXHX1 ~X:X:X7X7X7 _X7X7 _ _X7 _ _ _X7X7X1.AXHXHXHXHXHXHXHXHXHXHXHXHXHXHXHXHXHXHXHXHXH",
"XHXHXHXHXHXHXHXHXHXHXHXHXHXHXHXHXHXHXHXHXHXHXHXHXHXHXH.AX1 ~X7 ~X7X7 ~ ~X1X1.AXHXHXHXHXHXHXHXHXHXHXHXHXHXHXHXHXHXHXHXHXHXHXHXHXH"
};
