/* XPM */
static char *kseg[] = {
/* columns rows colors chars-per-pixel */
"64 64 211 2",
"   c #000000",
".  c #0C0001",
"X  c #00060A",
"o  c #00090D",
"O  c #1A0000",
"+  c #001300",
"@  c #000D13",
"#  c #00141C",
"$  c #001A25",
"%  c #001F2C",
"&  c #000538",
"*  c #001234",
"=  c #00212E",
"-  c #002433",
";  c #002C3E",
":  c #152331",
">  c #550000",
",  c #5F2939",
"<  c #005000",
"1  c #006C00",
"2  c #00630E",
"3  c #007A00",
"4  c #00731E",
"5  c #005423",
"6  c #006E27",
"7  c #000047",
"8  c #002E41",
"9  c #003246",
"0  c #00354B",
"q  c #00384E",
"w  c #013A51",
"e  c #003F58",
"r  c #004059",
"t  c #1D445F",
"y  c #00605D",
"u  c #004763",
"i  c #004D6B",
"p  c #005A6F",
"a  c #005273",
"s  c #00587B",
"d  c #980609",
"f  c #A70000",
"g  c #AA0000",
"h  c #B50609",
"j  c #942939",
"k  c #B12737",
"l  c #CE0000",
"z  c #FE0001",
"x  c #F30C00",
"c  c #F5070A",
"v  c #F00A0F",
"b  c #EC0E13",
"n  c #E3141C",
"m  c #C8320E",
"M  c #C92D1F",
"N  c #DA1A25",
"B  c #D61D29",
"V  c #D0212F",
"C  c #CB2534",
"Z  c #C42A3B",
"A  c #B54A00",
"S  c #9F5620",
"D  c #BD2F42",
"F  c #B4364B",
"G  c #AC3B53",
"H  c #A14650",
"J  c #A2425D",
"K  c #9E4661",
"L  c #984966",
"P  c #954C6A",
"I  c #8A5475",
"U  c #84587B",
"Y  c #00BE2C",
"T  c #00BB3F",
"R  c #509D3E",
"E  c #6D813A",
"W  c #00CA00",
"Q  c #22DD00",
"!  c #2BCB1E",
"~  c #00FE02",
"^  c #00FC0B",
"/  c #0CEC16",
"(  c #00EE19",
")  c #0AEC1A",
"_  c #10E814",
"`  c #00F913",
"'  c #00F61D",
"]  c #00F818",
"[  c #00C120",
"{  c #1BD827",
"}  c #00E822",
"|  c #00F522",
" . c #00F22C",
".. c #00EF36",
"X. c #00EE3C",
"o. c #00F132",
"O. c #009C67",
"+. c #00917D",
"@. c #3F9E76",
"#. c #00AB70",
"$. c #4F965A",
"%. c #42A74C",
"&. c #42A553",
"*. c #449B71",
"=. c #00C65E",
"-. c #00EC42",
";. c #00E94C",
":. c #00E755",
">. c #00E55B",
",. c #00DD6F",
"<. c #00DF73",
"1. c #00DD7A",
"2. c #00E363",
"3. c #00E16B",
"4. c #00009E",
"5. c #00159A",
"6. c #005D82",
"7. c #205E83",
"8. c #006187",
"9. c #00658C",
"0. c #006B94",
"q. c #006F9A",
"w. c #02719D",
"e. c #256B95",
"r. c #0054AB",
"t. c #005BB6",
"y. c #0077A5",
"u. c #007BAB",
"i. c #006FBC",
"p. c #7B5F84",
"a. c #796086",
"s. c #74648B",
"d. c #6B6A94",
"f. c #60729F",
"g. c #5A77A5",
"h. c #507EAF",
"j. c #0000CA",
"k. c #0000D4",
"l. c #0000E5",
"z. c #001FE0",
"x. c #001AEA",
"c. c #0000F2",
"v. c #000BF7",
"b. c #0001FF",
"n. c #0009FF",
"m. c #0017FA",
"M. c #0031FF",
"N. c #0042CF",
"B. c #004BDA",
"V. c #005FF7",
"C. c #0077E7",
"Z. c #0077FF",
"A. c #009E9B",
"S. c #39999C",
"D. c #0082B4",
"F. c #0085B9",
"G. c #0097B6",
"H. c #4C81B3",
"J. c #4685B9",
"K. c #4288BE",
"L. c #00DA82",
"P. c #00D68E",
"I. c #00CF9E",
"U. c #00D594",
"Y. c #00D49B",
"T. c #00C4AA",
"R. c #00CEAD",
"E. c #00D1A2",
"W. c #00D0A8",
"Q. c #00C3B5",
"!. c #00CCB5",
"~. c #00CABC",
"^. c #008AC0",
"/. c #0091CA",
"(. c #008ED9",
"). c #0096D1",
"_. c #0098D5",
"`. c #009EDC",
"'. c #3A8EC5",
"]. c #3293CD",
"[. c #2F96D0",
"{. c #2A99D5",
"}. c #239FDD",
"|. c #00A9CA",
" X c #00A0DF",
".X c #09B7DE",
"XX c #23A5C0",
"oX c #20A0DF",
"OX c #0090E4",
"+X c #0084FF",
"@X c #00A4E5",
"#X c #00A0EE",
"$X c #00A9EC",
"%X c #1CA4E3",
"&X c #13AAEC",
"*X c #00B7E7",
"=X c #00BEE6",
"-X c #00BDEC",
";X c #00AEF2",
":X c #0FADF0",
">X c #00B1F5",
",X c #0AB0F5",
"<X c #00BAF5",
"1X c #02B5FB",
"2X c #00B8FF",
"3X c #00C7C4",
"4X c #00C9C2",
"5X c #00C5CD",
"6X c #00C4D3",
"7X c #00C1DC",
"8X c #00C0E0",
/* pixels */
"2X2X-Xo.~.2X2X2X2X2X2X2X2X2X2X2X2X2X2X2X2X2X2X2X2X2X2X2X2X2X2X!.| 2X2X2X2X2X2X2X2X2X2X2X2X2X2X2X2X2X2X2X2X2X2X2X2X2X2X2X2X2X2X2X",
"2X2X2X-XX.R.2X2X2X2X2X2X2X2X2X2X2X2X2X2X2X2X2X2X2X2X2X2X2X2X2X!.| 2X2X2X2X2X2X2X2X2X2X2X2X2X2X2X2X2X2X2X2X2X2X2X2X2X2X2X2X2X2X2X",
"2X2X2X2XW.] !.2X2X2X2X2X2X2X2X2X2X2X2X2X2X2X2X2X2X2X2X2X2X2X2X!.| 2X2X2X2X2X2X2X2X2X2X2X2X2X2X2X2X2X2X2X2X2X2X2X2X2X2X2X2X2X2X2X",
"2X2X2X2X2XL.~ ~.2X2X2X2X2X2X2X2X2X2X2X2X2X2X2X2X2X2X2X2X2X2X2X!.| 2X2X2X2X2X2X2X2X2X2X2X2X2X2X2X2X2X2X2X2X2X2X2X2X2X2X2X2X2X2X2X",
"2X2X2X2X2X2XP.~ !.2X2X2X2X2X2X2X2X2X2X2X2X2X2X2X2X2X2X2X2X2X2X!.| 2X2X2X2X2X2X2X2X2X2X2X2X2X2X2X2X2X2X2X2X2X2X2X2X2X2X2X2X2X2X2X",
"2X2X2X2X2X2X2XL.] R.2X2X2X2X2X2X2X2X2X2X2X2X2X2X2X2X2X2X2X2X2X!.| 2X2X2X2X2X2X2X2X2X2X2X2X2X2X2X2X2X2X2X2X2X2X2X2X2X2X2X2X2X2X2X",
"2X2X2X2X2X2X2X2X1.o.<X2X2X2X2X2X2X2X2X2X2X2X2X2X2X2X2X2X2X2X2X!.| 2X2X2X2X2X2X2X2X2X2X2X2X2X2X2X2X2X2X2X2X2X2X2X2X2X2X2X2X2X2X2X",
"2X2X2X2X2X2X2X2X2XL.:.2X2X2X2X2X2X2X2X2X2X2X2X2X2X2X2X2X2X2X2X!.| 2X2X2X2X2X2X2X2X2X2X2X2X2X2X2X2X2X2X2X2X2X2X2X2X2X2X2X2X2X2X2X",
"2X2X2X2X2X2X2X2X2X7X| :.<X2X2X2X2X2X2X2X2X2X2X2X2X2X2X2X:Xg.g.@./ g.g.g.%X2X2XF.y.).2X2X2X2X2X2X2X2X2X2X2X2X2X2X2X2X2X2X2X2X2X2X",
"2X2X2X2X2X2X2X2X2X2X6X' 2.<X2X2X2X2X2X2X2X2X2X2X{.].p.Z C z z A Q z z z B Z , X   # /.2X2X2X2X2X2X2X2X2X2X2X2X2X2X2X2X2X2X2X2X2X",
"2X2X2X2X2X2X2X2X2X2X2X6X' >.2X2X2X2X2X2X2X2X,XP b z z v N f.f.*./ f.f.f.Z c .       w 2X2X2X2X2X2X2X2X2X2X2X2X2X2X2X2X2X2X2X2X2X",
"2X2X2X2X2X2X2X2X2X2X2X2X6X' ;.2X2X2X2X2X%XU z z n U H.2X2X2X2X!.| 2X2X2X2X2Xo       > L ].2X2X2X2X2X2X2X2X2X2X2X2X2X2X2X2X2X2X2X",
"2X2X2X2X2X2X2X2X2X2X2X2X2X6X| 6X2X2X2XI b z B a.%X2X2X2X2X2X2X!.| 2X2X2X2X_.X       g z v J ,X2X2X2X2X2X2X2X2X2X2X2X2X2X2X2X2X2X",
"2X2X2X2X2X2X2X2X2X2X2X2X2X2X6X' 5X%Xp.z N s.oX2X2X2X2X2X2X2X2X!.| 2X2X2X_.# o w.D.  : f.B z L }.2X2X2X2X2X2X2X2X2X2X2X2X2X2X2X2X",
"2X2X2X2X2X2X2X2X2X2X2X2X2X2X2X:.! N z Z &X2X2X2X2X2X2X2X2X2X2X!.| 2X2X_.$   D.2X>Xq   F.1XG z v K.2X2X2X2X2X2X2X2X2X2X2X2X2X2X2X",
"2X2X2X2X2X2X2X2X2X2X2X2X2X2X2X[.b z Z 1X2X2X2X2X2X2X2X2X2X2X2X!.| 2X0.# X F.2X2X2XF.X = 2X2XK z z K.2X2X2X2X2X2X2X2X2X2X2X2X2X~.",
"2X2X2X2X2X2X2X2X2X2X2X2X2X2X{.b b R _ 6X2X2X2X2X2X2X2X2X2X2X2X!.( u   @ u.2X2X2X2X2X; X y.2X,X'.n v H.2X2X2X2X2X2X2X2X2X2X4X;.^ ",
"2X2X2X2X2X2X2X2X2X2X2X2X2X,XJ z J <X2.' 5X2X2X2X2X2X2X2X2X2X2XQ.1   $ u.2X2X2X2X2X2XD.X - 2X2X2Xp.z Z ,X2X2X2X2X2X2X2X=X;.` ..!.",
"2X2X2X2X2X2X2X2X2X2X2X2X2Xp.z Z &X2X2X:.X.2X2X2X2X2X2X2X2X2X2Xu   q 2X2X2X2X2X2X2X2X2X;   D.2X2X2XG z J 2X2X2X2X2X2XU. .-.R.2X2X",
"2X2X2X2X2X2X2X2X2X2X2X2XH.z Z 2X2X2X2X2X3.<.2X2X2X2X2X2X2X2Xe   5 2X2X2X2X2X2X2X2X2X2X/.  9 ;X2X2X2XK z s.2X2X2XY.` ;.~.2X2X2X2X",
"2X2X2X2X2X2X2X2X2X2X2X2XC c h.2X2X2X2X2X5X] 1.2X2X2X2X2X).i   5 } 2X2X2X2X2X2X2X2X2X2X>Xe   F.2X2X2X].b b *XE. .X.4X<X2X2X2X2X2X",
"2X2X2X2X2X2X2X2X2X2X2Xh.c C 2X2X2X2X2X2X2X~.^ L.2X2X2XF.@   e T.| 2X2X2X2X2X2X2X2X2X2X2X^.o 9 1X2X2X2XH z E o.!.2X2X2X2X2X2X2X2X",
"2X2X2X2X2X2X2X2X2X2X,XD z K.2X2X2X2X2X2X2X2X~.~ 1.2X^.o   w 2X!.| 2X2X2X2X2X2X2X2X2X2X2X2X9.  D.2X2XU.{ z C %X2X2X2X2X2X2X2X2X2X",
"2X2X2X2X2X2X2X2X2X2X'.z F 1X2X2X2X2X2X2X2X2X2X~.+.v.& # a 1X2X!.| 2X2X2X2X2X2X2X2X2X2X2X2X1X5.m.|.` ;.4XP z d.2X2X2X2X2X2X2X2X2X",
"2X2X2X2X2X2X2X2X2X2XK z '.2X2X2X2X2X2X2X2X2X2X+Xn.b.l.(.2X2X2X!.' 2X2X2X2X2X2X2X2X2X2X2X2XZ.n.b.z.3X<X2X%Xc Z 2X2X2X2X2X2X2X2X2X",
"2X2X2X2X2X2X2X2X2X1XJ z %X2X2X2X2X2X2X2X2X2X1Xi.k.b.r.*X2X2X2X!.| 2X2X2X2X2X2X2X2X2X2X<XU.=.x.b.4.2X2X2X2Xb C 1X2X2X2X2X2X2X2X2X",
"2X2X2X2X2X2X2X2X2X].z I 2X2X2X2X2X2X2X2X2X;X8   * V.X. .7X2X2X!.| 2X2X2X2X2X2X2X2X2XP.' ~ 1.#XB.  D.2X2X2Xf.z g.2X2X2X2X2X2X2X2X",
"2X2X2X2X2X2X2X2X2X].z U 2X2X2X2X2X2X2X2X$X0   # /.2X<X-. .7X2X!.| 2X2X2X2X2X2X-XW.] ' ,.-X2X2X@X$ 0 ;X2X2Xf.z g.2X2X2X2X2X2X2X2X",
"2X2X2X2X2X2X2X2X2XJ c }.2X2X2X2X2X2X2X$X0   % /.2X2X2X-X;.| -X!.| 2X2X2X2X=XY...' <.6X2X2X2X2X2X8.  i 2X2X%XN C 2X2X2X2X2X2X2X2X",
"2X2X2X2X2X2X2X2X2XZ c 2X2X2X2X2X2X2X2X8   a 2X2X2X2X2X2X-X-. .I.| 2X2X2XY.o.~ 1.7X2X2X2X2X2X2X2X2X  # /.2X2XC b 2X2X2X2X2X2X2X2X",
"2X2X2X2X2X2X2X2X2XZ c 2X2X2X2X2X2X;X;   6.2X2X2X2X2X2X2X2X2XT +   q P.] ^ <.<X2X2X2X2X2X2X2X2X2X2X0.  a 2X2XC b 2X2X2X2X2X2X2X2X",
"2X2X2X2X2X2X2X2X2XZ c 2X2X2X2X2X^.0   6.1X2X2X2X2X2X2X2X2X1X@       4 3..X2X2X2X2X2X2X2X2X2X2X2X2X;X$ @ `.2XC b 2X2X2X2X2X2X2X2X",
"2X2X2X2X2X2X2X2X2XZ c 2X2X2X2Xw.X   a 2X2X2X2X2X2X2X2X2X2X1X        u 2X2X2X2X2X2X2X2X2X2X2X2X2X2X2X0.  s 1XC v 2X2X2X2X2X2X2X2X",
"2X2X2X2X2X2X2X2X2XZ c 2X2X2Xu.    a 2X2X2X2X2X2X2X2X2X2X=X,.<       O.2X2X2X2X2X2X2X2X2X2X2X2X2X2X2X@X%   >XC b 2X2X2X2X2X2X2X2X",
"2X2X2X2X2X2X2X2X2XZ c 2X2Xw.  = @X2X2X2X2X2X2X2X2X2X5X3.] 3.1Xy 2 O.~ U.2X2X2X2X2X2X2X2X2X2X2X2X2X2X2X9.  u C b 2X2X2X2X2X2X2X2X",
"2X2X2X2X2X2X2X2X2Xj h  X0.X $ @X2X2X2X2X2X2X2X2X5X2.o.,.7X2X2X!.| 2XY.] U.2X2X2X2X2X2X2X2X2X2X2X2X2X2X$X# o d k 2X2X2X2X2X2X2X2X",
"2X2X2X2X2X2X2X2XD.@   $ X % `.2X2X2X2X2X2X2X=X>.| 1.6X2X2X2X2XOXt.1X2XU.| 2X2X2X2X2X2X2X2X2X2X2X2X2X2X2Xi     8 ;X2X2X2X2X2X2X2X",
"2X2X2X2X2X2X2X2X@         r s s s s s s s p 3 3 p p s s s s t.n.b.M.s s 6 6 s s s s s s s s s s s s s i         s 2X2X2X2X2X2X2X",
"2X2X2X2X2X2X2X2X@                                           7 c.b.j.                                            s 2X2X2X2X2X2X2X",
"2X2X2X2X2X2X2X2Xq.o   O e./././.A.Y W #./././././././././././.C.N.OX/./././.Y [ G./././././././././././.t     = @X2X2X2X2X2X2X2X",
"2X2X2X2X2X2X2X2X2XF.w.l F 1X-X>.` | E.2X2X2X2X2X2X2X2X2X2X2X2X!.| 2X2X2X2X2X7X .-.2X2X2X2X2X2X2X2X2X2X2XI f 7. X2X2X2X2X2X2X2X2X",
"2X2X2X2X2X2X2X2X2X2X,XD z %.~ o.E.2X2X2X2X2X2X2X2X2X2X2X2X2X2X!.| 2X2X2X2X2X2X=X .X.<X2X2X2X2X2X2X2X2X%Xz V %X2X2X2X2X2X2X2X2X2X",
"2X2X2X2X2X2X2X2X2X2X5X$.x m R.<X2X2X2X2X2X2X2X2X2X2X2X2X2X2X2X!.| 2X2X2X2X2X2X2X=X .!.2X2X2X2X2X2X2X2XJ z d.2X2X2X2X2X2X2X2X2X2X",
"2X2X2X2X2X2X2X2X6X>.'  .M c h.1X2X2X2X2X2X2X2X2X2X2X2X2X2X2X2X!.| 2X2X2X2X2X2X2X2X8X| !.2X2X2X2X2X2X].b n :X2X2X2X2X2X2X2X2X2X2X",
"2X2X2X2X2X2X-X2.^ | Y.2XH.z Z 2X2X2X2X2X2X2X2X2X2X2X2X2X2X2X2X!.| 2X2X2X2X2X2X2X2X2X<.] ~.2X2X2X2X,XL z s.2X2X2X2X2X2X2X2X2X2X2X",
"2X2X2X2X2XL.~ ..E.2X2X2X2Xp.z Z &X2X2X2X2X2X2X2X2X2X2X2X2X2X2X!.| 2X2X2X2X2X2X2X2X2X2X1.~ ~.2X2X2XG z J 2X2X2X2X2X2X2X2X2X2X2X2X",
"2X2X2X!.| -.R.-X2X2X2X2X2X1XJ z J 2X2X2X2X2X2X2X2X2X2X2X2X2X2X!.| 2X2X2X2X2X2X2X2X2X2X2XL.^ !.2Xp.z Z :X2X2X2X2X2X2X2X2X2X2X2X2X",
"-XR.-.| !.<X2X2X2X2X2X2X2X2X{.b b h.&X2X2X2X2X2X2X2X2X2X2X2X2X!.| 2X2X2X2X2X2X2X2X2X2X2X2X1.) S.n b H.2X2X2X2X2X2X2X2X2X2X2X2X2X",
"-.| Y.2X2X2X2X2X2X2X2X2X2X2X2X].b z Z 2X2X2X2X2X2X2X2X2X2X2X2X!.| 2X2X2X2X2X2X2X2X2X2X2X2X2XS z z K.2X2X2X2X2X2X2X2X2X2X2X2X2X2X",
"R.2X2X2X2X2X2X2X2X2X2X2X2X2X2X2X{.n z Z &X2X2X2X2X2X2X2X2X2X2X!.| 2X2X2X2X2X2X2X2X2X2X2X2XG z x &.2X2X2X2X2X2X2X2X2X2X2X2X2X2X2X",
"2X2X2X2X2X2X2X2X2X2X2X2X2X2X2X2X2X%Xp.z N s.oX2X2X2X2X2X2X2X2X!.| 2X2X2X2X2X2X2X2X2X&Xg.B z L XX' 2.<X2X2X2X2X2X2X2X2X2X2X2X2X2X",
"2X2X2X2X2X2X2X2X2X2X2X2X2X2X2X2X2X2X2XI b z B a.&X2X2X2X2X2X2X!.| 2X2X2X2X2X2X2X&Xd.C z b J :X2X6X` 3.<X2X2X2X2X2X2X2X2X2X2X2X2X",
"2X2X2X2X2X2X2X2X2X2X2X2X2X2X2X2X2X2X2X2X%XU z z b I J.2X2X2X2X!.| 2X2X2X2X2X].I V z z L [.2X2X2X2X5X] 2.2X2X2X2X2X2X2X2X2X2X2X2X",
"2X2X2X2X2X2X2X2X2X2X2X2X2X2X2X2X2X2X2X2X2X2X,XP b z z c N f.f.*./ f.f.f.Z c c z c J %X2X2X2X2X2X2X2X5X' :.2X2X2X2X2X2X2X2X2X2X2X",
"2X2X2X2X2X2X2X2X2X2X2X2X2X2X2X2X2X2X2X2X2X2X2X2X}.].a.Z C z z A Q z z z B Z P ].[.2X2X2X2X2X2X2X2X2X2X5X' 5X2X2X2X2X2X2X2X2X2X2X",
"2X2X2X2X2X2X2X2X2X2X2X2X2X2X2X2X2X2X2X2X2X2X2X2X2X2X2X2X&Xg.g.@./ g.g.g.%X2X2X2X2X2X2X2X2X2X2X2X2X2X2X2X5X .6X2X2X2X2X2X2X2X2X2X",
"2X2X2X2X2X2X2X2X2X2X2X2X2X2X2X2X2X2X2X2X2X2X2X2X2X2X2X2X2X2X2X!.| 2X2X2X2X2X2X2X2X2X2X2X2X2X2X2X2X2X2X2X2X:.' 6X2X2X2X2X2X2X2X2X",
"2X2X2X2X2X2X2X2X2X2X2X2X2X2X2X2X2X2X2X2X2X2X2X2X2X2X2X2X2X2X2X!.| 2X2X2X2X2X2X2X2X2X2X2X2X2X2X2X2X2X2X2X2X<X2.' 6X2X2X2X2X2X2X2X",
"2X2X2X2X2X2X2X2X2X2X2X2X2X2X2X2X2X2X2X2X2X2X2X2X2X2X2X2X2X2X2X!.| 2X2X2X2X2X2X2X2X2X2X2X2X2X2X2X2X2X2X2X2X2X-X>.' 6X2X2X2X2X2X2X",
"2X2X2X2X2X2X2X2X2X2X2X2X2X2X2X2X2X2X2X2X2X2X2X2X2X2X2X2X2X2X2X!.| 2X2X2X2X2X2X2X2X2X2X2X2X2X2X2X2X2X2X2X2X2X2X2X:.| 7X2X2X2X2X2X",
"2X2X2X2X2X2X2X2X2X2X2X2X2X2X2X2X2X2X2X2X2X2X2X2X2X2X2X2X2X2X2X!.| 2X2X2X2X2X2X2X2X2X2X2X2X2X2X2X2X2X2X2X2X2X2X2X2X>.L.2X2X2X2X2X",
"2X2X2X2X2X2X2X2X2X2X2X2X2X2X2X2X2X2X2X2X2X2X2X2X2X2X2X2X2X2X2X!.| 2X2X2X2X2X2X2X2X2X2X2X2X2X2X2X2X2X2X2X2X2X2X2X2X<X2.1.2X2X2X2X",
"2X2X2X2X2X2X2X2X2X2X2X2X2X2X2X2X2X2X2X2X2X2X2X2X2X2X2X2X2X2X2X!.| 2X2X2X2X2X2X2X2X2X2X2X2X2X2X2X2X2X2X2X2X2X2X2X2X2X6X` L.2X2X2X",
"2X2X2X2X2X2X2X2X2X2X2X2X2X2X2X2X2X2X2X2X2X2X2X2X2X2X2X2X2X2X2X!.| 2X2X2X2X2X2X2X2X2X2X2X2X2X2X2X2X2X2X2X2X2X2X2X2X2X2X!.~ P.2X2X"
};
