/* XPM */
static char * lie_xpm[] = {
"64 64 155 2",
"  	c #FFFFFF",
". 	c #FEFEFE",
"+ 	c #FAFAFA",
"@ 	c #F6F6F6",
"# 	c #FCFCFC",
"$ 	c #F7F7F7",
"% 	c #F8F8F8",
"& 	c #FDFDFD",
"* 	c #F2F2F2",
"= 	c #868686",
"- 	c #474747",
"; 	c #959595",
"> 	c #F4F4F4",
", 	c #BFBFBF",
"' 	c #565656",
") 	c #646464",
"! 	c #D1D1D1",
"~ 	c #B1B1B1",
"{ 	c #4D4D4D",
"] 	c #6E6E6E",
"^ 	c #DDDDDD",
"/ 	c #FBFBFB",
"( 	c #A8A8A8",
"_ 	c #797979",
": 	c #969696",
"< 	c #919191",
"[ 	c #D7D7D7",
"} 	c #747474",
"| 	c #DEDEDE",
"1 	c #CECECE",
"2 	c #6D6D6D",
"3 	c #D3D3D3",
"4 	c #E7E7E7",
"5 	c #E6E6E6",
"6 	c #EBEBEB",
"7 	c #BBBBBB",
"8 	c #696969",
"9 	c #F5F5F5",
"0 	c #BEBEBE",
"a 	c #878787",
"b 	c #B6B6B6",
"c 	c #C2C2C2",
"d 	c #B8B8B8",
"e 	c #E2E2E2",
"f 	c #424242",
"g 	c #535353",
"h 	c #525252",
"i 	c #545454",
"j 	c #333333",
"k 	c #8C8C8C",
"l 	c #ECECEC",
"m 	c #4B4B4B",
"n 	c #989898",
"o 	c #7C7C7C",
"p 	c #838383",
"q 	c #6C6C6C",
"r 	c #A5A5A5",
"s 	c #666666",
"t 	c #9C9C9C",
"u 	c #6B6B6B",
"v 	c #B0B0B0",
"w 	c #C7C7C7",
"x 	c #737373",
"y 	c #888888",
"z 	c #A6A6A6",
"A 	c #CCCCCC",
"B 	c #858585",
"C 	c #ABABAB",
"D 	c #EFEFEF",
"E 	c #808080",
"F 	c #A1A1A1",
"G 	c #A7A7A7",
"H 	c #F3F3F3",
"I 	c #848484",
"J 	c #D4D4D4",
"K 	c #555555",
"L 	c #BABABA",
"M 	c #C6C6C6",
"N 	c #BCBCBC",
"O 	c #F0F0F0",
"P 	c #767676",
"Q 	c #EDEDED",
"R 	c #EAEAEA",
"S 	c #B7B7B7",
"T 	c #C9C9C9",
"U 	c #D8D8D8",
"V 	c #7D7D7D",
"W 	c #9F9F9F",
"X 	c #8F8F8F",
"Y 	c #727272",
"Z 	c #B2B2B2",
"` 	c #7E7E7E",
" .	c #7B7B7B",
"..	c #A0A0A0",
"+.	c #B4B4B4",
"@.	c #777777",
"#.	c #DADADA",
"$.	c #CFCFCF",
"%.	c #5B5B5B",
"&.	c #898989",
"*.	c #9A9A9A",
"=.	c #999999",
"-.	c #9D9D9D",
";.	c #6F6F6F",
">.	c #A3A3A3",
",.	c #E5E5E5",
"'.	c #8B8B8B",
").	c #E4E4E4",
"!.	c #D6D6D6",
"~.	c #606060",
"{.	c #4C4C4C",
"].	c #C8C8C8",
"^.	c #C4C4C4",
"/.	c #8D8D8D",
"(.	c #828282",
"_.	c #676767",
":.	c #D2D2D2",
"<.	c #B5B5B5",
"[.	c #EEEEEE",
"}.	c #B3B3B3",
"|.	c #A4A4A4",
"1.	c #E8E8E8",
"2.	c #656565",
"3.	c #CDCDCD",
"4.	c #AEAEAE",
"5.	c #818181",
"6.	c #E9E9E9",
"7.	c #8A8A8A",
"8.	c #C1C1C1",
"9.	c #A9A9A9",
"0.	c #2B2B2B",
"a.	c #464646",
"b.	c #5E5E5E",
"c.	c #C5C5C5",
"d.	c #BDBDBD",
"e.	c #787878",
"f.	c #686868",
"g.	c #626262",
"h.	c #9E9E9E",
"i.	c #929292",
"j.	c #F9F9F9",
"k.	c #151515",
"l.	c #4A4A4A",
"m.	c #434343",
"n.	c #373737",
"o.	c #3E3E3E",
"p.	c #949494",
"q.	c #414141",
"r.	c #6A6A6A",
"s.	c #A2A2A2",
"t.	c #E3E3E3",
"u.	c #7F7F7F",
"v.	c #7A7A7A",
"w.	c #D0D0D0",
"x.	c #E0E0E0",
"  .           .                                                   .           .                                   .           . ",
".   . + @ +                                                     .   # $ % &                                     .   # @ % . .   ",
"    * = - ; >                                                       , ' ) ! &                                       ~ { ] ^ .   ",
"  / ( _   : <                                                     [ } | 1 2 3 4 5 5 5 5 5 5 5 5 5 5 5 5 5 5 5 5 6 7 8 9 0 ] %   ",
"  + a b # c 2                                                     d ; e . f - g h h h h h h h h h h h h h h h h i j k l 9 { @   ",
"  . | m n ] 3                                                       o p q r                                         s t u v #   ",
".     | m w   .                                                 .     x y $   .                                 .   & z A     . ",
"  .   * B 3                                                       .   r C >                                       .         .   ",
"      D E !                                                           F G >                                                     ",
"      D E !                                                           F G >                                                     ",
"      D E !                                                           F G >                                                     ",
"      D E !                                                           F G >                                                     ",
"      D E !                                                           F G >                                                     ",
"      D E !                                                           F G >                                                     ",
"      D E !                                                           F G >                                                     ",
"      D E !                                                           F G >                                                     ",
"      D E !                                                           F G >                                                     ",
"      D E !                                                           F G >                                                     ",
"      D E !                                                           F G >                                                     ",
"      D E !                                                           F G >                                                     ",
"      D E !                                                           F G >                                                     ",
"      D E !                                                           F G >                                                     ",
"      D E !                                                           F G >                                                     ",
"      D E !                                                           F G >                                                     ",
"      D E !                                                           F G >                                                     ",
"      D E !                                                           F G >                                                     ",
"      D E !                                                           F G >                                                     ",
"      D E !                                                           F G >                                                     ",
"  .   H I J   .                                           .           r C 9   .                                   .           . ",
".     A K L                                             .   @ M N O % P p Q                                     .   R S T +     ",
"  . | x } a U                                             / d P V W X } Y Z                                       # < `  .7 #   ",
"  + < ..  +.@.                                            #.a $.  %.i H 9 h &.*.=.=.=.=.=.=.=.=.=.=.=.=.=.=.=.=.-.;.V   4 ' $   ",
"  / >._ ,.: '.                                            ).= r !.~.{.].^.%./.*.=.=.=.=.=.=.=.=.=.=.=.=.=.=.=.=.t (._.:.<.s %   ",
"  . [.(.u X Q                                               A P q }.C Y ;.T                                         |.k = J &   ",
".     1.2.3.  .                                         .     4.5.6.  7.n @   .                                 .     J 4     . ",
"  .   O p :.                                              .   8.n 1.  >.9.>                                       .         .   ",
"      D E !                                                   , : 1.  F G >                                                     ",
"      D E !                                                   , : 1.  F G >                                                     ",
"      D E !                                                   , : 1.  F G >                                                     ",
"      D E !                                                   , : 1.  F G >                                                     ",
"      D E !                                                   , : 1.  F G >                                                     ",
"      D E !                                                   , : 1.  F G >                                                     ",
"      D E !                                                   , : 1.  F G >                                                     ",
"      D E !                                                   , : 1.  F G >                                                     ",
"      D E !                                                   , : 1.  F G >                                                     ",
"      D E !                                                   , : 1.  F G >                                                     ",
"      D E !                                                   , : 1.  F G >                                                     ",
"      D E !                                                   , : 1.  F G >                                                     ",
"      D E !                                                   , : 1.  F G >                                                     ",
"      D E !                                                   , : 1.  F G >                                                     ",
"      D E !                                                   , : 1.  F G >                                                     ",
"      D E !                                                   , : 1.  F G >                                                     ",
"      D E !                                                   , : 1.  F G >                                                     ",
"      D E !                                                   , : 1.  F G >                                                     ",
"      D E !                                                   , : 1.  F G >                                                     ",
"      D E !                                                   , : 1.  F G >                                                     ",
"  .   @ a !.  .                                   .           M t 6   ( 4.@   .                                   .           . ",
".     G 0.F                                     .   % ..u ].* ] a.J ,.{.b.,.                                    .   :.2 < >     ",
"  & c.u T y d.                                      7 e.M (.f.n Z V g.Z h.i.#                                     [.x c : ; +   ",
"  j.E c.  ].k.' h h h h h h h h h h h h h h h h h l.m.!.  n n.R   %.s $   o.a.g h h h h h h h h h h h h h h h h K 0.p.&   - @   ",
"  & c q.c.r.s.Q 5 5 5 5 5 5 5 5 5 5 5 5 5 5 5 5 5 t.>.i L _.{.u.>.8 o.|.a v.U 4 5 5 5 5 5 5 5 5 5 5 5 5 5 5 5 5 1.U l.b _ = +   ",
"    j.c E c.                                        @ b = w.[.>.< x.,.< W 6                                         | a ( * .   ",
".     & j.&   .                                 .   . # j.&   / + . . + / .   .                                 .   . + /     . ",
"  .         .                                     .                         .                                     .         .   "};
