/* XPM */
static char *macaulay_[] = {
/* columns rows colors chars-per-pixel */
"32 32 7 1",
"  c #ECC907CA0BE9",
". c #ECEC0C0C0C0C",
"X c #F3F3E6E41313",
"o c #F3FCE7E5131B",
"O c #F40EEA19132E",
"+ c #F416EB211336",
"@ c None",
/* pixels */
"@@@@@@@@@@@@@@@@@@@@@@@@@@@@@@@@",
"@@@@@@@@@@@@@@@@@@@@@@@@@@@@@@@@",
"..@@@@@@@@@@@@..@@@@@@....@@@@@@",
"..@@@@@@@@@@@@..@@@@@@....@@@@@@",
"....@@@@@@@@....@@@@..@@@@..@@@@",
"....@@@@@@@@....@@@@..@@@@..@@@@",
"..@@..@@@@..@@..@@..@@@@@@@@..@@",
"..@@..@@@@..@@..@@..@@@@@@@@..@@",
"..@@@@....@@@@..@@..@@@@@@@@..@@",
"..@@@@....@@@@..@@..@@@@@@@@..@@",
"..@@@@@@@@@@@@..@@@@@@@@@@@@..@@",
"..@@@@@@@@@@@@..@@@@@@@@@@@@..@@",
"..@@@@@@@@@@@@..@@@@@@@@@@@@..@@",
"..@@@@@@@@@@@@..@@@@@@@@@@@@..@@",
"..@@@@@@@@@@@@..@@@@@@@@@@..@@@@",
"..@@@@@@@@@@@@..@@@@@@@@@@..@@@@",
"..@@@@@@@@@@@@..@@@@@@@@..@@@@@@",
"..@@@@@@@@@@@@..@@@@@@@@..@@@@@@",
"..@@@@@@@@@@@@..@@@@@@..@@@@@@@@",
"..@@@@@@@@@@@@..@@@@@@..@@@@@@@@",
"..@@@@@@@@@@@@..@@@@..@@@@@@@@@@",
"..@@@@@@@@@@@@..@@@@..@@@@@@@@@@",
"..@@@@@@@@@@@@..@@..@@@@@@@@@@@@",
"..@@@@@@@@@@@@..@@..@@@@@@@@@@@@",
"..@@@@@@@@@@@@..@@............@@",
"  @@@@@@@@@@@@  @@            @@",
"@@@@@@@@@@@@@@@@@@@@@@@@@@@@@@@@",
"@@@@@@@@@@@@@@@@@@@@@@@@@@@@@@@@",
"++XXXXXXXXXXXX++X+++++++++++++@@",
"XXXXXXXXXXXXXXXXXXXXXXXXXXXXXX@@",
"@@@@@@@@@@@@@@@@@@@@@@@@@@@@@@@@",
"@@@@@@@@@@@@@@@@@@@@@@@@@@@@@@@@"
};
