/* XPM */
static char *mathjax[] = {
/* columns rows colors chars-per-pixel */
"64 64 194 2",
"   c #030303",
".  c #080707",
"X  c #0D0C0C",
"o  c #100F0F",
"O  c #13100F",
"+  c #0F0F10",
"@  c #100F10",
"#  c #141414",
"$  c #181717",
"%  c #191817",
"&  c #181718",
"*  c #1A1919",
"=  c #201F1E",
"-  c #21201F",
";  c #252323",
":  c #292625",
">  c #2B2826",
",  c #282728",
"<  c #2D2C2B",
"1  c #302E2B",
"2  c #33312E",
"3  c #343232",
"4  c #3A3634",
"5  c #3C3936",
"6  c #3D3B3A",
"7  c #423B36",
"8  c #433E3A",
"9  c #0D7B1A",
"0  c #147F21",
"q  c #46413D",
"w  c #4A443E",
"e  c #444342",
"r  c #4C4642",
"t  c #4D4845",
"y  c #4C4B4A",
"u  c #514944",
"i  c #524E4B",
"p  c #54514D",
"a  c #58524E",
"s  c #545353",
"d  c #5A5552",
"f  c #5D5956",
"g  c #5E5B5A",
"h  c #615A56",
"j  c #625D5A",
"k  c #63605D",
"l  c #6A625D",
"z  c #646463",
"x  c #6B6663",
"c  c #6E6964",
"v  c #6B6B6A",
"b  c #726B65",
"n  c #756E69",
"m  c #74726F",
"M  c #7A736E",
"N  c #757372",
"B  c #7C7672",
"V  c #7A7877",
"C  c #7D7D7C",
"Z  c #857C76",
"A  c #837D79",
"S  c #897F79",
"D  c #158022",
"F  c #198226",
"G  c #1D8529",
"H  c #22872E",
"J  c #23882F",
"K  c #258731",
"L  c #268931",
"P  c #2A8B35",
"I  c #2E8E39",
"U  c #318F3C",
"Y  c #34903E",
"T  c #369241",
"R  c #3B9444",
"E  c #3E9648",
"W  c #41974A",
"Q  c #44994C",
"!  c #49984F",
"~  c #479B50",
"^  c #4C9D54",
"/  c #509F58",
"(  c #5B9C5D",
")  c #54A25C",
"_  c #5E9F60",
"`  c #5CA563",
"'  c #63A265",
"]  c #60A867",
"[  c #68A46A",
"{  c #63AA6A",
"}  c #6BAB6F",
"|  c #6CAE71",
" . c #71AA73",
".. c #6FB176",
"X. c #74B37A",
"o. c #79B67F",
"O. c #83807D",
"+. c #89817B",
"@. c #7CB781",
"#. c #7EB883",
"$. c #858484",
"%. c #8A8581",
"&. c #888887",
"*. c #8D8C8B",
"=. c #938B85",
"-. c #988E87",
";. c #948E8A",
":. c #9B928C",
">. c #949493",
",. c #989597",
"<. c #989897",
"1. c #9D9D9C",
"2. c #A19993",
"3. c #A09F9F",
"4. c #83B383",
"5. c #81BA86",
"6. c #84BC89",
"7. c #8BBD8E",
"8. c #A4A09D",
"9. c #AFA59F",
"0. c #A3A2A2",
"q. c #A8A2A4",
"w. c #A8A8A7",
"e. c #ABABAA",
"r. c #B4AAA4",
"t. c #B8ADA7",
"y. c #BAAFA9",
"u. c #B4B1AF",
"i. c #BDB3AC",
"p. c #B4B4B3",
"a. c #B8B8B7",
"s. c #BBBBBB",
"d. c #C2B7B0",
"f. c #C3BEB9",
"g. c #8EC192",
"h. c #92C295",
"j. c #95C59A",
"k. c #9AC49B",
"l. c #9CC89F",
"z. c #9DCBA1",
"x. c #9FD3A3",
"c. c #A2C6A1",
"v. c #A0CAA3",
"b. c #A7CFAA",
"n. c #A9CDAA",
"m. c #ABD0AD",
"M. c #AFCFB0",
"N. c #AED2B1",
"B. c #B3D4B5",
"V. c #B8D8B7",
"C. c #B7D7B8",
"Z. c #BBD9BD",
"A. c #BFDBC0",
"S. c #C4C4C3",
"D. c #CBCBCA",
"F. c #D5CCC6",
"G. c #D1CACF",
"H. c #D8CFC9",
"J. c #C2DDC3",
"K. c #D4D0CC",
"L. c #DDD3CE",
"P. c #D4D4D4",
"I. c #DED6D1",
"U. c #DFD8D3",
"Y. c #DCDCDB",
"T. c #E1D6D2",
"R. c #E3DAD6",
"E. c #E6DEDA",
"W. c #EADDDB",
"Q. c #CDE3CD",
"!. c #CFE4D0",
"~. c #D2E6D2",
"^. c #D7E8D6",
"/. c #DFE0DF",
"(. c #DFEBDE",
"). c #E6E0DD",
"_. c #E9E1DD",
"`. c #E0ECDF",
"'. c #E4E4E3",
"]. c #ECE6E2",
"[. c #E2EEE1",
"{. c #EEE9E6",
"}. c #EBEBEA",
"|. c #F0EAE7",
" X c #F2EEEB",
".X c #E6F1E6",
"XX c #E8F2E7",
"oX c #EDF5EC",
"OX c #F4F1EE",
"+X c #F5F4F3",
"@X c #F9F6F4",
"#X c #F5F9F4",
"$X c #F9F8F7",
"%X c #FFFFFE",
/* pixels */
"%X%X%X%X%X%X%X%X%X%X%X%X%X%X%X%X%X%X%X%X%X%X%X%X%X%X%X%X%X%X%X%X%X%X%X%X%X%X$X%X%X%X%X%X%X%X%X%X%X%X%X%X%X%X%X%X%X%X%X%X%X%X%X%X",
"%X%X%X%X%X%X%X%X%X%X%X%X%X%X+XP.P.$X%X%X$X%X%X%X%X%X%X%X%X%X%X%X%X%X%X%X%X%X%X%X%X%X$X%X%X%X%X%X%X%X%X%X%X%X%X%X%X%X%X%X%X%X%X%X",
"%X%X%X%X%X%X%X%X%X%X%X%X%X0.3 * 6 y >.+X%X%X%X%X%X%X%X%X$X%X%X%X%X%X%X%X%X$X%X%X%X%X%X%X%X%X%X%X%X%X%X%X%X%X%X%X%X%X%X%X%X%X%X%X",
"%X%X%X%X%X%X%X%X%X%X%X%X*.X X x r.-.e y '.%X%X%X%X%X%X%X%X%X%X%X%X%X%X%X%X%X/.:.N v 3.+X%X%X%X%X%X%X%X%X%X%X%X%X%X%X%X%X%X%X%X%X",
"%X%X%X%X%X%X%X%X%X%X%Xs.# & # f y.d.c   y +X%X%X%X%X%X%X%X%X%X%X%X%X%X%X%Xa.7 1 4 6 3 y D.%X%X%X%X%X%X%X%X$X%X%X%X%X%X%X%X%X%X%X",
"%X%X%X%X%X%X%X%X%X%X$Xe # * # # f j ; <   *.%X$X%X%X%X%X%X%X%X%X%X%X%X%XC.< w 7 p t.i.d * S.%X%X%X%X%X%X%X%X%X%X%X%X%X%X%X%X%X%X",
"%X%X%X%X%X%X%X%X%X%XS.# * # * * # X 2 i * 3 }.%X%X%X%X%X%X%X%X%X%X%X%X+Xy 7 r # r t.e.f . 6 }.%X%X%X%X%X%X%X%X%X%X%X%X%X%X%X%X%X",
"%X%X%X%X%X%X%X%X$X%X1.X * * * # & $ - q r # w.%X%X%X%X%X%X%X%X%X%X$X%Xp.< u ; # ; r q & * X *.%X%X%X%X%X%X%X%X%X%X%X%X%X%X%X%X%X",
"%X%X%X%X%X%X%X%X%X%X3.X * $ $ $ & & # = t 1 y %X%X%X%X%X%X%X%X%X%X%X%XV 1 7 # & # O # # * + s %X%X%X%X%X%X%X%X%X%X%X%X%X%X%X%X%X",
"%X%X%X%X%X%X%X%X%X%XP.$ $ & $ $ & & & # ; q * s.%X%X%X%X%X%X%X%X%X%X%Xs 4 < # & & * * & * X s %X%X%X%X%X%X%X%X%X%X%X%X%X%X%X%X%X",
"%X%X%X%X%X%X%X%X%X%X%Xv . * * & & & $ & # ; # e }.%X$X%X%X%X%X%X%X%XOX4 8 ; # * $ $ $ $ * . >.%X%X%X%X%X%X%X%X%X%X%X%X%X%X%X%X%X",
"%X%X%X%X%X%X%X%X%X%X%X+Xz . + # & * & $ # $ * X j +X%X%X%X%X%X%X%X%XD., q * # * $ $ $ * X f $X+X}.@X%X%X%X%X%X%X%X%X%X%X%X%X%X%X",
"%X%X%X%X%X%X%X%X%X%X%X%X#X0.y , @ X # & * * & * X s '.%X%X%X$X%X$X%X$.> 8 # * # & & & # ; &.O.M j m %X%X%X%X%X%X%X%X%X%X%X%X%X%X",
"%X%X%X%X%X%X%X%X%X%X%X%X%X%X$XY.e.m 3 X # * # & * X < w.$X%X%X%X%XS.3 8 ; # * # * # # * q l Z Z 2 y %X%X%X%X%X%X%X%X%X%X%X%X%X%X",
"%X%X%X%X%X%X%X%X%X%X%X%X%X$X%X%X%X%X+X0.< X * * & * # X y 1.D.D.*.5 5 ; # * # # O > f +.;.Z h : < Y.%X%X%X%X%X%X%X%X%X%X%X%X%X%X",
"%X%X%X%X%X%X%X%X%X%X%X%X%X%X%X%X$X%X%X%XY.e X * & & * & @ @ * * X * - # # # * r M :.-.c t w ; > D.%X%X%X%X%X%X%X%X%X%X%X%X%X%X%X",
"%X%X%X%X%X%X%X%X%X%X%X%X%X%X%X%X%X%X%X$X%XP.2 O # & $ & * * $ $ * # O # 1 j :.2.S a 7 q r : - D.%X%X%X%X%X%X%X%X%X%X%X%X%X%X%X%X",
"%X%X%X%X%X%X%X%X%X%X%X%X%X%X%X%X%X%X%X%X%X%XS.r 5 # & & $ $ * # O = i +.2.-.l w 7 q u r * ; D.%X$X%X%X%X%X%X%X%X%X%X%X%X%X%X%X%X",
"%X%X%X%X%X%X%X%X%X%X%X%X%X%X%X%X%X%X%X%X%X%X%Xe.c 5 # & $ & # , k 2.:.M a 7 7 w r u 8 * * f.%X$X%X%X%X%X%X%X%X%X%X%X%X%X%X%X%X%X",
"%X%X%X%X%X%X%X%X%X%X%X%X%X%X%X%X%X%X%X%X%X%X%X+XA b ; # & $ * =._.+.7 q q 5 q u w 5 # * s.%X%X%X%X%X%X%X%X%X%X%X%X%X%X%X%X%X%X%X",
"%X%X%X%X%X%X%X%X%X%X%X%X%X%X%X%X%X%X%X%X%X%X$X%Xs.l h $ * # 1 l M w w 7 3 8 u w 1 # # e.%X$X%X%X%X%X%X%X%X%X%X%X%X%X%X%X%X%X%X%X",
"%X%X%X%X%X%X%X%X%X%X%X%X%X%X%X%X%X%X%X%X%X%X%X%X#Xv b 1 # # ; 7 q 4 : 4 w u q > # # 8.%X%X%X%X%X%X%X%X%X%X%X%X%X%X%X%X%X%X%X%X%X",
"%X%X%X%X%X%X%X%X%X%X%X%X%X%X%X%X%X%X%X%X%X%X%X%Xp.2 b a # $ # = - : q w r 8 * # O >.%X%X%X%X%X%X%X%X%X%X%X%X%X%X%X%X%X%X%X%X%X%X",
"%X%X%X%X%X%X%X%X%X%X%X%X%X%X%X%X%X%X%X%X$X%X%X0.y * a c * # * # - w u w 4 * # # &.%X%X%X%X%X%X%X%X%X%X%X%X%X%X%X%X%X%X%X%X%X%X%X",
"%X%X%X%X%X%X%X%X%X%X%X%X%X%X%X%X%X%X%X%X%X%X>.g 2 @ s b # & & # - w w 2 $ & O $.%X%X%X%X%X%X%X%X%X%X%X%X%X%X%X%X%X%X%X%X%X%X%X%X",
"%X%X%X%X%X%X%X%X%X%X%X%X%X%X%X%X%X%X%X%X$X*.x e X * b a # & & & # - - # & $ & S.%X$X%X%X%X%X%X%X%X%X%X%X%X%X%X%X%X%X%X%X%X%X%X%X",
"%X%X%X%X%X%X%X%X%X%X%X%X%X%X%X%X%X%X%X$X$.n t X $ h M < # $ * # * $ # $ & & O 6 }.%X$X%X%X%X%X%X%X%X%X%X%X%X%X%X%X%X%X%X%X%X%X%X",
"%X%X%X%X%X%X%X%X%X%X%X%X%X%X%X%X%X%X#X*.B e + $ a M 2 # * $ $ * * * * $ & & & X y }.%X%X%X%X%X%X%X%X%X%X%X%X%X%X%X%X%X%X%X%X%X%X",
"%X%X%X%X%X%X%X%X%X%X%X%X%X%X%X%X%X$X&.n 8 @ $ i M 1 # $ $ $ * # X X # & & & & * X y '.%X%X$X%X%X%X%X%X%X%X%X%X%X%X%X%X%X%X%X%X%X",
"%X%X%X%X%X%X%X%X%X%X%X%X%X%X%X%X%X$.x 5 + $ ; f ; # & $ $ & # < 1.&.2 X & & & & * o < 1.+X%X%X%X%X%X%X%X%X%X%X%X%X%X%X%X%X%X%X%X",
"%X%X%X%X%X%X%X%X%X%X%X%X%X%X%X%X<.g 5 X * $ * * # $ $ $ $ * # e.%X%X'.z O & * & $ # , t z >.S.oX%X%X%X%X%X%X%X%X%X%X%X%X%X%X%X%X",
"%X%X%X%X%X%X%X%X%X%X%X%X%X%X%Xe.y 5 # * $ $ $ $ $ $ $ $ * X y $X%X%X%X%X&.O & & $ # 8 :.S k t e k ;.S.@X%X%X%X%X%X%X%X%X%X%X%X%X",
"%X%X%X%X%X%X%X%X%X%X%X%X%X%XY.s 3 # * # $ $ $ * $ # # & * X *.%X$X%X%X%X%X0.# # * $ $ e S :.=.b 3 X o y '.%X%X%X%X%X%X%X%X%X%X%X",
"%X%X%X%X%X%X%X%X%X%X%X%X$X%XO.* # # # * $ $ $ # < 8 ; # & # s.%X%X%X%X%X$X%X0.& # & $ # , f +.-.=.j * . s $X%X%X%X%X%X%X%X%X%X%X",
"%X%X%X%X%X%X%X%X%X%X%X%X%X%Xe.; ; = d t # $ $ # 1 u r = # ; /.%X$X%X%X%X%X$X%X3.# $ & * # # < j +.-.b ; X 0.%X%X%X%X%X%X%X%X%X%X",
"%X%X%X%X%X%X%X%X%X%X%X%X%X%X%X+X'.N A ; # $ $ $ $ * < * # 3 '.%X%X%X%X%X%X%X%X%X$.X * & $ * # # 1 j -.b + e $X%X%X%X%X%X%X%X%X%X",
"%X%X%X%X%X%X%X%X%X%X%X%X%X%X%X%XS.A k X * $ $ $ $ $ # $ # 3 }.%X%X%X%X%X%X%X%X%X+X6 @ * $ $ * & # # 8 y # * P.%X%X%X%X%X%X%X%X%X",
"%X%X%X%X%X%X%X%X%X%X%X%X%X%X$X%X*.;.N + * $ $ $ $ $ $ * + e oX%X%X%X%X%X%X%X%X%X%X3.@ * $ $ $ $ & & # # & & S.%X%X%X%X%X%X%X%X%X",
"%X%X%X%X%X%X%X%X%X%X%X%X%X%X%X%XN =.2.; # * $ $ $ $ $ * X k %X%X%X%X%X%X%X%X%X%X%X}.3 # & $ $ $ & & & * & * P.%X$X%X%X%X%X%X%X%X",
"%X%X%X%X%X%X%X%X%X%X%X%X%X%X%X%XC Z i.j o * $ $ $ $ $ * X 1.%X%X%X%X%X%X%X%X%X%X%X%Xv X * $ $ $ & $ & * o y $X%X%X%X%X%X%X%X%X%X",
"%X%X%X%X%X%X%X%X%X%X%X%X%X%X%X%Xa.d i.w.2 # $ $ $ $ * # < }.%X%X%X%X%X%X%X%X$X%X%X%Xe.X * * & $ * # * # O p.%X%X%X%X%X%X%X%X%X%X",
"%X%X%X%X%X%X%X%X%X%X%X%X%X%X%X%X%X*.j -.5 # * $ * * & X 1.%X$X%X%X%X%X%X%X%X%X%X%X%X+Xw . * * * * * # + <.%X%X%X%X%X%X%X%X%X%X%X",
"%X%X%X%X%X%X%X%X%X%X%X%X%X%X%X%X%X$X&.* @ # # # # o X C %X%X%X%X%X%X%X%X%X%X%X%X%X%X%XP.e X X # X X 3 u.%X%X%X%X%X%X%X%X%X%X%X%X",
"%X%X%X%X%X%X%X%X%X$X$X%X%X%X%X%X%X%X%Xs.i = = * ; y 1.@X%X%X%X%X%X%X$X%X%X%X%X%X%X%X%X%X+X3.s 6 y *.}.%X%X%X%X%X%X%X%X%X%X%X%X%X",
"%X%X%X$X%X%X%X%X%X$X%X$X%X%X%X%X%X%X%X%X+XE.P.Y.'.@X%X%X%X%X%X%X%X%X%X%X%X%X%X%X%X%X$X$X%X%X%X}.$X%X%X%X%X%X%X%X%X%X%X%X%X%X%X%X",
"%X%X%X%X%X%X%X%X%X%X%X%X%X%X%X%X%X%X%X%X%X%X%X%X%X%X%X%X%XoX[.[.oX%X%X%X%X%X%X%X%X%X%X%X%X$X%X%X%X%X$X%X%X%X$X%X%X%X%X%X%X%X%X%X",
"$Xz.j.k.j.XX%X%X~.h.k.h.V.%X%X%X%X%X%X%X%X%X%X%X%X%X%X%X%X5.I U B.%X%X%X%X%X%X%X%XP.&.$.p.%X%X%X%X%X%X%X%X%X%X$X%X%X%X%X%X%X%X%X",
"oXU G L F N.%X%Xo.D P D } %X%X$X%X$X%X$X%X%X%X.XC.#.Q.%X%X#.L L m.%X$X%X%X%X%X$X%X0.    g %X$X$X%X%X$X%X%X%X%X%X%X%X%X%X%X%X%X%X",
"[.E Y T L 5.%X#X^ I T P | %X%X%X%X%X%X%X%X%X%X#.G H J.%X%X5.L P N.%X%X%X%X%X%X%X%Xe.# + x %X%X%X%X%X%X%X%X>.&.'.%X%X%XP.f.%X%X%X",
"^.R I W P ) %X~.I E E L { %XoXB.7.#.5.m.#X%XZ./ I Y @.m.%X5.L P m.C.X.g..X%X%X%X%Xe.+ X z %XD.*.m v $.P.Y.X # N %X%X}.q > 3.%X$X",
"Q.Y I } E U oXb.F | / K ) %Xl.9 0 F G H ` %X` G Y Y F L %X5.H T W G L G / #X%X$X%Xe.# X v +X*       . # e.m $ # p.%Xp.# + N oX%X",
"Z.Y P h.~ J Z.#.F z.` H ^ %XQ.X.N.B.] I J N.m.E U U ` @.%X5.K U R ` T T L N.%X$X%Xw.@ X z %XN &.e.&.* X 6 %X}.z X z e 5 t x }.%X",
"B.I P N.} F g.) I ~.) L ~ #X%XQ.g...~ U K 6.%XX.L I J.%X%X#.L P j.%X@.L L j.%X$X%Xe.@ X z %X'.<.v y * & - '.%X%Xj # f r y /.%X%X",
"m.P P J.g.G ~ I ) #X) P E #Xj.H F L T T K 5.%XX.L U J.%X%X5.L P N.%Xh.L L h.%X#X%Xw.X X v /.<     # * # = '.%XP.h = , 5 E.%X$X%X",
"l.L P Q.Z.J Y J 7.%X) L W Q.R L ^ XXC.P L 5.%XX.L I Z.%X%X5.L P b.%Xj.L L h.$X@X@X@.X X C C   $ >.$Xe + = }./.e , = , & s.%X%X%X",
"h.L Y ~..XY T P Z.%X` L Q B.T I / ^.o.I L 6.%X@.L U ) k.%X5.P P m.%Xj.L L e.G.z z * * . w.v X # >.a.* # ; G.e @ o z $Xs * %.1.#X",
"5.G P Q.%X! F Y oX%X` G Y Q.` G I J L U F o.%XC.H I H I %X#.G H b.%Xh.F F x.,.  . @ . e %X1.  # X . + X & K.V * o %.%X+Xe $ ; e.",
"k.( [ `.%XB.4.n.%X%X7._ ' [.(.' ! ) n. ._ 7.%X%Xk.^ ! | %Xc.( ' A.%XM.( ( C.q.1 5 8 N }.%X%X%.3 3 C *.r s ).u.$ X s.%X%Xw.  , D.",
"].L.T.@X%X_.W.W.$X%XW.L.T.+X].L.H.L.R.T.L.].%X XT.L.F.L.%X].L.L. X%X{.L.L. X XF.F.L.R._.%XOXR.L.H.R.R.I.U.$X|.-.8.@X%X%X$X8.f.%X",
"|.L.T.@X$XI.I.L.+X%X).L.R.OXI.I.E.@X].I.T.{.%X].L.T.). X%X].L.I. X%X{.I.I.{.$X]. XR.L.L.OX'.L.T.OXOXU.U.U.%X|._._._.%X%X{._.R.].",
" XR.R.@XOXR.E.R.].%X_.R.E.$X_.T.W.OX XE.R.{.%X].R.E.+X%X%X{.R.R.OX%X XR.R. X%X%X%X XR.R.|. XR.R.{.+X_.R.R.%X|.R.R._.+X|._.{.OX%X",
"@X_.W.@X|.W.|._._.%X]._.].%X$X{._._._._._. X%X|.W._.@X%X%X XW._.+X%X XW.E. X%X%X%X@X_._.|.%XOX]._._._._._.%X%X+X|._._._.@X%X%X%X",
"@X|.{.+X|.].@X X{.@X X{.|.%X%X@X$X@X X|.].@X$X X].|.OX@X%XOX].|. X+X X{.].@X%X%X%X@X].|.OX%X@X@X@XOX{.{.|.%X%X%XOX|.|.|. X$X%X%X",
"$XOX X+XOX X%X$X|.@XOX XOX%X@X X XOX X X X%X@X X XOX X X%X@X X X X X X X+X$X%X%X%X$X X X+X%XOX XOXOXOX X+X%X%X@XOX@X@XOXOXOX$X%X"
};
