/* XPM */
static char *nzmath[] = {
/* width height ncolors chars_per_pixel */
"64 64 249 2",
/* colors */
"   c #B4DCAD",
" . c #FFE602",
" X c #FF5903",
" o c #5CC1D4",
" O c #FF2700",
" + c #259F80",
" @ c #0061A8",
" # c #FFD602",
" $ c #FBFAD5",
" % c #67BFB7",
" & c #B8E3E9",
" * c #029064",
" = c #008341",
" - c #43A979",
" ; c #57B126",
" : c #019384",
" > c #4768AF",
" , c #D954A7",
" < c #7CC208",
" 1 c #92CDAC",
" 2 c #FFF929",
" 3 c #0C8C1E",
" 4 c #BFE1CB",
" 5 c #038C54",
" 6 c #97017A",
" 7 c #CFE9B3",
" 8 c #ADD977",
" 9 c #8DD0C8",
" 0 c #008E7C",
" q c #FF5816",
" w c #064FA0",
" e c #018334",
" r c #179AC4",
" t c #E38FC7",
" y c #CEE8D6",
" u c #0E3594",
" i c #189326",
" p c #37A22A",
" a c #FFC501",
" s c #028D63",
" d c #12288E",
" f c #FF3402",
" g c #0B4A9E",
" h c #86C750",
" j c #08449B",
" k c #0963A9",
" l c #48AA2A",
" z c #6CBB5E",
" x c #31ADC6",
" c c #76027D",
" v c #4FB5D3",
" b c #289B11",
" n c #8F70B6",
" m c #24439C",
" M c #F4FBFB",
" N c #06892B",
" B c #A9DBE6",
" V c #01937C",
" C c #143896",
" Z c #038A49",
" A c #D9F1F4",
" S c #4B96C5",
" D c #299A36",
" F c #D7EEE8",
" G c #3594C3",
" H c #18996E",
" J c #56BDCC",
" K c #FF4901",
" L c #CCE713",
" P c #7A017D",
" I c #D2EACF",
" U c #0973B2",
" Y c #008D6A",
" T c #130C81",
" R c #CAEAF2",
" E c #18A5C7",
" W c #EE97CA",
" Q c #68B90D",
" ! c #FFD9A2",
" ~ c #E6F3C8",
" ^ c #79C121",
" / c #D70072",
" ( c #18A3B3",
" ) c #4DAC4F",
" _ c #88C868",
" ` c #D8EC04",
" ' c #7EC368",
" ] c #AAD9C5",
" [ c #FF3D2F",
" { c #84C625",
" } c #209B68",
" | c #028D5B",
".  c #FF8A00",
".. c #CDE84F",
".X c #C8E7E9",
".o c #BEE1B4",
".O c #DEF1EE",
".+ c #FF6F35",
".@ c #75C4D6",
".# c #0A53A2",
".$ c #2D60AA",
".% c #FF9B63",
".& c #C5E408",
".* c #87CBE1",
".= c #E7F405",
".- c #008F87",
".; c #00875C",
".: c #84CED4",
".> c #BDE000",
"., c #FF7A03",
".< c #7BC115",
".1 c #BC037B",
".2 c #1050A1",
".3 c #B1DA4A",
".4 c #FEF8B7",
".5 c #F3F856",
".6 c #2A3093",
".7 c #83017E",
".8 c #65B994",
".9 c #52AF14",
".0 c #94CD8A",
".q c #B40480",
".w c #CCD6E9",
".e c #AAD604",
".r c #FFCB02",
".t c #329F30",
".y c #57B490",
".u c #CFE82F",
".i c #FF9C8A",
".p c #8CD1D8",
".a c #38A218",
".s c #84C61A",
".d c #0389BB",
".f c #550178",
".g c #4682BB",
".h c #0093A4",
".j c #25974E",
".k c #32A893",
".l c #FF725F",
".z c #BAE2DA",
".x c #670179",
".c c #7058A9",
".v c #2A9B2B",
".b c #79C15B",
".n c #FFD412",
".m c #179236",
".M c #FFC47C",
".N c #029274",
".B c #040177",
".V c #035FA7",
".C c #047CB5",
".Z c #03916B",
".A c #051685",
".S c #FF9D30",
".D c #09915D",
".F c #87D2E3",
".G c #8ACBB1",
".H c #F3FAF4",
".J c #0669AD",
".K c #FFDCD5",
".L c #059AA5",
".P c #37A473",
".I c #FFA372",
".U c #007F29",
".Y c #095CA6",
".T c #0099C1",
".R c #B0DA2A",
".E c #280179",
".W c #0298B9",
".Q c #FFB801",
".! c #2897C4",
".~ c #07268D",
".^ c #FFFEDB",
"./ c #FFA801",
".( c #C90079",
".) c #E6F3B5",
"._ c #8AC82C",
".` c #DBEAF3",
".' c #F8F2D4",
".] c #F9F9F6",
".[ c #7BC191",
".{ c #8A0580",
".} c #8CC910",
".| c #FF8601",
"X  c #4E017D",
"X. c #80258D",
"XX c #0C3C98",
"Xo c #111886",
"XO c #FFFFFF",
"X+ c #69B929",
"X@ c #38017B",
"X# c #6A027E",
"X$ c #F8FA03",
"X% c #FF6801",
"X& c #ACD98C",
"X* c #7B92C6",
"X= c #68B914",
"X- c #B6DC0E",
"X; c #8780BE",
"X: c #F4FA16",
"X> c #CDD2E8",
"X, c #09988A",
"X< c #02958D",
"X1 c #A8017C",
"X2 c #2EACB5",
"X3 c #9DD009",
"X4 c #5C017D",
"X5 c #17027B",
"X6 c #8788C1",
"X7 c #EAF6F7",
"X8 c #6AC3C5",
"X9 c #BCE098",
"X0 c #CAA0CE",
"Xq c #71BD23",
"Xw c #FAF7AA",
"Xe c #CD1A89",
"Xr c #E6F3E9",
"Xt c #FF9700",
"Xy c #F1F66C",
"Xu c #092D91",
"Xi c #FFBD2E",
"Xp c #F7FBE9",
"Xa c #5AB8AB",
"Xs c #E3B4D9",
"Xd c #87027C",
"Xf c #43017B",
"Xg c #FF1404",
"Xh c #0374B2",
"Xj c #D0E994",
"Xk c #A9BCDB",
"Xl c #920580",
"Xz c #0A947D",
"Xx c #8CA6CF",
"Xc c #BEE036",
"Xv c #0D87B5",
"Xb c #B0D0E5",
"Xn c #B42F94",
"Xm c #F3F488",
"XM c #FF4C35",
"XN c #E9CCE5",
"XB c #B187C2",
"XV c #109990",
"XC c #049798",
"XZ c #F182BF",
"XA c #8058A9",
"XS c #0A73B2",
"XD c #058A39",
"XF c #0000FF",
"XG c None",
/* pixels */
"XGXGXGXGXGXGXGXGXGXGXGXGXGXGXGXGXGXGXGXGXGXGXGXGXGXGXGXGXGXGXGXGXGXGXGXGXGXGXGXGXGXGXGXGXGXGXGXGXGXGXGXGXGXGXGXGXGXGXGXGXGXGXGXG",
"XGXGXGXGXGXGXGXGXGXGXGXGXGXGXGXGXGXGXGXGXGXGXGXGXGXGXGXGXGXGXGXGXGXGXGXGXGXGXGXGXGXGXGXGXGXGXGXGXGXGXGXGXGXGXGXGXGXGXGXGXGXGXGXG",
"XGXGXGXGXGXGXGXGXGXGXGXGXGXGXGXGXGXGXGXGXGXGXGXGXGXGXGXGXGXGXGXGXGXGXGXGXGXGXGXGXGXGXGXGXGXGXGXGXGXGXGXGXGXGXGXGXGXGXGXGXGXGXGXG",
"XGXGXGXGXGXGXGXGXGXGXGXGXGXGXGXGXGXGXGXGXGXGXGXGXGXGXGXGXGXGXGXGXGXGXGXGXGXGXGXGXGXGXGXGXGXGXGXGXGXGXGXGXGXGXGXGXGXGXGXGXGXGXGXG",
"XGXGXGXGXGXGXGXGXGXGXGXGXGXGXGXGXGXGXGXGXGXGXGXGXGXGXGXGXGXGXGXGXGXGXGXGXGXGXGXGXGXGXGXGXGXGXGXGXGXGXGXGXGXGXGXGXGXGXGXGXGXGXGXG",
"XGXGXGXGXGXGXGXGXGXGXGXGXGXGXGXGXGXGXGXGXGXGXGXGXGXGXGXGXGXGXGXGXGXGXGXGXGXGXGXGXGXGXGXGXGXGXGXGXGXGXGXGXGXGXGXGXGXGXGXGXGXGXGXG",
"XGXGXGXGXGXGXGXGXGXGXGXGXGXGXGXGXGXGXGXGXGXGXGXGXGXGXGXGXGXGXGXGXGXGXGXGXGXGXGXGXGXGXGXGXGXGXGXGXGXGXGXGXGXGXGXGXGXGXGXGXGXGXGXG",
"XGXGXG.l.iXGXGXGXGXGXGXGXGXGXGXGXGXGXGXGXGXGXGXGXGXGXGXGXGXGXGXGXGXGXGXGXGXGXGXGXGXGXGXGXGXGXGXGXGXGXGXGXGXGXGXGXGXGXGXGXGXGXGXG",
"XGXGXGXgXg f.+.IXGXGXGXGXGXGXGXGXGXGXGXGXGXGXGXGXGXGXGXGXGXGXGXGXGXGXGXGXGXGXGXGXGXGXGXGXGXGXGXGXGXGXGXGXGXGXGXGXGXGXGXGXGXGXGXG",
"XGXGXG.l f K X X.,.S !XGXGXGXGXGXGXGXGXGXGXGXGXGXGXGXGXGXGXGXGXGXGXGXGXGXGXGXGXGXGXGXGXGXGXGXGXGXGXGXGXGXGXGXGXGXGXGXGXGXGXGXGXG",
"XG [XM.I K XX%.,.|. XtXiXmXGXGXGXGXGXGXGXGXGXGXGXGXGXGXGXGXGXGXGXGXGXGXGXGXGXGXGXGXGXGXGXGXGXGXGXGXGXGXGXGXGXGXGXGXGXGXGXGXGXGXG",
"XG.i O q XX%.,. Xt./.Q.Q a ..5XGXGXGXGXGXGXGXGXGXGXGXGXGXGXGXGXGXGXGXGXGXGXGXGXGXGXGXGXGXGXGXGXGXGXGXGXGXGXGXGXGXGXGXGXGXGXGXGXG",
"XG.K q XX%.,. Xt./.Q a #Xw.4X$X$XyXGXGXGXGXGXGXGXGXGXGXGXGXGXGXGXGXGXGXGXGXGXGXGXGXGXGXGXGXGXGXGXGXGXGXGXGXGXGXGXGXGXGXGXGXGXGXG",
"XGXG.% X.,. Xt./.Q a #Xw.].4X$.=.= LXyXGXGXGXGXGXGXGXGXGXGXGXGXGXGXGXGXGXGXGXGXGXGXGXGXGXGXGXGXGXGXGXGXGXGXGXGXGXGXGXGXGXGXGXGXG",
"XGXG.K.|. Xt./.Q.Q # $ $ $Xm.= `.u L.>.RXjXGXGXGXGXGXGXGXGXGXGXGXGXGXGXGXGXGXGXGXGXGXGXGXGXGXGXGXGXGXGXGXGXGXGXGXGXGXGXGXGXGXGXG",
"XGXGXG.MXt./.Q.r.n $.^X:.^Xy `Xw.] L.eX-X3.RXGXGXGXGXGXGXGXGXGXGXGXGXGXGXGXGXGXGXGXGXGXGXGXGXGXGXGXGXGXGXGXGXGXGXGXGXGXGXGXGXGXG",
"XGXGXG.]Xi.Q a #.4.^X$X:.].uXw M.u...)X3.}.} <X9XGXGXGXGXGXGXGXGXGXGXGXGXGXGXGXGXGXGXGXGXGXGXGXGXGXGXGXGXGXGXGXGXGXGXGXGXGXGXGXG",
"XGXGXGXG.'.n # . 2X:.=.5Xp $Xp.u.e.3Xp ~._.sXq Q hXGXGXGXGXGXGXGXGXGXGXGXGXGXGXGXGXGXGXGXGXGXGXGXGXGXGXGXGXGXGXGXGXGXGXGXGXGXGXG",
"XGXGXGXGXGXw .X$X$X: `XyXO $.R.e.eX3XjXO.)XqX=X+.9 ;.oXGXGXGXGXGXGXGXGXGXGXGXGXGXGXGXGXGXGXGXGXGXGXGXGXGXGXGXGXGXGXGXGXGXGXGXGXG",
"XGXGXGXGXGXG.5X$.=.= `Xm $.>.e.RXjXOXp 8 ^X=X+ ; l l b.0XGXGXGXGXGXGXGXGXGXGXGXGXGXGXGXGXGXGXGXGXGXGXGXGXGXGXGXGXGXGXGXGXGXGXGXG",
"XGXGXGXGXGXG $X:.= `.&.>.>Xc.) M.' 8 { Q.9 8.] '.a p p i )XGXGXGXGXGXG ].y.kXGXGXGXGXGXGXGXGXGXGXGXGXGXGXGXGXGXGXGXGXGXGXGXGXGXG",
"XGXGXGXGXGXGXGXm ` L.&.. ~ M ~.3 <.< QXq IXOXp ) p.v.v.m NXD 1 4.G -.D Z 5.; s 9XGXGXGXGXGXGXGXGXGXGXGXGXGXGXGXGXGXGXGXGXGXGXGXG",
"XGXGXGXGXGXGXGXG...>.e..XO ~.} < { Q hXO IXpX& b i.t D NXD N e e = Z.; *.Z.N.NXzXGXGXGXGXGXGXGXGXGXGXGXGXGXGXGXGXGXGXGXGXGXGXGXG",
"XGXGXGXGXGXGXGXG $.RX-X3.RXp $._X=X9 MX&.b.H.t D.[Xr y eXD Z Z 5 | | s.Z.N.N V :.zXGXGXGXGXGXGXGXGXGXGXGXGXGXGXGXGXGXGXGXGXGXGXG",
"XGXGXGXGXGXGXGXGXG.)X3X3.}.s ~.].bX& _ b I.o 1Xp.] M.y e Z Z 5 5 | * *.N.N : : :.zXGXGXGXGXGXGXGXGXGXGXGXGXGXGXGXGXGXGXGXGXGXGXG",
"XGXGXGXGXGXGXGXGXGXGXj.} {.<X=  XO h b 'XOXO I.8XO.0.U Z Z Z Z | *.Z.N V V :X<X<.zXGXGXGXGXGXGXGXGXGXGXGXGXGXGXGXGXGXGXGXGXGXGXG",
"XGXGXGXGXGXGXGXGXGXGXGXj Q ^X+.9.0XO.0 )   ) N I ] eXD = = H.y H *.N.N VX<X<XCX< BXGXGXGXGXGXGXGXGXGXGXGXGXGXGXGXGXGXGXGXGXGXGXG",
"XGXGXGXGXGXGXGXGXGXGXGXGX9.9 ; ;.a z.] 7 3 3 I FXD.U Z - ] MXO.y Y V : :X<X<XCXC.:XGXGXGXGXGXGXGXGXGXGXGXGXGXGXGXGXGXGXGXGXGXGXG",
"XGXGXGXGXGXGXGXGXGXGXGXGXG  .9 p l b ) F F.j 1.P Z.8 y M ].z F.Z.NXz :X<XCX8 (XC.:XGXGXGXGXGXGXGXGXGXGXGXGXGXGXGXGXGXGXGXGXGXGXG",
"XGXGXGXGXGXGXGXGXGXGXGXGXGXG  .a.v D i.m 4.H.j.j.].HXO ] sX7 % YXV.XXa.-XCX8XGX2 &XGXGXGXGXGXGXGXGXGXGXGXGXGXGXGXGXGXGXGXGXGXGXG",
"XGXGXGXGXGXGXGXGXGXGXGXGXGXGXG I D i.m N N 1XO.8 } 5.P.`.H FXz : : 9XO.@XC.h.pXGXGXGXGXGXGXGXGXGXGXGXGXGXGXGXGXGXGXGXGXGXGXGXGXG",
"XGXGXGXGXGXGXGXGXGXGXGXGXGXGXGXG I.j NXD e e.8XO.G 5 s +XO % 0 :XV.X A M.:.h.W BXGXGXGXGXGXGXGXGXGXGXGXGXGXGXGXGXGXGXGXGXGXGXGXG",
"XGXGXGXGXGXGXGXGXGXGXGXGXGXGXGXGXGXr.j e Z ZXD.k.].z sXaX7X,.-.kX7 R.L ( o B E.TXbXGXGXGXGXGXGXGXGXGXGXGXGXGXGXGXGXGXGXGXGXGXGXG",
"XGXGXGXGXGXGXGXGXGXGXGXGXGXGXGXGXGXGX7 - = 5.D.; H.O F.k.k 0X2.H &.L.hX2X7 R E.T.T.@XGXGXGXGXGXGXGXGXGXGXGXGXGXGXGXGXGXGXGXGXGXG",
"XGXGXGXGXGXGXGXGXGXGXGXGXGXGXGXGXGXGXGXG.8 5 s.Z YXz.z M.kXV M BXC.h xXO R.T.W r v U SX7XGXGXGXGXGXGXGXGXGXGXGXGXGXGXGXGXGXGXGXG",
"XGXGXGXGXGXGXGXGXGXGXGXGXGXGXGXGXGXGXGXGXG.G s Y V V.- 9 MX8X2.L.L JXO & M.* r A.`.TXhXSXbXGXGXGXGXGXGXGXGXGXGXGXGXGXGXGXGXGXGXG",
"XGXGXGXGXGXGXGXGXGXGXGXGXGXGXGXGXGXGXGXGXGXG.z + VX<X<.-X8XO.:.h JXO.*.T vX7 M RXvXh U.J.V SXb.`XGXGXGXGXGXGXGXGXGXGXGXGXGXGXGXG",
"XGXGXGXGXGXGXGXGXGXGXGXGXGXGXGXGXGXGXGXGXGXGXG 9 0X,XCXCXCX2 M & x v.T.T r M R.CXh U.J k.Y w j jXxXGXGXGXGXGXGXGXGXGXGXGXGXGXGXG",
"XGXGXGXGXGXGXGXGXGXGXGXGXGXGXGXGXGXGXGXGXGXGXG.z :XCXCXC.L.h ( A A r.T vXOXb.CXh U.J.J.V.#.#.#.$.~XbXGXGXGXGXGXGXGXGXGXGXGXGXGXG",
"XGXGXGXGXGXGXGXGXGXGXGXGXGXGXGXGXGXGXGXGXGXGXGXGXCXC.L.LX2 x.W r &XO G.@ BXhXh U.J k.Y.#.2.2 j >X*.wXGXGXGXGXGXGXGXGXGXGXGXGXGXG",
"XGXGXGXGXGXGXGXGXGXGXGXGXGXGXGXGXGXGXGXGXGXGXGXGX2XC.L.L BXG.F E.d.*XO.!XhXh U.J k.Y.Y.#.2 jXX.~ >XGXGXGXGXGXGXGXGXGXGXGXGXGXGXG",
"XGXGXGXGXGXGXGXGXGXGXGXGXGXGXGXGXGXGXGXGXGXGXGXG.p.h.W (XGXGXGXG.*.d GXSXh.J.J k.Y.#.2 g jXX u C.A.6XGXGXGXGXGXGXGXGXGXGXGXGXGXG",
"XGXGXGXGXGXGXGXGXGXGXGXGXGXGXGXGXGXGXGXGXGXGXGXGXGX2.h oXGXGXGXGXG.` GXh U.J k.Y.#.2 g jXX uXu.~ d.A.A.cX; n n.c.cXA nXBX0XNXGXG",
"XGXGXGXGXGXGXGXGXGXGXGXGXGXGXGXGXGXGXGXGXGXGXGXGXGXG oXGXGXGXGXGXGXGXG S.V k.Y.#.2 g jXX C u d dXoXoXo.B.B.BX5.EX@X@.f.f.x P.{Xs",
"XGXGXGXGXGXGXGXGXGXGXGXGXGXGXGXGXGXGXGXGXGXGXGXGXGXGXGXGXGXGXGXGXGXGXG.w @.Y.#.# j j C C C d dXoXo T T T TX@ TXfXfX4X# c PXd 6XG",
"XGXGXGXGXGXGXGXGXGXGXGXGXGXGXGXGXGXGXGXGXGXGXGXGXGXGXGXGXGXGXGXGXGXGXGXG.g g.# j jXX C d.~.AXoXoXo TX5X5.EX@.fX4X4X# c.7Xl 6 ,XG",
"XGXGXGXGXGXGXGXGXGXGXGXGXGXGXGXGXGXGXGXGXGXGXGXGXGXGXGXGXGXGXGXGXGXGXGXGXb j gXXXX C.~XoXkX6 T.B T TX5.E TX X X4X# c.7Xl 6XnXGXG",
"XGXGXGXGXGXGXGXGXGXGXGXGXGXGXGXGXGXGXGXGXGXGXGXGXGXGXGXGXGXGXGXGXGXGXGXGXG.$XXXXXuXu.$XkXGXGX>.6.B.E TX@X@X X4X# c.7Xl 6XnXGXGXG",
"XGXGXGXGXGXGXGXGXGXGXGXGXGXGXGXGXGXGXGXGXGXGXGXGXGXGXGXGXGXGXGXGXGXGXGXGXGXxXu.~.6X>XGXGXGXGXGXG.cX5X@XfX .xX# c.{.{ 6XnXGXGXGXG",
"XGXGXGXGXGXGXGXGXGXGXGXGXGXGXGXGXGXGXGXGXGXGXGXGXGXGXGXGXGXGXGXGXGXGXGXGXGXG m CXGXGXGXGXGXGXGXGXG nX@X4X4X# c.{ 6 6XnXGXGXGXGXG",
"XGXGXGXGXGXGXGXGXGXGXGXGXGXGXGXGXGXGXGXGXGXGXGXGXGXGXGXGXGXGXGXGXGXGXGXGXGXGX>XGXGXGXGXGXGXGXGXGXGXG n.fX# P.{ 6XlX1XGXGXGXGXGXG",
"XGXGXGXGXGXGXGXGXGXGXGXGXGXGXGXGXGXGXGXGXGXGXGXGXGXGXGXGXGXGXGXGXGXGXGXGXGXGXGXGXGXGXGXGXGXGXGXGXGXGXGX. c.{ 6XlX1XeXGXGXGXGXGXG",
"XGXGXGXGXGXGXGXGXGXGXGXGXGXGXGXGXGXGXGXGXGXGXGXGXGXGXGXGXGXGXGXGXGXGXGXGXGXGXGXGXGXGXGXGXGXGXGXGXGXGXGX0.7 6X1.q.1 ,XGXGXGXGXGXG",
"XGXGXGXGXGXGXGXGXGXGXGXGXGXGXGXGXGXGXGXGXGXGXGXGXGXGXGXGXGXGXGXGXGXGXGXGXGXGXGXGXGXGXGXGXGXGXGXGXGXGXGXGXn 6.q.q.( WXGXGXGXGXGXG",
"XGXGXGXGXGXGXGXGXGXGXGXGXGXGXGXGXGXGXGXGXGXGXGXGXGXGXGXGXGXGXGXGXGXGXGXGXGXGXGXGXGXGXGXGXGXGXGXGXGXGXGXGX0X1.(.(XeXGXGXGXGXGXGXG",
"XGXGXGXGXGXGXGXGXGXGXGXGXGXGXGXGXGXGXGXGXGXGXGXGXGXGXGXGXGXGXGXGXGXGXGXGXGXGXGXGXGXGXGXGXGXGXGXGXGXGXGXGXG t.( /XZXGXGXGXGXGXGXG",
"XGXGXGXGXGXGXGXGXGXGXGXGXGXGXGXGXGXGXGXGXGXGXGXGXGXGXGXGXGXGXGXGXGXGXGXGXGXGXGXGXGXGXGXGXGXGXGXGXGXGXGXGXGXG W ,XGXGXGXGXGXGXGXG",
"XGXGXGXGXGXGXGXGXGXGXGXGXGXGXGXGXGXGXGXGXGXGXGXGXGXGXGXGXGXGXGXGXGXGXGXGXGXGXGXGXGXGXGXGXGXGXGXGXGXGXGXGXGXGXGXGXGXGXGXGXGXGXGXG",
"XGXGXGXGXGXGXGXGXGXGXGXGXGXGXGXGXGXGXGXGXGXGXGXGXGXGXGXGXGXGXGXGXGXGXGXGXGXGXGXGXGXGXGXGXGXGXGXGXGXGXGXGXGXGXGXGXGXGXGXGXGXGXGXG",
"XGXGXGXGXGXGXGXGXGXGXGXGXGXGXGXGXGXGXGXGXGXGXGXGXGXGXGXGXGXGXGXGXGXGXGXGXGXGXGXGXGXGXGXGXGXGXGXGXGXGXGXGXGXGXGXGXGXGXGXGXGXGXGXG",
"XGXGXGXGXGXGXGXGXGXGXGXGXGXGXGXGXGXGXGXGXGXGXGXGXGXGXGXGXGXGXGXGXGXGXGXGXGXGXGXGXGXGXGXGXGXGXGXGXGXGXGXGXGXGXGXGXGXGXGXGXGXGXGXG",
"XGXGXGXGXGXGXGXGXGXGXGXGXGXGXGXGXGXGXGXGXGXGXGXGXGXGXGXGXGXGXGXGXGXGXGXGXGXGXGXGXGXGXGXGXGXGXGXGXGXGXGXGXGXGXGXGXGXGXGXGXGXGXGXG",
"XGXGXGXGXGXGXGXGXGXGXGXGXGXGXGXGXGXGXGXGXGXGXGXGXGXGXGXGXGXGXGXGXGXGXGXGXGXGXGXGXGXGXGXGXGXGXGXGXGXGXGXGXGXGXGXGXGXGXGXGXGXGXGXG",
"XGXGXGXGXGXGXGXGXGXGXGXGXGXGXGXGXGXGXGXGXGXGXGXGXGXGXGXGXGXGXGXGXGXGXGXGXGXGXGXGXGXGXGXGXGXGXGXGXGXGXGXGXGXGXGXGXGXGXGXGXGXGXGXG"
};
