/* XPM */
static char *pari_gp[] = {
/* columns rows colors chars-per-pixel */
"64 64 227 2",
"   c #000000",
".  c #0E0D0D",
"X  c #180908",
"o  c #131313",
"O  c #1A1616",
"+  c #1D1D1D",
"@  c #3A211E",
"#  c #1E2020",
"$  c #252525",
"%  c #2A2A2A",
"&  c #342828",
"*  c #353535",
"=  c #3C3C3C",
"-  c #431510",
";  c #601E17",
":  c #434343",
">  c #4E4E4E",
",  c #535353",
"<  c #5A5A5A",
"1  c #7C4541",
"2  c #626363",
"3  c #6D6D6D",
"4  c #737373",
"5  c #7C7C7C",
"6  c #822621",
"7  c #86312C",
"8  c #863E3A",
"9  c #B3342B",
"0  c #B23730",
"q  c #C7372F",
"w  c #C73830",
"e  c #C83B33",
"r  c #A2532B",
"t  c #BB4735",
"y  c #CD433B",
"u  c #C64E3E",
"i  c #954942",
"p  c #B14D47",
"a  c #A94158",
"s  c #B94E5A",
"d  c #BC615C",
"f  c #C44740",
"g  c #C64A46",
"h  c #CD4B44",
"j  c #CA4E49",
"k  c #CA5044",
"l  c #CE524B",
"z  c #D0544C",
"x  c #D25B53",
"c  c #C26448",
"v  c #CB6453",
"b  c #D4635D",
"n  c #C26964",
"m  c #D66760",
"M  c #D56962",
"N  c #D86B64",
"B  c #DB766F",
"V  c #DA7670",
"C  c #DD7C76",
"Z  c #DC7F79",
"A  c #009C00",
"S  c #0DA30B",
"D  c #14A711",
"F  c #1FAC1D",
"G  c #3BA429",
"H  c #27B123",
"J  c #2DB627",
"K  c #2FB42B",
"L  c #3CBA38",
"P  c #49A834",
"I  c #44BD3E",
"U  c #3FC038",
"Y  c #50BA4A",
"T  c #72BE5D",
"R  c #4FC748",
"E  c #57C553",
"W  c #62CC5C",
"Q  c #68D75D",
"!  c #69CC65",
"~  c #6DCC6B",
"^  c #7AD176",
"/  c #DC817B",
"(  c #83D67F",
")  c #85DA7E",
"_  c #060ED0",
"`  c #1426D7",
"'  c #1F2BD7",
"]  c #2336DA",
"[  c #263DDD",
"{  c #3D4FDF",
"}  c #5A5CDF",
"|  c #6667D3",
" . c #4B5CE2",
".. c #5568E5",
"X. c #5B72E7",
"o. c #657CE9",
"O. c #6A85EC",
"+. c #768FEE",
"@. c #7791EE",
"#. c #7E96EE",
"$. c #828282",
"%. c #8C8F8F",
"&. c #939393",
"*. c #9D9B9B",
"=. c #A99998",
"-. c #A5A5A5",
";. c #A8ACA6",
":. c #ABACAC",
">. c #B0AEB0",
",. c #BDBDBD",
"<. c #D28A86",
"1. c #DF8C87",
"2. c #E28B86",
"3. c #E18F89",
"4. c #E19590",
"5. c #E69F9A",
"6. c #E7A19D",
"7. c #C0ACAA",
"8. c #D9A6A3",
"9. c #D7B6B4",
"0. c #EAA6A1",
"q. c #EBAFAB",
"w. c #EBB5B2",
"e. c #ECB9B6",
"r. c #EDBCB9",
"t. c #8ADD83",
"y. c #9BDF96",
"u. c #AFD69B",
"i. c #A5E99E",
"p. c #BBE99B",
"a. c #B3DEAE",
"s. c #A5E2A2",
"d. c #B0E7AC",
"f. c #B2EAAD",
"g. c #BCFFAB",
"h. c #C0D592",
"j. c #F4C2BE",
"k. c #C9E9AB",
"l. c #C0FFAF",
"z. c #CEEBB2",
"x. c #C2EEBE",
"c. c #D5EAB9",
"v. c #C4FFB5",
"b. c #C3F3BC",
"n. c #CAFFBC",
"m. c #898ADA",
"M. c #9894D9",
"N. c #8297EE",
"B. c #929AEC",
"V. c #8C9FF0",
"C. c #95A6F1",
"Z. c #92AAF3",
"A. c #95B3F6",
"S. c #AEAEE1",
"D. c #A3BFF9",
"F. c #BFC1C2",
"G. c #AFC2F7",
"H. c #B5CDFA",
"J. c #C3C3C3",
"K. c #CACACA",
"L. c #C9C1D3",
"P. c #D4D4D4",
"I. c #DEDEDE",
"U. c #F1C4C1",
"Y. c #F1C9C6",
"T. c #F4D1CE",
"R. c #E8D7D6",
"E. c #E1DEDE",
"W. c #F5D3D1",
"Q. c #F5D8D6",
"!. c #F8DDDB",
"~. c #DFECC8",
"^. c #C7F2C2",
"/. c #CCF7C6",
"(. c #CEFFC1",
"). c #D3FAC7",
"_. c #D3F5CF",
"`. c #D6FFCA",
"'. c #D8FFCE",
"]. c #D6F4D3",
"[. c #D8F8D3",
"{. c #DEFAD9",
"}. c #E4E7D0",
"|. c #E8E4D5",
" X c #ECEAD9",
".X c #E1FFD9",
"XX c #C6D1E7",
"oX c #CBD4E7",
"OX c #CCD5E9",
"+X c #DADDE9",
"@X c #C1CEF7",
"#X c #C9D1F7",
"$X c #C4D3F9",
"%X c #D5DEFA",
"&X c #E0DEE9",
"*X c #C5EBEF",
"=X c #C8EDEE",
"-X c #DEE0EB",
";X c #CEEEF1",
":X c #CAE5FF",
">X c #CDE8FF",
",X c #D6E1FC",
"<X c #DAE5FC",
"1X c #D3EBFE",
"2X c #DBECFD",
"3X c #DDF0FF",
"4X c #E2E2E2",
"5X c #EBE4EA",
"6X c #EDEDED",
"7X c #F9E5E4",
"8X c #F9E8E7",
"9X c #FAEBEA",
"0X c #E6FCE2",
"qX c #EDFCEA",
"wX c #FBF0EF",
"eX c #F1FFED",
"rX c #E5ECFD",
"tX c #E4F2FF",
"yX c #ECF5FF",
"uX c #EEF9FF",
"iX c #F2F3F3",
"pX c #FCF3F2",
"aX c #F4FEF2",
"sX c #F8FEF7",
"dX c #F0F6FE",
"fX c #F5FAFF",
"gX c #FFFFFF",
/* pixels */
"gXgXgXgXgXgXgXgXgXgXgXgXgXgXgXgXgXgXgXgXgXgXgXgXgXgXgXgXgXgXgXgXgXgXgXgXgXgXgXgXgXgXgXgXgXgXgXgXgXgXgXgXgXgXgXgXgXgXgXgXgXgXgXgX",
"gXgXgXgXgXgXgXgXgXgXgXgXgXgXgXgXgXgXgXgXgXgXgXgXgXgXgXgXgXgXgXgXgXgXgXgXgXgXgXgXgXgXgXgXgXgXgXgXgXgXgXgXgXgXgXgXgXgXgXgXgXgXgXgX",
"gXgXgXgXgXgXgXgXgXgXgXgXgXgXgXgXgXgXgXgXgXgXgXgXgXgXgXgXgXgXgXgXgXgXgXgXgXgXgXgXgXgXgXgXgXgXgXgXgXgXgXgXgXgXgXgXgXgXgXgXgXgXgXgX",
"gXgXgXgXgXgXgXgXgXgXgXgXgXgXgXgXgXgXgXgXgXgXgXgXgXgXgXgXgXgXgXgXgXgXgXgXgXgXgXgXgXgXgXgXgXgXgXgXgXgXgXgXgXgXgXgXgXgXgXgXgXgXgXgX",
"gXgXgXgXgXgXgXgXgXgXgXgXgXgXgXgXgXgXgXgXgXgXgXgXgXgXgXgXgXgXgXgXgXgXgXgXgXgXgXgXgXgXgXgXgXgXgXgXgXgXgXgXgXgXgXgXgXgXgXgXgXgXgXgX",
"gXgXgXgXgXgXgXgXgXgXgXgXgXgXgXgXgXgXgXgXgXgXgXgXgXgXgXgXgXgXgXgXgXgXgXgXgXgXgXgXgXgXgXgXgXgXgXgXgXgXgXgXgXgXgXgXgXgXgXgXgXgXgXgX",
"gXgXgXgXgXgXgXgXgXgXgXgXgXgXgXgXgXgXgXgXgXgXgXgXgXgXgXgXgXgXgXgXgXgXgXgXgXgXgXgXgXgXgXgXgXgXgXgXgXgXgXgXgXgXgXgXgXgXgXgXgXgXgXgX",
"gXgXgXgXgXgXgXgXgXgXgXgXgXgXgXgXgXgXgXgXgXgXgXgXgXgXgXgXgXgXgXgXgXgXgXgXgXgXgXgXgXgXgXgXgXgXgXgXgXgXgXgXgXgXgXgXgXgXgXgXgXgXgXgX",
"gXgXgXgXgXgXgXgXgXgXgXgXgXgXgXgXgXgXgXgXgXgXgXgXgXgXgXgXgXgXgXgXgXgXgXgXgXgXgXgXgXgXgXgXgXgXgXgXgXgXgXgXgXgXgXgXgXgXgXgXgXgXgXgX",
"gXgXgXgXgXgXgXgXgXgXgXgXgXgXgXgXgXgXgXgXgXgXgXgXgXgXgXgXgXgXgXgXgXgXgXgXgXgXgXgXgXgXgXgXgXgXgXgXgXgXgXgXgXgXgXgXgXgXgXgXgXgXgXgX",
"gXgXgXgXgXgXgXgXgXgXgXgXgXgXgXgXgXgXgXgXgXgXgXgXgXgXgXgXgXgXgXgXgXgXgXgXgXgXgXgXgXgXgXgXgXgXgXgXgXgXgXgXgXgXgXgXgXgXgXgXgXgXgXgX",
"gXgXgXgXgXgXgXgXgXgXgXgXgXgXgXgXgXgXgXgXgXgXgXgXgXgXgXgXgXgXgXgXgXgXgXgXgXgXgXgXgXgXgXgXgXgXgXgXgXgXgXgXgXgXgXgXgXgXgXgXgXgXgXgX",
"gXgXgXgXgXgXgXgXgXgXgXgXgXgXgXgXgXgXgXgXgXgXgXgXgXgXgXgXgXgXgXgXgXgXgXgXgXgXgXgXgXgXgXgXgXgXgXgXgXgXgXgXgXgXgXgXgXgXgXgXgXgXgXgX",
"gXgXgXgXgXgXgXgXgXgXgXgXgXgXgXgXgXgXgXgXgXgXgXgXgXgXgXgXgXgXgXgXgXgXgXgXgXgXgXgXgXgXgXgXgXgXgXgXgXgXgXgXgXgXgXgXgXgXgXgXgXgXgXgX",
"gXgXgXgXgXgXgXgXgXgXgXgXgXgXgXgXgXgXgXgXgXgXgXgXgXgXgXgXgXgXgXgXgXgXgXgXgXgXgXgXgXgXgXgXgXgXgXgXgXgXgXgXgXgXgXgXgXgXgXgXgXgXgXgX",
"gXgXgXgXgXgXgXgXgXgXgXgXgXgXgXgXgXgXgXgXgXgXgXgXgXgXgXgXgXgXgXgXgXgXgXgXgXgXgXgXgXgXgXgXgXgXgXgXgXgXgXgXgXgXgXgXgXgXgXgXgXgXgXgX",
"gXgXgXgXgXgXgXgXgXgXgXgXgXgXgXgXgXgXgXgXgXgXgXgXgXgXgXgXgXgXgXgXgXgXgXgXgXgXgXgXgXgXgXgXgXgXgXgXgXgXgXgXgXgXgXgXgXgXgXgXgXgXgXgX",
"gXgXgXgXgXgXgXgXgXgXgXgXgXgXgXgXgXgXfXdXfXaXqXgXgXgXgXgXgXgXgXgXgXgXgXgXgXgXgXgXgXgXgXgXgXgXgXgXgXgXgXgXgXgXgXgXgXgXgXgXgXgXgXgX",
"gXgXgXgXgXgXgXgXgXgXgXgXgXgXgXgXgXgXG.A.=Xv.^ ].gXgXgXgXgXgXgXgXgXgXgXgXgXgXgXgXgXgXgXgXgXgXgXgXgXgXgXgXgXgXgXgXgXgXgXgXgXgXgXgX",
"gXgXgXgXgXgXgXgXgXgXgXgXgXgXgXgXgXgXZ.D.*Xg.Q d.gXgXgXgXgXgXgXgXgXgXgXgXgXgXgXgXgXgXgXgXgXgXgXgXgXgXgXgXgXgXgXgXgXgXgXgXgXgXgXgX",
"gX4XI.4X4X4X+XI.+X4XpXgXgXgXgXgXgXgX+.H.=Xv.t.( gXgXgXgXgXsXI.I.4X&X|.I.I.I.6XgXgXgXgXgXgX6XI.4X4X4X4X-XI.sXgXgXgXgXgXgXgXgXgXgX",
"sX*.< # + + = 4 < % : $.I.gXgXgXgXyXO.:X;Xn.i.E sXgXgXgXgX4X$.: + + $ 3 3 * * 3 J.gXgXgXgXF.3 % + + O : $.|.gXgXgXgXgXgXgXgXgXgX",
"gXgX5X=     < gX6X<     = I.gXgXgX@Xo.tX1X(.b.L ].gXgXgXgXgXgX,.o   # +XsXJ.*   o &.gXgXgXgXsX5     o ,.gXgXgXgXgXgXgXgXgXgXgXgX",
"gXgXgX<     < gXgX+X%   . T gXgXgXC.V.2X+Xz.).I s.gXgXgXgXgXgX4X+   + 4XgXgX-..   O P.gXgXgXgX-.    + 4XgXgXgXgXgXgXgXgXgXgXgXgX",
"gXgXgX<     < gXgXgX5     % 5XgXfXX.G.4Xb c ~.~ ! gXgXgXgXgXgX4X+   + 4XgXgXI.+     :.gXgXgXgX-.    + 4XgXgXgXgXgXgXgXgXgXgXgXgX",
"gXgXgX<     < gXgXgX-.    + 4XgX%X{ ,XOXj u c.s.K 0XgXgXgXgXgX4X+   + 4XgXgXI.+     -.gXgXgXgX-.    + 4XgXgXgXgXgXgXgXgXgXgXgXgX",
"gXgXgX<     < gXgXgX&.    : 6XgXC...uXoXj u k._.F d.gXgXgXgXgX4X+   + 4XgXgX-..   . a.gXgXgXgX-.    + 4XgXgXgXgXgXgXgXgXgXgXgXgX",
"gXgXgX<     < gXgXiX:     -.gXfX| M.5XL.h u h.}.P T sXgXgXgXgX4X+   + 4XgXJ.*   . < 5XgXgXgXgX-.    + 4XgXgXgXgXgXgXgXgXgXgXgXgX",
"gXgXgX<     > I.P.4   o 4 iXgX5Xs g j j e e u l t t  XgXgXgXgX4X+   . 2 > o . < >.iXgXgXgXgXuX;.    + 4XgXgXgXgXgXgXgXgXgXgXgXgX",
"gXgXgX<     % 4 4 < 5 J.sXgXgXS.a j k g e e u k l r u.gXgXgXgX4X+   + *.+   O 7.j.e.e.U.wXfXfXn     @ 8.e.e.e.e.e.e.r.7XgXgXgXgX",
"gXgXgX<     < gXsXgXgXgXgXgXdX .m.9X&XL.j k u. X|.G Y aXgXgXgX4X+   + 4X%.. ; t y z z h N r.j.7     @ <.h w w M e.6.x x 6.9XgXgX",
"gXgXgX<     < gXgXgXgXgXgXgX@X] #XgX3XOXj k p..XgX! S f.gXgXgX4X+   + 4X5Xi w 9 1 R.9XW./ h h 6     + E.C q q Z gXgXQ.z w C pXgX",
"gXgXgX<     < gXgXgXgXgXgXfXo. .fXgX1XXXg u p.'.gXx.S W sXgXgX4X+   + 4X0.y q - . %.gXgXsX6.y 6 X   + 4X/ w w / gXgXgX/ w e 6.gX",
"gXgXgX<     < gXgXgXgXgXgX2X[ Z.gXfX:XoXb v p.n.gXaXI D ^.gXgX4X+   # 9.h w p O   # K.gXgXsX3.;     + 4X/ w w / gXgXgXq.w w x 9X",
"gXgXsX,     , sXgXgXgXgXgXN.[ 2XgXfX:X2X9X9Xv.v.sXgXy.A W sXgXP.O   + n e w 4.2     > 5XgXfX7X8     + P./ w q / gXgXgXe.e w x 9X",
"gX,.5 .     . 5 F.sXgXgX<X[ @.gXgXyX>XtXgXfXn.v.aXgX{.H D a.>.,     X 0 e w w.%.      , 9.P.*.&       , d w q / gXgXgX5.w w 2.gX",
"sX,.-.-.-.-.-.-.,.sXgXgXN.` $XgXgXtX>XyXgXgX'.l.qXgXgX) A Y ;.-.-.-.=.f e e e.F.-.-.-.-.,.P.-.-.-.-.-.-.d w q Z gXgX!.x w x Q.gX",
"gXgXgXgXgXgXgXgXgXgXgX#X' o.fXgXgX2X>XfXgXgX.Xl..XgXgX{.H D ^.gXgXgX8Xl w e e.gXgXgXgXgXgXgXgXgXgXgXgXgX/ q q M r.5.x e N T.gXgX",
"gXgXgXgXgXgXgXgXgXgXdX .] ,XgXgXfX1X1XfXgXgXqXv.`.gXgXgX) A R qXgXgX8Xz w e e.gXgXgXe.1.Z Z / Z 3.r.gXgX/ q w M e.e.e.r.9XgXgXgX",
"gXgXgXgXgXgXgXgXgXgXB._ #.gXgXgXfX>X2XgXgXgXaXv.v.aXgXgX0XU J _.gXgXpXM w w q.gXgXgXpXY.l q q z Y.9XgXgXZ q w / gXgXgXgXgXgXgXgX",
"gXgXgXgXgXgXgXgXgXgX}  .rXgXgXgX3X:XtXgXgXgXgXn.g.0XgXgXgX/.[.gXgXgXgX3.q q 2.gXgXgXgXgXZ q w / gXgXgXgX/ q q / gXgXgXgXgXgXgXgX",
"gXgXgXgXgXgXgXgXgXgX#XrXgXgXgXgXuXyXfXgXgXgXgXeX0XaXgXgXgXgXgXgXgXgXgXW.h q x 9XgXgXgXgX/ q q Z gXgXgXgX/ q q Z gXgXgXgXgXgXgXgX",
"gXgXgXgXgXgXgXgXgXgXgXgXgXgXgXgXgXgXgXgXgXgXgXgXgXgXgXgXgXgXgXgXgXgXgXgX2.e e r.gXgXgXsXV q q / gXgXgXgX/ q q / gXgXgXgXgXgXgXgX",
"gXgXgXgXgXgXgXgXgXgXgXgXgXgXgXgXgXgXgXgXgXgXgXgXgXgXgXgXgXgXgXgXgXgXgXgX9XZ e b T.7X7X0.y q y e.gXgXgX9XM q q N 9XgXgXgXgXgXgXgX",
"gXgXgXgXgXgXgXgXgXgXgXgXgXgXgXgXgXgXgXgXgXgXgXgXgXgXgXgXgXgXgXgXgXgXgXgXgXpXr.B x N m l x / r.sXgXsXw.Z l l l z Z w.sXgXgXgXgXgX",
"gXgXgXgXgXgXgXgXgXgXgXgXgXgXgXgXgXgXgXgXgXgXgXgXgXgXgXgXgXgXgXgXgXgXgXgXgXgXgXsX8X8X7X8X9XgXgXgXgXgX9X7X8X8X8X8X7X9XgXgXgXgXgXgX",
"gXgXgXgXgXgXgXgXgXgXgXgXgXgXgXgXgXgXgXgXgXgXgXgXgXgXgXgXgXgXgXgXgXgXgXgXgXgXgXgXgXgXgXgXgXgXgXgXgXgXgXgXgXgXgXgXgXgXgXgXgXgXgXgX",
"gXgXgXgXgXgXgXgXgXgXgXgXgXgXgXgXgXgXgXgXgXgXgXgXgXgXgXgXgXgXgXgXgXgXgXgXgXgXgXgXgXgXgXgXgXgXgXgXgXgXgXgXgXgXgXgXgXgXgXgXgXgXgXgX",
"gXgXgXgXgXgXgXgXgXgXgXgXgXgXgXgXgXgXgXgXgXgXgXgXgXgXgXgXgXgXgXgXgXgXgXgXgXgXgXgXgXgXgXgXgXgXgXgXgXgXgXgXgXgXgXgXgXgXgXgXgXgXgXgX",
"gXgXgXgXgXgXgXgXgXgXgXgXgXgXgXgXgXgXgXgXgXgXgXgXgXgXgXgXgXgXgXgXgXgXgXgXgXgXgXgXgXgXgXgXgXgXgXgXgXgXgXgXgXgXgXgXgXgXgXgXgXgXgXgX",
"gXgXgXgXgXgXgXgXgXgXgXgXgXgXgXgXgXgXgXgXgXgXgXgXgXgXgXgXgXgXgXgXgXgXgXgXgXgXgXgXgXgXgXgXgXgXgXgXgXgXgXgXgXgXgXgXgXgXgXgXgXgXgXgX",
"gXgXgXgXgXgXgXgXgXgXgXgXgXgXgXgXgXgXgXgXgXgXgXgXgXgXgXgXgXgXgXgXgXgXgXgXgXgXgXgXgXgXgXgXgXgXgXgXgXgXgXgXgXgXgXgXgXgXgXgXgXgXgXgX",
"gXgXgXgXgXgXgXgXgXgXgXgXgXgXgXgXgXgXgXgXgXgXgXgXgXgXgXgXgXgXgXgXgXgXgXgXgXgXgXgXgXgXgXgXgXgXgXgXgXgXgXgXgXgXgXgXgXgXgXgXgXgXgXgX",
"gXgXgXgXgXgXgXgXgXgXgXgXgXgXgXgXgXgXgXgXgXgXgXgXgXgXgXgXgXgXgXgXgXgXgXgXgXgXgXgXgXgXgXgXgXgXgXgXgXgXgXgXgXgXgXgXgXgXgXgXgXgXgXgX",
"gXgXgXgXgXgXgXgXgXgXgXgXgXgXgXgXgXgXgXgXgXgXgXgXgXgXgXgXgXgXgXgXgXgXgXgXgXgXgXgXgXgXgXgXgXgXgXgXgXgXgXgXgXgXgXgXgXgXgXgXgXgXgXgX",
"gXgXgXgXgXgXgXgXgXgXgXgXgXgXgXgXgXgXgXgXgXgXgXgXgXgXgXgXgXgXgXgXgXgXgXgXgXgXgXgXgXgXgXgXgXgXgXgXgXgXgXgXgXgXgXgXgXgXgXgXgXgXgXgX",
"gXgXgXgXgXgXgXgXgXgXgXgXgXgXgXgXgXgXgXgXgXgXgXgXgXgXgXgXgXgXgXgXgXgXgXgXgXgXgXgXgXgXgXgXgXgXgXgXgXgXgXgXgXgXgXgXgXgXgXgXgXgXgXgX",
"gXgXgXgXgXgXgXgXgXgXgXgXgXgXgXgXgXgXgXgXgXgXgXgXgXgXgXgXgXgXgXgXgXgXgXgXgXgXgXgXgXgXgXgXgXgXgXgXgXgXgXgXgXgXgXgXgXgXgXgXgXgXgXgX",
"gXgXgXgXgXgXgXgXgXgXgXgXgXgXgXgXgXgXgXgXgXgXgXgXgXgXgXgXgXgXgXgXgXgXgXgXgXgXgXgXgXgXgXgXgXgXgXgXgXgXgXgXgXgXgXgXgXgXgXgXgXgXgXgX",
"gXgXgXgXgXgXgXgXgXgXgXgXgXgXgXgXgXgXgXgXgXgXgXgXgXgXgXgXgXgXgXgXgXgXgXgXgXgXgXgXgXgXgXgXgXgXgXgXgXgXgXgXgXgXgXgXgXgXgXgXgXgXgXgX",
"gXgXgXgXgXgXgXgXgXgXgXgXgXgXgXgXgXgXgXgXgXgXgXgXgXgXgXgXgXgXgXgXgXgXgXgXgXgXgXgXgXgXgXgXgXgXgXgXgXgXgXgXgXgXgXgXgXgXgXgXgXgXgXgX",
"gXgXgXgXgXgXgXgXgXgXgXgXgXgXgXgXgXgXgXgXgXgXgXgXgXgXgXgXgXgXgXgXgXgXgXgXgXgXgXgXgXgXgXgXgXgXgXgXgXgXgXgXgXgXgXgXgXgXgXgXgXgXgXgX",
"gXgXgXgXgXgXgXgXgXgXgXgXgXgXgXgXgXgXgXgXgXgXgXgXgXgXgXgXgXgXgXgXgXgXgXgXgXgXgXgXgXgXgXgXgXgXgXgXgXgXgXgXgXgXgXgXgXgXgXgXgXgXgXgX",
"gXgXgXgXgXgXgXgXgXgXgXgXgXgXgXgXgXgXgXgXgXgXgXgXgXgXgXgXgXgXgXgXgXgXgXgXgXgXgXgXgXgXgXgXgXgXgXgXgXgXgXgXgXgXgXgXgXgXgXgXgXgXgXgX"
};
