/* XPM */
static char * pari_gp_xpm[] = {
"64 64 403 2",
"  	c None",
". 	c #FFFFFF",
"+ 	c #FEFEFE",
"@ 	c #EBEAE9",
"# 	c #FBEEEE",
"$ 	c #FBF3F3",
"% 	c #989593",
"& 	c #5E5A55",
"* 	c #423C37",
"= 	c #918E8B",
"- 	c #EEB8B9",
"; 	c #CB2A2E",
"> 	c #D24549",
", 	c #D85F62",
"' 	c #F9E8E9",
") 	c #FEFCFC",
"! 	c #55504C",
"~ 	c #3D3732",
"{ 	c #3B3530",
"] 	c #918D8B",
"^ 	c #EEB8BA",
"/ 	c #CA252A",
"( 	c #CA2428",
"_ 	c #F4D4D4",
": 	c #FEFFFF",
"< 	c #E59496",
"[ 	c #DB6C6E",
"} 	c #EAABAD",
"| 	c #F8E6E6",
"1 	c #FDFBFB",
"2 	c #E8E8E7",
"3 	c #CBCAC8",
"4 	c #C9C7C6",
"5 	c #EBEAEA",
"6 	c #56524E",
"7 	c #CB262A",
"8 	c #D3494C",
"9 	c #D3494D",
"0 	c #CA2529",
"a 	c #C81B1F",
"b 	c #D03D41",
"c 	c #DC6F72",
"d 	c #FDFAFA",
"e 	c #F9F8F8",
"f 	c #E5E4E3",
"g 	c #A4A1A0",
"h 	c #433D38",
"i 	c #36302B",
"j 	c #39332D",
"k 	c #39332E",
"l 	c #312A25",
"m 	c #A7A5A3",
"n 	c #56514D",
"o 	c #3F3934",
"p 	c #4C4742",
"q 	c #A3A09E",
"r 	c #D96366",
"s 	c #D24A4D",
"t 	c #CB282C",
"u 	c #FDF9F9",
"v 	c #E59598",
"w 	c #CC2C30",
"x 	c #CD2E32",
"y 	c #CE363B",
"z 	c #FCF6F6",
"A 	c #FBFBFB",
"B 	c #B2B0AE",
"C 	c #645E5B",
"D 	c #2E2722",
"E 	c #38322D",
"F 	c #3C3631",
"G 	c #D1D0CF",
"H 	c #D6D4D3",
"I 	c #EDB6B8",
"J 	c #CB252A",
"K 	c #DA696C",
"L 	c #FCF7F7",
"M 	c #C81E22",
"N 	c #CC2D31",
"O 	c #EAAEAF",
"P 	c #EDB5B7",
"Q 	c #CE363A",
"R 	c #EAEAE9",
"S 	c #2D2621",
"T 	c #6D6965",
"U 	c #817D79",
"V 	c #514C48",
"W 	c #3E3833",
"X 	c #DA696B",
"Y 	c #C92024",
"Z 	c #E6999A",
"` 	c #F0C2C3",
" .	c #CB272B",
"..	c #F9FCFD",
"+.	c #E2F1EA",
"@.	c #DFF0E8",
"#.	c #3A342F",
"$.	c #352E29",
"%.	c #443E3A",
"&.	c #696460",
"*.	c #AEABA9",
"=.	c #4C4642",
"-.	c #FBF5F6",
";.	c #C61519",
">.	c #E6989A",
",.	c #CB272C",
"'.	c #CC2E32",
").	c #3B94C9",
"!.	c #41A980",
"~.	c #B8DFCD",
"{.	c #635F5B",
"].	c #DEDDDD",
"^.	c #B6B4B2",
"/.	c #443F3A",
"(.	c #F3CECF",
"_.	c #E9A4A6",
":.	c #EFC1C2",
"<.	c #F1C6C7",
"[.	c #C81B20",
"}.	c #C91F23",
"|.	c #F3F8FB",
"1.	c #318FC6",
"2.	c #34A275",
"3.	c #A3D6BF",
"4.	c #FEFFFE",
"5.	c #787471",
"6.	c #E8E7E6",
"7.	c #3E3934",
"8.	c #F3CFD0",
"9.	c #CE3539",
"0.	c #FBFAFA",
"a.	c #EEEEEE",
"b.	c #C5C4C2",
"c.	c #8A8684",
"d.	c #36312A",
"e.	c #AEABAA",
"f.	c #E8F3F8",
"g.	c #469BCC",
"h.	c #1A9862",
"i.	c #86C8AA",
"j.	c #777370",
"k.	c #49443F",
"l.	c #CE3538",
"m.	c #DC6D70",
"n.	c #E9A7A8",
"o.	c #F3CDCE",
"p.	c #FAEDED",
"q.	c #D03C40",
"r.	c #FAFAFA",
"s.	c #57534E",
"t.	c #3A332E",
"u.	c #D6D5D3",
"v.	c #DDECF5",
"w.	c #5FA8D2",
"x.	c #078F55",
"y.	c #6BBC96",
"z.	c #C7C6C5",
"A.	c #5A5651",
"B.	c #CB2B2F",
"C.	c #D24649",
"D.	c #DF7F81",
"E.	c #CE373B",
"F.	c #F9F9F8",
"G.	c #4B4541",
"H.	c #352F29",
"I.	c #37312C",
"J.	c #7C7874",
"K.	c #CAE2EF",
"L.	c #76B5D8",
"M.	c #0E9259",
"N.	c #69BB95",
"O.	c #F3F9F7",
"P.	c #FDFDFD",
"Q.	c #605B58",
"R.	c #A4A19F",
"S.	c #CD2D31",
"T.	c #B0AEAB",
"U.	c #D9D9D8",
"V.	c #ECECEB",
"W.	c #75716D",
"X.	c #514B48",
"Y.	c #FCFCFC",
"Z.	c #89C0DE",
"`.	c #65ACD3",
" +	c #279D69",
".+	c #6CBD98",
"++	c #DAEEE5",
"@+	c #D0CFCE",
"#+	c #74706C",
"$+	c #403A35",
"%+	c #F7F7F7",
"&+	c #CC2B2F",
"*+	c #CECDCB",
"=+	c #449ACA",
"-+	c #56A4D0",
";+	c #3FA87A",
">+	c #92CEB2",
",+	c #A3D5BE",
"'+	c #5E5854",
")+	c #868380",
"!+	c #544F4B",
"~+	c #37322C",
"{+	c #CD3134",
"]+	c #E18587",
"^+	c #CB2C30",
"/+	c #DF7A7C",
"(+	c #E08083",
"_+	c #D55457",
":+	c #F9F9F9",
"<+	c #D6D5D4",
"[+	c #3F3834",
"}+	c #FBFBFA",
"|+	c #1682BE",
"1+	c #4A9DCC",
"2+	c #56B38A",
"3+	c #6EBE99",
"4+	c #F1C9C9",
"5+	c #CC2F33",
"6+	c #EDB4B6",
"7+	c #E59698",
"8+	c #CECCCB",
"9+	c #524D48",
"0+	c #FEFEFF",
"a+	c #D5E8F3",
"b+	c #51A2CE",
"c+	c #3F97C9",
"d+	c #6EBD9A",
"e+	c #CDE8DC",
"f+	c #46AC7D",
"g+	c #413B36",
"h+	c #D34B4E",
"i+	c #FBF1F2",
"j+	c #CE3336",
"k+	c #FBF2F2",
"l+	c #FDF8F8",
"m+	c #CD3033",
"n+	c #9C9A97",
"o+	c #76726F",
"p+	c #A3CDE5",
"q+	c #A7CFE6",
"r+	c #3994C7",
"s+	c #8ACAAE",
"t+	c #CAE7DA",
"u+	c #229C64",
"v+	c #4D4743",
"w+	c #625D59",
"x+	c #9C9996",
"y+	c #C2C0BE",
"z+	c #FEFDFD",
"A+	c #D03E42",
"B+	c #EDB7B8",
"C+	c #E9A6A7",
"D+	c #D14044",
"E+	c #CF373B",
"F+	c #BDBBB9",
"G+	c #B8B5B4",
"H+	c #67ADD4",
"I+	c #3190C5",
"J+	c #ABD9C5",
"K+	c #B9DFCE",
"L+	c #46AB7C",
"M+	c #D1EADF",
"N+	c #76716F",
"O+	c #878481",
"P+	c #453F3A",
"Q+	c #C92226",
"R+	c #E18486",
"S+	c #FBF0F0",
"T+	c #C92125",
"U+	c #F0C2C4",
"V+	c #EBABAD",
"W+	c #D14043",
"X+	c #534E49",
"Y+	c #4098C9",
"Z+	c #9DD2B9",
"`+	c #8BCBAE",
" @	c #57B38A",
".@	c #E4E3E2",
"+@	c #B9B6B5",
"@@	c #C92126",
"#@	c #E18386",
"$@	c #FAEEEF",
"%@	c #CF393D",
"&@	c #D04043",
"*@	c #F6DBDB",
"=@	c #D85F63",
"-@	c #342E28",
";@	c #C0BFBC",
">@	c #F8FBFC",
",@	c #3E97C9",
"'@	c #F2F8FB",
")@	c #489CCC",
"!@	c #E9F5EF",
"~@	c #7AC2A1",
"{@	c #C6E5D7",
"]@	c #1C9960",
"^@	c #4B4642",
"/@	c #605B57",
"(@	c #CA2429",
"_@	c #DB6D6F",
":@	c #F8E4E5",
"<@	c #D96265",
"[@	c #CE3439",
"}@	c #524D49",
"|@	c #6C6763",
"1@	c #DEDCDB",
"2@	c #D1E6F2",
"3@	c #51A1CE",
"4@	c #E1EFF6",
"5@	c #5FA9D1",
"6@	c #5AB48A",
"7@	c #008541",
"8@	c #FDFEFE",
"9@	c #E3E2E2",
"0@	c #D3D3D2",
"a@	c #E69B9E",
"b@	c #CA282C",
"c@	c #D03D40",
"d@	c #D04245",
"e@	c #83BCDB",
"f@	c #96C6E1",
"g@	c #D6E9F3",
"h@	c #78B5D9",
"i@	c #3DA877",
"j@	c #3CA776",
"k@	c #A6D7BF",
"l@	c #686460",
"m@	c #FAEDEE",
"n@	c #EBAAAB",
"o@	c #D44E52",
"p@	c #D55154",
"q@	c #FAEDEC",
"r@	c #FEFBFB",
"s@	c #3C92C6",
"t@	c #DCECF5",
"u@	c #CBE3EF",
"v@	c #95C5E0",
"w@	c #2CA16B",
"x@	c #B0DAC6",
"y@	c #3CA876",
"z@	c #A39F9D",
"A@	c #57524E",
"B@	c #8E8B88",
"C@	c #EEB6B7",
"D@	c #D24246",
"E@	c #FFFEFE",
"F@	c #F1C7C9",
"G@	c #1E86C0",
"H@	c #AED3E8",
"I@	c #AFD3E8",
"J@	c #259D66",
"K@	c #FBFDFC",
"L@	c #DFF0E9",
"M@	c #01833E",
"N@	c #F6FBF9",
"O@	c #787370",
"P@	c #57524D",
"Q@	c #AFADAB",
"R@	c #CCCAC9",
"S@	c #E0DFDF",
"T@	c #F1F1F1",
"U@	c #FDF6F7",
"V@	c #F7DEDF",
"W@	c #E49294",
"X@	c #DB6F72",
"Y@	c #F5D8D8",
"Z@	c #EDB7B9",
"`@	c #CC292E",
" #	c #CE353A",
".#	c #CCE4F1",
"+#	c #4298C9",
"@#	c #76B4D8",
"##	c #CBE3F0",
"$#	c #ECF6F1",
"%#	c #FCFDFC",
"&#	c #15975B",
"*#	c #BFE2D1",
"=#	c #201914",
"-#	c #84817D",
";#	c #DFDEDD",
">#	c #E8E7E7",
",#	c #F8F7F7",
"'#	c #FAEBEB",
")#	c #F1C7C8",
"!#	c #ECB1B2",
"~#	c #E59597",
"{#	c #3995C7",
"]#	c #A0CBE4",
"^#	c #298CC2",
"/#	c #EBF3F9",
"(#	c #42A36F",
"_#	c #DFF1E9",
":#	c #AFDAC6",
"<#	c #9ED4BB",
"[#	c #EEEDED",
"}#	c #F6F6F6",
"|#	c #FCFDFD",
"1#	c #47423C",
"2#	c #413C37",
"3#	c #58A5D0",
"4#	c #E6F1F7",
"5#	c #C6C4C2",
"6#	c #D5D3D2",
". . . . . . . . . . . . . . . . . . . . . . . . . . . . . . . . . . . . . . . . . . . . . . . . . . . . . . . . . . . . . . . . ",
". . . . . . . . . . . . . . . . . . . . . . . . . . . . . . . . . . . . . . . . . . . . . . . . . . . . . . . . . . . . . . . . ",
". . . . . . . . . . . . . . . . . . . . . . . . . . . . . . . . . . . . . . . . . . . . . . . . . . . . . . . . . . . . . . . . ",
". . . . . . . . . . . . . . . . . . . . . . . . . . . . . . . . . . . . . . . . . . . . . . . . . . . . . . . . . . . . . . . . ",
". . . . . . . . . . . . . . . . . . . . . . . . . . . . . . . . . . . . . . . . . . . . . . . . . . . . . . . . . . . . . . . . ",
". . . . . . . . . . . . . . . . . . . . . . . . . . . . . . . . . . . . . . . . . . . . . . . . . . . . . . . . . . . . . . . . ",
". . . . . . . . . . . . . . . . . . . . . . . . . . . . . . . . . . . . . . . . . . . . . . . . . . . . . . . . . . . . . . . . ",
". . . . . . . . . . . . . . . . . . . . . . . . . . . . . . . . . . . . . . . . . . . . . . . . . . . . . . . . . . . . . . . . ",
". . . . . . . . . . . . . . . . . . . . . . . . . . . . . . . . . . . . . . . . . . . . . . . . . . . . . . . . . . . . . . . . ",
". . . . . . . . . . . . . . . . . . . . . . . . . . . . . . . . . . . . . . . . . . . . . . . . . . . . . . . . . . . . . . . . ",
". . . . . . . . . . . . . . . . . . . . . . . . . . . . . . . . . . . . . . . . . . . . . . . . . . . . . . . . . . . . . . . . ",
". . . . . . . . . . . . . . . . . . . . . . . . . . . . . . . . . . . . . . . . . . . . . . . . . . . . . . . . . . . . . . . . ",
". . . . . . . . . . . . . . . . . . . . . . . . . . . . . . . . . . . . . . . . . . . . . . . . . . . . . . . . . . . . . . . . ",
". . . . . . . . . . . . . . . . . . . . . . . . . . . . . . . . . . . . . . . . . . . . . . . . . . . . . . . . . . . . . . . . ",
"+ . . . . . . . . . . . . . . . . . . . . . . . . . . . . . . + . . . . . . . . . . . . . . . . . . . . . . . . . . . . . . . + ",
"+ . . . . . . . . . . . . . . . . . . . . . . . . . . . . . . . + . . . . . . . . . . . . . . . . . . . . . . . . . . . . . . + ",
"+ . . . . . . . . . . . . . . . . . . . . . . . . . . . . . . . . . . . . . . . . . . + . . . . + . . + . . . . . . . . . . . + ",
". + . . . . . . . . . . . . . . . . . . . . . . . . . . . . . . . . . . . . . . . . + . . @ # $ . . + . . . . . . . . . . . + . ",
"+ . . . . . . . . . . . . . . . . . . . . . . . . . . . . . . . . . . . . . . . . . % & * = - ; > , ' ) . . . . + . . . . . . + ",
". + . . . . . . . . . . . . . . . . . . . . . . . . . . . . . . . + . . + . + . . . ! ~ { ] ^ / ( _ : + < [ } | 1 . + . . . + . ",
"+ . . . . . . . . . . . . . . . . . . . . . . . . . . . . . + . . 2 3 4 5 . + + . . 6 ~ { ] ^ 7 8 . . . . 9 0 a b c d + . . . + ",
"+ . . . . . . . . . . . . . . . . . . . . . . . . . + . . e f g h i j k l m . . . . n o p q - 7 r . s t u v w x x y z . . . + . ",
"+ . . . . . . . . . . . . . . . . . . . . . . . . + A B C D E F ~ ~ ~ ~ ~ i G . + . H . A 5 I J K L M N O P ; x x Q z . . . . . ",
"+ . . . . . . . . . . . . . . . + . + . . . . . . . R S F F ~ ~ F F F ~ F { T + . . U V W = ^ J X z Y N Z `  .x x Q z . . . . . ",
". + . . . . . . . . . . . . . . . + ..+.@.+ . . . . R D ~ #.$.%.&.*.*.W ~ ~ =.. + . n ~ { ] ^ J X -.;. .>.` ,.'.x Q z . . . . . ",
"+ . . . . . . . . . . . . . . . + ..).!.~.. . . . . R D F {.].A . . . ^.E ~ /.. . . 6 ~ { ] ^ J X + (._.:.<.[.}.N y z . . . . . ",
"+ . . . + . + . . . . . . + . . . |.1.2.3.. 4.. . . R D { 5.. . . . + 6.7.~ %.. . . 6 ~ { ] ^ J K . . . . . . 8.9.Q z . . . . . ",
"+ . . . . + 0.a.b.c.* d.e.. + + . f.g.h.i.. . . . . R D { j.. . . + . 2 o ~ k.. . . 6 ~ { ] ^ / l.m.n.o.p.z . : q.Q z . . . . . ",
". + . . . r.s.t.#.F ~ ~ ~ u.+ . . v.w.x.y.. + . . . R D { j.. . + . + z.E ~ A.. . . 6 ~ { ] ^ / x '.w B.; Q C.D.E.Q z . . . . . ",
". + . . . F.G.F #.H.I.#.{ J.. + . K.L.M.N.O.. . . . R D { j.. . . P.. Q.{ $.R.. . . 6 ~ { ] ^ / x S.x x x N N N N Q z . . . . . ",
"+ . . . . F.G.o T.U.V.W.F X.Y.. . Z.`. +.++++ . . . R D { j.. . . @+#+#.~ $+%++ . . 6 ~ { ] ^ / N '.&+x &+'.x x x Q z . . . . . ",
"+ . . . . F.G.* A . + *+#.o A . . =+-+;+>+,+. . . . R D F '+)+!+i ~+{ ~ $.R.. . . . 6 ~ { ] ^ / '.{+]+^+/+(+_+w x Q z . . . . . ",
". + . . . F.G.* :+. + <+E [+}+. . |+1+2+~.3+. . . . R D ~ { ~ ~ ~ ~ F W % . . . . . 6 ~ { ] ^ / 0 4+z 5+6+. . 7+^+y z . . . . . ",
"+ . . . . F.G.* :++ + 8+k 9+Y.0+a+b+c+d+e+f+. . . . R D ~ F F F { F F g+:++ + . . . 6 ~ { ] ^ 7 h+. i+j+P k+# l+m+y z . . . . + ",
"+ . . . . F.G.* :+. . n+{ o+. + p+q+r+s+t+u+. . . . R D F W v+w+x+W ~ E y+. + . . . 6 ~ { ] ^ 0 c z+A+w B+C+D+. E+Q z . . . . + ",
". + . . . F.G.* . . F+~ { G+. . H++ I+J+K+L+M+. + . R D { N++ . . O+F ~ P+. . . . . 6 ~ { ] ^ Q+R+S+T+w U+V+5+$ W+Q z . . . . + ",
"+ . . . . F.G.~ X+{ #.F * P.+ . Y+. I+t+Z+`+ @+ . . R D { j.. . + .@{ ~ i +@+ . . . 6 ~ { ] ^ @@#@$@Q+x %@&@'.*@=@9.z . . . . + ",
". + . . . F.G.~ ~ ~ { -@;@+ . >@,@'@)@!@~@{@]@. + . R D { j.. . . . ^@F F /@. . . . 6 ~ { ] ^ (@_@d t N x x 5+:@<@[@z . . . . + ",
"+ . . . . F.G.F h }@|@1@. . . 2@3@4@5@. 6@. 7@8@. . R D { j.. . . + 9@t.~ i 0@. . . 6 ~ { ] ^ 7 8 . a@b@N N c@. d@Q z . . . . P.",
". + . . . F.G.* . . + . . + + e@f@g@h@. i@. j@k@. . R D { j.. . . . P./.F { l@. + . 6 ~ { ] ^ / }.m@. n@o@p@q@r@Q Q z . . . + + ",
". + . . . F.G.* :+. . + . . . s@t@u@v@. w@. x@y@+ + R D { j.. . . + + z@i ~ E . . . A@~ E B@C@Q+N D@. + + E@: F@N y z . . . . P.",
"+ . . . . F.G.* :+. . . . . . G@. H@I@. J@K@L@M@N@+ R D { O@. . . . . P.W i -@P@. . Q@R@S@T@U@V@<.W@X@Y@: . Z@`@;  #z . . . . + ",
". . . . . F.G.* :+. . . . + .#+#. @###. ]@$#%#&#*#. 2 =#$+-#. . . . + . ;#>#,#. + + . . + + . + . . . : + '#8.)#!#~#u + . . . + ",
"+ . . . . F.G.* :+. . . . + {#]#. ^#/#. (#_#. :#<#. A [#}#|#+ . . . + . + . . + . + . . . . . . . . : . : . + . . . + . . . . P.",
". + . . . F.1#2#:+. . . + . 3#4#. a+. + . . . . . + . + . + . . . . . . . . . . . . . . . . . . . . . . . . . . . . . . . . . + ",
"+ . . . . Y.5#6#P.. . . . + . + . + . . . . . . . . . . . . . . . . . . . . . . . . . . . . . . . . . . . . . . . . . . . . . P.",
"+ . . . . + . . + . . . + . + . . . . . . . . . . . . . . . . . . . . . . . . . . . . . . . . . . . . . . . . . . . . . . . . + ",
"+ . . . . . . . . . . . . . . . . . . . . . . . . . . . . . . . . . . . . . . . . . . . . . . . . . . . . . . . . . . . . . . + ",
"+ . . . . . . . . . . . . . . . . . . . . . . . . . . . . . . . . . . . . . . . . . . . . . . . . . . . . . . . . . . . . . + + ",
". . . . . . . . . . . . . . . . . . . . . . . . . . . . . . . . . . . . . . . . . . . . . . . . . . . . . . . . . . . . . . . . ",
". . . . . . . . . . . . . . . . . . . . . . . . . . . . . . . . . . . . . . . . . . . . . . . . . . . . . . . . . . . . . . . . ",
". . . . . . . . . . . . . . . . . . . . . . . . . . . . . . . . . . . . . . . . . . . . . . . . . . . . . . . . . . . . . . . . ",
". . . . . . . . . . . . . . . . . . . . . . . . . . . . . . . . . . . . . . . . . . . . . . . . . . . . . . . . . . . . . . . . ",
". . . . . . . . . . . . . . . . . . . . . . . . . . . . . . . . . . . . . . . . . . . . . . . . . . . . . . . . . . . . . . . . ",
". . . . . . . . . . . . . . . . . . . . . . . . . . . . . . . . . . . . . . . . . . . . . . . . . . . . . . . . . . . . . . . . ",
". . . . . . . . . . . . . . . . . . . . . . . . . . . . . . . . . . . . . . . . . . . . . . . . . . . . . . . . . . . . . . . . ",
". . . . . . . . . . . . . . . . . . . . . . . . . . . . . . . . . . . . . . . . . . . . . . . . . . . . . . . . . . . . . . . . ",
". . . . . . . . . . . . . . . . . . . . . . . . . . . . . . . . . . . . . . . . . . . . . . . . . . . . . . . . . . . . . . . . ",
". . . . . . . . . . . . . . . . . . . . . . . . . . . . . . . . . . . . . . . . . . . . . . . . . . . . . . . . . . . . . . . . ",
". . . . . . . . . . . . . . . . . . . . . . . . . . . . . . . . . . . . . . . . . . . . . . . . . . . . . . . . . . . . . . . . ",
". . . . . . . . . . . . . . . . . . . . . . . . . . . . . . . . . . . . . . . . . . . . . . . . . . . . . . . . . . . . . . . . ",
". . . . . . . . . . . . . . . . . . . . . . . . . . . . . . . . . . . . . . . . . . . . . . . . . . . . . . . . . . . . . . . . ",
". . . . . . . . . . . . . . . . . . . . . . . . . . . . . . . . . . . . . . . . . . . . . . . . . . . . . . . . . . . . . . . . ",
". . . . . . . . . . . . . . . . . . . . . . . . . . . . . . . . . . . . . . . . . . . . . . . . . . . . . . . . . . . . . . . . "};
