/* XPM */
static char *polymake[] = {
/* columns rows colors chars-per-pixel */
"28 32 200 2 ",
"   c #7E62438129B8",
".  c #65E752D0337F",
"X  c #A674425B1A79",
"o  c #A7DD430B1A22",
"O  c #A6CB462A1AE0",
"+  c #A9C746651993",
"@  c #A9BF45A619AE",
"#  c #AB6F4AF31934",
"$  c #AE974A18189E",
"%  c #AE7F4F9C184F",
"&  c #B2CF4D3817C2",
"*  c #B32D4DD117AF",
"=  c #B00D505817EE",
"-  c #B138523D1775",
";  c #B8D0524A165D",
":  c #BACA54C21603",
">  c #BB09562A15EE",
",  c #B7BC5C0A1591",
"<  c #B7DD5E7B1563",
"1  c #BE005B0E1525",
"2  c #BB865DD9154A",
"3  c #A6CF60DD1F82",
"4  c #B01C642E1C68",
"5  c #A97A69021E2F",
"6  c #B45364CA16EE",
"7  c #C029655D13E9",
"8  c #BF5B682C1768",
"9  c #B4CC63AF1B4F",
"0  c #BA036539196F",
"q  c #BD9C66691838",
"w  c #BD6D67571860",
"e  c #BC6F671518A0",
"r  c #A1AA791F1F38",
"t  c #AA257B701BC9",
"y  c #BCAD711A14BD",
"u  c #89B957AC2926",
"i  c #A1B4646A20EA",
"p  c #C64B5E08134E",
"a  c #C81E5F4D12C5",
"s  c #D9346E6B0EFD",
"d  c #D99E6E760EE5",
"f  c #D8B76FDF0F6D",
"g  c #D838704F0F21",
"h  c #D91D70720F2D",
"j  c #D9BC70340F18",
"k  c #DBDE70BF0E68",
"l  c #DB5070660E9B",
"z  c #DB5172CF0E5D",
"x  c #DB9873530E39",
"c  c #DCB570AD0E2C",
"v  c #DCE271580E11",
"b  c #DD7A71830DDC",
"n  c #DCB672B60DF2",
"m  c #DE3B72310D9A",
"M  c #DCE3736F0DDA",
"N  c #DD70734B0DB4",
"B  c #DD3F76B30D7E",
"V  c #DD8976500D71",
"C  c #DD3877060D7C",
"Z  c #DD0474050DBF",
"A  c #DD1475250DA8",
"S  c #D8D27BA30E65",
"D  c #DDC178EC0D2A",
"F  c #DD52798D0D37",
"G  c #DDB37A530D1C",
"H  c #DC777B8F0D2E",
"J  c #DDA87BB10CFD",
"K  c #DD9C7C5C0CE2",
"L  c #DE0D7F140C89",
"P  c #C87C5FF012CE",
"I  c #C40D69111634",
"U  c #C6F56A71152C",
"Y  c #C4B0689515B8",
"T  c #C4D36A2D15C9",
"R  c #CC4569661169",
"E  c #CCA36B511377",
"W  c #CE296BE612EE",
"Q  c #CD936D421303",
"!  c #CEE26CD51261",
"~  c #CF046DCC1251",
"^  c #D23C69B3107F",
"/  c #D1D0684310B4",
"(  c #D2926B95102F",
")  c #D2F36DAE1151",
"_  c #D3F76DD81107",
"`  c #D2116E751166",
"'  c #D3656E481128",
"]  c #D1396DA211A6",
"[  c #D7146F860FF3",
"{  c #C24771611263",
"}  c #C40A71DB11D8",
"|  c #C3E473A1155B",
" . c #C500728714DC",
".. c #CAF172861348",
"X. c #CD1E73491068",
"o. c #CB7176641122",
"O. c #CF597F97107F",
"+. c #D3C671000F96",
"@. c #B01785D619FC",
"#. c #B79E88AD1789",
"$. c #B94B8B1C16A9",
"%. c #BF608EDA149E",
"&. c #B4848813188E",
"*. c #B5F8887017D8",
"=. c #CF1284F40E6F",
"-. c #CEC5853B0E89",
";. c #CEC384BB0F3D",
":. c #DDFC80060C7A",
">. c #DE4281730C50",
",. c #DE8980A60C49",
"<. c #DE7281D60C22",
"1. c #DDAB82540C61",
"2. c #DC3687CA0C50",
"3. c #DDE584AE0C20",
"4. c #DEF085000BC8",
"5. c #DE9785C60BD9",
"6. c #DC6487CB0C49",
"7. c #DEAE86A20BB8",
"8. c #DEC787550BA2",
"9. c #DF148BDD0B39",
"0. c #DF078C3E0B3D",
"q. c #DF5F8C660B21",
"w. c #DECA8E250B28",
"e. c #DF118F1B0B10",
"r. c #DFB88F490ADC",
"t. c #DE4B88BF0BAC",
"y. c #DE7088B20BA6",
"u. c #DC538D670BF4",
"i. c #D03F98F80EB4",
"p. c #D34392450DFF",
"a. c #D1A7973B0E65",
"s. c #D796942D0BEB",
"d. c #DCC791C50B0D",
"f. c #DF4590BD0ADA",
"g. c #DF6390810AD2",
"h. c #DF4D916A0AB4",
"j. c #DF87913D0AAD",
"k. c #DA7795150B28",
"l. c #D94996C80B66",
"z. c #DDF195250ABB",
"x. c #DFCC94E60A4C",
"c. c #DF5C95700A5C",
"v. c #DFD395520A2A",
"b. c #E00596C80A23",
"n. c #DFE797520A1B",
"m. c #D89C952F0BA3",
"M. c #D4519BDE0D59",
"N. c #D0F5998C0E80",
"B. c #D09D99530EAE",
"V. c #D2C799F70DF9",
"C. c #D3029AA70DD7",
"Z. c #D4BF9C2E0D24",
"A. c #D6409D470CB2",
"S. c #D75C9D7D0C63",
"D. c #D70E9CAA0C94",
"F. c #E00B999909EA",
"G. c #DD689ABA0A57",
"H. c #DFDA9A3109D3",
"J. c #E0469BD509A6",
"K. c #DA0E9F7D0B48",
"L. c #DB119FDD0B11",
"P. c #DCBB9D630A8A",
"I. c #E0169C3509B0",
"U. c #E03F9F3D098F",
"Y. c #C6FD871112C8",
"T. c #C34D84991412",
"R. c #C33B8DAC1383",
"E. c #C0558FE5144A",
"W. c #CC3F88C51125",
"Q. c #C3EE90D61305",
"!. c #C2F091301343",
"~. c #C3AC9161132C",
"^. c #C48C917312B7",
"/. c #C515927D12B6",
"(. c #C721937611F6",
"). c #C77993CF11B8",
"_. c #C17A901C13C1",
"`. c #C9F495221108",
"'. c #E08B963D09E2",
"]. c #E09B973009CC",
"[. c #E0999CA30966",
"{. c #E0759D7A0983",
"}. c #E07D9E3D097A",
"|. c #E0A29F420950",
" X c #DBF2A07C0ACA",
".X c #DF99A2CF0978",
"XX c #E020A334094D",
"oX c #DD5DA1140A39",
"OX c #DD28A1480A4C",
"+X c #DDEEA12E0A1D",
"@X c #DE8AA07F09CE",
"#X c #DEFBA2AD0998",
"$X c #E0C0A1B3092B",
"%X c #E0BCA2E90917",
"&X c #E0E6A3AD0907",
"*X c #E17CA40E08D3",
"=X c #E10EA44A08F1",
"-X c #E19AA4C008CB",
";X c #E286A4AA0877",
":X c None",
/* pixels */
":X:X:X:X:X:X:X:X:X:X:X:X:X:X:X:X:X:X:X:X:X:X:X:X:X:X:X:X",
":X:X:X:X:X:X:X:X:X:X:X:X:X:X:X:X:X:X:X:X:X:X:X:X:X:X:X:X",
":X:X:X:X:X:X:X:X:X:X:X:XO.a.:X:X:X:X:X:X:X:X:X:X:X:X:X:X",
":X:X:X:X:X:X:X:X:X:X:X9 2..X!.:X:X:X:X:X:X:X:X:X:X:X:X:X",
":X:X:X:X:X:X:X:X:X:X:X~ r.-XD.:X:X:X:X:X:X:X:X:X:X:X:X:X",
":X:X:X:X:X:X:X:X:X:XU z x.&X&X`.:X:X:X:X:X:X:X:X:X:X:X:X",
":X:X:X:X:X:X:X:X:X3 ' A G.&X&X.X$.:X:X:X:X:X:X:X:X:X:X:X",
":X:X:X:X:X:X:X:X:XU n D }.&X&X&XM.:X:X:X:X:X:X:X:X:X:X:X",
":X:X:X:X:X:X:X:XI f n L &X&X&X&X&X!.:X:X:X:X:X:X:X:X:X:X",
":X:X:X:X:X:X:X:X~ n n 4.-X.X.X&X&X X/.:X:X:X:X:X:X:X:X:X",
":X:X:X:X:X:X:X8 f n n 9.&X&X&X&X-X-XD.:X:X:X:X:X:X:X:X:X",
":X:X:X:X:X:X:X4 n n A h.-X-X&XL.s.;.y :X:X:X:X:X:X:X:X:X",
":X:X:X:X:X:XY...d m A x.m.=.{ 2 % O   . :X:X:X:X:X:X:X:X",
":X:X:X:X:X .].D d n / 1 = @ o @ - 6 t E.M.:X:X:X:X:X:X:X",
":X:X:X:Xq S x.A m f ; o # , { =.m..X-X-X&X(.:X:X:X:X:X:X",
":X:X:X:XE 4.h.n m a @ $ X.G..X-X&X&X&X&X.X.X&.:X:X:X:X:X",
":X:X:X0 f r.9.n E & Y R n r.&X&X&X&X&X&X&X&XM.:X:X:X:X:X",
":X:X:X' n h.,.f : : 2.e.n D G.-X&X&X&X&X&X&X.X%.:X:X:X:X",
":X:X~ z A x.H P & ( ].&X4.n ,.}.&X&X&X&X&X&X&XK.!.:X:X:X",
":X:X' n D ].g & a A [.&X}.L n e.&X&X&X&X&X&X&X&XM.:X:X:X",
":X:X:X' ,.k.1 : f G |.;X&Xx.A A x.&X&X&X&X&X&X&X.XB.:X:X",
":X:X:XU 4.k.o.f d <.&X;X.X&Xe.n L I.&X&X&X&X&X&XK.B.:X:X",
":X:X:X:XY.r  .n d 7.;X&X&X&X&X4.f 4.&X.X&X.XK./.&.:X:X:X",
":X:X:X:X:Xu _ n n r.&X&X&X&X&X[.D n h..XM.(.:X:X:X:X:X:X",
":X:X:X:X:Xq n n n x.-X&X&X.X&X&Xp.i 5 R.:X:X:X:X:X:X:X:X",
":X:X:X:X:X:X_ n A [.-X&X&X&X&X&XD.@.:X:X:X:X:X:X:X:X:X:X",
":X:X:X:X:X:XU d D .X-X-X&X.XK.!.&.:X:X:X:X:X:X:X:X:X:X:X",
":X:X:X:X:X:X:X' ,.&X&X.XM.(.:X:X:X:X:X:X:X:X:X:X:X:X:X:X",
":X:X:X:X:X:X:X0 4.OXi.&.:X:X:X:X:X:X:X:X:X:X:X:X:X:X:X:X",
":X:X:X:X:X:X:X:XW.(.:X:X:X:X:X:X:X:X:X:X:X:X:X:X:X:X:X:X",
":X:X:X:X:X:X:X:X:X:X:X:X:X:X:X:X:X:X:X:X:X:X:X:X:X:X:X:X",
":X:X:X:X:X:X:X:X:X:X:X:X:X:X:X:X:X:X:X:X:X:X:X:X:X:X:X:X"
};
