/* XPM */
static char *prover9[] = {
/* columns rows colors chars-per-pixel */
"64 64 256 2 ",
"   c #001700170017",
".  c #013301330133",
"X  c #01F701F701F7",
"o  c #02E702E702E7",
"O  c #03D603D603D6",
"+  c #051A051A051A",
"@  c #05E505E505E5",
"#  c #06EE06EE06EE",
"$  c #080D080D080D",
"%  c #091909190919",
"&  c #0A070A070A07",
"*  c #0B090B090B09",
"=  c #0C120C120C12",
"-  c #0D150D150D15",
";  c #0E1B0E1B0E1B",
":  c #0F2D0F2D0F2D",
">  c #0FE00FE00FE0",
",  c #114011401140",
"<  c #121112111211",
"1  c #131913191319",
"2  c #140D140D140D",
"3  c #14F114F114F1",
"4  c #162416241624",
"5  c #16F816F816F8",
"6  c #17E017E017E0",
"7  c #191919191919",
"8  c #1A2C1A2C1A2C",
"9  c #1B1B1B1B1B1B",
"0  c #1C351C351C35",
"q  c #1D161D161D16",
"w  c #1E3F1E3F1E3F",
"e  c #1EE81EE81EE8",
"r  c #201720172017",
"t  c #215921592159",
"y  c #220A220A220A",
"u  c #231C231C231C",
"i  c #242024202420",
"p  c #251625162516",
"a  c #263226322632",
"s  c #273027302730",
"d  c #284528452845",
"f  c #294529452945",
"g  c #2A592A592A59",
"h  c #2B1D2B1D2B1D",
"j  c #2C4A2C4A2C4A",
"k  c #2D522D522D52",
"l  c #2E282E282E28",
"z  c #2F5C2F5C2F5C",
"x  c #302B302B302B",
"c  c #311531153115",
"v  c #323B323B323B",
"b  c #335933593359",
"n  c #341034103410",
"m  c #354835483548",
"M  c #361D361D361D",
"N  c #371E371E371E",
"B  c #380938093809",
"V  c #397E397E397E",
"C  c #3A263A263A26",
"Z  c #3B443B443B44",
"A  c #3C6B3C6B3C6B",
"S  c #3D393D393D39",
"D  c #3E763E763E76",
"F  c #3F243F243F24",
"G  c #404E404E404E",
"H  c #415A415A415A",
"J  c #423242324232",
"K  c #430D430D430D",
"L  c #444744474447",
"P  c #454F454F454F",
"I  c #45E945E945E9",
"U  c #474547454745",
"Y  c #485048504850",
"T  c #493C493C493C",
"R  c #4A0A4A0A4A0A",
"E  c #4B244B244B24",
"W  c #4C824C824C82",
"Q  c #4D764D764D76",
"!  c #4E934E934E93",
"~  c #4F454F454F45",
"^  c #504A504A504A",
"/  c #516C516C516C",
"(  c #522D522D522D",
")  c #535353535353",
"_  c #547D547D547D",
"`  c #555A555A555A",
"'  c #562A562A562A",
"]  c #578C578C578C",
"[  c #585158515851",
"{  c #596059605960",
"}  c #5A355A355A35",
"|  c #5BB55BB55BB5",
" . c #5C815C815C81",
".. c #5D385D385D38",
"X. c #5E685E685E68",
"o. c #5F725F725F72",
"O. c #60AA60AA60AA",
"+. c #615061506150",
"@. c #623962396239",
"#. c #631463146314",
"$. c #647764776477",
"%. c #656565656565",
"&. c #661C661C661C",
"*. c #678F678F678F",
"=. c #683468346834",
"-. c #698969896989",
";. c #6A966A966A96",
":. c #6B706B706B70",
">. c #6C256C256C25",
",. c #6D516D516D51",
"<. c #6E336E336E33",
"1. c #6F866F866F86",
"2. c #709270927092",
"3. c #712971297129",
"4. c #723872387238",
"5. c #738773877387",
"6. c #747F747F747F",
"7. c #75BC75BC75BC",
"8. c #76A376A376A3",
"9. c #779C779C779C",
"0. c #78BF78BF78BF",
"q. c #795279527952",
"w. c #7ABB7ABB7ABB",
"e. c #7B457B457B45",
"r. c #7C847C847C84",
"t. c #7D7B7D7B7D7B",
"y. c #7EB57EB57EB5",
"u. c #7F707F707F70",
"i. c #80B580B580B5",
"p. c #81A881A881A8",
"a. c #826E826E826E",
"s. c #837D837D837D",
"d. c #848384838483",
"f. c #857C857C857C",
"g. c #864C864C864C",
"h. c #877287728772",
"j. c #888B888B888B",
"k. c #89AA89AA89AA",
"l. c #8AD58AD58AD5",
"z. c #8B608B608B60",
"x. c #8CAC8CAC8CAC",
"c. c #8D888D888D88",
"v. c #8EA98EA98EA9",
"b. c #8FAC8FAC8FAC",
"n. c #907990799079",
"m. c #918491849184",
"M. c #928392839283",
"N. c #93CF93CF93CF",
"B. c #948B948B948B",
"V. c #95BE95BE95BE",
"C. c #968C968C968C",
"Z. c #97BE97BE97BE",
"A. c #98AC98AC98AC",
"S. c #998099809980",
"D. c #9A779A779A77",
"F. c #9B8F9B8F9B8F",
"G. c #9CC89CC89CC8",
"H. c #9D7C9D7C9D7C",
"J. c #9E8F9E8F9E8F",
"K. c #9FB39FB39FB3",
"L. c #A0F2A0F2A0F2",
"P. c #A1D6A1D6A1D6",
"I. c #A2A9A2A9A2A9",
"U. c #A38EA38EA38E",
"Y. c #A4A6A4A6A4A6",
"T. c #A580A580A580",
"R. c #A6B8A6B8A6B8",
"E. c #A7B2A7B2A7B2",
"W. c #A8C2A8C2A8C2",
"Q. c #A9A1A9A1A9A1",
"!. c #AAE4AAE4AAE4",
"~. c #ABE1ABE1ABE1",
"^. c #ACEBACEBACEB",
"/. c gray68",
"(. c #AEBCAEBCAEBC",
"). c #AF5AAF5AAF5A",
"_. c #B077B077B077",
"`. c #B1A7B1A7B1A7",
"'. c #B29BB29BB29B",
"]. c #B3BCB3BCB3BC",
"[. c #B4CCB4CCB4CC",
"{. c #B5FBB5FBB5FB",
"}. c #B68AB68AB68A",
"|. c #B809B809B809",
" X c #B905B905B905",
".X c #B9B1B9B1B9B1",
"XX c #BAA5BAA5BAA5",
"oX c #BBC9BBC9BBC9",
"OX c #BCBCBCBCBCBC",
"+X c #BDA5BDA5BDA5",
"@X c #BEFCBEFCBEFC",
"#X c #BFB2BFB2BFB2",
"$X c #C0CEC0CEC0CE",
"%X c #C194C194C194",
"&X c #C2DBC2DBC2DB",
"*X c #C3CAC3CAC3CA",
"=X c #C481C481C481",
"-X c #C58FC58FC58F",
";X c #C696C696C696",
":X c #C7EEC7EEC7EE",
">X c #C8F0C8F0C8F0",
",X c #C9DAC9DAC9DA",
"<X c #CB1CCB1CCB1C",
"1X c #CB81CB81CB81",
"2X c #CCB3CCB3CCB3",
"3X c #CDE4CDE4CDE4",
"4X c #CECECECECECE",
"5X c #D033D033D033",
"6X c #D0C0D0C0D0C0",
"7X c #D1F4D1F4D1F4",
"8X c #D2BFD2BFD2BF",
"9X c #D3B1D3B1D3B1",
"0X c #D4D2D4D2D4D2",
"qX c #D630D630D630",
"wX c #D694D694D694",
"eX c #D7D2D7D2D7D2",
"rX c #D8E2D8E2D8E2",
"tX c #D9BDD9BDD9BD",
"yX c #DACADACADACA",
"uX c #DC02DC02DC02",
"iX c #DCC6DCC6DCC6",
"pX c #DD9FDD9FDD9F",
"aX c #DED4DED4DED4",
"sX c #DFD3DFD3DFD3",
"dX c #E0DCE0DCE0DC",
"fX c #E1CEE1CEE1CE",
"gX c #E2AEE2AEE2AE",
"hX c #E404E404E404",
"jX c #E4FFE4FFE4FF",
"kX c gray90",
"lX c #E708E708E708",
"zX c #E7DAE7DAE7DA",
"xX c #E8D3E8D3E8D3",
"cX c #E9B4E9B4E9B4",
"vX c #EAEDEAEDEAED",
"bX c gray92",
"nX c #ECDBECDBECDB",
"mX c #EDE5EDE5EDE5",
"MX c #EF0FEF0FEF0F",
"NX c #EFD9EFD9EFD9",
"BX c #F0D0F0D0F0D0",
"VX c #F20BF20BF20B",
"CX c #F308F308F308",
"ZX c #F3E3F3E3F3E3",
"AX c #F509F509F509",
"SX c #F600F600F600",
"DX c #F6C3F6C3F6C3",
"FX c #F806F806F806",
"GX c #F8F9F8F9F8F9",
"HX c #F9FDF9FDF9FD",
"JX c #FB05FB05FB05",
"KX c #FBFDFBFDFBFD",
"LX c #FD14FD14FD14",
"PX c #FDEFFDEFFDEF",
"IX c #FED6FED6FED6",
"UX c #FFFDFFFDFFFD",
/* pixels */
"w W W ( ( W W W W W W W W W W ( W W ( W W W W W W W ( W W W ( W W W W W W W W ( W W ( W W W W W W W ( W W W ( W W W W ( ( W W r ",
"s O.%.O.O.%.%.%.O.%.O.O.%.O.%.O.O.O.O.%.O.%.O.O.%.O.%.O.O.O.O.%.O.%.O.O.%.O.%.O.O.O.O.%.O.%.O.O.%.O.%.O.O.O.O.%.O.%.%.O.O.O.O.h ",
"C m.A.c.m.A.Z.Z.Z.Z.Z.Z.m.Z.Z.Z.m.Z.Z.Z.Z.Z.Z.Z.m.Z.Z.Z.m.Z.Z.Z.Z.Z.Z.Z.m.Z.Z.Z.m.Z.Z.Z.Z.Z.Z.Z.m.Z.Z.Z.m.Z.Z.Z.Z.Z.A.m.c.Z.m.C ",
"( 4XwXoXoXwXwXwXwXwX9XwXwXwXwX9XwXwXwXwXwXwX9XwXwXwX9XwXwXwXwXwXwXwX9XwXwXwX9XwXwXwXwXwXwXwX9XwXwXwX9XwXwXwXwXwXwXtXwXoXoXwX4X( ",
"O.AXBXoXoXhXAXIXIXIXIXIXIXIXIXIXIXIXIXIXIXIXIXIXIXIXIXIXIXIXIXIXIXIXIXIXIXIXIXIXIXIXIXIXIXIXIXIXIXIXIXIXIXIXIXIXIXAXhXoX%XBXAXO.",
"O.HXiXu.u.E.vXIXIXIXIXIXIXIXIXIXIXIXIXIXIXIXIXIXIXIXIXIXIXIXIXIXIXIXIXIXIXIXIXIXIXIXIXIXIXIXIXIXIXIXIXIXIXIXIXIXIXzXL.w.a.hXHX%.",
"O.AX[.m j } ;XIXIXIXIXIXIXIXIXIXIXIXIXIXIXIXIXIXIXIXIXIXIXIXIXIXIXIXIXIXIXIXIXIXIXIXIXIXIXIXIXIXIXIXIXIXIXIXIXIXIX%X' j C oXAXO.",
"O.BXl.- O h Z.zXIXIXIXIXIXIXIXIXIXIXIXIXIXIXIXIXIXIXIXIXIXIXIXIXIXIXIXIXIXIXIXIXIXIXIXIXIXIXIXIXIXIXIXIXIXIXIXIXzXm.s O - Z.NXO.",
"O.vX..O X 1 } %XIXIXIXIXIXIXIXIXIXIXIXIXIXIXIXIXIXIXIXIXIXIXIXIXIXIXIXIXIXIXIXIXIXIXIXIXIXIXIXIXIXIXIXIXIXIXIXIXoX' 1 X O %.vXO.",
"O.iXm O O O r Z.HXIXIXIXIXIXIXIXIXIXIXIXIXIXIXIXIXIXIXIXIXIXIXIXIXIXIXIXIXIXIXIXIXIXIXIXIXIXIXIXIXIXIXIXIXIXIXAXc.w O O O D hXO.",
"O.>Xw - r O O =.iXIXIXIXIXIXIXIXIXIXIXIXIXIXIXIXIXIXIXIXIXIXIXIXIXIXIXIXIXIXIXIXIXIXIXIXIXIXIXIXIXIXIXIXIXIXIXiXO.O O s $ r 4XO.",
"O./.1 7 ' $ X C XXIXIXIXIXIXIXIXIXIXIXIXIXIXIXIXIXIXIXIXIXIXIXIXIXIXIXIXIXIXIXIXIXIXIXIXIXIXIXIXIXIXIXIXIXIXIX'.x X $ } 5 5 XXO.",
"O.G.- r f.w O 5 m.AXIXIXIXIXIXIXIXIXIXIXIXIXIXIXIXIXIXIXIXIXIXIXIXIXIXIXIXIXIXIXIXIXIXIXIXIXIXIXIXIXIXIXIXIXAXf.1 O r l.w 1 E.O.",
"O.Z.$ s /.( O O O.vXIXIXIXIXIXIXIXIXIXIXIXIXIXIXIXIXIXIXIXIXIXIXIXIXIXIXIXIXIXIXIXIXIXIXIXIXIXIXIXIXIXIXIXIXzX} X $ ' /.w $ L.O.",
"O.A.- r 4Xm.5 X m 9XIXIXIXIXIXIXIXIXIXIXIXIXIXIXIXIXIXIXIXIXIXIXIXIXIXIXIXIXIXIXIXIXIXIXIXIXIXIXIXIXIXIXIXIX4Xj X 5 Z.>X7 - E.O.",
"O.L.- w hX%Xx O 5 [.IXIXIXIXIXIXIXIXIXIXIXIXIXIXIXIXIXIXIXIXIXIXIXIXIXIXIXIXIXIXIXIXIXIXIXIXIXIXIXIXIXIXIXHXQ.5 O m >XtX7 - /.O.",
"O./.- 5 hXiX=.- $ l.HXIXIXIXIXIXIXIXIXIXIXIXIXIXIXIXIXIXIXIXIXIXIXIXIXIXIXIXIXIXIXIXIXIXIXIXIXIXIXIXIXIXIXHXa.O - 4.zXtX5 - XXO.",
"O.%X1 5 wXNX/.7 O } HXIXIXIXIXIXIXIXIXIXIXIXIXIXIXIXIXIXIXIXIXIXIXIXIXIXIXIXIXIXIXIXIXIXIXIXIXIXIXIXIXIXIXAX( O w '.BX4X1 1 >XO.",
"O.4X5 1 >XHXwXm O C NXIXIXIXIXIXIXIXIXIXIXIXIXIXIXIXIXIXIXIXIXIXIXIXIXIXIXIXIXIXIXIXIXIXIXIXIXIXIXIXIXIXIXvXx O D tXHXoX1 7 wXO.",
"O.tX7 - oXIXvX%.$ r tXIXIXIXIXIXIXIXIXIXIXIXIXIXIXIXIXIXIXIXIXIXIXIXIXIXIXIXIXIXIXIXIXIXIXIXIXIXIXIXIXIXIXwXr O <.NXIX'.- w iXO.",
"O.iXr - /.HXAXZ.- 5 ;XIXIXIXIXIXIXIXIXIXIXIXIXIXIXIXIXIXIXIXIXIXIXIXIXIXIXIXIXIXIXIXIXIXIXIXIXIXIXIXIXIXIXoX5 - L.AXHXL.$ s zXO.",
"O.zXh - A.IXIXXX5 - /.hXAXIXIXIXIXIXIXIXIXIXIXIXIXIXIXIXIXIXIXIXIXIXIXIXIXIXIXIXIXIXIXIXIXIXIXIXIXIXIXBXzXL.- 7 %XIXHXm.$ x vXO.",
"%.vXx $ l.HXIXtXs $ m.oXiXIXIXIXIXIXIXIXIXIXIXIXIXIXIXIXIXIXIXIXIXIXIXIXIXIXIXIXIXIXIXIXIXIXIXIXIXIXIXiXoXf.$ j iXIXHXu.$ C NXO.",
"O.vXD $ 7.AXIXNXC $ 7.Z.oXHXIXIXIXIXIXIXIXIXIXIXIXIXIXIXIXIXIXIXIXIXIXIXIXIXIXIXIXIXIXIXIXIXIXIXIXIXAXXXZ.<.$ D BXIXAX<.$ L vXO.",
"O.vXW $ O.zXIXHXT - =.4.l.wXIXIXIXIXIXIXIXIXIXIXIXIXIXIXIXIXIXIXIXIXIXIXIXIXIXIXIXIXIXIXIXIXIXIXIXIX9Xf.4.O.$ ( HXIXzX( $ } NXO.",
"O.NXO.$ T 9XAXIX} $ %.W L E.IXIXIXIXIXIXIXIXIXIXIXIXIXIXIXIXIXIXIXIXIXIXIXIXIXIXIXIXIXIXIXIXIXIXIXIXG.L ' ..- %.IXAX9XD $ =.NXO.",
"O.NX7.$ x /.tXvX} - 4.W w 4.BXIXIXIXHXHXIXIXIXIXIXIXIXIXIXIXIXIXIXIXIXIXIXIXIXIXIXIXIXIXHXHXIXIXIXNX=.r ( =.- %.vXwXQ.h $ a.NX..",
"O.NXc.- w 4.m.L.L 1 c.u.w T 4XIXIXIXiXiXIXIXIXIXIXIXIXIXIXIXIXIXIXIXIXIXIXIXIXIXIXIXIXIXtXhXIXIXIX;XK r a.l.1 W L.Z.4.7 - Z.BXO.",
"O.BXL.- - j K W r 7 XXoXC s G.IXIXIXXX[.HXIXIXIXIXIXIXIXIXIXIXIXIXIXIXIXIXIXIXIXIXIXIXHX'.XXHXIXIXA.s D %X[.5 r W K j $ - /.BX%.",
"O.BXXX1 X $ - 5 - j tXNX..5 7.BXIXhXc.c.AXBXvXvXNXIXIXHXAXIXIXIXIXIXIXAXIXIXIXBXvXvXBXBXl.m.zXIXNX=.5 %.NX9Xh - 5 1 $ X 1 %XAXO.",
"O.AX9X5 X X X X O ' vXHXZ.5 T hXIX/.' ..vX>X/.Q.;XAXIXNXwXHXIXIXIXIXAXwXBXIXBX;XQ./.4XzX' } '.IXtXL 7 G.IXzX( O X X X X 7 wXAXO.",
"O.AXiXr X - O O 5 f.AXIX4Xh s ;XAX4.r C tXG.%.O.m.zXIXhX/.NXIXIXIXIXvX/.zXIXhXc.O.%.G.wXm r u.AX%Xs j wXIXBXu.1 O O $ X s zXAXO.",
"O.AXvXh X w x j D /.IXIXNXT 1 E.iXT $ D XX<.m j O.XXzX9Xa.4XIXIXIXIX>Xa.wXzX[...j m 4.XXC $ ( hXA.5 W BXIXIXE.D h x w X x NXAXO.",
"O.AXBXD O m a.7.l.wXIXIXAX7.- 7.XXh O =.l.m 5 1 j 4.%XoXW A.IXIXIXIXm.W %X%X<.j 1 5 C c.%.O x oX=.- u.IXIXIX4Xl.7.a.x $ T AXAXO.",
"O.HXAX( $ T >X%X9XBXIXIXHXE.1 L l.1 5 G...5 - 1 1 j A.Q.s %.AXIXIXAX..s '.m.h 1 1 - 7 %.Z.1 1 m.D 1 /.HXIXIXBXwX%X>XK $ ..AXHXO.",
"O.AXHX<.$ L vXvXAXIXIXIXIX%X7 h O.$ j oXK 7 C m w 1 =.Z.5 D iXIXIXtXC 7 G.O.- w m C 7 T XXh O =.s 7 4XIXIXIXIXAXvXzXC $ =.HXAXO.",
"O.AXHXc.- x vXAXIXIXIXIXIXiXs 7 m $ ( 9Xx D l.f.L - C f.r s XXIXIX[.r s f.x - W f.f.C C wXT O C 1 h hXIXIXIXIXIXAXzXj $ 4.HXAXO.",
"O.HXHX/.- w hXHXIXIXIXIXIXNXC $ 5 $ w.iXh } %X%Xu.r 7 7.m 1 Z.AXAXl.1 D <.5 s a.;X%X( j zX<.$ 7 $ D BXIXIXIXIXIXHXtXw - a.HXAXO.",
"O.AXIX;X1 5 9XIXIXIXIXIXIXHX( O $ $ A.vXs W >XtX/...5 ' ' $ =.BXBXO.- ..( 7 ..'.tX;XT s NXc.- O O } AXIXIXIXIXIXIX>X5 5 E.IXHXO.",
"O.AXIXtXw 1 XXIXIXIXIXIXIXHX<.$ X 1 XXvXs m Q.tXtXE.h x w.- K vXhXD - u.j j Q.tXwXE.x h NX'.- X $ w.HXIXIXIXIXIXIX'.- r 4XIXAXO.",
"O.AXIXvXj - L.HXIXIXIXIXIXHXl.$ X 7 9XvXj w a.%XBXiXW w c.5 r 9X>Xw 7 l.w ( hXBXoXu.w x BX4X5 X $ Z.HXIXIXIXIXIXHXZ.- x NXIXAXO.",
"O.HXIXBXK - f.HXIXIXIXIXIXHXQ.$ X w hXBXL 5 W a.hXAXf.w f.h 1 /.E.1 x a.7 l.BXiXa.W 1 ( AXtX5 X - '.IXIXIXIXIXIXAXw.- T HXIXHXO.",
"O.HXIXAX} $ =.HXIXIXIXIXIXIX%X1 X r vXAX%.- r D ;XAXoXs 4.L - a.7.- W =.h %XHXoXC w - <.AXhXw X 5 >XIXIXIXIXIXIXAX..- O.HXIXAXO.",
"O.AXIXHX7.- ( BXIXIXIXIXIXIXwX5 X r NXAX4.7 $ 7 XXHXhXm O.O.- } ( - <.} C zXHX/.5 - 7 w.AXzXw X w tXIXIXIXIXIXIXBXT - u.HXIXHXO.",
"O.AXIXHXm.$ C NXIXIXIXIXIXIXzXr X s BXAX=.K 7 7 %XHXBXW ' f.- m j - c.W ' AXIXXX5 7 D 4.AXvXr X s vXIXIXIXIXIXIXNXx - G.HXIXAXO.",
"O.AXIXIX'.1 s hXIXIXIXIXIXIXNXj O h BXAX..O.C m 9XIXAX%.T Q.- 5 5 1 /.K <.AXIX>Xx D ..%.AXNXs O m NXIXIXIXIXIXIXiXr 5 XXHXIXHXO.",
"%.AXIXIX>X7 7 9XIXIXIXIXIXIXAXD O s BXAX' %.O.=.zXIXHX<.K %X5 O O 7 >XD w.HXIXiX%.O...} AXvXr O L AXIXIXIXIXIXIX4X5 7 9XIXIXAXO.",
"O.AXIXIXiXr 1 XXIXIXIXIXIXIXAX( O s NXAXW T A.[.BXIXHX<.D wXs O X h tXC w.HXIXNX'.Z.L ' AXvXr O } HXIXIXIXIXIXIX/.1 s zXIXIXHXO.",
"O.AXIXIXBXm - G.HXIXIXIXIXIXAX%.O s NXAXW x XXzXHXIXAXO.K hXx O X C zXC <.BXIXAXzX'.h } BXzXw $ 4.HXIXIXIXIXIXHXm.- C NXIXIXAXO.",
"%.AXIXIXAXW - u.HXIXIXIXIXIXAXu.$ w zXBX' w A.wXNXAXiX( L vXT O O ( vXD ' hXHXNXwXm.7 4.AXhXw $ f.HXIXIXIXIXIXHX7.- ' HXIXIXHXO.",
"O.HXIXIXAX<.- O.AXIXIXIXIXIXHXm.$ w zXAX=.1 W A.wXvXXXx W NX%.O O <.NXL m %XvXwXm.W 5 A.HXiX7 $ G.HXIXIXIXIXIXAX' - 7.AXIXIXAXO.",
"O.AXIXIXHXc.- L AXIXIXIXIXIXIXQ.- 7 iXAXf.w 7 ../.4Xm.w %.NXw.$ $ l.NX} w Z.4X/.' 7 s oXIXwX5 - [.IXIXIXIXIXIXBXD - Z.HXIXIXHXO.",
"O.AXIXIXIX/.1 x NXIXIXIXIXIXIXoX- 5 wXHX/.T $ x 4.l.} 1 f.BXw.O $ G.AXu.1 ..l.4.j $ ( tXHX4X1 - ;XIXIXIXIXIXIXvXh 1 [.HXIXIXAXO.",
"O.HXIXIXHX4X7 r vXIXIXIXIXIXIX4X1 1 9XHXiXf.5 1 j D s 5 '.BXu.$ - '.AXE.1 h D j 1 5 m.NXIX;X- 5 wXIXIXIXIXIXIXhXw w wXIXIXIXHXO.",
"O.HXIXIXIXhXj s zXIXIXIXIXIXIXiXr 5 4XIXHXXXm 1 $ $ $ h 9XAXl.- 1 ;XHX>Xs $ - $ 1 C %XHXIX%X5 s hXIXIXIXIXIXIXhXr x vXIXIXIXAXO.",
"O.AXIXIXIXNXT C zXIXIXIXIXIXIXvXK w >XIXIXtXw.x O X O } zXHXE.5 w 9XIXhXW X X O j w.hXIXIX%X7 L NXIXIXIXIXIXIXzXx ( AXIXIXIXHXO.",
"O.AXIXIXIXAX4.' NXIXIXIXIXIXIXAX=.x 4XIXIXBXoX..7 O 7 l.BXIX4Xh j iXIXBXf.5 O 7 O.%XAXIXIX;Xx 4.AXIXIXIXIXIXIXNX( w.AXIXIXIXAXO.",
"O.HXIXIXIXHXA.a.AXIXIXIXIXIXIXHXZ...tXIXIXIXvXc.T m T [.IXIXzX' } NXIXIX'.L m W m.NXIXIXIX9X..G.IXIXIXIXIXIXIXAXu.L.HXIXIXIXAX%.",
"%.IXIXIXIXIX4XXXIXIXIXIXIXIXIXIX>XE.NXIXIXIXIX;XA.l.G.hXIXIXHXL.L.HXIXIXiXA.l.G.>XIXIXIXIXvXE.4XIXIXIXIXIXIXIXIXXX9XIXIXIXIXIX%.",
"O.AXIXIXIXIXNXzXIXIXIXIXIXIXIXIXNXiXAXIXIXIXIXNXiX9XiXBXIXIXHXiXiXIXIXIXBXtX9XiXNXHXIXIXIXAXiXNXIXIXIXIXIXIXIXHXzXNXIXIXIXIXAXO.",
"( 4XwXwXwX9XwXwX9XwXwXwXwXwXwXwXtX9XwX9XwXwXwXtXwX4XwXwXwXwXwXwX9X9XwXwXtXwX4XtXtXwXwXwXwXwXwXtXwX9XwXwX9XwXwXwXwXwXwXwXwXwX4X( ",
"C m.m.Z.Z.Z.A.A.Z.Z.Z.Z.Z.Z.m.Z.A.A.Z.Z.m.Z.Z.A.A.Z.A.Z.Z.Z.Z.Z.A.Z.Z.Z.A.A.A.A.A.Z.Z.Z.Z.Z.Z.A.Z.Z.m.Z.Z.Z.Z.m.Z.Z.Z.Z.Z.Z.m.m ",
"h O.O.%.%.%.%.O.O.O.%.O.%.O.O.O.%.%.%.%.O.%.O.%.%.O.O.%.%.O.%.O.O.%.O.%.O.%.O.%.%.O.%.%.O.O.%.O.O.%.O.%.O.%.O.%.O.O.%.%.%.O.O.s ",
"w W W W W W W ( W W W W W ( W W W W W W W W ( W W W ( W W W W ( W W ( W W W ( W W W W W W W ( W W W W W ( W W W W ( W W W W W w "
};
