/* XPM */
static char *reduce[]={
"32 32 4 1",
". c None",
"b c #000099",
"a c #9999cc",
"# c #ccccff",
"................................",
".........................######.",
".........................######.",
".........................######.",
".........................######.",
".........................######.",
".........................######.",
"...................######aaaaaa.",
"...................######aaaaaa.",
"...................######aaaaaa.",
"...................######aaaaaa.",
"...................######aaaaaa.",
"...................######aaaaaa.",
".bbbbbb......######aaaaaabbbbbb.",
".bbbbbb......######aaaaaabbbbbb.",
".bbbbbb......######aaaaaabbbbbb.",
".bbbbbb......######aaaaaabbbbbb.",
".bbbbbb......######aaaaaabbbbbb.",
".bbbbbb......######aaaaaabbbbbb.",
".......######aaaaaabbbbbbbbbbbb.",
".......######aaaaaabbbbbbbbbbbb.",
".......######aaaaaabbbbbbbbbbbb.",
".......######aaaaaabbbbbbbbbbbb.",
".......######aaaaaabbbbbbbbbbbb.",
".......######aaaaaabbbbbbbbbbbb.",
".######aaaaaabbbbbbbbbbbbbbbbbb.",
".######aaaaaabbbbbbbbbbbbbbbbbb.",
".######aaaaaabbbbbbbbbbbbbbbbbb.",
".######aaaaaabbbbbbbbbbbbbbbbbb.",
".######aaaaaabbbbbbbbbbbbbbbbbb.",
".######aaaaaabbbbbbbbbbbbbbbbbb.",
"................................"};
