/* XPM */
static char *rocs[] = {
/* columns rows colors chars-per-pixel */
"64 64 256 2",
"   c #036703",
".  c #007B00",
"X  c #007200",
"o  c #1D711D",
"O  c #196D19",
"+  c #226C22",
"@  c #247024",
"#  c #716E6F",
"$  c #726F72",
"%  c #787677",
"&  c #656365",
"*  c #BE1D1D",
"=  c #B72C2C",
"-  c #B63636",
";  c #CE0101",
":  c #C70909",
">  c #D40000",
",  c #DD0000",
"<  c #CF1616",
"1  c #EE0000",
"2  c #E60000",
"3  c #F20101",
"4  c #FD0000",
"5  c #FE1313",
"6  c #E11616",
"7  c #CF2424",
"8  c #D02121",
"9  c #FE2323",
"0  c #FF2828",
"q  c #EE3434",
"w  c #FF3434",
"e  c #FF3E3E",
"r  c #B54646",
"t  c #87737B",
"y  c #B66B6B",
"u  c #B96868",
"i  c #AA7E7E",
"p  c #B67575",
"a  c #BA7B7B",
"s  c #B27A7A",
"d  c #CE5656",
"f  c #D74747",
"g  c #FE4242",
"h  c #FE4C4C",
"j  c #FF5757",
"k  c #C86C6C",
"l  c #D57A7A",
"z  c #E86969",
"x  c #FB6C6C",
"c  c #FF7272",
"v  c #FB7878",
"b  c #008300",
"n  c #028D02",
"m  c #039703",
"M  c #138B13",
"N  c #1C9A1C",
"B  c #0ABB0A",
"V  c #13AA13",
"C  c #13A413",
"Z  c #1DBB1D",
"A  c #03A803",
"S  c #3A8A3A",
"D  c #19C319",
"F  c #18D718",
"G  c #1BE01B",
"H  c #21C621",
"J  c #2CE32C",
"K  c #2BF12B",
"L  c #32EE32",
"P  c #448B44",
"I  c #558855",
"U  c #4D974D",
"Y  c #698C69",
"T  c #6E906E",
"R  c #769777",
"E  c #70A170",
"W  c #BEBE1B",
"Q  c #B9B92C",
"!  c #B0B03F",
"~  c #AAAA38",
"^  c #EAEA00",
"/  c #FFFF00",
"(  c #FFFF1A",
")  c #F8F82F",
"_  c #FFFF33",
"`  c #B6B66E",
"'  c #FFFF5B",
"]  c #E8E849",
"[  c #EFEF78",
"{  c #2828B9",
"}  c #3131BA",
"|  c #3434B7",
" . c #7C7F85",
".. c #5F5FAF",
"X. c #4D4DB4",
"o. c #5454B5",
"O. c #6565AE",
"+. c #7979B6",
"@. c #6969B3",
"#. c #0000CA",
"$. c #0B0BC5",
"%. c #1919C2",
"&. c #0000F2",
"*. c #0000FE",
"=. c #1212F8",
"-. c #2222FF",
";. c #2A2AFF",
":. c #3131F2",
">. c #4747D6",
",. c #7171D7",
"<. c #6767CD",
"1. c #4E4EE1",
"2. c #4444FD",
"3. c #6A6AFF",
"4. c #27ADAD",
"5. c #3CADAD",
"6. c #26B8B8",
"7. c #7C8188",
"8. c #7B8590",
"9. c #5ABABA",
"0. c #75B7B7",
"q. c #03D2D2",
"w. c #08C5C5",
"e. c #00E0E0",
"r. c #02FCFC",
"t. c #11FFFF",
"y. c #29FFFF",
"u. c #3AF7F7",
"i. c #72CBCB",
"p. c #54FCFC",
"a. c #76FFFF",
"s. c #50D3D3",
"d. c #858482",
"f. c #8D8C8C",
"g. c #908D89",
"h. c #839C83",
"j. c #9B948C",
"k. c #92908F",
"l. c #8E8F90",
"z. c #949493",
"x. c #959B9C",
"c. c #9C9C9B",
"v. c #9C9A95",
"b. c #AB8F8F",
"n. c #B88585",
"m. c #AE9393",
"M. c #B89393",
"N. c #9AAB9A",
"B. c #98A698",
"V. c #8BAB8B",
"C. c #AFAF8F",
"Z. c #ADA298",
"A. c #B6B686",
"S. c #8686AC",
"D. c #9E9FA0",
"F. c #8787B9",
"G. c #9D9DBB",
"H. c #A19FA1",
"J. c #87B8B8",
"K. c #A2A2A1",
"L. c #A6A9A8",
"P. c #B3AEAB",
"I. c #B9ABA8",
"U. c #ACB5AC",
"Y. c #B9B9A0",
"T. c #A4B5BC",
"R. c #B4B1B0",
"E. c #BBB3B3",
"W. c #B4B6B9",
"Q. c #BCBCBE",
"!. c #B7B8B4",
"~. c #C39B9B",
"^. c #FB8484",
"/. c #FF8F8F",
"(. c #EE9494",
"). c #FC9898",
"_. c #F49898",
"`. c #C1A6A6",
"'. c #C2B4B4",
"]. c #C4BAB7",
"[. c #FFA4A4",
"{. c #FEBBBB",
"}. c #B9C1B8",
"|. c #FFFF94",
" X c #C1C0BC",
".X c #CACAB9",
"XX c #F9F9AF",
"oX c #A9A9C4",
"OX c #A7BBC1",
"+X c #BDBDCA",
"@X c #9595E9",
"#X c #8787FC",
"$X c #9696FE",
"%X c #A5A5FF",
"&X c #A4C2C2",
"*X c #B3C1C1",
"=X c #BCC7D3",
"-X c #95FBFB",
";X c #C4C4C3",
":X c #CAC2C2",
">X c #C5C6CB",
",X c #CCCBCB",
"<X c #C9CBC7",
"1X c #D1CDCD",
"2X c #D0C7C8",
"3X c #D1D1CD",
"4X c #CBCBD2",
"5X c #CBCBDA",
"6X c #D1CAD1",
"7X c #D5D5D5",
"8X c #D8D5D6",
"9X c #DBDAD5",
"0X c #D3D5D9",
"qX c #D7D8DA",
"wX c #DCDCDC",
"eX c #FDC9C9",
"rX c #E5DACF",
"tX c #E0DDDC",
"yX c #E4D7D7",
"uX c #FFDCDC",
"iX c #E5E3DC",
"pX c #ECE4DA",
"aX c #E7E1D7",
"sX c #F4E9DC",
"dX c #DCDEE0",
"fX c #C4C4FC",
"gX c #DBDBFF",
"hX c #DCE1E2",
"jX c #DCE8F3",
"kX c #D5FFFF",
"lX c #E4E4E4",
"zX c #E9E6E4",
"xX c #E7E8E7",
"cX c #E4ECEC",
"vX c #ECECEC",
"bX c #ECEAE5",
"nX c #F3ECE4",
"mX c #F1ECEC",
"MX c #FFE9E9",
"NX c #F1F1EF",
"BX c #FBF9E9",
"VX c #E5ECF3",
"CX c #ECEEF0",
"ZX c #E9E9FF",
"AX c #F5EDF5",
"SX c #E6F1F4",
"DX c #EBF3FA",
"FX c #EDF8F8",
"GX c #ECF2F2",
"HX c #F3F3F3",
"JX c #FAF6F5",
"KX c #FBFAF5",
"LX c #F3F5FC",
"PX c #F9F5F9",
"IX c #F4FDFD",
"UX c #FFFFFF",
/* pixels */
"HXHXHXvXHXHXvXHXHXHXvXHXHXHXvXHXNXNXNXNXNXGXHXHXvXHXHXHXNXNXNXNXNXGXHXHXvXHXHXHXCXNXHXNXHXNXNXNXNXHXNXNXHXHXvXHXHXHXvXHXHXHXvXHX",
"UXUXUXUXUXUXUXUXUXUXUXUXUXUXUXUXUXUXUXUXUXUXUXUXUXUXUXUXUXUXUXUXUXUXUXUXUXUXUXUXUXUXUXUXUXUXUXUXUXUXUXUXUXUXUXUXUXUXUXUXUXUXUXUX",
"UXUXUXUXUXUXUXUXUXUXUXUXUXUXUXUXUXUXUXUXUXUXUXUXUXUXUXUXUXUXUXUXUXUXUXUXUXUXUXUXUXUXUXUXUXUXUXUXUXUXUXUXUXUXUXUXUXUXUXUXUXUXUXUX",
"UXUXUXUXUXUXUXUXUXUXUXUXUXUXUXUXUXUXUXUXUXUXUXUXUXUXUXUXUXUXUXUXUXUXUXUXUXUXUXUXUXUXUXUXUXUXUXUXUXUXUXUXUXUXUXUXUXUXUXUXUXUXUXUX",
"UXUXUXUXUXUXUXUXUXUXUXUXUXUXUXUXUXUXUXUXUXUXUXUXUXUXUXUXUXUXUXUXUXUXUXUXUXUXUXUXUXUXUXUXUXUXUXUXUXUXUXUXUXUXUXUXUXUXUXUXUXUXUXUX",
"UXUXUXUXUXUXUXUXUXUXUXUXUXUXUXUXUXUXUXUXUXUXUXUXUXUXUXUXUXUXUXUXUXUXUXUXUXUXUXUXUXUXUXUXUXUXUXUXUXUXUXUXUXUXUXUXUXUXUXUXUXUXUXUX",
"UXUXUXUXUXUXUXUXUXUXUXJX4X+XbXUXUXUXUXUXUXUXUXUXUXUXUXUXUXUXUXJXUXUXUXUXUXUXUXUXUXUXUXUXUXUXUXUXUXUXUXUXUXUXUXUXUXUXUXUXUXUXUXUX",
"UXUXUXUXUXUXUXUXUXUXHXS.,.1.} 4XUXUXUXUXUXJXNXLX9XVXUXnXwXUXUXUXUXUXUXUXUXUXUXUXUXUXUXUXUXUXUXUXUXUXUXUXUXUXUXUXUXUXUXUXUXUXUXUX",
"UXUXUXUXUXUXUXUXUXUXG.@XZX$X-.| KXUX XR.B.k.D.f.x.c.L.j.OXyX`.7XUXUXUXUXUXUXUXUXUXUXUXUXUXUXUXUXUXUXUXUXUXUXUXUXUXUXUXUXUXUXUXUX",
"UXUXUXUXUXUXUXUXUXUX@.$XfX#X;.$.<XUXI.L.;X;X].;X>X].W.!.t l z 7 n.UXKXUXUXUXUXUXUXUXHXV.U I ;XUXJXUXUXUXUXUXUXUXHXUXUXJXUXUXUXUX",
"UXUXUXUXUXUXUXUXUXUX+.:.3.2.*.{ iXvXlXqXzXlXlXbXvXHXUX2Xl MX{.h ; 7XUXUXUXUXUXUXUXUXE B F A   <XUXHXfX8X<XQ.=XR.W.qXvXL.VXUXUXUX",
"UXUXUXUXUXUXUXUXUXUXlX} &.&.#.oXUXUXm.=XUXUXLXHXCXxXGXm.z {.).g 2 b.cXwXlXlXlXlXvX6XN K J Z b Y UXsX` x.z.z.m.l.P.$ K.% DXUXUXUX",
"UXUXUXUXUXUXUXUXUXUXUXlXS.F.4XUXUXUXZ.T.UXUXUXUXUXUXUXE.8 j h 5 ; :XUXHXHXHXHXvXJX4XM D Z C . Y UXUXvXJXHXmXHXvXHXHXHXbXUXUXUXUX",
"UXUXUXUXUXUXUXUXUXUXUXbXvXUXUXUXUXUXJXUXUXUXUXUXUXbX7XSXp > 3 > p hXvXUXUXUXUXUXUXUXI b m n   Q.UXJX!.VXUXUXUXUXUXUXUXUXUXUXUXUX",
"UXUXUXUXUXUXUXUXUXUXUXqXLXUXUXUXUXUXUXUXUXUXUXvXqXlXJXUXxXP.~.P.IXUXlXqXJXUXUXUXUXUXbXI o + B.UXUXUXR.DXUXUXUXUXUXUXUXUXUXUXUXUX",
"UXUXUXUXUXUXUXUXUXUXHXwXUXUXUXUXUXUXUXUXUXvXqXxXJXUXUXUX7XUXUXbXbXUXUXHXqXbXUXUXUXUXUXUXAXPXlXUXUXUXxXUXUXUXUXUXUXUXUXUXUXUXUXUX",
"UXUXUXUXUXUXUXUXUXUXxXbXUXUXUXUXUXUXUXHXqXlXJXUXUXUXUXbXlXUXUXHXqXUXUXUXUXlXqXHXUXUXUXUXUXUXlXlXUXUXUXUXUXUXUXUXUXUXUXUXUXUXUXUX",
"UXUXUXUXUXUXUXUXKXUXqXPXUXUXUXUXUXHXqXdXJXUXUXUXUXUXUX7XJXUXUXUXtXHXUXUXUXUXJXqXlXUXUXUXUXUXJX7XJXUXUXUXUXUXUXUXUXUXUXUXUXUXUXUX",
"UXUXUXUXUXUXUXUXUXLXwXUXUXUXUXHXqXwXJXUXUXUXUXUXUXUXxXxXUXUXUXUXvXlXUXUXUXUXUXUXlXqXHXUXUXUXUXxXxXUXUXUXUXUXUXUXUXUXUXUXUXUXUXUX",
"UXUXUXUXUXUXUXvX.XY.0XUXUXHXqXwXJXUXUXUXUXUXUXUXUXUX7XJXUXUXUXUXUXwXUXUXUXUXUXUXUXJXwXhXJXUXUXUX7XUXUXUXUXUXUXUXUXUXUXUXUXUXUXUX",
"UXUXUXUXUXUXdX` [ ] Q 7XlXqXHXUXUXUXUXUXUXUXUXUXUXvXhXUXUXUXUXUXUXlXvXUXUXUXUXUXUXUXUXvX7XvXUXUXlXlXUXUXUXUXUXUXUXUXUXUXUXUXUXUX",
"UXUXUXUXUXUXA.XXBX|.( ~ LXUXUXUXUXUXUXUXUXUXUXUXUXqXPXUXUXUXUXUXUXHXwXUXUXUXUXUXUXUXUXUXUXwXwXJXUX9X7X0XHXUXUXUXUXUXUXUXUXUXUXUX",
"UXUXUXUXUXLX` |.XX[ ( W 5XlXdXlXlXbXvXvXCXHXHXJXbXwXUXUXUXUXUXUXUXUXlXJXUXUXUXUXUXUXUXUXUXUXHXqXlXS.<.>.X.lXUXUXUXUXUXUXUXUXUXUX",
"UXUXUXUXUXUX` ) ' _ / ! LXJXHXHXvXCXvXbXlXlXhXxX;XwXtXwXhXwXtXhXwXxX7XqXvXbXvXCXHXHXPXJXUXJXUXUXS.@XgX$X=.o.UXUXUXUXUXUXUXUXUXUX",
"UXUXUXUXUXUXwXQ ^ ^ W  XxXUXUXUXUXUXUXUXUXUXUXmXlXUXUXUXUXUXJXPXHXHXvX7XbXbXcXxXlXlXtXwXhXtXwX9X@.%XfX#X-.%.nXUXUXUXUXUXUXUXUXUX",
"UXUXUXUXUXUXUX4XY.C.wXUXvX7XbXUXUXUXUXUXUXUXUX7XHXUXUXUXUXUXUXUXUXUXUXlXHXUXUXUXUXUXUXUXUXUXUXUXO.2.3.2.*.| KXUXUXUXUXUXUXUXUXUX",
"UXUXUXUXUXUXJXwXUXvXvXUXUXUXiXqXUXUXUXUXUXUXHXwXUXUXUXUXUXUXUXUXUXUXUXvXdXUXUXUXUXUXUXUXUXUXHXlXQ.%.*.*.#.oXUXUXUXUXUXUXUXUXUXUX",
"UXUXUXUXUXUXxXlXUXHXwXUXUXUXUXHX7XbXUXUXUXUXqXHXUXUXUXUXUXUXUXUXUXUXUXUXqXUXUXUXUXUXUXUXHXwXwXHXUX>XO.O.>XUXUXUXUXUXUXUXUXUXUXUX",
"UXUXUXUXUXUX8XUXUXUXqXUXUXUXUXUXUXdXqXJXUXNXwXUXUXUXUXUXUXUXUXUXUXUXUXUXlXvXUXUXUXUXLXlXqXHXUXUXUXhXKXlXUXUXUXUXUXUXUXUXUXUXUXUX",
"UXUXUXUXUXvXlXUXUXUXwXLXUXUXUXUXUXUXHX7XvXhXHXUXUXUXUXUXUXUXUXUXUXUXUXUXHXtXUXUXUXxX8XvXUXUXUXUXHXwXUXwXHXUXUXUXUXUXUXUXUXUXUXUX",
"UXUXUXUXUXwXHXUXUXUXlXbXUXUXUXUXUXUXUXUXqX;XUXUXUXUXUXUXUXUXUXUXUXUXUXUXUXdXJXvX7XbXUXUXUXUXUXUXlXCXUXlXHXUXUXUXUXUXUXUXUXUXUXUX",
"UXUXUXUXHXwXUXUXUXUXHXlXUXUXUXUXUXUXUXUXlXbXqXxXUXUXUXUXUXUXUXUXUXUXUXUXUXwX>XbXUXUXUXUXUXUXUXJXqXUXUXbXbXUXUXUXUXUXUXUXUXUXUXUX",
"UXUXUXUXxXmXUXUXUXUXJXwXUXJXUXUXUXUXUXHXqXUXUXlXqXUXUXUXUXUXUXUXUXUXUXHXqXhXqXUXUXUXUXUXUXUXUXbXxXUXUXvXxXUXUXUXUXUXUXUXUXUXUXUX",
"UXlXM.p m.IXUXUXUXUXUXhXUXUXUXUXUXUXUXwXHXUXUXUXHX7XbXUXUXUXUXUXUXHXwXwXJXUXwXHXUXUXUXUXUXUXUXwXLXUXUXPXxXUXUXUXUXUXUXUXUXUXUXUX",
"lXa _.c 6 a UXUXHXHXbX>X<X0XQ.0XPXiXW.hXUXUXUXUXUXUXlXqXHXUXUXJXlXqXHXUXUXUXmXlXUXUXUXUXUXUXHXwXUXUXUX:Xn.M.cXUXUXUXUXUXUXUXUXUX",
"M.(.JX[.e : hXUXI.l.k.d.g.f.x.j.7.j.7.UXUXUXUXUXUXUXUXHXdXbXbXqXvXUXUXUXUXUXUXqXUXUXUXUXUXUXlXvXUXUXI.l ^.q - cXUXPXIXHXvXwXwX7X",
"p x [.v 0 > ,XUXbXqXHXlX;XbXwXlXhX7X;XUXUXUXUXUXUXUXUXUXbX;X,XJXUXUXUXUXUXUXUXlXvXUXUXUXUXUXqXUXUXlXk uXeXc 1 n.UXrXk.x.f.f.v.7.",
"E.< w 9 4 = FXUXmXbXwXDXtXUXUXUXUXxXHXUXUXUXUXUXUXUXvX7XlXUXLXqXlXUXUXUXUXUXUXHXwXUXUXUXUXvXlXUXUX1Xd [.).j 4 u UXJX,XwXlX8XwX7X",
"UXn.: > = ;XlXUXyXU.g.4XbXCXUXUXHXqXUXUXUXUXUXUXNXwXlXJXUXUXUXUXlXqXJXUXUXUXUXUXdXJXUXUXUXwXHXUXUXFX- w g 5 , `.UXKXhXUXUXUXUXUX",
"UXUXcXqXFXUXHXwX9X,X XjXHXlXUXUXiXvXUXUXUXUXHXwXdXJXUXUXUXUXUXUXUXJXqXlXUXUXUXUXbXlXUXUXHXwXUXUXUXxXE.* > > y IXUXsX& jXUXJXUXUX",
"UXUXUXUXUXJXUXJXwXNXUXUXHXlXUXHX7XUXUXUXLXhXqXHXUXUXUXUXUXUXUXUXUXUXUXlXqXHXUXUXJXqXUXUXdXvXUXKXqXlXUXcX:X0XUXUXUXBXH.DXUXUXUXUX",
"UXUXUXUXUXUXUXUXUXdXwXUXUX;X7X1XHXUXUXlX8XNXUXUXUXUXUXUXUXUXUXUXUXUXUXUXJXqXlXUXUXxXAXUXlXUXHXqXHXUXUXUXUXUXUXUXUXUXUXUXUXUXUXUX",
"UXUXUXUXUXUXUXUXUXUXvXwXT.i.s.9.7XmX7XbXUXUXUXUXUXUXUXUXUXUXUXUXUXUXUXUXUXUXlXqXUXU.P S h.AXqXJXUXUXUXUXUXUXUXUXUXUXUXUXUXUXUXUX",
"UXUXUXUXUXUXUXUXUXKXUX*Xi.kX-Xy.4.yXUXUXUXUXUXUXUXUXUXUXUXUXUXUXUXUXUXUXUXUXUXUXN.C G D . Y UXUXUXUXUXUXUXUXUXUXUXUXUXUXUXUXUXUX",
"UXUXUXUXUXUXUXUXUXUXUXJ.-XkX-Xu.q.;XvXlXlXlXlXlXlXlXbXlXxXbXxXxXlXbXbXvXcXvXxXAXU F L H m @ AXUXUXUXUXUXUXUXUXUXUXUXUXUXUXUXUXUX",
"UXUXUXUXUXUXUXUXUXUXUXJ.u.a.p.t.w.;XJXHXHXHXHXHXvXHXHXCXCXvXCXvXvXCXvXvXvXvXvXAXP B H V n O CXUXUXUXUXUXUXUXUXUXUXUXUXUXUXUXUXUX",
"UXUXUXUXUXUXUXUXUXUXUXtX6.r.r.e.0.mXwXxXUXUXUXUXUXUXUXUXUXUXUXUXUXUXUXUXUXUXAXvXB.X m n   T UXUXUXUXUXUXUXUXUXUXUXUXUXUXUXUXUXUX",
"UXUXUXUXUXUXUXUXUXUXUXUXwX0.9.&XJXUXUXvXqXwXvXUXUXUXUXUXUXIXIXUXUXUXUXJXlXqXwXJXUXN.@ @ R JXUXUXUXUXUXUXUXUXUXUXUXUXUXUXUXUXUXUX",
"UXUXUXUXUXUXUXUXUXUXUXUXUXUXUXUXUXUXUXUXUXHXlXqXzXUXUXcXM.u y 0XUXLXxXwXHXUXUXUXUXUXUXPXUXUXUXUXUXUXUXUXUXUXUXUXUXUXUXUXUXUXUXUX",
"UXUXUXUXUXUXUXUXUXUXUXUXUXUXUXUXUXUXUXUXUXUXUXUXbXwXdXn._.).g < <XlXtXxXwX,XQ.;XR.W.wXxXc.LXUXUXUXUXUXUXUXUXUXUXUXUXUXUXUXUXUXUX",
"UXUXUXUXUXUXUXUXUXUXUXUXUXUXUXUXUXUXUXUXUXUXUXUXUXUX;Xk uXeXx 3 s UXrXd.c.z.z.c.l.L.$ Z.7.IXUXUXUXUXUXUXUXUXUXUXUXUXUXUXUXUXUXUX",
"UXUXUXUXUXUXUXUXUXUXUXUXUXUXUXUXUXUXUXUXUXUXUXUXUXUX2Xf /.^.e 3 a UXUXNXHXJXvXNXvXHXHXHXvXUXUXUXUXUXUXUXUXUXUXUXUXUXUXUXUXUXUXUX",
"UXUXUXUXUXUXUXUXUXUXUXUXUXUXUXUXUXUXUXUXUXUXUXUXUXUXIXr 5 5 4 : 3XUXnX+XUXUXUXUXUXUXUXUXUXUXUXUXUXUXUXUXUXUXUXUXUXUXUXUXUXUXUXUX",
"UXUXUXUXUXUXUXUXUXUXUXUXUXUXUXUXUXUXUXUXUXUXUXUXUXUXUXdXr < = '.UXUXsX# jXUXUXUXUXUXUXUXUXUXUXUXUXUXUXUXUXUXUXUXUXUXUXUXUXUXUXUX",
"UXUXUXUXUXUXUXUXUXUXUXUXUXUXUXUXUXUXUXUXUXUXUXUXUXUXUXUXIXSXFXUXUXUXJX3XUXUXUXUXUXUXUXUXUXUXUXUXUXUXUXUXUXUXUXUXUXUXUXUXUXUXUXUX",
"UXUXUXUXUXUXUXUXUXUXUXUXUXUXUXUXUXUXUXUXUXUXUXUXUXUXUXKXUXUXUXUXUXUXUXUXUXUXUXUXUXUXUXUXUXUXUXUXUXUXUXUXUXUXUXUXUXUXUXUXUXUXUXUX",
"UXUXUXUXUXUXUXUXUXUXUXUXUXUXUXUXUXUXUXUXUXUXUXUXUXUXUXUXUXUXUXUXUXUXUXUXUXUXUXUXUXUXUXUXUXUXUXUXUXUXUXUXUXUXUXUXUXUXUXUXUXUXUXUX",
"UXUXUXUXUXUXUXUXUXUXUXUXUXUXUXUXUXUXUXUXUXUXUXUXUXUXUXUXUXUXUXUXUXUXUXUXUXUXUXUXUXUXUXUXUXUXUXUXUXUXUXUXUXUXUXUXUXUXUXUXUXUXUXUX",
"UXUXUXUXUXUXUXUXUXUXUXUXUXUXUXUXUXUXUXUXUXUXUXUXUXUXUXUXUXUXUXUXUXUXUXUXUXUXUXUXUXUXUXUXUXUXUXUXUXUXUXUXUXUXUXUXUXUXUXUXUXUXUXUX",
"UXUXUXUXUXUXUXUXUXUXUXUXUXUXUXUXUXUXUXUXUXUXUXUXUXUXUXUXUXUXUXUXUXUXUXUXUXUXUXUXUXUXUXUXUXUXUXUXUXUXUXUXUXUXUXUXUXUXUXUXUXUXUXUX",
"UXUXUXUXUXUXUXUXUXUXUXUXUXUXUXUXUXUXUXUXUXUXUXUXUXUXUXUXUXUXUXUXUXUXUXUXUXUXUXUXUXUXUXUXUXUXUXUXUXUXUXUXUXUXUXUXUXUXUXUXUXUXUXUX",
"UXUXUXUXUXUXUXUXUXUXUXUXUXUXUXUXUXUXUXUXUXUXUXUXUXUXUXUXUXUXUXUXUXUXUXUXUXUXUXUXUXUXUXUXUXUXUXUXUXUXUXUXUXUXUXUXUXUXUXUXUXUXUXUX",
"UXUXUXUXUXUXUXUXUXUXUXUXUXUXUXUXUXUXUXUXUXUXUXUXUXUXUXUXUXUXUXUXUXUXUXUXUXUXUXUXUXUXUXUXUXUXUXUXUXUXUXUXUXUXUXUXUXUXUXUXUXUXUXUX",
"UXUXUXUXUXUXUXUXUXUXUXUXUXUXUXUXUXUXUXUXUXUXUXUXUXUXUXUXUXUXUXUXUXUXUXUXUXUXUXUXUXUXUXUXUXUXUXUXUXUXUXUXUXUXUXUXUXUXUXUXUXUXUXUX"
};
