/* XPM */
static char * sage_xpm[] = {
"64 64 130 2",
"  	c None",
". 	c #FFFFFF",
"+ 	c #9C9CFF",
"@ 	c #9797FF",
"# 	c #7F7FFF",
"$ 	c #9090FF",
"% 	c #C4C4FF",
"& 	c #8E8EFF",
"* 	c #E9E9FF",
"= 	c #FEFEFF",
"- 	c #EDEDFF",
"; 	c #A2A2FF",
"> 	c #9E9EFF",
", 	c #9999FF",
"' 	c #9595FF",
") 	c #8C8CFF",
"! 	c #8787FF",
"~ 	c #8383FF",
"{ 	c #8181FF",
"] 	c #FAFAFF",
"^ 	c #F6F6FF",
"/ 	c #F1F1FF",
"( 	c #E8E8FF",
"_ 	c #E4E4FF",
": 	c #DFDFFF",
"< 	c #DBDBFF",
"[ 	c #8282FF",
"} 	c #F5F5FF",
"| 	c #E7E7FF",
"1 	c #9F9FFF",
"2 	c #A4A4FF",
"3 	c #A8A8FF",
"4 	c #ACACFF",
"5 	c #B1B1FF",
"6 	c #B5B5FF",
"7 	c #B9B9FF",
"8 	c #BDBDFF",
"9 	c #C2C2FF",
"0 	c #C6C6FF",
"a 	c #CACAFF",
"b 	c #CFCFFF",
"c 	c #D3D3FF",
"d 	c #D7D7FF",
"e 	c #E0E0FF",
"f 	c #E6E6FF",
"g 	c #A7A7FF",
"h 	c #C0C0FF",
"i 	c #B8B8FF",
"j 	c #8888FF",
"k 	c #DDDDFF",
"l 	c #FBFBFF",
"m 	c #AFAFFF",
"n 	c #C7C7FF",
"o 	c #F8F8FF",
"p 	c #9D9DFF",
"q 	c #FCFCFF",
"r 	c #A1A1FF",
"s 	c #DEDEFF",
"t 	c #BABAFF",
"u 	c #AAAAFF",
"v 	c #ECECFF",
"w 	c #E1E1FF",
"x 	c #B0B0FF",
"y 	c #C9C9FF",
"z 	c #F7F7FF",
"A 	c #EAEAFF",
"B 	c #D5D5FF",
"C 	c #9696FF",
"D 	c #EFEFFF",
"E 	c #B2B2FF",
"F 	c #F0F0FF",
"G 	c #F3F3FF",
"H 	c #8F8FFF",
"I 	c #E3E3FF",
"J 	c #A5A5FF",
"K 	c #B4B4FF",
"L 	c #C3C3FF",
"M 	c #D1D1FF",
"N 	c #F9F9FF",
"O 	c #FDFDFF",
"P 	c #DCDCFF",
"Q 	c #8686FF",
"R 	c #8D8DFF",
"S 	c #9191FF",
"T 	c #A0A0FF",
"U 	c #BEBEFF",
"V 	c #CCCCFF",
"W 	c #F4F4FF",
"X 	c #8080FF",
"Y 	c #C1C1FF",
"Z 	c #F2F2FF",
"` 	c #DADAFF",
" .	c #E5E5FF",
"..	c #9393FF",
"+.	c #8585FF",
"@.	c #A3A3FF",
"#.	c #E2E2FF",
"$.	c #D4D4FF",
"%.	c #B7B7FF",
"&.	c #A9A9FF",
"*.	c #D6D6FF",
"=.	c #AEAEFF",
"-.	c #BFBFFF",
";.	c #D9D9FF",
">.	c #ADADFF",
",.	c #9898FF",
"'.	c #C5C5FF",
").	c #9B9BFF",
"!.	c #BCBCFF",
"~.	c #B3B3FF",
"{.	c #D0D0FF",
"].	c #C8C8FF",
"^.	c #CECEFF",
"/.	c #B6B6FF",
"(.	c #9494FF",
"_.	c #BBBBFF",
":.	c #D8D8FF",
"<.	c #8A8AFF",
"[.	c #EEEEFF",
"}.	c #ABABFF",
"|.	c #8989FF",
"1.	c #8484FF",
"2.	c #EBEBFF",
"3.	c #8B8BFF",
"4.	c #9292FF",
"5.	c #9A9AFF",
"6.	c #CDCDFF",
"7.	c #A6A6FF",
"8.	c #D2D2FF",
"9.	c #CBCBFF",
". . . . . . . . . . . . . . . . . . . . . . . . . . . . . . . . . . . . . . . . . . . . . . . . . . . . . . . . . . . . . . . . ",
"+ @ @ @ @ @ @ @ @ @ @ @ @ @ @ @ @ @ @ @ @ @ @ @ @ @ @ @ @ @ @ @ @ @ @ @ @ @ @ @ @ @ @ @ @ @ @ @ @ @ @ @ @ @ @ @ @ @ @ @ @ @ @ @ ",
"# # # # # # # # # # # # # # # # # # # # # # # # # # # # # # # # # # # # # # # # # # # # # # # # # # # # # # # # # # # # # # # # ",
"# # # # # # # # # # # # # # # # # # # # # $ % % & # # # # # # # # # # # # # # # # # # # # # # # # # # # # # # # # # # # # # # # ",
"# # # # # # # # # # # # # # # # # # # # # * = = - ; > , ' $ ) ! ~ # # # # # # # # # { > ~ # # # # # # # # # # # # # # # # # # # ",
"# # # # # # # # # # # # # # # # # # # # & = = . . . . . . . . . . = ] ^ / - ( _ : < ^ = / [ # # # # # # # # # # # # # # # # # # ",
"# # # # # # # # # # # # # # # # # # # # # } . = | 1 2 3 4 5 6 7 8 9 0 a b c d < e f = . . g # # # # # # # # # # # # # # # # # # ",
"# # # # # # # # # # # # # # # # # # # # h . ^ i j # # # # # # # # # # # # # # # # # k . l - j # # # # # # # # # # # # # # # # # ",
"# # # # # # # # # # # # # # # # # # # m . < n # # # # # # # # # # # # # # # # # # # a o p q k { # # # # # # # # # # # # # # # # ",
"# # # # # # # # # # # # # # # # # # r q s t u # # # # # # # # # # # # # # # # # # { v w # x . y # # # # # # # # # # # # # # # # ",
"# # # # # # # # # # # # # # # # # ' z A ! B & # # # # # # # # # # # # # # # # # C D . = y # n . E # # # # # # # # # # # # # # # ",
"# # # # # # # # # # # # # # # # ) F G H # I # # # # # # # # # # # ! C J K L M e N . . = O H { P q > # # # # # # # # # # # # # # ",
"# # # # # # # # # # # # # # [ Q f N , # R B # # ~ S T m U V < A N . . . . . . . . . . . = g # ! v W H # # # # # # # # # # # # # ",
"# # # # # # # # # # # # X Y Z ] = 7 u i ` *  .W = . . . . . . . . . . . . . . . . . . . = C # # ..z | +.# # # # # # # # # # # # ",
"# # # # # # # # # # # # @.= . . . . . . . . . . . . . . . . . . . l - w I D #.t < . . q . v Q # # 2 = B X # # # # # # # # # # # ",
"# # # # # # # # # # # # : . . . . . . . . . . . = Z I $.0 %.3 , R &.*.< =.+.# # G . . 5 q . d X # # 7 . -.# # # # # # # # # # # ",
"# # # # # # # # # # R ;.. . . . . N ` V D >.> H [ # # ,.'.p ).a #.!.& # # # # ' . . o { ~.. . !.# # # {.= 3 # # # # # # # # # # ",
"# # # # # # # # # E z ] 7 A . . . . ].).].# # # # # [ G = = ^.).# # # # # # # /.. . ;.# # b . = ; # # ~ I N C # # # # # # # # # ",
"# # # # # ,.>.(.s . : S # w  .^.. . . ;./.1 >._.a :.#.O = O & # # # # # # # # d . . i # # ~ f . ^ H # # ) / D <.# # # # # # # # ",
"# # # # t = = = o ~.~ $ 1 l I a G . . . _ h E 2 ' ! # &.;.x # # # # # # # # X ^ . . @ # # # H } . f ~ # # , l e [ # # # # # # # ",
"# # # # [.= . . v e k b a . ].C ) I . . q T # # # # # # # # # # # # # # # # , . . } X # # # # ; = . b # # # 4 . o y # # # # # # ",
"# # # # B . = q H # # # }.. , # # |.[.. . o C # # # # # # # # # # # # # # # t . . B # # # # # # !.. . K # # 1.q . = ).# # # # # ",
"# # # # S = F 4 # # # # % O ~ # # # ~.o . . Z & # # # # # # # # # # # # # # < . . K # # # # # # X d . q + # # F . q j # # # # # ",
"# # # # +.. t # # # # # k ( # # # # % 5 N . . A j # # # # # # # # # # # # [ N . . ..# # # # # # # Q 2.. Z 3.# s v 2.# # # # # # ",
"# # # # ) . ~.# # # # # } b # # # # s 1.; q . . e ~ # # # # # # # # # # # + . . Z # # # # # # # # # (.N . e H ;.7 . H # # # # # ",
"# # # # ... 4 # # # # & . %.# # # [ w # # =.. . . B X # # # # # # # # # # 8 . . M # # # # # # # # # # &.. . w 4 4.. /.# # # # # ",
"# # # # 5.. J # # # # g . > # # C  .D H # # !.. . . ].# # # # # # # # # # s . . x # # # # # # # # # # # % . . m # v P # # # # # ",
"# # # # ; . > # # # # h = Q # # M = = '.# # # a . . . t # # # # # # # # ~ l . . H # # # # # # # # # # # { _ . N C 0 q Q # # # # ",
"# # # # &.. ,.# # # # :.- # # # 8 = = 5 # # # X *.. . = 4 # # # # # # # T . . [.# # # # # # # # # # # # # y W . - J . u # # # # ",
"# # # # x . S # # # # / $.# # # %.{.; X # # # # ~ w . . q r # # # # # # Y . . ^.# # # # # # # # # # # # X _ ).l . ;.z {.# # # # ",
"# # # # %.. <.# # # <.. _.# # $ : { # # # # # # # j 2.. . o @ # # # # # #.. . >.# # # # # # # # # # # # T 0 # 5 . . ( } { # # # ",
"# # # # U . ~ # # # ; . @.# # < C # # # # # # # # # H Z . . Z & # # # +.O . . ) # # # # # # # # # # # # ^.,.# # 6.. = . k H # # ",
"# # # # '.q # # # # _.. <.# E -.# # # # # # # # # # # @ o . . A j # # 2 . . 2.# # # # # # # # # # # # 1.I # # ~ T W . . = V # # ",
"# # # # V ^ # # # # $./ # R w [ # # # # # # # # # # # # r q . . w ~ # '.. . a # # # # # # # # # # # # E M '.#.q . . . . = e # # ",
"# # # # c D # # # # v :.# :., # # # # # # # # # # # # # # >.= . . B X f . . &.# # # # # # # X (.5 b v . . . . . . W . . q u # # ",
"# # # # ` ( # # # Q = h =.L # # # # # # # # # # # # # # # # t . . . f = . = |.# # # 1.> !.;.^ . . . . . q #.% g <.2.. s ) # # # ",
"# # # # w w # # # > . m #.~ # # # # # # # # # # # # # # # # # ].. . . . . = =.3 0 I q . . . . . } :.d % ~ # # # 7.. . @ # # # # ",
"# # # # ( ` # # # %.. ` p # # # # # # # # # # # # # # # # # # X ( . . . . . . . . . . . v b 5 (.X 1 [.(.# # # # w . P # # # # # ",
"# # # # F *.# # # b N ].# # # # # # # # # # { & ).&.%.% 8.e - l . . . . . . . q I '.3 <.# # # # & q = P # # # + . . r # # # # # ",
"# # # =.. q p # +./ o +.# +...T =.!.y d  .Z = . . . . . . . . . . . . . . = G 1.# # # # # # # # & O = k # # # *.. f # # # # # # ",
"# # # ` . . * !.N . = F z . . . . . . . . . . . . N 2.k {.9 K g > Z . . = = >.# # # # # # # # # # x  .H # # 4.= . 4 # # # # # # ",
"# # # &.O . q . . . . . . . . = W f :.9.8 m ; (.Q # # # # # # # # L . O s 7.# # # # # # # # # # # ' y # # # V . D { # # # # # # ",
"# # # # Q Y . s = . . D }.p H [ # # # # # # # # # # # # # # # # # | . V # # # # # # # # # # # # # @ n # # <.l . %.# # # # # # # ",
"# # # # # # 9 . I z . . ^.{ # # # # # # # # # # # # # # # # # # S . . ; # # # # # # # # # # # # # ,.0 # # Y . ^ +.# # # # # # # ",
"# # # # # # # % . ].9.. . B [ # # # # # # # # # # # # # # # # # t . ^ { # # # # # # # # # # # # # 5.% # +.^ . 9 # # # # # # # # ",
"# # # # # # # # n . 0 L . . P +.# # # # # # # # # # # # # # # # _ . b # # # # # # # # # # # # # # + 9 # /.. l 3.# # # # # # # # ",
"# # # # # # # # # y . % t . . #.j # # # # # # # # # # # # # # & . . J # # # # # # # # # # # # # # > h { D . V # # # # # # # # # ",
"# # # # # # # # # X V . Y E = . ( 3.# # # # # # # # # # # # # %.. o [ # # # # # # # # # # # # # # T U }.. = ..# # # # # # # # # ",
"# # # # # # # # # # X ^.. -.}.q . - H # # # # # # # # # # # # w . 8.# # C ..# # # # # # # # # # # ; !.f . d # # # # # # # # # # ",
"# # # # # # # # # # # X {.. 8 2 ] . / (.# # # # # # # # # # ) = . 3 # x = = u # # # # # # # # # # 2 V . . + # # # # # # # # # # ",
"# # # # # # # # # # # # { 8.. _.p z . } , # # # # # # # # # K . ] &.'.G = . D 8 ; ! # # # # # # # 7.2.. #.# # # # # # # # # # # ",
"# # # # # # # # # # # # # { $.. i ,.W . o 1 # # # # # # 3.u / . Z t ).p [.2.> 2 -.` #.{.K , [ # [ M . . g # # # # # # # # # # # ",
"# # # # # # # # # # # # # # { *.. /.C / . l 7.# & >.V w *.!.= . }.# # # { X # # # # # S 4 ].:  ./ . . = ) # # # # # # # # # # # ",
"# # # # # # # # # # # # # # # [ :.. N W Z . = - c K ' X # 5 . l +.# # # # # # # # # # j 4 M } . . . = = 5 # # # # # # # # # # # ",
"# # # # # # # # # # # # # # # # ~ / = . G F . = 6 # # # # < . :.# # # # # # # # ,.8 #.O . . . . ^ = = q R # # # # # # # # # # # ",
"# # # # # # # # # # # # # # # # # =.O = . A A . . 8 # # ! q . =.# # # # Q 3 6.Z . . . . l P %.4.+.E 9.+ # # # # # # # # # # # # ",
"# # # # # # # # # # # # # # # # # # R <.4 - . ^ . . '.# =.. q ! # (.7 s q . . . . F 9.7.+.# # # # # # # # # # # # # # # # # # # ",
"# # # # # # # # # # # # # # # # # # # # # [ K G . . . {. ..  .a D . . . . O e _.C # # # # # # # # # # # # # # # # # # # # # # # ",
"# # # # # # # # # # # # # # # # # # # # # # # 1.8 q . . . . . . . . G b u ! # # # # # # # # # # # # # # # # # # # # # # # # # # ",
"# # # # # # # # # # # # # # # # # # # # # # # # # j F . . . = _ -., X # # # # # # # # # # # # # # # # # # # # # # # # # # # # # ",
"# # # # # # # # # # # # # # # # # # # # # # # # # # 7.= = = n # # # # # # # # # # # # # # # # # # # # # # # # # # # # # # # # # ",
"# # # # # # # # # # # # # # # # # # # # # # # # # # { 9 - ^.3.# # # # # # # # # # # # # # # # # # # # # # # # # # # # # # # # # ",
"# # # # # # # # # # # # # # # # # # # # # # # # # # # # # # # # # # # # # # # # # # # # # # # # # # # # # # # # # # # # # # # # ",
"# # # # # # # # # # # # # # # # # # # # # # # # # # # # # # # # # # # # # # # # # # # # # # # # # # # # # # # # # # # # # # # # "};
