/* XPM */
static char *scratch1[] = {
/* columns rows colors chars-per-pixel */
"64 64 236 2 ",
"   c #010101",
".  c #060708",
"X  c #0B0B0B",
"o  c #110E0F",
"O  c #131313",
"+  c #181616",
"@  c #15171A",
"#  c #171A1E",
"$  c #1E1D1D",
"%  c #291E17",
"&  c #261D18",
"*  c #291C1B",
"=  c #351F14",
"-  c #3A220E",
";  c #2C231D",
":  c #372114",
">  c #392112",
",  c #31211A",
"<  c #3D2A1E",
"1  c #1D1E21",
"2  c #1F2125",
"3  c #232222",
"4  c #2B2524",
"5  c #25272C",
"6  c #2A2728",
"7  c #2C2A2B",
"8  c #3A2622",
"9  c #362922",
"0  c #3C2B23",
"q  c #322D2B",
"w  c #35302F",
"e  c #3C322C",
"r  c #363233",
"t  c #393637",
"y  c #3F3835",
"u  c #373538",
"i  c #3D3A3A",
"p  c #45290F",
"a  c #5A2F0A",
"s  c #462C13",
"d  c #4A2F17",
"f  c #492F18",
"g  c #4A311B",
"h  c #553516",
"j  c #5F3610",
"k  c #5C3917",
"l  c #52371F",
"z  c #58371B",
"x  c #57391F",
"c  c #5D3A1A",
"v  c #6F3B04",
"b  c #6D3B0C",
"n  c #763F0C",
"m  c #643B15",
"M  c #6C3E13",
"N  c #613C1A",
"B  c #683F19",
"V  c #412E20",
"C  c #453223",
"Z  c #4B3422",
"A  c #4D3929",
"S  c #533923",
"D  c #5A3C22",
"F  c #513B29",
"G  c #453A33",
"H  c #4C3C31",
"J  c #403D3E",
"K  c #483F3C",
"L  c #523F32",
"P  c #74410F",
"I  c #7C430D",
"U  c #704114",
"Y  c #73471C",
"T  c #75481E",
"R  c #7B491A",
"E  c #45403E",
"W  c #544438",
"Q  c #6D4826",
"!  c #6E4B2B",
"~  c #714720",
"^  c #734A23",
"/  c #704D2B",
"(  c #694E37",
")  c #6A513C",
"_  c #72573A",
"`  c #433F40",
"'  c #454243",
"]  c #4A4645",
"[  c #4D4A4B",
"{  c #5A4E43",
"}  c #524D4D",
"|  c #555252",
" . c #5D5A5A",
".. c #6E5845",
"X. c #6D5B4D",
"o. c #705D4E",
"O. c #6C5D51",
"+. c #6F6258",
"@. c #746457",
"#. c #71655B",
"$. c #776858",
"%. c #676465",
"&. c #686566",
"*. c #6A6768",
"=. c #6D6B6B",
"-. c #756B65",
";. c #7B6D63",
":. c #716E6D",
">. c #796F68",
",. c #757374",
"<. c #7B7571",
"1. c #797778",
"2. c #7D7B7B",
"3. c #844103",
"4. c #8C4402",
"5. c #8E4805",
"6. c #82450D",
"7. c #86480E",
"8. c #8C4A0C",
"9. c #944C06",
"0. c #9E4F03",
"q. c #944E0A",
"w. c #984F08",
"e. c #9F5207",
"r. c #9B5109",
"t. c #874A10",
"y. c #8A4D13",
"u. c #884F19",
"i. c #A45405",
"p. c #A95604",
"a. c #A75803",
"s. c #AB5806",
"d. c #A05408",
"f. c #B15702",
"g. c #B35B03",
"h. c #BD5F02",
"j. c #BE6103",
"k. c #C46302",
"l. c #CC6601",
"z. c #CD6803",
"x. c #C2670B",
"c. c #D06600",
"v. c #D36A01",
"b. c #DC6D00",
"n. c #E26F00",
"m. c #E47200",
"M. c #EC7600",
"N. c #EE7800",
"B. c #F47B00",
"V. c #FF7F00",
"C. c #C07620",
"Z. c #817670",
"A. c #837F7D",
"S. c #FF8000",
"D. c #FF8409",
"F. c #FF880F",
"G. c #E78014",
"H. c #FF8E1A",
"J. c #FF911E",
"K. c #E08425",
"L. c #FF9322",
"P. c #F59832",
"I. c #FF9B33",
"U. c #FF9F38",
"Y. c #FFA23D",
"T. c #A88158",
"R. c #9F8467",
"E. c #9B846B",
"W. c #F7AE5B",
"Q. c #FFB05A",
"!. c #EAAB64",
"~. c #FFB565",
"^. c #FFBB6E",
"/. c #817F80",
"(. c #858383",
"). c #898584",
"_. c #8E8987",
"`. c #8A8788",
"'. c #8D8B8C",
"]. c #918E8F",
"[. c #94908F",
"{. c #969494",
"}. c #999798",
"|. c #9D9B9C",
" X c #A29E9C",
".X c #A19FA0",
"XX c #A5A4A4",
"oX c #A8A6A7",
"OX c #ACABAC",
"+X c #B0AFAF",
"@X c #B0AFB0",
"#X c #B4B3B3",
"$X c #BCBBBC",
"%X c #C4AE94",
"&X c #C0BFBF",
"*X c #FFC481",
"=X c #FFCE92",
"-X c #FFD299",
";X c #EDD1A9",
":X c #FFD3A0",
">X c #FFDAAD",
",X c #FFDEB2",
"<X c #FFDFBA",
"1X c #BEBFC1",
"2X c #C4C4C4",
"3X c #C8C7C7",
"4X c #CBCBCC",
"5X c #D4D0CC",
"6X c #CECFD1",
"7X c #D0CFD0",
"8X c #D3D3D3",
"9X c #D9D8D7",
"0X c #D6D7DA",
"qX c #D7D8DB",
"wX c #DBDBDB",
"eX c #FEE6C7",
"rX c #FFEACF",
"tX c #EEE8DE",
"yX c #FFEBD2",
"uX c #F2E8D9",
"iX c #FFEFDC",
"pX c #FFF0DB",
"aX c #DEDFE2",
"sX c #E3E3E3",
"dX c #E8E7E7",
"fX c #E5E7E8",
"gX c #ECECEC",
"hX c #FFF4E4",
"jX c #FFF6EB",
"kX c #EDEEF0",
"lX c #F4F4F4",
"zX c #F8F7F7",
"xX c #FFFAF4",
"cX c #F7F8F9",
"vX c #FFFFFF",
"bX c None",
/* pixels */
"bXbXbXbXbXbXbXbXbXbXbXbXbXbXbXbXbXbXbXbXbXbXbXbXbXbXbXbXbXbXbXbXbXbXbXbXbXbXbXbXbXbXbXbXbXbXbXbXbXbXbXbXbXbXbXbXbXbXbXbXbXbXbXbX",
"bXbXbXbXbXbXbXbXbXbXbXbXbXbXbXbXbXbXbXbXbXbXbXbXbXbXbXbXbXbXbXbXbXbXbXbXbXbXbXbXbXbXbXbXbXbXbXbXbXbXbXbXbXbXbXbXbXbXbXbXbXbXbXbX",
"bXbXbXbXbXbXbXbXbXbXbXbXbXbXbXbXbXbXbXbXbXbXbXbXbXbXbXbXbXbXbXbXbXbXbXbXbXbXbXbXbXbXbXbXbXbXbXbXbXbXbXbXbXbXbXbXbXbXbXbXbXbXbXbX",
"bXbXbXbXbXbXbXbXbXbXbXbXbXbXbXbXbXbXbXbXbXbXbXbXbXbXbXbXbXbXbXbXbXbXbXbXbXbXbXbXbXbXbXbXbXbXbXbXbXbXbXbXbXbXbXbXbXbXbXbXbXbXbXbX",
"bXbXbXbXbXbXbXbXbXbXbXbXbXbXbXbXbXbXbXbXbXbXbXbXbXbXbXbXbXbXbXbXbXbXbXbXbXbXbXbXbXbXbXbXbXbXbXbXbXbXbXbXbXbXbXbXbXbXbXbXbXbXbXbX",
"bXbXbXbXbXbXbXbXbXbXbXbXbXbXbXbXbXbXbXbXbXbXbXbXbXbXbXbXbXbXbXbXbXbXbXbXbXbXbXbXbXbXbXbXbXbXbXbXbXbXbXbXbXbXbXbXbXbXbXbXbXbXbXbX",
"bXbXbXbXbXbXbXbXbXbXbXbXbXbXbXbXbXbXbXbXbXbXbXbXbXbXbXbXbXbXbXbXbXbXbXbXbXbXbXbXbXbXbXbXbXbXbXbXbXbXbXbXbXbXbXbXbXbXbXbXbXbXbXbX",
"bXbXbXbXbXbXbXbXbXbXbXbXbXbXbXbXbXbXbXbXbXbXbXbXbXbXbXbXbXbXbXbXbXbXbXbXbXbXbXbXbXbXbXbXbXbXbXbXbXbXbXbXbXbXbXbXbXbXbXbXbXbXbXbX",
"bXbXbXbXbXbXbXbXbXbXbXbXbXbXbXbXbXbXbXbXbXbXbXbXbXbXbXbXbXbXbXbXbXbXbXbXbXbXbXbXbXbXbXbXbXbXbXbXbXbXbXbXbXbXbXbXbXbXbXbXbXbXbXbX",
"bXbXbXbXbXbXbXbXbXbXbXbXbXbXbXbXbXbXbXbXbXbXbXbXbXbXbXbXbXbXbXbXbXbXbXbXbXbXbXbXu bXbXbXbXbXbXbXbXbXbXbXbXbXbXbXbXbXbXbXbXbXbXbX",
"bXbXbXbXbXbXbXbXbXbXbXbXbXbXbXbXbXbXbXbXbXbXbXbXbXbXbXbXbXbXbXbXbXbXbXbXbXbXbXA s bXbXbXbXbXbXbXbXbXbXbXbXbXbXbXbXbXbXbXbXbXbXbX",
"bXbXbXbXbXbXbXbXbXbXbX9 ] bXbXbXbXbXbXbXbXbXbXbXbXbXbXbXbXbXbXbXbXbXbXbXbXbXW s.i.q bXbXbXbXbXbXbXbXbXbXbXbXbXbXbXbXbXbXbXbXbXbX",
"bXbXbXbXbXbXbXbXbXbXbXI w.A bXbXbXbXbXbXbXbXbXbXbXbXbXbXbXbXbXbXbXbXbXbXbXW s.S.v.V bXbXbXbXbXbXbXbXbXbXbXbXbXbXbXbXbXbXbXbXbXbX",
"bXbXbXbXbXbXbXbXbXbXbXI B.l.m G bXbXbXbXbXbXbXbXbXbXbXbXbXbXbXbXbXbXbXbXF f.S.S.N.k @ bXbXbXbXbXbXbXbXbXbXbXbXbXbXbXbXbXbXbXbXbX",
"bXbXbXbXbXbXbXbXbXbXbXB N.S.N.r.Z bXbXbXbXbXbXbXbXbXbXbXbXbXbXbXbXbXbXF g.V.V.V.V.6.1 bXbXbXbXbXbXbXbXbXbXbXbXbXbXbXbXbXbXbXbXbX",
"bXbXbXbXbXbXbXbXbXbXbXh M.S.S.V.v.U E bXbXbXbXbXbXbXbXbXbXbXbXbXbXbXC.k.S.S.V.V.S.i.4 bXbXbXbXbXbXbXbXbXbXbXbXbXbXbXbXbXbXbXbXbX",
"bXbXbXbXbXbXbXbXbXbXbXS n.S.V.S.S.N.i.S bXbXH S M t.r.i.a.a.i.r.q.I v 9.B.V.V.V.S.v.0 bXbXbXbXbXbXbXbXbXbXbXbXbXbXbXbXbXbXbXbXbX",
"bXbXbXbXbXbXbXbXbXbXbX0 z.S.V.V.V.S.S.v.b > p.m.N.V.S.S.S.S.S.S.V.B.M.m.V.S.V.V.S.N.h # bXbXbXbXbXbXbXbXbXbXbXbXbXbXbXbXbXbXbXbX",
"bXbXbXbXbXbXbXbXbXbXbXG g.S.S.S.V.V.V.S.N.p.j.S.V.V.V.V.S.S.V.V.V.V.V.V.V.V.V.V.S.V.8.6 bXbXbXbXbXbXbXbXbXbXbXbXbXbXbXbXbXbXbXbX",
"bXbXbXbXbXbXbXbXbXbXbXw i.S.S.S.V.V.V.V.S.S.V.V.S.V.V.V.S.S.V.V.V.V.V.V.V.V.S.S.B.N.M.8.e bXbXbXbXbXbXbXbXbXbXbXbXbXbXbXbXbXbXbX",
"bXbXbXbXbXbXbXbXbXbXbXbXq.S.V.V.V.V.V.V.S.V.V.V.V.V.V.V.V.V.V.V.V.V.V.V.V.V.B.f.R ! R p.w.A bXbXbXbXbXbXbXbXbXbXbXbXbXbXbXbXbXbX",
"bXbXbXbXbXbXbXbXbXbXbXbX6.V.S.V.V.V.V.V.V.S.S.S.V.V.V.V.V.V.V.V.V.V.V.V.S.V.i.-.4XaX2XA.~ 3.d bXbXbXbXbXbXbXbXbXbXbXbXbXbXbXbXbX",
"bXbXbXbXbXbXbXbXbXbXbXbXU B.V.V.V.V.V.V.S.N.b.b.M.V.S.V.V.V.V.V.V.V.V.V.S.n.) sXvXvXvXcX1X) 3.g bXbXbXbXbXbXbXbXbXbXbXbXbXbXbXbX",
"bXbXbXbXbXbXbXbXbXbXbXbXc N.V.V.V.V.S.B.p.Q o.o.! q.b.V.V.V.V.V.V.V.V.V.S.g.A.vXvXvXvXvXvX6X) 4.Z bXbXbXbXbXbXbXbXbXbXbXbXbXbXbX",
"bXbXbXbXbXbXbXbXbXbXbXbXl m.S.V.V.S.V.8.<.0XlXlXaX|.( f.V.V.V.V.V.S.V.V.S.a.[.vXvXvXvXvXvXvX$X~ 5.e bXbXbXbXbXbXbXbXbXbXbXbXbXbX",
"bXbXbXbXbXbXbXbXbXbXbXbXD m.S.V.V.S.k.#.kXvXvXvXvXvX0X+.i.V.V.V.V.V.V.V.S.f.).vXvXvXvXvXvXvXvX).9.m bXbXbXbXbXbXbXbXbXbXbXbXbXbX",
"bXbXbXbXbXbXbXbXbXbXbXG e.V.V.V.V.S.t.#XvXvXvXvXvXvXvXsXO.h.S.V.V.V.V.V.S.v.@.lXvXvXvXvXvXvXvXwX/ 0.q bXbXbXbXbXbXbXbXbXbXbXbXbX",
"bXbXbXbXbXbXbXbXbXbXbXB N.S.V.V.S.N.^ qXvXvXvXvXvXvXvXvX4XQ M.S.V.V.V.V.S.N.^ 7XvXvXvXvXvXvXvXcXZ.p.c bXbXbXbXbXbXbXbXbXbXbXbXbX",
"bXbXbXbXbXbXbXbXbXbXC j.S.S.V.V.V.N./ sXvXvXvXvXvXvXvXvXvX(.p.S.V.V.V.V.V.S.i.).vXvXvXvXqXOXgXvXXXw.q.7 bXbXbXbXbXbXbXbXbXbXbXbX",
"bXbXbXbXbXbXbXbXbXbXP B.V.V.V.V.V.B.^ 8XvXvXvXvXvXvXvXvXvX4XT B.V.V.V.V.V.S.N.Q 4XvXvXcX,.o XXvX$Xt.k.9 bXbXbXbXbXbXbXbXbXbXbXbX",
"bXbXbXbXbXbXbXbXbXG h.S.V.V.V.S.V.S.8.OXvXvXvXvXvXlXlXvXvXkX..n.S.V.V.V.V.V.V.h.O.sXvXvX|.[ 2XvX$Xu.m.d bXbXbXbXbXbXbXbXbXbXbXbX",
"bXbXbXbXbXbXbXbXbXm N.S.V.V.V.V.V.S.k.>.cXvXvXvXlX,. .dXvXcX;.c.S.V.V.V.V.V.V.V.i.-.sXvXcXkXvXvX}.E.P.j 3 bXbXbXbXbXbXbXbXbXbXbX",
"bXbXbXbXbXbXbXbXbXr.S.V.V.V.V.V.V.V.N.Y 1XvXvXvXgXJ 4 9XvXcX;.c.S.V.V.S.S.S.S.S.D.d.+.$XlXvXvX7X&.8XeXR.] i bXbXbXbXbXbXbXbXbXbX",
"[ i J bXbXbXbXbXH k.S.V.V.V.V.V.V.S.S.k.O.sXvXvXvX2X$XcXvXkX..n.V.V.V.b.l.v.v.v.v.M.%X,.:.'.`.&.#XvXvXcXwX[.} bXbXbXbXbXbXbX[ [ ",
"bXbXbXJ i i bXbXx m.S.V.V.V.V.V.V.V.V.V.0.-.fXvXvXvXvXvXvX$X$.W.J.D.f.> : : > : : Z 5XlX4XOX+XwXvXvXvXvXvXvX4X&.| bXbXbXbX] ' bX",
"bXbXbXbXbXt u [ B N.S.V.V.V.V.V.V.V.V.S.V.0.O.2XlXvXvXvX6X%.2XxXyX-XT.* 8 0 8 8 , q 4XvXvXvXvXvXvXvXvXvXvXvXvX#Xi 4 t i i bXbXbX",
"bXbXbXbXbXbXbXq - f.S.S.V.V.V.S.V.S.V.V.V.V.x._ ,.}.XX`.%.#XvXvXvXvXlX(.4 , 8 8 % :.zXvXvXvXvXvXvXvXvXvXvXvXdX).1.i i bXbXbXbXbX",
"bXbXbXbXbXbXbXbXa f.V.S.V.V.V.V.V.V.V.V.L.^.,XuX2X X{.OXaXvXvXvXvXvXvXlX+X} 4 * [ qXvXvXvXvXvXvXvXvXvXvXvXvXvXcXcX/.6 bXbXbXbXbX",
"bXbXbXbXbXbXbXbXn S.V.V.V.V.V.V.V.V.D.~.yXvXvXvXvXvXvXvXvXvXvXvXvXvXvXvXvXgX#X XqXvXvXvXvXvXvXvXvXvXvXvXvXvXvXvXvXOXq bXbXbXbXbX",
"bXbXbXbXbXbXbXbXc n.V.V.V.V.V.V.V.V.~.xXvXvXvXvXvXvXvXgX|.$XdXvXvXvXvXvXvXvXvXvXvXvXvXvXvXvXvXvXvXvXvXvXvXvXvXvXvX$X6 bXbXbXbXbX",
"bX` ` [ | } J r & i.S.V.V.V.V.V.V.H.rXvXvXvXvXvXvXvXvX&X .2.*.2.XX8XlXvXvXvXvXvXvXvXvXvXvXvXvXvXvXvXvXvXvXvXvX3X7XOX7 . bXbXbXbX",
"bXbXbXbXbXbXbXbX; s.S.V.V.V.V.S.V.I.jXvXvXvXvXvXvXvXvX|.}.vXsX$X'.:.:.'.#XaXlXvXvXvXvXvXvXvXvXvXvXvXvXvXvXvXcX+X:.' 7 q 4 bXbXbX",
"bXbXbXbXbXbXbXbX5 M B.S.V.V.V.V.V.I.jXvXvXvXvXvXvXvXvX`.OXvXvXvXvXkX8XoX(.*.,.].OX4XsXkXcXvXvXvXvXvXvXvXvXvXvXvXdX .7 $ 7 [ | bX",
"bXbXbXbXbXbXbXbXbXe g.S.V.V.V.V.V.J.iXvXvXvXvXvXvXvXvX(.#XvXvXvXvXvXvXvXcXgX4XoX_.,.=.=.2.'. X$XlXvXvXvXvXvXvXvX4Xi o   bXbXbXbX",
"bXbXbXbXbXbXbXbXbXbXc n.S.V.V.V.V.D.>XvXvXvXvXvXvXvXvX{. XvXvXvXvXvXvXvXvXvXvXvXvXlXgXwX2XOX[ =.lXvXvXvXvXvXvXlX,.$     bXbXbXbX",
"bXbXbXbXbXbXbXbXbXbXr I B.S.V.V.V.V.Q.xXvXvXvXvXvXvXvX2X,.lXvXvXvXvXvXvXvXvXvXvXvXvXvXvXvXoX:.sXvXvXvXvXvXvXvXXXw X   bXbXbXbXbX",
"bXbXbXbXbXbXbXbXbXbXbXq q.B.S.V.V.V.F.>XvXvXvXvXvXvXvXlX,.+XvXvXvXvXvXvXvXvXvXvXvXvXvXlX[.:.wXvXvXvXvXvXvXvX$X' O     bXbXbXbXbX",
"bXbXbXbXbXbXbXbXbXbXbXbX& w.B.V.V.V.V.I.rXvXvXvXvXvXvXvX8X&.#XcXvXvXvXvXvXvXvXvXvXvXqX,./.dXvXvXvXvXvXvXvX&X[ 3     bXbXbXbXbXbX",
"bXbXbXbXbXbXbXbXbXbXbXbXbX; t.N.S.S.V.V.Y.rXvXvXvXvXvXvXvX7X:.(.7XzXvXvXvXvXvXvXsX}.&.XXlXvXvXvXvXvXvXlX XG 2     bXbXbXbXbXbXbX",
"bXbXbXbXbXbXbXbXbXbXbXbXbXbXq M v.S.S.V.V.I.<XvXvXvXvXvXvXvXgXXX=.,.|.&X4X2XOX(.&.].qXvXvXvXvXvXvXvX5X-.w O       bXbXbXbXbXbXbX",
"bXbXbXbXbXbXbXbXbXbXbXbXbXbXbX7 g r.m.S.V.V.H.*XhXvXvXvXvXvXvXvXkX2X{.2.,.2.`.+XsXvXvXvXvXvXvXcX9X_.E $ o       bXbXbXbXbXbXbXbX",
"bXbXbXbXbXbXbXbXbXbXbXbXbXbXbXbX# 6 z e.n.S.V.D.U.-XjXvXvXvXvXvXvXvXvXvXzXcXvXvXvXvXvXvXvXgX$XA.' 3 O       bXbXbXbXbXbXbXbXbXbX",
"bXbXbXbXbXbXbXbXbXbXbXbXbXbXbXbXbXX 1 4 g 6.h.m.B.D.Y.=XpXvXvXvXvXvXvXvXvXvXvXvXvXkXwX#X(.| r $ o         bXbXbXbXbXbXbXbXbXbXbX",
"bXbXbXbXbXbXbXbXbXbXbXbXbXbXbXbXbXbXbX. O $ 4 g U q.g.z.K.!.;XtXgXgXgXdXqX4X#X}.,. .E 6 $ O X         bXbXbXbXbXbXbXbXbXbXbXbXbX",
"bXbXbXbXbXbXbXbXbXbXbXbXbXbXbXbXbXbXbXbXbX  . X @ $ 4 , g s s {  .| ` ' ' 6 4 + O O X             bXbXbXbXbXbXbXbXbXbXbXbXbXbXbX",
"bXbXbXbXbXbXbXbXbXbXbXbXbXbXbXbXbXbXbXbXbXbXbX      .   X     2 3 +     X .                 bXbXbXbXbXbXbXbXbXbXbXbXbXbXbXbXbXbX",
"bXbXbXbXbXbXbXbXbXbXbXbXbXbXbXbXbXbXbXbXbXbXbXbXbXbXbX                            bXbXbXbXbXbXbXbXbXbXbXbXbXbXbXbXbXbXbXbXbXbXbX",
"bXbXbXbXbXbXbXbXbXbXbXbXbXbXbXbXbXbXbXbXbXbXbXbXbXbXbXbXbXbXbXbXbXbXbXbXbXbXbXbXbXbXbXbXbXbXbXbXbXbXbXbXbXbXbXbXbXbXbXbXbXbXbXbX",
"bXbXbXbXbXbXbXbXbXbXbXbXbXbXbXbXbXbXbXbXbXbXbXbXbXbXbXbXbXbXbXbXbXbXbXbXbXbXbXbXbXbXbXbXbXbXbXbXbXbXbXbXbXbXbXbXbXbXbXbXbXbXbXbX",
"bXbXbXbXbXbXbXbXbXbXbXbXbXbXbXbXbXbXbXbXbXbXbXbXbXbXbXbXbXbXbXbXbXbXbXbXbXbXbXbXbXbXbXbXbXbXbXbXbXbXbXbXbXbXbXbXbXbXbXbXbXbXbXbX",
"bXbXbXbXbXbXbXbXbXbXbXbXbXbXbXbXbXbXbXbXbXbXbXbXbXbXbXbXbXbXbXbXbXbXbXbXbXbXbXbXbXbXbXbXbXbXbXbXbXbXbXbXbXbXbXbXbXbXbXbXbXbXbXbX",
"bXbXbXbXbXbXbXbXbXbXbXbXbXbXbXbXbXbXbXbXbXbXbXbXbXbXbXbXbXbXbXbXbXbXbXbXbXbXbXbXbXbXbXbXbXbXbXbXbXbXbXbXbXbXbXbXbXbXbXbXbXbXbXbX",
"bXbXbXbXbXbXbXbXbXbXbXbXbXbXbXbXbXbXbXbXbXbXbXbXbXbXbXbXbXbXbXbXbXbXbXbXbXbXbXbXbXbXbXbXbXbXbXbXbXbXbXbXbXbXbXbXbXbXbXbXbXbXbXbX",
"bXbXbXbXbXbXbXbXbXbXbXbXbXbXbXbXbXbXbXbXbXbXbXbXbXbXbXbXbXbXbXbXbXbXbXbXbXbXbXbXbXbXbXbXbXbXbXbXbXbXbXbXbXbXbXbXbXbXbXbXbXbXbXbX"
};
