/* XPM */
static char *singular[] = {
/* columns rows colors chars-per-pixel */
"48 48 236 2",
"   c #660033",
".  c #6E083B",
"X  c #330066",
"o  c #3D077E",
"O  c #333366",
"+  c #7F0D5D",
"@  c #7A145A",
"#  c #5C295C",
"$  c #762046",
"%  c #663355",
"&  c #5D1166",
"*  c #4A0379",
"=  c #551D7A",
"-  c #660066",
";  c #6B0266",
":  c #660A66",
">  c #660369",
",  c #720C66",
"<  c #7D0A66",
"1  c #6D1D6B",
"2  c #700072",
"3  c #750F75",
"4  c #661575",
"5  c #661C7D",
"6  c #462579",
"7  c #48297B",
"8  c #782066",
"9  c #772E61",
"0  c #663366",
"q  c #7A3669",
"w  c #762076",
"e  c #703D70",
"r  c #AF1B12",
"t  c #9B0235",
"y  c #92073A",
"u  c #9B013A",
"i  c #990C39",
"p  c #991C33",
"a  c #991239",
"s  c #9F1C3F",
"d  c #B00920",
"f  c #A30033",
"g  c #AB0033",
"h  c #A90933",
"j  c #A1003B",
"k  c #B60033",
"l  c #BE0033",
"z  c #B8003A",
"x  c #BD0F38",
"c  c #AB1334",
"v  c #B51733",
"b  c #B11833",
"n  c #992233",
"m  c #9C2B33",
"M  c #993233",
"N  c #A92233",
"B  c #A12B33",
"V  c #A3293D",
"C  c #BF3333",
"Z  c #BE3539",
"A  c #CE0000",
"S  c #CC0D0D",
"D  c #D40000",
"F  c #C20A16",
"G  c #CD001F",
"H  c #CC1111",
"J  c #DA1D1D",
"K  c #E20000",
"L  c #EE0000",
"P  c #F30000",
"I  c #FC0002",
"U  c #F20D0D",
"Y  c #E71B1D",
"T  c #CC270B",
"R  c #FF2100",
"E  c #CC0122",
"W  c #C00029",
"Q  c #D80427",
"!  c #D90D25",
"~  c #D3002B",
"^  c #D4082C",
"/  c #C40033",
"(  c #CC0233",
")  c #C80E38",
"_  c #D60733",
"`  c #DA0132",
"'  c #D60A33",
"]  c #C31333",
"[  c #CC1033",
"{  c #CC183F",
"}  c #E20024",
"|  c #E70033",
" . c #D72128",
".. c #CC2933",
"X. c #DF2033",
"o. c #D02F33",
"O. c #CD3333",
"+. c #E22525",
"@. c #E9363F",
"#. c #BA4833",
"$. c #990045",
"%. c #990048",
"&. c #8B144E",
"*. c #99194C",
"=. c #850A52",
"-. c #940057",
";. c #990057",
":. c #990853",
">. c #96005F",
",. c #99075C",
"<. c #851F5B",
"1. c #9C1852",
"2. c #AF0041",
"3. c #AE0C41",
"4. c #A00D4B",
"5. c #B10A4B",
"6. c #A71B41",
"7. c #A61C4F",
"8. c #B31A44",
"9. c #B0174A",
"0. c #B21A4C",
"q. c #A3005A",
"w. c #88224C",
"e. c #8E334D",
"r. c #993246",
"t. c #993B46",
"y. c #872056",
"u. c #802F57",
"i. c #882A55",
"p. c #992457",
"a. c #99295C",
"s. c #8A3357",
"d. c #AF2849",
"f. c #B4294E",
"g. c #B13C44",
"h. c #A22A5D",
"j. c #A13B50",
"k. c #800066",
"l. c #930060",
"z. c #990066",
"x. c #841E65",
"c. c #991663",
"v. c #991C64",
"b. c #BB0F66",
"n. c #8F2966",
"m. c #992166",
"M. c #912F62",
"N. c #993366",
"B. c #99367C",
"V. c #B1396C",
"C. c #C60644",
"Z. c #CC1144",
"A. c #C4005E",
"S. c #D40050",
"D. c #C53146",
"F. c #C93066",
"G. c #A74141",
"H. c #B54E7F",
"J. c #B75170",
"K. c #996666",
"L. c #AA6677",
"P. c #DA4141",
"I. c #D2475C",
"U. c #CC5151",
"Y. c #F24C4C",
"T. c #C74F6A",
"R. c #CC6666",
"E. c #CC666B",
"W. c #FF6666",
"Q. c #21019E",
"!. c #210B9F",
"~. c #33059E",
"^. c #331F99",
"/. c #04239D",
"(. c #3C2D8C",
"). c #332E99",
"_. c #333399",
"`. c #0D0DB2",
"'. c #240EA0",
"]. c #280BA4",
"[. c #3300B3",
"{. c #3300BF",
"}. c #2211B3",
"|. c #3312BA",
" X c #5A1D8E",
".X c #540099",
"XX c #650093",
"oX c #640099",
"OX c #610A99",
"+X c #57248A",
"@X c #4C269D",
"#X c #5E2B91",
"$X c #5E219D",
"%X c #662B99",
"&X c #400DA6",
"*X c #4C0FA8",
"=X c #411BA7",
"-X c #4A00B0",
";X c #410EB8",
":X c #611FA7",
">X c #5131AC",
",X c #5A37A9",
"<X c #4122B8",
"1X c #684399",
"2X c #665F96",
"3X c #0300CC",
"4X c #1310CC",
"5X c #0900D5",
"6X c #0B00D8",
"7X c #1F00D6",
"8X c #1403D9",
"9X c #170BDC",
"0X c #2508C4",
"qX c #2900CC",
"wX c #3103C7",
"eX c #3301CC",
"rX c #2211CC",
"tX c #2929CC",
"yX c #3329CC",
"uX c #3333CC",
"iX c #3437DC",
"pX c #0000ED",
"aX c #1B00E7",
"sX c #1A1AE6",
"dX c #0000FC",
"fX c #2F0DEE",
"gX c #3302E9",
"hX c #6633CC",
"jX c #840084",
"kX c #845184",
"lX c #B24C8C",
"zX c #9945AB",
"xX c #CC4499",
"cX c #CC6699",
"vX c #9966CC",
"bX c None",
/* pixels */
"bXbXbXbXbXbXbXbXbXbXbXbXbXbXbXbXbXbXbXbXbXbXbXbXbXbXbXbXbXbXbXbXbXbXbXbXbXbXbXbXbXbXbXbXbXbXbXbX",
"bXbXbXbXbXbXbXbXbXbXbXbXbXbXbXbXbXbXbXbXbXbXbXbXbXbXbXbXbXbXbXbXbXiX6X!.bXbXbXbXbXbXbXbXbXbXbXbX",
"bXbXbXbXbXbXbXbXbXbXbXbXbXbXbXbXbXbXbXbXbXbXbXbXbXbXbXbXbXbXbXbXbX6XdXiXbXbXbXbXbXbXbXbXbXbXbXbX",
"bXbXbXbXbXbXbXbXbXbXbXbXbXbXbXbXbXbXbXbXbXbXbXbXbXbXbXbXbXbXbXbXyXpXsXbXbXbXbXbXbXbXbXbXbXbXbXbX",
"bXbXbXbXbXbXbXbXbXbXbXbXbXbXbXbXbXbXbXbXbXbXbXbXbXbXbXbXbXbXbXbX7X9XbXbXbXbXbXbXbXbXbXbXbXbXbXbX",
"bXbXbXbXbXbXbXbXbXbXbXbXbXbXbXbXbXbXbXbXbXbXbXbXbXbXbXbXbXbXbXQ.aX0XbXbXbXbXbXbXbXbXbXbXbXbXbXbX",
"bXbXbXbXbXbXbXbXbXbXbXbXbXbXbXbXbXbXbXbXbXbXbXbXbXbXbXbXbXbX_.eXqXbXbXbXbXbXbXbXbXbXbXbXbXbXbXbX",
"bXbXbXbXbXbXbXbXbXbXbXbXbXbXbXbXbXbXbXbXbXbXbXbXbXbXbXbXbXbXqX8X=XbXbXbXbXbXbXbXbXbXbXbXbXbXbXbX",
"bXbXbXbXbXbXbXbXbXbXbXbXbXbXbXbXbXbXbXbXbXbXbXbXbXbXbXbXbX'.gXeXbXbXbXbXbXbXbXbXbXbXbXbXbXbXbXbX",
"bXbXbXbXbXbXbXbXbXbXbXbXbXbXbXbXbXbXbXbXbXbXbXbXbXbXbXbXhX{.eXbXbXbXbXbXbXbXbXbX).`.bXbXbXbXbXbX",
"bXbXbXbXbXbXbXbXbXbXbXbXbXbXbXbXbXbXbXbXbXbXbXbXbXbXbXbX<X[.~.bXbXbXbXbXbXbXbXbX3XrXbXbXbXbXbXbX",
"bXbXbXbXbXbXbXbXbXbXbXbXbXbXbXbXbXbXbXbXbXbXbXbXbXbXbX>X;X@XbXbXbXbXbXbXbXbXbXrX8XbXbXbXbXbXbXbX",
"bXbXbXbXbXbXbXbXbXbXbXbXbXbXbXbXbXbXbXbXbXbXbXbXbXbXbX-X).bXbXbXbXbXbXbXbXbXbXdXuXbXbXbXbXbXbXbX",
"bXbXbXbXbXbXbXbXbXbXbXbXbXbXbXbXbXbXbXbXbXbXbXbXbXbXoX*XbXbXbXbXbXbXbXbXbXbX/.4XbXbXbXbXbXbXbXbX",
"bXbXbXbXbXbXbXbXbXbXbXbXbXbXbXbXbXbXbXbXbXbXbXbXbX= OX%XbXbXbXbXbXbXbXbXbXbXfXbXbXbXbXbXbXbXbXbX",
"bXbXbXbXbXbXbXbXbXbXbXbXbXbXbXbXbXbXbXbXbXbXbXbXbX%X+XbXbXbXbXbXbXbXbXbXbX|.tXbXbXbXbXbXbXO bXbX",
"bXbXbXbXbXbXbXbXbXbXbXbXbXbXbXbXbXbXbXbXbXbXbXbXoX:Xw bXbXbXbXbXbXbXbXbX&X].bXbXbXbXbXbXbXbXbXbX",
"bXbXbXbXbXbXbXbXbXbXbXbXbXbXbXbXbXbXbXbXbXbXbX4 oX> bXbXbXbXbXbXbXbXbXbX}.,XbXbXbXbXbXbX(.bXbXbX",
"bXbXbXbXbXbXbXbXbXbXbXbXbXbXbXbXbXbXbXbXbXbX- XX0 bXbXbXbXbXbXbXbXbXbX.X#XbXbXbXbXbXbXbXbXbXbXbX",
"bXbXbXbXbXbXbXM.&.k.> $ q bXbXbXbXbXbXbXbXe 2 1 bXbXbXbXbXbXbXbXbXbX1X XbXbXbXbXbXbXbX6 bXbXbXbX",
"bXbXbXbXbXbXq.,.=.=.q 8 z.l.<.bXbXbXbXbXbX3 : bXbXbXbXbXbXbXbXbXbX2Xo bXbXbXbXbXbXbX7 bXbXbXbXbX",
"bXbXbXbXbX. ;.x.bXbXbXbXM.$.z.m.lXbXbXbX@ z.bXbXbXbXbXbXbXbXbXbXbXXXvXbXbXbXbXbXbXbXX bXbXbXbXbX",
"bXbXbXbXcXu -.bXbXbXbXbXbXbXv.< v.y.bX%.,.B.bXbXbXbXbXbXbXbXbXbX* 0 bXbXbXbXbXbXbX# bXbXbXbXbXbX",
"bXbXbXbXxXA.b.bXbXbXbXbXbXbXbXbXl.z.z.z.< bXbXbXbXbXbXbXbXbXzX: bXbXbXbXbXbXbXbXbXkXbXbXbXbXbXbX",
"bXbXbXbXN.j { bXbXbXbXbXbXbXbXbXz.F.u z.bXbXbXbXbXbXbXbXbX5 jXbXbXbXbXbXbXbXbXbX0 bXbXbXbXbXbXbX",
"bXbXbXbXL.t / bXbXbXbXbXbXbXbXh.t t r.v.1.bXbXbXbXbXbXbXbXbX, : bXbXbXbXbXbXbXbXbX% bXbXbXbXbXbX",
"bXbXbXbXbXm ( f.bXbXbXbXbXj.4.C.3.lXbXc.z h bXbXbXbXbXbXbXbXbXs.n.N.bXbXbXbXbXbXbXu.bXbXbXbXbXbX",
"bXbXbXbXbXB ( ( t R.E.M V N 0.n bXbXbXbXn 9.p.bXbXbXbXbXbXbXbXbXN.t K.bXbXbXbXbXbXbX  bXbXbXbXbX",
"bXbXbXbXbXbXD.] l ' k ( k f.*.bXbXbXbXbXbXs 3.t bXbXbXbXbXbXbXbXbX7.y bXbXbXbXbXbXbXw.bXbXbXbXbX",
"bXbXbXbXbXbXbXI.b h N c T.bXbXbXbXbXbXbXbXbX5.2.r.bXbXbXbXbXbXbXbXbXa.a bXbXbXbXbXbXbXi.bXbXbXbX",
"bXbXbXbXbXbXbXbXbXbXbXbXbXbXbXbXbXbXbXbXbXbXcXt O.M bXbXbXbXbXbXbXbXbXg *.bXbXbXbXbXbXM bXbXbXbX",
"bXbXbXbXbXbXbXbXbXbXbXbXbXbXbXbXbXbXbXbXbXbXbXG.Z.( J.bXbXbXbXbXbXbXbXV.8.t.bXbXbXbXbXbXe.bXbXbX",
"bXbXbXbXbXbXbXbXbXbXbXbXbXbXbXbXbXbXbXbXbXbXbXbXn ( x bXbXbXbXbXbXbXbXbXp i bXbXbXbXbXbXbXM bXbX",
"bXbXbXbXbXbXbXbXbXbXbXbXbXbXbXbXbXbXbXbXbXbXbXbXbXf ` v bXbXbXbXbXbXbXbXbXS...bXbXbXbXbXbXM bXbX",
"bXbXbXbXbXbXbXbXbXbXbXbXbXbXbXbXbXbXbXbXbXbXbXbXbXbXl ~ g.bXbXbXbXbXbXbXbX6.( bXbXbXbXbXbXbXbXbX",
"bXbXbXbXbXbXbXbXbXbXbXbXbXbXbXbXbXbXbXbXbXbXbXbXbXbXC G E bXbXbXbXbXbXbXbXbX) ) bXbXbXbXbXbXbXbX",
"bXbXbXbXbXbXbXbXbXbXbXbXbXbXbXbXbXbXbXbXbXbXbXbXbXbXbXX.| f bXbXbXbXbXbXbXbXW.I M bXbXbXbXbXbXbX",
"bXbXbXbXbXbXbXbXbXbXbXbXbXbXbXbXbXbXbXbXbXbXbXbXbXbXbXbX^ } #.bXbXbXbXbXbXbXbXH Q bXbXbXbXbXbXbX",
"bXbXbXbXbXbXbXbXbXbXbXbXbXbXbXbXbXbXbXbXbXbXbXbXbXbXbXbXd ' G bXbXbXbXbXbXbXbXbX` O.bXbXbXbXbXbX",
"bXbXbXbXbXbXbXbXbXbXbXbXbXbXbXbXbXbXbXbXbXbXbXbXbXbXbXbXbXS I ( bXbXbXbXbXbXbXbXO.O.bXbXbXbXbXbX",
"bXbXbXbXbXbXbXbXbXbXbXbXbXbXbXbXbXbXbXbXbXbXbXbXbXbXbXbXbXP.Y ! U.bXbXbXbXbXbXbXbXbXbXbXbXbXbXbX",
"bXbXbXbXbXbXbXbXbXbXbXbXbXbXbXbXbXbXbXbXbXbXbXbXbXbXbXbXbXbXE I  .bXbXbXbXbXbXbXbXbXbXbXbXbXbXbX",
"bXbXbXbXbXbXbXbXbXbXbXbXbXbXbXbXbXbXbXbXbXbXbXbXbXbXbXbXbXbXbXD U J bXbXbXbXbXbXbXbXbXbXbXbXbXbX",
"bXbXbXbXbXbXbXbXbXbXbXbXbXbXbXbXbXbXbXbXbXbXbXbXbXbXbXbXbXbXbXO.L P bXbXbXbXbXbXbXbXbXbXbXbXbXbX",
"bXbXbXbXbXbXbXbXbXbXbXbXbXbXbXbXbXbXbXbXbXbXbXbXbXbXbXbXbXbXbXbXD P +.bXbXbXbXbXbXbXbXbXbXbXbXbX",
"bXbXbXbXbXbXbXbXbXbXbXbXbXbXbXbXbXbXbXbXbXbXbXbXbXbXbXbXbXbXbXbXY.R K bXbXbXbXbXbXbXbXbXbXbXbXbX",
"bXbXbXbXbXbXbXbXbXbXbXbXbXbXbXbXbXbXbXbXbXbXbXbXbXbXbXbXbXbXbXbXbXT I F bXbXbXbXbXbXbXbXbXbXbXbX",
"bXbXbXbXbXbXbXbXbXbXbXbXbXbXbXbXbXbXbXbXbXbXbXbXbXbXbXbXbXbXbXbXbXbXr @.bXbXbXbXbXbXbXbXbXbXbXbX"
};
