/* XPM */
static char *surf[] = {
/* columns rows colors chars-per-pixel */
"64 64 236 2",
"   c #0BA00EE117F4",
".  c #0E6F125B1D03",
"X  c #0F9D13E21F8B",
"o  c #10CF1587224A",
"O  c #13E4187924DA",
"+  c #18221C1126C4",
"@  c #16351C222C4D",
"#  c #194F1EB12D64",
"$  c #18771F2A3146",
"%  c #1C4821112E19",
"&  c #1C2E22AF3450",
"*  c #1E0025E93B70",
"=  c #1F2127CC3EFC",
"-  c #227C25052BD9",
";  c #255C28222FA1",
":  c #2159264333BC",
">  c #242B28D03569",
",  c #1FBE26E73A64",
"<  c #23A02A3D3C4B",
"1  c #2A212E963AC9",
"2  c #2D5331883CB7",
"3  c #30AF33FE3CD6",
"4  c #3D283DF23F9B",
"5  c #1F822844401F",
"6  c #229C2B8A43CD",
"7  c #28B82F674199",
"8  c #24A72E814944",
"9  c #2B9D322743F1",
"0  c #26BA30E04C6E",
"q  c #2A6933914C6D",
"w  c #31C436CC4458",
"e  c #363C3A414530",
"r  c #2FC8370B4AD5",
"t  c #34A33AF94C33",
"y  c #38A03E5E4DFE",
"u  c #2A8E35915370",
"i  c #2E5238BE5507",
"p  c #2D9D39CC5ADE",
"a  c #33013C1154AF",
"s  c #38813F0750BB",
"d  c #32753D985BD7",
"f  c #316B3E7861E8",
"g  c #3F1042AF4C70",
"h  c #3AE34201555A",
"j  c #365C40D15D4D",
"k  c #3BF244795BA7",
"l  c #34E641F9657B",
"z  c #3A60454862D5",
"x  c #3DCF48C3666F",
"c  c #35C6440D6AE6",
"v  c #390546856B24",
"b  c #3C61495F6CA5",
"n  c #379746C8700F",
"m  c #37F8476D715F",
"M  c #3BB54AF0744C",
"N  c #3E3E4E797A9B",
"B  c #42E245894CAE",
"V  c #40B645AA535B",
"C  c #451649C45691",
"Z  c #49244C425495",
"A  c #40CF47555993",
"S  c #440B4A7C5C00",
"D  c #484F4E7B5F50",
"F  c #4D4E51695C5A",
"G  c #50CD54365D81",
"H  c #42834BCB6506",
"J  c #48B64F6B612F",
"K  c #42044D306B7D",
"L  c #4B87526264F8",
"P  c #45C550876DCC",
"I  c #4B4F54186BE5",
"U  c #503A562D6693",
"Y  c #566F5AE7674B",
"T  c #506E573B69B8",
"R  c #541F5A416AFF",
"E  c #59475E816CD9",
"W  c #40EB4E9D73B7",
"Q  c #40984F897814",
"!  c #44DA51BC74C4",
"~  c #4AF955AE72D3",
"^  c #4E4958A274AF",
"/  c #42D252857D20",
"(  c #48F5570A7D39",
")  c #4C1E592C7C96",
"_  c #536C5C477456",
"`  c #58F05FA271C4",
"'  c #51D15D0A7B6C",
"]  c #5C4C62BE745A",
"[  c #564560F17DDF",
"{  c #5B3663EA7B8B",
"}  c #5F7567F87F21",
"|  c #62F566036E35",
" . c #620B6752758A",
".. c #62FF67F87561",
"X. c #69846D2776E2",
"o. c #63FE6A817C2D",
"O. c #68C26DCE7B86",
"+. c #6DD771F17D1A",
"@. c #729475DA7EDC",
"#. c #4519557381E2",
"$. c #47975824852A",
"%. c #4B115AE085D1",
"&. c #4C905D298A36",
"*. c #515A5EAA82E6",
"=. c #50405F9A896E",
"-. c #4F98606F8E1F",
";. c #537D611B860F",
":. c #5ABC65658266",
">. c #5E1A68A8854D",
",. c #533062BA8CDC",
"<. c #595866F88BE1",
"1. c #5D926A548D0D",
"2. c #550E65B392D7",
"3. c #582367699103",
"4. c #5AA66A5C950D",
"5. c #5CE86D969ADE",
"6. c #5F4F70599E84",
"7. c #64296C84833F",
"8. c #632E6D8989AF",
"9. c #67C06FF5868D",
"0. c #6B79723C84A6",
"q. c #66E7708B8A93",
"w. c #6BD374858C1B",
"e. c #718E762D82BD",
"r. c #751E79AC85FD",
"t. c #78537AA780E6",
"y. c #705D77778ACF",
"u. c #73D57A518BF6",
"i. c #79D47E808B37",
"p. c #616C6EDC9360",
"a. c #60426FD49A9B",
"s. c #64F5722195D9",
"d. c #6906748E93BF",
"f. c #6EBD792F9590",
"g. c #639B73179D26",
"h. c #698C770A9BA2",
"j. c #6CC279D19D3D",
"k. c #759B7DB293B8",
"l. c #79D67FF29098",
"z. c #72BA7DFD9C79",
"x. c #64CA75A1A35A",
"c. c #67737862A65F",
"v. c #69B87A0DA664",
"b. c #6C377D2AAB31",
"n. c #71717F05A3E4",
"m. c #7F4D83CD8FCC",
"M. c #7A8781D595C0",
"N. c #7A36833F9BCA",
"B. c #6F74806DAE64",
"V. c #74818168A4A3",
"C. c #79968543A516",
"Z. c #7FB688C4A13F",
"A. c #731482D6AD91",
"S. c #790686B5ABD5",
"D. c #7C878A14AECE",
"F. c #73B684C3B309",
"G. c #7869878CB07E",
"H. c #776A8874B6B9",
"J. c #7B218AABB4D1",
"K. c #7B548C42BA2F",
"L. c #7F659082BF07",
"P. c #807284858FCD",
"I. c #80C587AC9A88",
"U. c #85C58BC49C34",
"Y. c #88AD8E589D97",
"T. c #83C38CA7A49D",
"R. c #889F9002A443",
"E. c #81C28D15ABD8",
"W. c #8B2891EBA43A",
"Q. c #86A3916DAEA3",
"!. c #8C939504ABE9",
"~. c #918896C1A48E",
"^. c #90DD97CFAAB0",
"/. c #927199CCADED",
"(. c #98579DD9ACE0",
"). c #819C8F32B406",
"_. c #858091F3B3B6",
"`. c #8B7A966FB438",
"'. c #8E6B9939B69E",
"]. c #83C6932EBCF1",
"[. c #885E95D3BA49",
"{. c #8E8099E7B8D4",
"}. c #935A9C62B4E5",
"|. c #98779F22B143",
" X c #93FD9EA4BB65",
".X c #9802A08EB7B1",
"XX c #9AE3A22AB5E3",
"oX c #96BBA12DBD78",
"OX c #9BD2A432BADD",
"+X c #A02EA682B7BD",
"@X c #A0BEA7B3BA8F",
"#X c #A347A9DFBBB7",
"$X c #A94DAE6FBC7B",
"%X c #AD3EB1B5BDC1",
"&X c #84E0953EC198",
"*X c #8AEF9A4AC3F9",
"=X c #8D8A9DE4CA49",
"-X c #91209FECC809",
";X c #90529FD8C9FF",
":X c #8FBCA035CCBF",
">X c #9611A2B2C502",
",X c #9ADFA6D3C706",
"<X c #928EA269CD62",
"1X c #99FAA727CACD",
"2X c #9E83AA39C9C9",
"3X c #9621A69CD354",
"4X c #9830A806D319",
"5X c #97D8A8DCD6F8",
"6X c #9ACCAA8DD54A",
"7X c #9DC2AE3FDAFF",
"8X c #AB73B2C6C6BB",
"9X c #A63BB056CB7D",
"0X c #AF98B838CF8A",
"qX c #B04BB6E6C8E2",
"wX c #A0DDAF86D77B",
"eX c #A056AFA6D926",
"rX c #A684B374D677",
"tX c #AA4FB68BD7AC",
"yX c #A173B1BDDE04",
"uX c #B60FBDAFD229",
"iX c #B457BFAADE43",
"pX c #A53AB5B2E27B",
"aX c #AA2EB9A0E39D",
"sX c #ABFABC93E9B2",
"dX c #B827C042D677",
"fX c #BA04C1E4D728",
"gX c #BD4FC50CD9ED",
"hX c #B1F9C274EF35",
"jX c #B551C5EBF32E",
"kX c #B837C8E0F62B",
"lX c #CD5CD17ADC65",
"zX c #C386CBF2E2BD",
"xX c #CB16D2A6E724",
"cX c #C7D7D0D8E91C",
"vX c #CE2BD598E99A",
"bX c None",
/* pixels */
"bXbXbXbXbXbXbXbXbXbXbXbXbXbXbXbXbXbXbXbXbXbXbXbXbXbXbXbXbXbXbXbXbXbXbXbXbXbXbXbXbXbXbXbXbXbXbXbXbXbXbXbXbXbXbXbXbXbXbXbXbXbXbXbX",
"bXbXbXbXbXbXbXbXbXbXbXbXbXbXbXbXbXbXbXbXbXbXbXbXbXbXbXbXbXbXbXbXbXbXbXbXbXbXbXbXbXbXbXbXbXbXbXbXbXbXbXbXbXbXbXbXbXbXbXbXbXbXbXbX",
"bXbXbXbXbXbXbXbXbXbXbXbXbXbXbXbXbXbXbXbXbXbXbXbXbXbXbXbXbXbXbXbXbXbXbXbXbXbXbXbXbXbXbXbXbXbXbXbXbXbXbXbXbXbXbXbXbXbXbXbXbXbXbXbX",
"bXbXbXbXbXbXbXbXbXbXbXbXbXbXbXbXbXbXbXbXbXbXbXbXbXbXbXbXbXbXbXbXbXbXbXbXbXbXbXbXbXbXbXbXbXbXbXbXbXbXbXbXbXbXbXbXbXbXbXbXbXbXbXbX",
"bXbXbXbXbXbXbXbXbXbXbXbXbXbXbXbXbXbXbXbXbXbXbXbXbXbXbXbXbXbXbXbXbXbXbXbXbXbXbXbXbXbXbXbXbXbXbXbXbXbXbXbXbXbXbXbXbXbXbXbXbXbXbXbX",
"bXbXbXbXbXbXbXbXbXbXbXbXbXbXbXbXbXbXbXbXbXbXbXbXbXbXbXbXbXbXbXbXbXbXbXbXbXbXbXbXbXbXbXbXbXbXbXbXbXbXbXbXbXbXbXbXbXbXbXbXbXbXbXbX",
"bXbXbXbXbXbXbXbXbXbXbXbXbXbXbXbXbXbXbXbXbXbXbXbXbXbXbXbXbXbXbXbXbXbXbXbXbXbXbXbXbXbXbXbXbXbXbXbXbXbXbXbXbXbXbXbXbXbXbXbXbXbXbXbX",
"bXbXbXbXbXbXbXbXbXbXbXbXbXbXbX@ & bXbXbXbXbXbXbXbXbXbXbXbX< 8 0 0 0 0 6 6 bXbXbXbXbXbXbXbX& 1 * $ bXbXbXbXbXbXbXbXbXbXbXbXbXbXbX",
"bXbXbXbXbXbXbXbXbXbXbXbXbXbX& * 6 6 bXbXbXbXbXbXbXbXbX5 0 u p p p p p p u 8 5 @ bXbXbXbX< 9 < 6 5 & bXbXbXbXbXbXbXbXbXbXbXbXbXbX",
"bXbXbXbXbXbXbXbXbXbXbXbXbXg a 0 6 u 8 bXbXbXbXbXbXbX6 u p p p p p p p p p u 0 5 @ bXbX0 r < < 5 6 6 6 bXbXbXbXbXbXbXbXbXbXbXbXbX",
"bXbXbXbXbXbXbXbXbXbXbXbXbXL E k a u u 0 < bXbXbXbX& 8 p p p p p p p p p p 0 6 < & o 0 v 0 , * 6 5 0 A A 6 bXbXbXbXbXbXbXbXbXbXbX",
"bXbXbXbXbXbXbXbXbXbXbXbXl b R E H k u u u 6 bXbXbX& 8 u p p p p f f p p u 0 6 * * u m ^ 8 * 5 6 0 D L f d bXbXbXbXbXbXbXbXbXbXbX",
"bXbXbXbXbXbXbXbXbXbXbX_ ' ^ I _ k S k i u i a 6 bX& 6 p p p d d p d d p u 8 * 8 p m *.! 6 * 8 u L I l l c f bXbXbXbXbXbXbXbXbXbX",
"bXbXbXbXbXbXbXbXbXbX>.u.u.0.o.` K z H k p i p k a 0 0 d j k J I I K z j a u d b M %.*.m h k J E ..I ^ _ ^ _ I bXbXbXbXbXbXbXbXbX",
"bXbXbXbXbXbXbXbXbXw.T.p.,.*.( ) _ P K L x p p d H H c K I ^ ! b K R ^ x c ! ! m ( :.M M K I X.] ` { { } o.8.8. .bXbXbXbXbXbXbXbX",
"bXbXbXbXbXbXbXbX_ n.!.^.h.<.;.>.[ ' ^ ~ E H l l L ..O.' ! M m m m M ^ o.9.) N / :.! m M W o.{ W N W / / / $.0.y.H bXbXbXbXbXbXbX",
"bXbXbXbXbXbXbXbXn.S.V.T./.z.8.8.>.:.[ ' { @.O.o.] ~ _ { M M N N / / ;.q.9.y.:.:.) M m m { w.;.=.&.&.%.%.8.M.w.&.! bXbXbXbXbXbXbX",
"bXbXbXbXbXbXbXh.K.D.A.b.V.W.8.>.:.7.0.u.i.u.P.q.<.*.( [ 8.( $.4.F.oX}.4.#.$.0.r.[ M m m ( v.x.s.4.3.3.M.N.4.%.%.%.b bXbXbXbXbXbX",
"bXbXbXbXbXbX8.)._.K.D.A.v.f.7.9.0.r.0.o.:.>.w.Y.N.n.s.;.:.y.1.J.zXcX].4.#.( >.! [ o.~ m M G.J.b.x.V.W.N.3.&.,.&.&.#.p bXbXbXbXbX",
"bXbXbXbXbXbXJ.*X].K.J.A.V.u.t.@.] ^ ~ ~ ^ _ [ 0.U.f.p.;.W ^ i.W.!.A.4.( / o.W n v W ] { ^ C.].K.}.(.v.4.3.3.&.&.&.%.M bXbXbXbXbX",
"bXbXbXbXbXV.[.*X].].K.J.h.^ L ] ] I x H H H K P ] O.~ x l K O.e.>.( W M { ^ c c c c l ^ +.l.,X8X}.v.5.5.2.3.-.&.&.%.#.bXbXbXbXbX",
"bXbXbXbXbX].<X=X*X].].J.;.x z z J Y L k d d j d d Z L d H Y K K o.{ W ` ` l l l l l ! ] b ! oX[.b.x.6.4.2.2.2.-.&.&.%.W bXbXbXbX",
"bXbXbXbXd.-X<X=X*X*X].A.K j d a a d S F h q q q 0 0 h Z C a p z K ] ] ] v f f f f L E v l l 4.F.b.x.5.4.2.2.&.&.&.&.%./ bXbXbXbX",
"bXbXbXbX_.3X1X<X<X=X*Xp.a a a i u u u a Z h q 0 8 8 y B y 0 u a j H | U d p p f I U l f f f / v.c.g.5.4.2.2.-.&.&.%.%.$.v bXbXbX",
"bXbXbXbX<X4X4X1X<X<X&XK a u u u q 0 0 0 0 y V q 0 e 9 6 e w 8 0 q C h h k i a J L f p f f f l 4.x.6.2.2.2.-.&.&.&.%.$.$.M bXbXbX",
"bXbXbXE.wXyX7X4X6X3XA.a q u q 0 0 0 0 0 8 8 9 B B 9 * * , w 9 < e e 6 6 q y C h u p p p f f f / 5.4.2.2.-.,.&.&.&.$.%.%./ bXbXbX",
"bXbXbXqXvXvXxXxXxXzX{ 0 0 0 0 0 8 8 8 8 6 6 9 9 2 2 > & & : 3 3 3 : & & : e y 0 0 u u p p p f l -.2.,.,.&.&.&.%.$.$.$.#./ bXbXbX",
"bXbXbX1XaXtXaXaXtX1Xj 0 0 0 0 8 8 8 8 6 6 9 < @ o X - - - > 3 e 3 > : - ; % % > 8 0 u u p p p f &.s.s.s.4.3.<.,.,.*.&.&.$.bXbXbX",
"bXbXbX4XyXpXpXpXpXj.0 0 0 8 8 8 8 8 6 8 1 ; bXbXbXbXbXbX+ : 3 2 3 : : & O o . bX& 6 0 u u p p p I k.z.k.k.k.z.M.M.k.l.l.l.{ bXbX",
"bXbXbX7XpXpXpXaXyX! 8 0 8 8 8 8 8 9 w 1 bXbXbXbXbXbXbXbXbXZ G r y B w # o o X bXbXbX< 0 0 u p p f / $.%.&.$.%.%.%.$.%.%.%.x bXbX",
"bXbXbXyXpXpXaXsX*Xu 8 0 8 8 0 t t 9 % bXbXbXbXbXbXbXbXbXbXO.w.e...] F # O o . bXbXbXbX9 0 u p p p c $.$.$.$.$.$.$.#.$.#.#.v bXbX",
"bXbXC.yXpXaXaXsXs.8 8 8 q y y 9 < bXbXbXbXbXbXbXbXbXbXbXk XXzX(.M.w. .< @ o . bXbXbXbXbX9 i u u p f #.$.$.#.$.#.$.#.#.#.#.b bXbX",
"bXbXS.7XyXpXaXyXK 8 r s y q 8 < @ bXbXbXbXbXbXbXbXbXbXA 8.lXiXF.1.m.o.k & o o   bXbXbXbXbX9 h i i p m #.#.#.#.#.#.#.#.#.#.c bXbX",
"bXbXn.6X7XpXpX*Xh h s q 8 6 6 $ bXbXbXbXbXbXbXbXbXbXV 0._.gX>Xv.3.l.8.o.D @ X . bXbXbXbXbX$ 0 k a p l #.#.#.#.#.#.#.#.#.#.l bXbX",
"bXbXj.3X5X5X7Xz.y 0 8 6 8 6 * bXbXbXbXbXbXbXbXbXbXA o.h.K.9X Xx.h.k./ ) o.h @ . bXbXbXbXbXbX& 0 j k d N #.#.#.#.#.#.#.#.#.l bXbX",
"bXbXbX*X=X=X<X^ 8 8 8 8 8 * bXbXbXbXbXbXbXbXbXbXS 0.s.F.K.>X Xx.C.f.$.N ( o.s @   bXbXbXbXbXbX* 0 a S ! #./ #./ #./ N #./ f bXbX",
"bXbXbXH.].].H.j 8 8 8 6 6 bXbXbXbXbXbXbXbXbXbXx 8.z.b.K.H.[.OXx.Q.5.&.#.N 7.{ h @ bXbXbXbXbXbXbX8 u p v / / / #.#.#./ / / bXbXbX",
"bXbXbXv.A.A.5.0 8 8 8 8 6 bXbXbXbXbXbXbXbXi v 1.T.A.H.K.H.J.OXn.^.5.-.$.#.$.8.! j % bXbXbXbXbXbX* 0 u p / #./ / / / / / M bXbXbX",
"bXbXbX<.g.5.( 8 8 8 8 9 bXbXbXbXbXbXbXbXp m <.Q.A.F.H.H.F.F.OXQ.Q.4.2.-.$.#.8.[ M j > bXbXbXbXbXbX8 u u ^ %./ / N / / / M bXbXbX",
"bXbXbX! =.=.K 0 8 8 0 r bXbXbXbXbXbXu c #.3.!._.F.H.F.F.A.A.XX+XS.5.4.2.-.&.*.u./ m l 9 bXbXbXbXbX< u u P y.) / / N / / l bXbXbX",
"bXbXbXL 0.y.L 8 8 0 a u bXbXbXbXD K / &.4.Q.}.F.G.F.F.F.b.b.XX$Xv.6.5.4.3.&.&.d.8.N M c 0 bXbXbXbXbXu u d [ 0.( N N / M bXbXbXbX",
"bXbXbXbXe.0.k 8 0 r h k l H  .o.8.f.N.T.}.%XOXoXoX X{.{.[._.OX$XS.n.v.x.g.5.3.3.M.&.N N v x bXbXbXbXa p p l ^ 0.) m M c bXbXbXbX",
"bXbXbXbXH b p 8 u A H 8.i.0.*.#.&.3.5.b.+X).J.)._.].[.{.}.{.8X$X}./.`.!.!.W.T.C.~.Y.k.s.8.:. .F bXbXk d p d b _ +._ M d bXbXbXbX",
"bXbXbXbXbXa u u k R i.(.f./ / $.&.3.5.!.Q.b.b.b.F.b.b.F.b.b.@X@Xc.v.c.c.x.x.x.6.h.^.j.p.4.<.<.s.0.! M H p x Y ] o.@.O.bXbXbXbXbX",
"bXbXbXbXbX< 8 d | i.Q.z.&.N #.$.,.2.C.`.v.v.b.B.b.b.F.b.b.S.$X#Xb.v.c.c.c.x.x.x.6.E.Q.a.g.6.c.b.>X/.( I v i i d l K U bXbXbXbXbX",
"bXbXbXbXbXbX< Y 0.N.z.4.$.#.$.&.2.h.^.v.x.v.b.b.F.b.b.b.b._.OXOXA.v.b.v.c.c.c.c.x.b.OXD.b.H.L.3XpX2XM.' I p 8 u d f bXbXbXbXbXbX",
"bXbXbXbXbXbX# L s.j.s.;./ #.$.&.3.T.V.x.c.c.v.b.A.b.b.b.b.oX_.OXJ.v.b.v.b.c.b.b.b.b.{.,XK.&X3XpXjX7Xn.0.o.d 5 8 u q bXbXbXbXbXbX",
"bXbXbXbXbXbXbXs p.h.,.%./ #.&.&.N.T.5.x.c.v.v.b.b.b.b.b.F.#XA.}._.v.b.b.b.b.b.b.A.B.H.8X=X*X5XsXkXsXH.,.9.D < < 8 bXbXbXbXbXbXbX",
"bXbXbXbXbXbXbXbX^ <.&.( / $.%.s.T.5.5.x.x.x.b.b.b.b.b.b.).OXb.'.{.b.b.b.b.b.b.b.A.F.H.>X0X=X5XsXjXhX=X5./ q < 1 & bXbXbXbXbXbXbX",
"bXbXbXbXbXbXbXbXbX! $./ #.%.,.U.g.5.g.x.x.x.c.b.c.b.b.b.}.`.v.).oXb.b.b.B.b.B.F.F.F.K.K.uX6X5XpXhXhX6XA.W @ @ % bXbXbXbXbXbXbXbX",
"bXbXbXbXbXbXbXbXbXbXM #.$.&.M.z.2.5.6.x.x.c.v.v.b.b.b.b.OXJ.v.J.OXb.b.B.b.F.b.F.F.F.K.K.1XfX5XyXsXsXyXS.bXbXbXbXbXbXbXbXbXbXbXbX",
"bXbXbXbXbXbXbXbXbXbX0 ! $.d.N.2.4.5.5.6.x.x.c.v.c.v.b.G.OXb.b.G.@XA.b.b.b.b.b.F.F.F.K.K.&XuXrX5XpXsX6X>.bXbXbXbXbXbXbXbXbXbXbXbX",
"bXbXbXbXbXbXbXbXbXbXbX0 ' I.4.,.4.5.6.6.x.c.x.v.v.b.v._.}.b.b.b.OXS.b.b.B.b.F.B.F.H.H.K.L.1XgX6XyX6Xq.bXbXbXbXbXbXbXbXbXbXbXbXbX",
"bXbXbXbXbXbXbXbXbXbXbXbXbX[ ,.4.4.5.6.x.x.x.x.v.c.c.b.}.).v.b.b.OXD.b.b.b.b.b.F.b.F.H.K.K.&XfXtX[.s.bXbXbXbXbXbXbXbXbXbXbXbXbXbX",
"bXbXbXbXbXbXbXbXbXbXbXbXbXbXW ,.4.5.5.g.x.x.x.c.c.c.b.OXb.v.v.v.}._.v.b.b.b.b.F.b.F.F.H.K.].>X@XbXbXbXbXbXbXbXbXbXbXbXbXbXbXbXbX",
"bXbXbXbXbXbXbXbXbXbXbXbXbXbXbXj %.4.6.5.x.x.x.x.c.c.D.}.v.v.v.v._.'.v.v.v.b.b.b.B.b.F.G.H.A.1.bXbXbXbXbXbXbXbXbXbXbXbXbXbXbXbXbX",
"bXbXbXbXbXbXbXbXbXbXbXbXbXbXbXbXbXK ,.5.x.x.x.x.x.x.!.Q.x.v.v.v.D.}.v.v.v.v.b.b.b.A.B.v.<.bXbXbXbXbXbXbXbXbXbXbXbXbXbXbXbXbXbXbX",
"bXbXbXbXbXbXbXbXbXbXbXbXbXbXbXbXbXbXbXK *.4.g.x.x.v.}.A.x.c.x.x.A.XXv.v.v.b.v.b.h.5.) bXbXbXbXbXbXbXbXbXbXbXbXbXbXbXbXbXbXbXbXbX",
"bXbXbXbXbXbXbXbXbXbXbXbXbXbXbXbXbXbXbXbXbXbX~ ,.4.j./.x.x.c.x.x.b.XXv.g.x.5.3.) K bXbXbXbXbXbXbXbXbXbXbXbXbXbXbXbXbXbXbXbXbXbXbX",
"bXbXbXbXbXbXbXbXbXbXbXbXbXbXbXbXbXbXbXbXbXbXbXbXbXbXo.%.*.*.,.<.:.M.>.! bXbXbXbXbXbXbXbXbXbXbXbXbXbXbXbXbXbXbXbXbXbXbXbXbXbXbXbX",
"bXbXbXbXbXbXbXbXbXbXbXbXbXbXbXbXbXbXbXbXbXbXbXbXbXbXbXbXbXbXbXbXbXbXbXbXbXbXbXbXbXbXbXbXbXbXbXbXbXbXbXbXbXbXbXbXbXbXbXbXbXbXbXbX",
"bXbXbXbXbXbXbXbXbXbXbXbXbXbXbXbXbXbXbXbXbXbXbXbXbXbXbXbXbXbXbXbXbXbXbXbXbXbXbXbXbXbXbXbXbXbXbXbXbXbXbXbXbXbXbXbXbXbXbXbXbXbXbXbX",
"bXbXbXbXbXbXbXbXbXbXbXbXbXbXbXbXbXbXbXbXbXbXbXbXbXbXbXbXbXbXbXbXbXbXbXbXbXbXbXbXbXbXbXbXbXbXbXbXbXbXbXbXbXbXbXbXbXbXbXbXbXbXbXbX",
"bXbXbXbXbXbXbXbXbXbXbXbXbXbXbXbXbXbXbXbXbXbXbXbXbXbXbXbXbXbXbXbXbXbXbXbXbXbXbXbXbXbXbXbXbXbXbXbXbXbXbXbXbXbXbXbXbXbXbXbXbXbXbXbX"
};
