/* XPM */
static char *surfer[] = {
/* columns rows colors chars-per-pixel */
"64 64 119 2",
"   c #6D557B6B0000",
".  c #70847F060000",
"X  c #756A84890000",
"o  c #783287AB0000",
"O  c #7BB98BA3000C",
"+  c #7FE5905C0000",
"@  c #829A9364000C",
"#  c #871A986700A0",
"$  c #8AD29C7F010B",
"%  c #8F3BA1A00014",
"&  c #92C6A57F0104",
"*  c #968CA9D8007C",
"=  c #9A16ADD4006E",
"-  c #9757A9B4082C",
";  c #9BA8AE160BEA",
":  c #9E37B2690112",
">  c #A1B7B6740054",
",  c #A61BBB620090",
"<  c #A926BECA00A2",
"1  c #A131B4AF0912",
"2  c #A650B9E90D6B",
"3  c #A9A8BE060AD8",
"4  c #AB38BEEB11AB",
"5  c #AD26C359005E",
"6  c #AE86C37A0AF9",
"7  c #B104C7AF009B",
"8  c #B526CC5C0065",
"9  c #B877D01B0051",
"0  c #B4F3CAC00AC8",
"q  c #B9BFCFF90B71",
"w  c #BC21D42B00E1",
"e  c #C005D8AC0012",
"r  c #BCDBD38F0B9A",
"t  c #ADDEC17E14C0",
"y  c #B294C6FD1264",
"u  c #B4CDC995127A",
"i  c #B865CDE410D8",
"p  c #B214C5C518AF",
"a  c #B543C8F81BAC",
"s  c #BA50CF2417F9",
"d  c #BC66D2391236",
"f  c #BC38D0DF1B34",
"g  c #C3C4DCA901B1",
"h  c #C04BD7D608A2",
"j  c #C556DCB30B8F",
"k  c #C518DBB91492",
"l  c #C070D5421E01",
"z  c #C392D94B1A15",
"x  c #C79AE11400F6",
"c  c #CB5AE543015E",
"v  c #CF36E9AD00FC",
"b  c #C824E0C407F5",
"n  c #CCE0E5DB0A04",
"m  c #CF42E8990973",
"M  c #D32AEDFA023D",
"N  c #D33CECF40AFE",
"B  c #D69AF1F50176",
"V  c #DA97F66B01FB",
"C  c #DE61FAD500E3",
"Z  c #D6EFF1380A5D",
"A  c #DB5FF6290A78",
"S  c #DE79F983099E",
"D  c #CD8BE5831292",
"F  c #CE2CE4F01C75",
"G  c #D5ADEEBD1237",
"H  c #D61FEE091BB2",
"J  c #D74DF0B51102",
"K  c #DB5AF4D4141D",
"L  c #DE04F68E1EAF",
"P  c #E41DFF5C0117",
"I  c #EB26FFFF0372",
"U  c #E481FDDC0BA5",
"Y  c #EBF9FFCF0BA2",
"T  c #F0C6FFFF0627",
"R  c #F429FFFF0B46",
"E  c #F976FFFF0E56",
"W  c #E502FC9B1396",
"Q  c #EC8CFF7D13B4",
"!  c #E4F0FCCB1B07",
"~  c #E964FEB11BA1",
"^  c #F424FFFF1278",
"/  c #FBC6FFFF13F8",
"(  c #F557FFF61B43",
")  c #FDECFFFF1C0E",
"_  c #C5E0DAAD23CA",
"`  c #CDA4E36623A7",
"'  c #CD78E2532B17",
"]  c #D0B3E756201C",
"[  c #D775EE32258C",
"{  c #D3A0E97A2911",
"}  c #DD4CF4FE2477",
"|  c #DD34F3FC2BDF",
" . c #DB14F0F530B6",
".. c #E3BCFC1E2426",
"X. c #EAEFFF002034",
"o. c #E0BAF78D2EA9",
"O. c #E354FAEA2A85",
"+. c #F5A4FFE5247D",
"@. c #FD59FFFF220C",
"#. c #F567FFFF2911",
"$. c #FE17FFFF2BDF",
"%. c #E185F74536F8",
"&. c #E73DFD3C3572",
"*. c #EA43FF7232E9",
"=. c #E3CDF96E392A",
"-. c #ECECFFF23AC5",
";. c #FFA2FFFF341C",
":. c #FFECFFFF3C2D",
">. c #FFFFFFFF4310",
",. c #FFFFFFFF4B86",
"<. c #FFFFFFFF53CE",
"1. c #FFFFFFFF5CE1",
"2. c #FFFFFFFF6398",
"3. c #FFFFFFFF6DBD",
"4. c #FFFFFFFF7573",
"5. c #FFFFFFFF7B10",
"6. c #FFFFFFFF832F",
"7. c #FFFFFFFF8C3A",
"8. c None",
/* pixels */
"8.8.8.8.8.8.8.8.8.8.8.8.8.8.8.8.8.8.8.8.8.8.8.8.8.8.8.8.8.8.8.8.8.8.8.8.8.8.8.8.8.8.8.8.8.8.8.8.8.8.8.8.8.8.8.8.8.8.8.8.8.8.8.8.",
"8.8.8.8.8.8.8.8.8.8.8.8.8.8.8.8.8.8.8.8.8.8.8.8.8.8.8.8.8.8.8.8.8.8.8.8.8.8.8.8.8.8.8.8.8.8.8.8.8.8.8.8.8.8.8.8.8.8.8.8.8.8.8.8.",
"8.8.8.8.8.8.8.8.8.8.8.8.8.8.8.8.8.8.8.8.8.8.8.8.8.8.8.8.8.8.8.8.8.8.8.8.8.8.8.8.8.8.8.8.8.8.8.8.8.8.8.8.8.8.8.8.8.8.8.8.8.8.8.8.",
"8.8.8.8.8.8.8.8.8.8.8.8.8.8.8.8.8.8.8.8.8.8.8.8.8.8.8.8.8.8.8.8.8.8.8.8.8.8.8.8.8.8.8.8.8.8.8.8.8.8.8.8.8.8.8.8.8.8.8.8.8.8.8.8.",
"8.8.8.8.8.8.8.8.8.8.8.8.8.8.8.8.8.8.8.8.8.8.8.8.8.8.8.8.8.8.8.8.8.8.8.8.8.8.8.8.8.8.8.8.8.8.8.8.8.8.8.8.8.8.8.8.8.8.8.8.8.8.8.8.",
"8.8.8.8.8.8.8.8.8.8.8.8.8.8.8.8.8.8.8.8.8.8.8.8.8.8.8.8.8.8.8.8.8.8.8.8.8.8.8.8.8.8.8.8.8.8.8.8.8.8.8.8.8.8.8.8.8.8.8.8.8.8.8.8.",
"8.8.8.8.8.8.8.8.8.8.8.8.8.8.8.8.8.8.8.8.8.8.8.8.8.8.8.8.8.8.8.8.8.8.8.8.8.8.8.8.8.8.8.8.8.8.8.8.8.8.8.8.8.8.8.8.8.8.8.8.8.8.8.8.",
"8.8.8.8.8.8.8.8.8.8.8.8.8.8.8.8.8.8.8.8.8.8.8.8.8.8.8.8.8.8.8.8.8.8.8.8.8.8.8.8.8.8.8.8.8.8.8.8.8.8.8.8.8.8.8.8.8.8.8.8.8.8.8.8.",
"8.8.8.8.8.8.8.8.8.8.8.8.8.8.8.8.8.8.8.8.8.8.8.8.8.8.8.8.8.8.8.8.8.8.8.8.8.8.8.8.8.8.8.8.8.8.8.8.8.8.8.8.8.8.8.8.8.8.8.8.8.8.8.8.",
"8.8.8.8.8.8.8.8.8.8.8.8.8.8.8.8.8.8.8.8.8.8.8.8.8.8.8.8.8.8.8.8.8.8.8.8.8.8.8.8.8.8.8.8.8.8.8.8.8.8.8.8.8.8.8.8.8.8.8.8.8.8.8.8.",
"8.8.8.8.8.8.8.8.8.8.8.8.8.8.8.8.8.8.8.8.8.8.8.8.8.8.8.8.8.8.8.8.8.8.8.8.8.8.8.8.8.8.8.8.8.8.8.8.8.8.8.8.8.8.8.8.8.8.8.8.8.8.8.8.",
"8.8.8.8.8.8.8.8.8.8.8.8.8.8.8.8.8.8.8.8.8.8.8.8.8.8.8.8.8.8.8.8.8.8.8.8.8.8.8.8.8.8.8.8.8.8.8.8.8.8.8.8.8.8.8.8.8.8.8.8.8.8.8.8.",
"8.8.8.8.8.8.8.8.8.8.8.8.8.8.8.8.8.8.8.8.8.8.8.8.8.8.8.8.8.8.8.8.8.8.8.8.8.8.8.8.8.8.8.8.8.8.8.8.8.8.8.8.8.8.8.8.8.8.8.8.8.8.8.8.",
"8.8.8.8.8.8.8.8.8.8.8.8.8.8.8.8.8.8.8.8.8.8.8.8.8.8.8.8.8.8.8.8.8.8.8.8.8.8.8.8.8.8.8.8.8.8.8.8.8.8.8.8.8.8.8.8.8.8.8.8.8.8.8.8.",
"8.8.8.8.8.8.8.8.8.8.8.8.8.8.8.8.8.8.8.8.8.8.8.8.8.8.8.8.8.8.8.8.8.8.8.8.8.8.8.8.8.8.8.8.8.8.8.8.8.8.8.8.8.8.8.8.8.8.8.8.8.8.8.8.",
"8.8.8.8.8.8.8.8.8.8.8.8.8.8.8.8.8.8.8.8.8.8.8.8.8.8.8.8.e g x c v M M M M v c c x g e 8.8.8.8.8.8.8.8.8.8.8.8.8.8.8.8.8.8.8.8.8.",
"8.8.8.8.8.8.8.8.8.8.8.8.8.8.8.8.8.8.8.8.8.8.8.8.8.w e c v B V V C C C C C C C V V V v c g g w 8.8.8.8.8.8.8.8.8.8.8.8.8.8.8.8.8.",
"8.8.8.8.8.8.8.8.8.8.8.8.8.8.8.8.8.8.8.8.8.8.8.8 e c v B V V C C C P P P P P P P C C C C V B v c g e w 8.8.8.8.8.8.8.8.8.8.8.8.8.",
"8.8.8.8.8.8.8.8.8.8.8.8.8.8.8.8.8.8.8.8.8.< w g c v B V V C P P P P P I P P P P P C C P C C V B M c g g e 9 8 8.8.8.8.8.8.8.8.8.",
"8.8.8.8.8.8.8.8.8.8.8.8.8.8.8.8.8.8.8.8.5 w g c v B B C C C P P P P P P P P P P P P P C C C C V V B M c x g g e w 8 8 w 8.8.8.8.",
"8.8.8.8.8.8.8.8.8.8.8.8.8.8.8.8.8.8.: 5 w g c c M B V C P P P P P I P I I I I P P P P P P C C V V B M v c x g g e e w 9 5 : 8.8.",
"8.8.8.8.8.8.8.8.8.8.8.8.8.8.8.8.8.= 5 8 e g c M B B C C P P P I I I I I T T R R R Y I U U P C C V V B M c c g g w 8 5 : $ 8.8.8.",
"8.8.8.8.8.8.8.8.8.8.8.8.8.8.8.8.* , 7 e g c v M V U I Y I I I I I T T E / ) ) @.) ) ) ^ Y U U S C V B M v x g w 7 5 : $ 8.8.8.8.",
"8.8.8.8.8.8.8.8.8.8.8.8.8.8.8.* , 7 w g g c M S Q Q ^ ^ R Y T T T E / ) $.:.:.:.:.;.$.@./ Q U P V B M M c g w 7 5 > % 8.8.8.8.8.",
"8.8.8.8.8.8.8.8.8.8.8.8.8.8.8.: 5 8 w g c N U Q +.$.@.@.) E R T T / @.;.,.1.2.2.1.,.:.$.@.^ W S B B v c g e 8 5 , * @ 8.8.8.8.8.",
"8.8.8.8.8.8.8.8.8.8.8.8.8.8.= < 7 w e x N W +.;.:.>.:.;.@./ R R E ) $.,.2.4.6.5.4.1.,.;.@.Q U V B v c g g w 7 , = # 8.8.8.8.8.8.",
"8.8.8.8.8.8.8.8.8.8.8.8.8.* , 5 8 e g N W +.:.,.<.<.,.;.$.) E R E ) ;.<.3.7.7.7.4.1.>.$.( W S M m x g e w 8 5 , & 8.8.8.8.8.8.8.",
"8.8.8.8.8.8.8.8.8.8.8.8.& : 5 7 w g m K +.:.,.1.2.1.,.:.@./ R R / ) ;.,.2.4.5.4.2.,.;.+.Q A M v x g e w 9 7 , = @ 8.8.8.8.8.8.8.",
"8.8.8.8.8.8.8.8.8.8.8.8.= , 5 8 e j J X.;.,.1.2.1.<.>.$.) ^ R Y R / $.:.,.1.2.<.>.;.+.Q A B v x g e w 9 8 5 > $ 8.8.8.8.8.8.8.8.",
"8.8.8.8.8.8.8.8.8.8.8.* : < 7 w g N ! #.:.,.<.<.,.>.$.) ^ Y U Y R ^ ) $.;.:.:.;.$.( W S B c x g e w 9 8 5 , * @ 8.8.8.8.8.8.8.8.",
"8.8.8.8.8.8.8.8.8.8.& = , 7 w g n K X.$.:.>.:.:.;.$.( Q Y P P P U Y ^ ( ) @.@.( Q W V m c x g w w w 8 7 < : $ 8.8.8.8.8.8.8.8.8.",
"8.8.8.8.8.8.8.8.8.8.* > 5 8 w j N K X.#.#.$.#.+.( Q W U U C C C C P I U W U W U S B m c x e w w 8 8 7 5 , & O 8.8.8.8.8.8.8.8.8.",
"8.8.8.8.8.8.8.8.8.& : < 7 w h n J K ! ~ ~ ~ W W W S V V V V V V V C C A C A V M M c c g e w w 8 8 7 5 , = # 8.8.8.8.8.8.8.8.8.8.",
"8.8.8.8.8.8.8.8.8.* , 7 8 e b n G J J A K A Z Z M M M M M B B B B B B M M M M c x x g e w 9 9 8 7 5 5 : $ O 8.8.8.8.8.8.8.8.8.8.",
"8.8.8.8.8.8.8.8.* : 5 7 e h x n n m m m c m v c c v M M M M Z B M M M M v c c g g e e w 8 8 8 5 5 5 : * @ 8.8.8.8.8.8.8.8.8.8.8.",
"8.8.8.8.8.8.8.8.= 5 7 w g j j j b b j x x x x x b c c m N N Z Z Z N N c c x g g e w 8 8 7 7 7 5 , : = # 8.8.8.8.8.8.8.8.8.8.8.8.",
"8.8.8.8.8.8.8.* , 7 w w w h h g e e g e g e g j x b m N G K K K K Z m b g h e w 9 8 7 7 5 5 5 , , = % O 8.8.8.8.8.8.8.8.8.8.8.8.",
"8.8.8.8.8.8.* > 5 9 w w e e e e w w w w w e e w j b D G } ......} H D j e w 8 7 5 5 5 5 5 < , > : % + 8.8.8.8.8.8.8.8.8.8.8.8.8.",
"8.8.8.8.8.8.: 6 9 w w w e w w w 9 9 9 9 8 w w h j D H } O.*.*.*.O.H D r w 7 7 5 5 5 5 , , , : = % + 8.8.8.8.8.8.8.8.8.8.8.8.8.8.",
"8.8.8.8.8.= , 9 w w w w 8 8 7 8 8 7 7 7 0 9 r r k F [ %.&.-.-.-.| F k q 0 5 < < , , , , > : * & @ o 8.8.8.8.8.8.8.8.8.8.8.8.8.8.",
"8.8.8.8.8., 8 e e w 8 8 7 7 5 5 5 5 5 5 6 6 q d _ _ {  .%.=.=. .{ z i 6 < , > > > > : : = * & # o 8.8.8.8.8.8.8.8.8.8.8.8.8.8.8.",
"8.8.8.8., w w e 8 7 5 5 5 < , , , , , < 3 6 6 u a l _ ' ' ' _ _ f y 3 > : : : : : = = = * % @ o 8.8.8.8.8.8.8.8.8.8.8.8.8.8.8.8.",
"8.8.8.5 e h w 8 5 5 , , > : : : : : : ; : 1 2 2 4 p a a a a p 4 2 ; ; = * = = * * & & % $ @ o 8.8.8.8.8.8.8.8.8.8.8.8.8.8.8.8.8.",
"8.8.8.j g 8 5 , > : = * * & * & & & & - - & - - ; ; ; ; 1 ; ; - - & & & % & & % % % $ # O . 8.8.8.8.8.8.8.8.8.8.8.8.8.8.8.8.8.8.",
"8.8.j 9 , = - & % % $ $ $ % $ $ $ % $ $ $ $ $ $ $ $ # # $ # # $ # $ $ $ $ $ $ $ # # + o   8.8.8.8.8.8.8.8.8.8.8.8.8.8.8.8.8.8.8.",
"8.8.8.$ O O O O O O @ @ @ @ @ + @ @ @ @ @ @ @ + @ @ + + O @ O O O @ + @ @ + @ O O o .   8.8.8.8.8.8.8.8.8.8.8.8.8.8.8.8.8.8.8.8.",
"8.8.8.8.8.8.8.8.o o o o o O O O O O O O O O O O O O O @ O O O O O O O O O o o o X   8.8.8.8.8.8.8.8.8.8.8.8.8.8.8.8.8.8.8.8.8.8.",
"8.8.8.8.8.8.8.8.8.8.8.8.X o o o o O O O O O O O O O O O O O O O O O O O o o X     8.8.8.8.8.8.8.8.8.8.8.8.8.8.8.8.8.8.8.8.8.8.8.",
"8.8.8.8.8.8.8.8.8.8.8.8.8.8.8.8.X X X o o o o o O o O O O O o o o o o o X .   8.8.8.8.8.8.8.8.8.8.8.8.8.8.8.8.8.8.8.8.8.8.8.8.8.",
"8.8.8.8.8.8.8.8.8.8.8.8.8.8.8.8.8.8.8.8.. X X o X o o X o o o X X X X   8.8.8.8.8.8.8.8.8.8.8.8.8.8.8.8.8.8.8.8.8.8.8.8.8.8.8.8.",
"8.8.8.8.8.8.8.8.8.8.8.8.8.8.8.8.8.8.8.8.8.8.8.8.8.8.8.8.8.8.8.8.8.8.8.8.8.8.8.8.8.8.8.8.8.8.8.8.8.8.8.8.8.8.8.8.8.8.8.8.8.8.8.8.",
"8.8.8.8.8.8.8.8.8.8.8.8.8.8.8.8.8.8.8.8.8.8.8.8.8.8.8.8.8.8.8.8.8.8.8.8.8.8.8.8.8.8.8.8.8.8.8.8.8.8.8.8.8.8.8.8.8.8.8.8.8.8.8.8.",
"8.8.8.8.8.8.8.8.8.8.8.8.8.8.8.8.8.8.8.8.8.8.8.8.8.8.8.8.8.8.8.8.8.8.8.8.8.8.8.8.8.8.8.8.8.8.8.8.8.8.8.8.8.8.8.8.8.8.8.8.8.8.8.8.",
"8.8.8.8.8.8.8.8.8.8.8.8.8.8.8.8.8.8.8.8.8.8.8.8.8.8.8.8.8.8.8.8.8.8.8.8.8.8.8.8.8.8.8.8.8.8.8.8.8.8.8.8.8.8.8.8.8.8.8.8.8.8.8.8.",
"8.8.8.8.8.8.8.8.8.8.8.8.8.8.8.8.8.8.8.8.8.8.8.8.8.8.8.8.8.8.8.8.8.8.8.8.8.8.8.8.8.8.8.8.8.8.8.8.8.8.8.8.8.8.8.8.8.8.8.8.8.8.8.8.",
"8.8.8.8.8.8.8.8.8.8.8.8.8.8.8.8.8.8.8.8.8.8.8.8.8.8.8.8.8.8.8.8.8.8.8.8.8.8.8.8.8.8.8.8.8.8.8.8.8.8.8.8.8.8.8.8.8.8.8.8.8.8.8.8.",
"8.8.8.8.8.8.8.8.8.8.8.8.8.8.8.8.8.8.8.8.8.8.8.8.8.8.8.8.8.8.8.8.8.8.8.8.8.8.8.8.8.8.8.8.8.8.8.8.8.8.8.8.8.8.8.8.8.8.8.8.8.8.8.8.",
"8.8.8.8.8.8.8.8.8.8.8.8.8.8.8.8.8.8.8.8.8.8.8.8.8.8.8.8.8.8.8.8.8.8.8.8.8.8.8.8.8.8.8.8.8.8.8.8.8.8.8.8.8.8.8.8.8.8.8.8.8.8.8.8.",
"8.8.8.8.8.8.8.8.8.8.8.8.8.8.8.8.8.8.8.8.8.8.8.8.8.8.8.8.8.8.8.8.8.8.8.8.8.8.8.8.8.8.8.8.8.8.8.8.8.8.8.8.8.8.8.8.8.8.8.8.8.8.8.8.",
"8.8.8.8.8.8.8.8.8.8.8.8.8.8.8.8.8.8.8.8.8.8.8.8.8.8.8.8.8.8.8.8.8.8.8.8.8.8.8.8.8.8.8.8.8.8.8.8.8.8.8.8.8.8.8.8.8.8.8.8.8.8.8.8.",
"8.8.8.8.8.8.8.8.8.8.8.8.8.8.8.8.8.8.8.8.8.8.8.8.8.8.8.8.8.8.8.8.8.8.8.8.8.8.8.8.8.8.8.8.8.8.8.8.8.8.8.8.8.8.8.8.8.8.8.8.8.8.8.8.",
"8.8.8.8.8.8.8.8.8.8.8.8.8.8.8.8.8.8.8.8.8.8.8.8.8.8.8.8.8.8.8.8.8.8.8.8.8.8.8.8.8.8.8.8.8.8.8.8.8.8.8.8.8.8.8.8.8.8.8.8.8.8.8.8.",
"8.8.8.8.8.8.8.8.8.8.8.8.8.8.8.8.8.8.8.8.8.8.8.8.8.8.8.8.8.8.8.8.8.8.8.8.8.8.8.8.8.8.8.8.8.8.8.8.8.8.8.8.8.8.8.8.8.8.8.8.8.8.8.8.",
"8.8.8.8.8.8.8.8.8.8.8.8.8.8.8.8.8.8.8.8.8.8.8.8.8.8.8.8.8.8.8.8.8.8.8.8.8.8.8.8.8.8.8.8.8.8.8.8.8.8.8.8.8.8.8.8.8.8.8.8.8.8.8.8."
};
