/* XPM */
static char *tm_gnu_b[] = {
/* columns rows colors chars-per-pixel */
"64 64 253 2",
"   c #040203",
".  c #0B0102",
"X  c #0A0509",
"o  c #130202",
"O  c #1C0102",
"+  c #160A0A",
"@  c #1C110F",
"#  c #240202",
"$  c #2C0202",
"%  c #280A09",
"&  c #330302",
"*  c #3B0302",
"=  c #3B0A02",
"-  c #380907",
";  c #33150C",
":  c #271715",
">  c #361615",
",  c #2B2423",
"<  c #3A2826",
"1  c #3D3636",
"2  c #420201",
"3  c #4B0502",
"4  c #440B03",
"5  c #4C0C03",
"6  c #460C0A",
"7  c #550501",
"8  c #540B03",
"9  c #5B0B03",
"0  c #4D1206",
"q  c #4B1309",
"w  c #551304",
"e  c #5B1304",
"r  c #541A09",
"t  c #5B1A0A",
"y  c #471716",
"u  c #511711",
"i  c #610D01",
"p  c #641403",
"a  c #631A05",
"s  c #681906",
"d  c #601F13",
"f  c #552511",
"g  c #562515",
"h  c #6D2203",
"j  c #63220C",
"k  c #6B270E",
"l  c #762A06",
"z  c #7E3304",
"x  c #7B330D",
"c  c #662816",
"v  c #732D15",
"b  c #7A2B1C",
"n  c #6D321F",
"m  c #783618",
"M  c #492525",
"N  c #423533",
"B  c #6F2D21",
"V  c #693526",
"C  c #783A24",
"Z  c #673836",
"A  c #5B403E",
"S  c #65463B",
"D  c #764733",
"F  c #7A4835",
"G  c #464243",
"H  c #584A4A",
"J  c #73504A",
"K  c #6C5B5A",
"L  c #725B59",
"P  c #7D6655",
"I  c #6E6060",
"U  c #796766",
"Y  c #7A7473",
"T  c #812E02",
"R  c #853806",
"E  c #843C0A",
"W  c #863C18",
"Q  c #883F29",
"!  c #833D32",
"~  c #8B460B",
"^  c #90420E",
"/  c #894418",
"(  c #934B17",
")  c #93531D",
"_  c #99551C",
"`  c #8A4627",
"'  c #964B29",
"]  c #995628",
"[  c #864936",
"{  c #8E4F32",
"}  c #975935",
"|  c #9D5B3C",
" . c #A25A29",
".. c #A35C38",
"X. c #9C6237",
"o. c #A56334",
"O. c #A4643B",
"+. c #AA6839",
"@. c #B26C39",
"#. c #AF713F",
"$. c #88564A",
"%. c #975B46",
"&. c #875B53",
"*. c #935D50",
"=. c #9A674A",
"-. c #886456",
";. c #8D6A52",
":. c #9A6959",
">. c #9B7159",
",. c #A96645",
"<. c #A46C4C",
"1. c #B56F45",
"2. c #AB7249",
"3. c #B27344",
"4. c #B3734B",
"5. c #B7784A",
"6. c #A87959",
"7. c #BC7B54",
"8. c #B57959",
"9. c #8D6F67",
"0. c #876B6A",
"q. c #9D7968",
"w. c #877A79",
"e. c #997D76",
"r. c #A97567",
"t. c #B67E65",
"y. c #A87F72",
"u. c #C2794B",
"i. c #C07C56",
"p. c #AD825E",
"a. c #BA8054",
"s. c #BC835D",
"d. c #958371",
"f. c #96847B",
"g. c #A8826E",
"h. c #BA8768",
"j. c #A88677",
"k. c #B78B74",
"l. c #B8947A",
"z. c #C28357",
"x. c #C2845B",
"c. c #C28562",
"v. c #C48B64",
"b. c #CA8A65",
"n. c #C38D6C",
"m. c #CB8E6A",
"M. c #D18E65",
"N. c #CC936E",
"B. c #C18C75",
"V. c #CB9473",
"C. c #C5957C",
"Z. c #CC9C7B",
"A. c #D29775",
"S. c #D29B7C",
"D. c #D7A17E",
"F. c #988784",
"G. c #948C85",
"H. c #9D9696",
"J. c #AE8E84",
"K. c #AB9487",
"L. c #B79889",
"P. c #A69B97",
"I. c #B69E98",
"U. c #B5A18E",
"Y. c #B7A499",
"T. c #B7A7A5",
"R. c #B3ACAB",
"E. c #BAB3B3",
"W. c #CA9D85",
"Q. c #D29C81",
"!. c #D09D88",
"~. c #C7A189",
"^. c #D4A284",
"/. c #D9A887",
"(. c #DBA48A",
"). c #DBAA8C",
"_. c #C7A696",
"`. c #D7AA94",
"'. c #CCB599",
"]. c #DCB193",
"[. c #D9B29B",
"{. c #E3AF8F",
"}. c #E5B294",
"|. c #E4B49B",
" X c #E9B49B",
".X c #C2ABA2",
"XX c #D4ABA4",
"oX c #CAB5A8",
"OX c #D7B6A4",
"+X c #D4BCAC",
"@X c #DEBDAB",
"#X c #C6BAB7",
"$X c #CCBDB2",
"%X c #D2BCB4",
"&X c #DBBEB4",
"*X c #E1B6A3",
"=X c #E3BBA5",
"-X c #E7BCA9",
";X c #DAC4AB",
":X c #CFC0B5",
">X c #D4C4BB",
",X c #DAC7B9",
"<X c #E9C3AC",
"1X c #F4C3AC",
"2X c #E8CAB8",
"3X c #F7C9B7",
"4X c #E6D0BA",
"5X c #F6D1BF",
"6X c #C9C7C6",
"7X c #DBCDC3",
"8X c #D4CCC9",
"9X c #CED2C6",
"0X c #DAD4CB",
"qX c #DBD8D6",
"wX c #E7CDC3",
"eX c #E9D6C7",
"rX c #E3D5CD",
"tX c #F8D5C4",
"yX c #F2DBCC",
"uX c #E4DAD3",
"iX c #E8DCD7",
"pX c #ECDDD4",
"aX c #E3DCDA",
"sX c #F2DDD6",
"dX c #DCE8DD",
"fX c #EDE0CE",
"gX c #E7E4D8",
"hX c #ECE4DB",
"jX c #F1E4D6",
"kX c #F2E5DC",
"lX c #DCEAE2",
"zX c #DDEEEB",
"xX c #DDF0EC",
"cX c #DEF4F3",
"vX c #D8F8F5",
"bX c #E6E3E2",
"nX c #EBE5E3",
"mX c #E6EAE4",
"MX c #EDEAE4",
"NX c #E6EDE9",
"BX c #EDEBEA",
"VX c #F1E5E1",
"CX c #F2EAE5",
"ZX c #F2EDEB",
"AX c #E3F3ED",
"SX c #E9F2E9",
"DX c #F5F1EE",
"FX c #E1F5F3",
"GX c #E9F4F1",
"HX c #F5F4F3",
"JX c #F9F6F4",
"KX c #FAF8F7",
"LX c #FFFFFF",
/* pixels */
"LXLXLXLXLXLXLXLXLXLXLXLXLXLXLXLXLXLXLXLXLXLXLXLXLXLXLXLXLXLXLXLXLXLXLXLXLXLXLXLXLXLXLXLXLXLXLXLXLXLXLXLXLXLXLXLXLXLXLXLXLXLXLXLX",
"LXLXLXLXLXLXLXLXLXLXLXLXLXLXLXLXLXLXLXLXLXLXLXLXLXLXLXLXLXLXLXLXLXLXLXLXLXLXLXLXLXLXLXLXLXLXLXLXLXLXLXLXLXLXLXLXLXLXLXLXLXLXLXLX",
"LXLXLXLXLXLXLXLXLXLXLXLXLXLXLXLXLXLXLXLXLXLXLXLXLXLXLXLXLXLXLXLXLXLXLXLXLXLXLXLXLXLXLXLXLXLXLXLXLXLXLXLXLXLXLXLXLXLXLXLXLXLXLXLX",
"LXLXLXLXLXLXLXLXLXLXLXLXLXLXLXLXLXLXLXLXLXLXLXLXLXLXLXLXLXLXLXLXLXLXLXLXLXLXLXLXLXLXLXLXLXLXLXLXLXLXLXLXLXLXLXLXLXLXLXLXLXLXLXLX",
"LXLXLXLXLXLXLXLXLXLXLXLXLXLXLXLXLXLXLXLXLXLXLXLXLXLXLXLXLXLXLXLXLXLXLXLXLXLXLXLXLXLXLXLXLXLXLXLXLXLXLXLXLXLXLXLXLXLXLXLXLXLXLXLX",
"LXLXLXLXLXLXLXLXLXLXLXLXLXLXLXLXLXLXLXLXLXLXLXLXLXLXLXLXLXLXLXLXLXLXLXLXLXLXLXLXLXLXLXLXLXLXLXLXLXLXLXLXLXLXLXLXLXLXLXLXLXLXLXLX",
"LXLXLXLXLXLXLXLXLXLXLXLXLXLXLXLXLXLXLXLXLXLXLXLXLXLXLXLXLXLXLXLXLXLXLXLXLXLXLXLXLXLXLXLXLXLXLXLXLXLXLXLXLXLXLXLXLXLXLXLXLXLXLXLX",
"LXLXLXLXLXLXLXLXLXLXLXLXLXLXLXLXLXLXLXLXLXLXLXLXLXLXLXLXLXLXLXLXLXLXLXLXLXLXLXLXLXLXLXLXLXLXLXLXLXLXLXLXLXLXLXLXLXLXLXLXLXLXLXLX",
"LXLXLXLXLXLXLXLXLXLXKXJXkXpXyXpXCXHXKXLXLXLXLXLXLXLXLXLXLXLXLXLXLXLXLXLXLXLXLXLXLXLXLXLXLXLXLXLXLXKXDXqX#XT.E.8XBXLXLXLXLXLXLXLX",
"LXLXLXLXLXLXLXLXKXhX&XW.B.h.h.h.C._.&XpXZXKXLXLXLXLXLXLXLXLXLXLXLXLXLXLXLXLXLXLXLXLXLXLXLXLXLXHXqXI.0.Z u 6 > M U E.ZXLXLXLXLXLX",
"LXLXLXLXLXLXLXZX@Xt...{ ` W m n C C C $.:.J.%XwXiXhXBXLXLXLXLXLXLXLXLXLXLXLXLXLXLXLXLXKXKXCX:X9.Z 6 * * 2 2 * & & M 0.uXLXLXLXLX",
"LXLXLXLXLXLXpX!.| v t q 4 = = & & & $ & - y C %.=.l.,XLXLXLXLXLXLXLXLXLXLXLXLXLXLXLXKX,XU.r.Z c a 2 * * 2 3 5 2 & $ % U bXLXLXLX",
"LXLXLXLXLXpXV.{ t = # O O # > H K K H < > > f V ;.$XDXLXLXLXLXLXLXLXLXLXLXLXLXLXLXLXKX7Xk.=.} } { C c g v k s w * $ O > G.HXLXLX",
"LXLXLXLXhXC.` w $ o   . : K E.aXBXHXbX6XE.R.P.#XbXLXLXLXLXLXLXLXLXLXLXLXLXLXLXLXLXLXLXKXuX+X.X+X$XoXL.g.h.7.] k w & O X < 6XKXLX",
"LXLXLXCXW.` w # o   . N P.BXLXLXLXLXLXLXLXLXLXLXLXLXLXLXLXLXLXLXLXLXLXLXLXLXLXLXLXLXLXLXLXLXLXLXLXLXKXCXwX|.A.o.l w & O o G.KXLX",
"LXLXLXOX| t $ .     N E.LXLXLXLXLXLXLXLXLXLXLXLXHXZXCXBXBXHXKXLXLXLXLXLXLXLXKXLXLXLXLXLXLXLXLXLXLXLXLXLXKXyX}.b.] x t & o G bXLX",
"LXLXkXh./ 4 O X   @ P.LXLXLXLXLXLXLXLXLXLXLXKXhX,X+X@XoXXX%X0XZXLXLXLXJXiXwXeXpXkXJXLXLXLXLXLXLXLXLXLXLXLXKX2X!.i.+./ 8 O , 6XLX",
"LXLXeXh.' w $ o X H bXLXLXLXLXLXLXLXLXLXLXZXeX=X[.].].|.*XOX-XwXkXCXuX;X_.W.S.Z.~.U.:XBXLXLXLXLXLXLXLXLXLXLXVX=X(.M.#.c $ @ P.LX",
"LXKXjX@X4.d * O @ H.KXLXLXLXLXLXLXLXLXLXZX,X^.Z.m.x.v.m.V.^.).`.=XoXl.l.h.4.O...} { $.j.nXLXLXLXLXLXLXLXLXLXJXeX5X-Xv.C - O G.LX",
"LXHXZXjXW.v 3 # , #XLXLXLXLXLXLXLXLXLXhX=XZ.7.#.}  ...o.+.5.i.7.7.s.s.3.] x d w 0 q t g g.nXLXLXLXLXLXLXLXLXKXiXmXgX).] 6 O U HX",
"LXHXFXZX`.C 3 $ 1 8XLXLXLXLXLXLXLXLXmX~.v.1.{ W k j f j k W ]  ./ ` ,.} v i 3 * # O O & c L.ZXLXLXLXLXLXLXLXLXaXxXNX|.} 6 O I DX",
"LXGXFXGXOX` 5 # G lXLXLXLXLXLXLXLXqXj.} / k r = $ # $ & * 5 j k s 9 ! { a 3 * # o     O * C _.KXLXLXLXLXLXLXKXaXxXSX).` = O I HX",
"LXGXcXNX*X' w # 1 dXLXLXLXLXLXLX8XL g r 4 $ # o . . o O # # & & 6 c $.| g 2 $ O       X # 6 C %XLXLXLXLXLXLXKXuXNXfXn.c $ X G.KX",
"LXGXcXgX/. .p # 1 qXLXLXLXLXLX9XH % $ $ O o .   X + @ + + @ > A e.l.B.i.| C - % o .     o $ u *.uXLXLXLXLXLXnXrXhX'.| 0 O + H.LX",
"KXNXNX4XN.' s # , 6XKXLXLXLX6XG X X o . X : N K f.H.P.f.f.I.$X0XVX2XZ.s.O.` C =.D M : X   o & q &.,XDXJXCXrXOX=X~.%.f = O : E.LX",
"LXqXgX2XN.` e $ + w.BXLXFXR.G       + < J g._.<XeXjXgXeXjXkXsXhXhXfX'.>.V v c.).p.X.F ; + O O $ - S q.l.h.6.2.=.D r * $ # < 8XLX",
"LXqXrX5X^.' 9 $ o : Y H.Y ,     . : S 6.n.S.Q. XXXL.9.d.4X5X<X[.OX,XeX;Xj.[ t.S.4.3.8.V # # + o O # = r f f r 4 = & $ # # H bXLX",
"LXnX&X3X}.X.e $ .   X + X       @ S X.+.3.7.M.B.$.&.V >.}.D.i...,.8.l.'.'.:.t.8.` { i.} y # # o X . o O # # O O O O # # > H.KXLX",
"LXHX&X*X{.+.j = o             + f / ^ _ ] @.i.%.$.h.6.).S.2.) ( ..i.V.Q.W.`.^.<.{ ,.8.h.V $ $ O .   . . . . X o O O O % L bXLXLX",
"LXLXrX_.A.1.v 4 # . . . . . . ; v l l z ~ _ ..m n <./.1X(.O.) o.z.A.S.(.=X-XZ.} 8.(.=X2Xj.y $ # O .       . o O # # > 0.qXLXLXLX",
"LXLXKXoX8.o.m e 2 & $ # o o O u a i p s l ~ ) ` a v ,.v.m...] s.D.S.[ r.eX2XQ.7.D.<XfX0X7X0.& $ $ o   . o O # # $ M F.BXLXLXLXLX",
"LXLXLXMXl.m x p 9 9 5 * # o ; w 8 3 8 9 s T ^  .b p x o.z.@...m. X-Xq.K.hXsX^.v.{.yXfXK.:XU.> & $ # O O # # $ > L E.HXLXLXLXLXLX",
"LXLXLXLXhX$.9 7 i s s 9 & % 6 3 2 - 2 3 i l R ' Q p h 4.(.M.,.i.<XjXgXlXAXyXD.7.].fXNX9XuXL.6 * & & $ % M J w.E.nXLXLXLXLXLXLXLX",
"LXLXLXLXLX>XJ u 7 i p p * $ 6 3 * & & 3 9 h R W b 9 v S.1X}.4.2.=XkXAXFXSXeXZ.3.h.4XMXSXuX&.4 4 2 3 8 g K.mXKXLXLXLXLXLXLXLXLXLX",
"LXLXLXLXLXKXaXT.&.B s 9 6 8 8 3 * & & 2 9 h E v 9 3 C *XtX3X{.V.].yXkXkXyXOXV.7.+.h.;XeXL.n w 9 9 i s E L.LXLXLXLXLXLXLXLXLXLXLX",
"LXLXLXLXLXLXLXLXnX#Xj.*.C v p 8 2 * 2 7 i l x a 3 8 '  X3X X X}.1X5XtX5X=X).S.c.+._ p.'.6.m h s s h T W <.7XLXLXLXLXLXLXLXLXLXLX",
"LXLXLXLXLXLXLXLXKXLXKXuX<.T l e 8 3 7 9 s x j 0 d C } N.(.S.S.}.3XtXtX3X-X{.^.M.5._ ] k.k.6.W R T E ( _  .t.$XnXLXLXLXLXLXLXLXLX",
"LXLXLXLXLXLXLXLXLXLXLXZX6.R R h s p s l x c u F <...(  .5.x.m.).-XtX3X1X X}.).S.x.@.] <.k.,XL.>.{ ` ] @.u.,.C #XLXLXLXLXLXLXLXLX",
"LXLXLXLXLXLXLXLXLXLXKX,X2.] ( R z z T W W B y C n.+.E ^ _ @.s.A. X3X*XC.k.C.(.).A.s.+.} ;.0XHXuX.Xg.X.5.c.k.K.bXLXLXLXLXLXLXLXLX",
"LXLXLXLXLXLXLXLXLXLXMXW.5.+. . .( ~ ~ | 6.r.S V 6.+.E R R  .5.m.(.Q.C.`.`.`.C.B.!.S.z. .} Y.%X'.>XmX8X7XrXhXHXLXLXLXLXLXLXLXLXLX",
"LXLXLXLXLXLXLXLXLXLXiX~.m.i.7.#.o.] a.,XhXuX8X>Xk.` z z z ^ o.v.Q.r.:.XXtXtX<Xy.:.y.S.b.,.O.o.] >.0XLXLXLXLXLXLXLXLXLXLXLXLXLXLX",
"LXLXLXLXLXLXLXLXLXHXeX=X).S.h.8.l.~.uXLXLXLXLXLX%Xb s l l z ~ 3.Q.t.r.-X_.;XeX2Xk.:.Q.}.N.2._ ^ ` _.LXLXLXLXLXLXLXLXLXLXLXLXLXLX",
"LXLXLXLXLXLXLXLXHXrXeX3X`.k.W.7XCXJXLXLXLXLXLXLXaXJ e z z T R _ 4.C.*X_.S q.'.5XtX-X-X-X-X).x.+..._.KXLXLXLXLXLXLXLXLXLXLXLXLXLX",
"LXLXLXLXLXLXLXLXnX7XrX2X_.0XHXLXLXLXLXLXLXLXLXLXKXj.v ( ~ R ^ ~ ] i.-XwXY.U.K.'.yXsXsXtXyXtX1X).k._.HXLXLXLXLXLXLXLXLXLXLXLXLXLX",
"LXLXLXLXLXLXLXLXDX0XaXnXZXLXLXLXLXLXLXLXLXLXLXLXLXrX<._  . ._ ~ ~ 3.=XsXVXgX:XoXgXnXhXhXhXjXtX_.K.qXLXLXLXLXLXLXLXLXLXLXLXLXLXLX",
"LXLXLXLXLXLXLXLXLXKXLXLXLXLXLXLXLXLXLXLXLXLXLXLXLXKXoX} @.u.#._ _ 5.@XnXNXAXdXqXmXBXAXSXgX;Xy.F.8XLXLXLXLXLXLXLXLXLXLXLXLXLXLXLX",
"LXLXLXLXLXLXLXLXLXLXLXLXLXLXLXLXLXLXLXLXLXLXLXLXLXLXCXk.} 1.b.3.4.Z.eXAXcXAXFXFXFXFXGX9Xj.$.e.bXLXLXLXLXLXLXLXLXLXLXLXLXLXLXLXLX",
"LXLXLXLXLXLXLXLXLXLXLXLXLXLXLXLXLXLXLXLXLXLXLXLXLXLXLXCXJ.{ 8.c.r.=XkXAXcXcXcXcXcXvXAXY.j.g..XKXLXLXLXLXLXLXLXLXLXLXLXLXLXLXLXLX",
"LXLXLXLXLXLXLXLXLXLXLXLXLXLXLXLXLXLXLXLXLXLXLXLXLXLXLXLXnXF.{ 7.h.U.hXFXFXcXxXxXvXvXvXlXdXgXoX#XDXLXLXLXLXLXLXLXLXLXLXLXLXLXLXLX",
"LXLXLXLXLXLXLXLXLXLXLXLXLXLXLXLXLXLXLXLXLXLXLXLXLXLXLXLXLXZXK.%.c.g.:XAXcXFXcXAXzXxXlXvXxXgX:XK.bXLXLXLXLXLXLXLXLXLXLXLXLXLXLXLX",
"LXLXLXLXLXLXLXLXLXLXLXLXLXLXLXLXLXLXLXLXLXLXLXLXLXLXLXLXLXLXDXoX8.V.l.R.6X9X9X0X#XK.f.Y Y w.F.#XKXLXLXLXLXLXLXLXLXLXLXLXLXLXLXLX",
"LXLXLXLXLXLXLXLXLXLXLXLXLXLXLXLXLXLXLXLXLXLXLXLXLXLXLXLXLXLXLXKX_.c.).d.P 9.d.l.Y.:X:XP.f.d.mXLXLXLXLXLXLXLXLXLXLXLXLXLXLXLXLXLX",
"LXLXLXLXLXLXLXLXLXLXLXLXLXLXLXLXLXLXLXLXLXLXLXLXLXLXLXLXLXLXLXLXgXl.m.].[.].].;X2X4XeXeXyX$XHXLXLXLXLXLXLXLXLXLXLXLXLXLXLXLXLXLX",
"LXLXLXLXLXLXLXLXLXLXLXLXLXLXLXLXLXLXLXLXLXLXLXLXLXLXLXLXLXLXLXLXLXiXj.2.s.h.v.s.h.v.m.S.`.oXKXLXLXLXLXLXLXLXLXLXLXLXLXLXLXLXLXLX",
"LXLXLXLXLXLXLXLXLXLXLXLXLXLXLXLXLXLXLXLXLXLXLXLXLXLXLXLXLXLXLXLXLXLXuXj.} } ) F *.-.>.g.j.T.KXLXLXLXLXLXLXLXLXLXLXLXLXLXLXLXLXLX",
"LXLXLXLXLXLXLXLXLXLXLXLXLXLXLXLXLXLXLXLXLXLXLXLXLXLXLXLXLXLXLXLXLXLXLXBXoXd.d.T.>X0XqXbXaXBXLXLXLXLXLXLXLXLXLXLXLXLXLXLXLXLXLXLX",
"LXLXLXLXLXLXLXLXLXLXLXLXLXLXLXLXLXLXLXLXLXLXLXLXLXLXLXLXLXLXLXLXLXLXLXLXLXDXHXLXLXLXLXLXLXLXLXLXLXLXLXLXLXLXLXLXLXLXLXLXLXLXLXLX",
"LXLXLXLXLXLXLXLXLXLXLXLXLXLXLXLXLXLXLXLXLXLXLXLXLXLXLXLXLXLXLXLXLXLXLXLXLXLXLXLXLXLXLXLXLXLXLXLXLXLXLXLXLXLXLXLXLXLXLXLXLXLXLXLX",
"LXLXLXLXLXLXLXLXLXLXLXLXLXLXLXLXLXLXLXLXLXLXLXLXLXLXLXLXLXLXLXLXLXLXLXLXLXLXLXLXLXLXLXLXLXLXLXLXLXLXLXLXLXLXLXLXLXLXLXLXLXLXLXLX",
"LXLXLXLXLXLXLXLXLXLXLXLXLXLXLXLXLXLXLXLXLXLXLXLXLXLXLXLXLXLXLXLXLXLXLXLXLXLXLXLXLXLXLXLXLXLXLXLXLXLXLXLXLXLXLXLXLXLXLXLXLXLXLXLX",
"LXLXLXLXLXLXLXLXLXLXLXLXLXLXLXLXLXLXLXLXLXLXLXLXLXLXLXLXLXLXLXLXLXLXLXLXLXLXLXLXLXLXLXLXLXLXLXLXLXLXLXLXLXLXLXLXLXLXLXLXLXLXLXLX",
"LXLXLXLXLXLXLXLXLXLXLXLXLXLXLXLXLXLXLXLXLXLXLXLXLXLXLXLXLXLXLXLXLXLXLXLXLXLXLXLXLXLXLXLXLXLXLXLXLXLXLXLXLXLXLXLXLXLXLXLXLXLXLXLX",
"LXLXLXLXLXLXLXLXLXLXLXLXLXLXLXLXLXLXLXLXLXLXLXLXLXLXLXLXLXLXLXLXLXLXLXLXLXLXLXLXLXLXLXLXLXLXLXLXLXLXLXLXLXLXLXLXLXLXLXLXLXLXLXLX",
"LXLXLXLXLXLXLXLXLXLXLXLXLXLXLXLXLXLXLXLXLXLXLXLXLXLXLXLXLXLXLXLXLXLXLXLXLXLXLXLXLXLXLXLXLXLXLXLXLXLXLXLXLXLXLXLXLXLXLXLXLXLXLXLX"
};
