/* XPM */
static char *yacas[] = {
/* columns rows colors chars-per-pixel */
"64 64 256 2",
"   c #020304",
".  c #030806",
"X  c #040609",
"o  c #070909",
"O  c #0A0C0D",
"+  c #0C0E10",
"@  c #180E1A",
"#  c #0F1111",
"$  c #121415",
"%  c #151718",
"&  c #17191A",
"*  c #1A1C1D",
"=  c #1D1F20",
"-  c #171B24",
";  c #261E29",
":  c #1F2122",
">  c #222425",
",  c #2C2D23",
"<  c #252728",
"1  c #26292A",
"2  c #2A2C2D",
"3  c #2D2D30",
"4  c #2F3132",
"5  c #323435",
"6  c #343738",
"7  c #36393B",
"8  c #3B3D3D",
"9  c #424436",
"0  c #3C3F40",
"q  c #483E4A",
"w  c #3E4141",
"e  c #434545",
"r  c #484846",
"t  c #464949",
"y  c #4A4C4C",
"u  c #48444B",
"i  c #484C53",
"p  c #4F5153",
"a  c #535456",
"s  c #555758",
"d  c #565859",
"f  c #5B5C5D",
"g  c #565856",
"h  c #465749",
"j  c #517954",
"k  c #477D49",
"l  c #6C6852",
"z  c #5C5E62",
"x  c #5E6162",
"c  c #626364",
"v  c #656768",
"b  c #67696A",
"n  c #6B6D6D",
"m  c #6C6F71",
"M  c #6E7071",
"N  c #727374",
"B  c #7B7D7D",
"V  c #757778",
"C  c #2DFC2E",
"Z  c #3CFD3C",
"A  c #34FB34",
"S  c #61AE62",
"D  c #3FF840",
"F  c #45FD45",
"G  c #4DFF4D",
"H  c #4AF84A",
"J  c #55FD55",
"K  c #58FF57",
"L  c #5DFF5D",
"P  c #56F358",
"I  c #48E649",
"U  c #61EF63",
"Y  c #63FD63",
"T  c #6DFE6D",
"R  c #65F666",
"E  c #76EF77",
"W  c #6FFB70",
"Q  c #75FF75",
"!  c #7BFE7B",
"~  c #FFD529",
"^  c #FFD82C",
"/  c #FFDA3C",
"(  c #F9D33A",
")  c #B1A572",
"_  c #C9AF4D",
"`  c #C8B875",
"'  c #FFDB44",
"]  c #F6D44A",
"[  c #FEDC4C",
"{  c #FAD543",
"}  c #EECF50",
"|  c #EFD15C",
" . c #F4D555",
".. c #FEDC54",
"X. c #FCDC5C",
"o. c #F1DA5F",
"O. c #EFD260",
"+. c #FADE6D",
"@. c #FADC66",
"#. c #E2CE7D",
"$. c #F8DE79",
"%. c #E7D378",
"&. c #FFE063",
"*. c #FFE26C",
"=. c #FEE374",
"-. c #FEE37C",
";. c #7C7F80",
":. c #7F7581",
">. c #3839FB",
",. c #3D40F8",
"<. c #4242FD",
"1. c #4C4CFE",
"2. c #5454FE",
"3. c #5C5CFE",
"4. c #6464FD",
"5. c #6969FF",
"6. c #7373FE",
"7. c #7A7AFE",
"8. c #7375F6",
"9. c #7F8283",
"0. c #828384",
"q. c #878989",
"w. c #8A8C8C",
"e. c #878289",
"r. c #918A92",
"t. c #8E9193",
"y. c #939595",
"u. c #949798",
"i. c #97999A",
"p. c #9B9C9D",
"a. c #94968B",
"s. c #9EA1A1",
"d. c #A3A4A5",
"f. c #A6A9A9",
"g. c #AAACAC",
"h. c #ABA2AC",
"j. c #ADAFB0",
"k. c #ADB1B2",
"l. c #B2B4B4",
"z. c #B8B8B7",
"x. c #B6B7B8",
"c. c #B6BABA",
"v. c #BABDBD",
"b. c #88EC8A",
"n. c #83FE83",
"m. c #8CFE8C",
"M. c #93FE93",
"N. c #9EFE9E",
"B. c #BFC0BF",
"V. c #A2FEA2",
"C. c #ADFFAD",
"Z. c #A4F0A6",
"A. c #B6EBB7",
"S. c #AFF2B0",
"D. c #B4FFB4",
"F. c #BBFEBB",
"G. c #B2F3B3",
"H. c #A6E5A7",
"J. c #E6D387",
"K. c #F2DC86",
"L. c #E6D593",
"P. c #FEE586",
"I. c #FFE78C",
"U. c #FFF186",
"Y. c #FFF28C",
"T. c #FCE695",
"R. c #FEE994",
"E. c #FFEA99",
"W. c #FFF491",
"Q. c #C3C2B7",
"!. c #DCD3B1",
"~. c #EBDEAA",
"^. c #E1D9B7",
"/. c #FEEBA5",
"(. c #FFEDAB",
"). c #FFF8A7",
"_. c #FFF2A9",
"`. c #FFF2A0",
"'. c #FDEDB0",
"]. c #FCEFBC",
"[. c #F3E9BF",
"{. c #FFF0B7",
"}. c #FEF0BC",
"|. c #FFFABE",
" X c #BBBFC0",
".X c #8383FE",
"XX c #8C8CFD",
"oX c #9595FD",
"OX c #9A9AFE",
"+X c #B7B7EB",
"@X c #A5A5FF",
"#X c #ABABFE",
"$X c #A2A4F5",
"%X c #ADB2F5",
"&X c #B4B4FE",
"*X c #BCBCFE",
"=X c #BEC1C2",
"-X c #C2C3C4",
";X c #C5C8C9",
":X c #CACBCC",
">X c #CDD0CE",
",X c #D3D1CB",
"<X c #C9CED7",
"1X c #DBCCDC",
"2X c #CED1D2",
"3X c #D3D4D5",
"4X c #DBDBD4",
"5X c #D6D7D8",
"6X c #D6D8D8",
"7X c #DADBDC",
"8X c #D8D5DA",
"9X c #C5EDC7",
"0X c #C5FDC5",
"qX c #CBFFCB",
"wX c #CDF2CE",
"eX c #D1FED1",
"rX c #DCFCDC",
"tX c #D8F4DA",
"yX c #FAEEC2",
"uX c #F5EDCB",
"iX c #FEF2C4",
"pX c #FFF4CC",
"aX c #FFFBC6",
"sX c #F1EDDD",
"dX c #FDF4D4",
"fX c #FDF6DB",
"gX c #E9E6D5",
"hX c #D1D5EA",
"jX c #C4C4FD",
"kX c #CACAFE",
"lX c #D3D3FE",
"zX c #DEDEFD",
"xX c #D8DBF6",
"cX c #E2D6E3",
"vX c #DEE0E1",
"bX c #E3E4E4",
"nX c #E7E7E8",
"mX c #E7E8E9",
"MX c #EBEBEC",
"NX c #ECE1EE",
"BX c #E3FEE3",
"VX c #EBFDEB",
"CX c #FFF9E4",
"ZX c #FEFAEB",
"AX c #F6F3E7",
"SX c #EEECF0",
"DX c #E3E4FD",
"FX c #EBEBFD",
"GX c #E7E8F1",
"HX c #EDF1FE",
"JX c #F4F4F4",
"KX c #FFFCF3",
"LX c #F5F6FC",
"PX c #F7F9FA",
"IX c #FFFFFF",
"UX c #FAF9FA",
/* pixels */
"IXIXIXIXIXIXIXIXIXIXIXIXIXIXIXIXIXIXIXIXIXIXIXIXIXIXIXIXIXIXIXIXIXIXIXIXIXIXIXIXIXIXIXIXIXIXIXIXIXIXIXIXIXIXIXIXIXIXIXIXIXIXIXIX",
"IXIXIXIXIXIXIXIXIXIXIXIXIXIXIXIXIXIXIXIXIXIXIXIXIXIXIXIXIXIXIXIXIXIXIXIXIXIXIXIXIXIXIXIXIXIXIXIXIXIXIXIXIXIXIXIXIXIXIXIXIXIXIXIX",
"IXIXIXIXIXIXIXIXIXIXIXIXIXIXIXIXIXIXIXIXIXIXIXIXIXIXIXIXIXIXIXIXIXIXIXIXIXIXIXIXIXIXIXIXIXIXIXIXIXIXIXIXIXIXIXIXIXIXIXIXIXIXIXIX",
"IXIXIXIXIXIXIXIXIXIXIXIXIXIXIXIXIXIXIXIXIXIXIXIXIXIXIXIXIXIXIXIXIXIXIXIXIXIXIXIXIXIXIXIXIXIXIXIXIXIXIXIXIXIXIXIXIXIXIXIXIXIXIXIX",
"IXIXIXIXIXIXIXIXIXIXIXIXIXIXIXIXIXIXIXIXIXIXIXIXIXIXIXIXIXIXIXIXIXIXIXIXIXIXIXIXIXIXIXIXIXIXIXUXIXIXIXIXIXIXIXIXIXIXIXIXIXIXIXIX",
"IXIXIXIXIXIXIXIXIXIXIXIXIXIXIXIXIXIXIXIXIXIXIXIXIXIXIXIXIXIXIXIXIXIXIXIXIXIXIXIXIXIXIXIXIXIXUXUXUXIXIXUXIXIXIXIXIXIXIXIXIXIXIXIX",
"IXIXIXIXIXIXIXIXIXIXIXIXIXIXIXIXIXIXsXsXLXIXIXIXIXIXIXIXIXIXIXIXIXIXIXIXIXIXIXIXIXIXIXIXIX0XY U P G.UXIXIXIXIXIXIXIXIXIXIXIXIXIX",
"IXIXIXIXIXIXIXIXIXIXIXIXIXIXnX<X^.+.' ( %.5X<X6X6X6X5X3X3XbXIXIXIXIXIXIXIXIXIXIXIXIXIXNXH.G G K G C b.8X3X6X6X3X3X7XIXIXIXIXIXIX",
"IXIXIXIXIXIXIXIXIXIXIX3Xa d 7 l o.*.-.=.'  .9.2 4 4 4 6 p. XUXIXIXIXIXIXIXIXIXIXIXw.t h I ! N.N.m.K Z j 2 5 6 5 n 3XIXIXIXIXIXIX",
"IXIXIXIXIXIXIXIXIXIXIXbX* O e _ U.(.}.(.-./ ` w r y e X n v.mXIXIXIXIXIXIXIXIXIXUX1 @ k Y V.eXrXD.n.F S q y 7   s PXIXIXIXIXIXIX",
"IXIXIXIXIXIXIXIXIXIXUXIXu.O ,XU.T.fXKXpXR.' L.IXIXIXIXw 7 k.3XIXIXIXIXIXIXIXIXIX:XO h.BXL C.VXUX0Xm.Z G.IXIXw.+ j.IXIXIXIXIXIXIX",
"IXIXIXIXIXIXIXIXIXIXIXIXMX% M W.R.fXZXpXR.' L.IXIXIXIXq.# s.;XIXIXIXIXIXIXIXUXIXw.o bXUX! M.qXqXD.Q J BXIXJX1 8 vXIXIXIXIXIXIXIX",
"IXIXIXIXIXIXIXIXIXIXIXUXIXN - ~.=./.{.(.*.{ uXIXUXUXIX3XO V  XMXIXIXIXIXIXIXIXIXt w IXIXeXT n.m.Q J D.UXIXv.  9.UXIXIXIXIXIXIXIX",
"IXIXIXIXIXIXIXIXIXIXIXIXIX3X  y.|.+.*.X.X.[.IXIXIXIXUXPX4 0 c.6XIXIXIXIXIXIXIXMX$ 0.IXUXIXrXN.m.M.rXIXIXIXc $ -XIXIXIXIXIXIXIXIX",
"IXIXIXIXIXIXIXIXIXIXIXIXIXIXt 6 IXfX}.].AXIXIXIXIXIXUXIXM % d.;XIXIXIXIXIXUXIXf.  ;XUXUXIXIXIXIXIXIXIXIXMX* a MXIXIXIXIXIXIXIXIX",
"IXIXIXIXIXIXIXIXIXIXIXIXUXIXl.  v.IXIXIXIXIXIXIXIXIXIXIX=X  ;. XJXIXIXIXIXIXIXv * PXIXIXIXIXIXIXIXIXUXIXp.  i.IXIXIXIXIXIXIXIXIX",
"IXIXIXIXIXIXIXIXIXIXIXIXIXIXUX2 a IXUXUXIXIXIXIXIXIXIXIXJX1 t c.7XIXIXIXUXIXPX: v IXUXIXIXIXIXUXIXIXIXIXe > 3XIXIXIXIXIXIXIXIXIX",
"IXIXIXIXIXIXIXIXIXIXIXIXIXIXIXq.  7XIXIXIXIXIXMXMXLXIXUXIXv % g.:XIXIXIXIXIX:X  f.IXUXVXtXVXIXIXIXIXIX3X# b JXIXIXIXIXIXIXIXIXIX",
"IXIXIXIXIXIXIXIXIXIXIXIXIXIXIXnX% 9.IXUXIXyX .] ( O.gXIXIXl.O w.v.JXIXIXUXIX0.$ nXIXM.H F P Z.PXIXUXIX0.O g.IXIXIXIXIXIXIXIXIXIX",
"IXIXIXIXIXIXIXIXIXIXIXIXIXIXUXIXc * SXIXiX[ &.=.@.^ } mXIXMX* s c.bXIXIXIXIXw r IXn.H T T J C b.IXIXJX3 8 vXIXIXIXIXIXIXIXIXIXIX",
"IXIXIXIXIXIXIXIXIXIXIXIXIXIXUXIX;X  p.IX=.-.(.'.E.*.~ ^.IXIXf : k.2XIXIXIXvXo r.BXJ M.C.C.M.L Z tXIXc.  0.UXIXIXIXIXIXIXIXIXIXIX",
"IXIXIXIXIXIXIXIXIXIXIXIXIXIXIXIXIX0 0 ZX-./.fXZX}.P./ !.LXIXf.O t.=XJXIXIXf.  1XD.Y D.BXBXD.Q Z 9XIXc % -XIXIXIXIXIXIXIXIXIXIXIX",
"IXIXIXIXIXIXIXIXIXIXIXIXIXIXIXIXIXf.X Q.Y./.CXKXiXI./ !.IXIXbXO x v.bXIXIXf 2 UXD.Y F.VXVXF.! Z tXMX* y MXIXIXIXIXIXIXIXIXIXIXIX",
"IXIXIXIXIXIXIXIXIXIXIXIXIXIXIXIXIXJX* z aX-.{.iX/.*.] sXIXIXIXy 1 k.2XIXJX> n IXVX! M.0XF.N.K R IXd.  p.IXIXIXIXIXIXIXIXIXIXIXIX",
"IXIXIXIXIXIXIXIXIXIXIXIXIXIXIXIXUXIX0.+ 4X_.-.-.&.@.uXIXIXUXIXy.X i.=XIX-X  k.IXIXeXT Q Q L T BXIXw 1 2XIXIXIXIXIXIXIXIXIXIXIXIX",
"IXIXIXIXIXIXIXIXIXIXIXIXIXIXIXIXIXIXbX+ 0.IXfX{.iXUXIXIXIXUXIX7X# v v.PX0.% mXIXIXIXVXC.V.D.PXIX3XO b JXIXIXIXIXIXIXIXIXIXIXIXIX",
"IXIXIXIXIXIXIXIXIXIXIXIXIXIXIXIXIXUXIXz > JXIXIXIXIXIXIXIXIXIXIX8 6 l.6Xw y IXIXIXIXIXIXIXIXIXIX0.O g.IXIXIXIXIXIXIXIXIXIXIXIXIX",
"IXIXIXIXIXIXIXIXIXIXIXIXIXIXIXIXIXUXIX-X  f.IXUXIXIXIXUXIXIXUXIXq.O g.s.O t.IXUXIXIXUXIXUXIXIXUX4 8 vXIXIXIXIXIXIXIXIXIXIXIXIXIX",
"IXIXIXIXIXIXIXIXIXIXIXIXIXIXIXIXIXIXIXUX8 e IXIXIXIXIXIXIXIXIXIX:XO S B O >XIXUXUXUXIXIXIXUXIXv.  9.UXIXIXIXIXIXIXIXIXIXIXIXIXIX",
"IXIXIXIXIXIXIXIXIXIXIXIXIXIXIXIXIXIXUXIXd.X :XIXUXIXuXP.K.~.JXIXLX0 q y 4 UX0XR P P S.UXIXIXIXc $ -XIXIXIXIXIXIXIXIXIXIXIXIXIXIX",
"IXIXIXIXIXIXIXIXIXIXIXIXIXIXIXIXIXIXIXIXJX* c IXIXE.X.X...( | MXUX:.% $ :.qXH K Y G A E PXIXMX% p MXIXIXIXIXIXIXIXIXIXIXIXIXIXIX",
"IXIXIXIXIXIXIXIXIXIXIXIXIXIXIXIXIXIXIXIXIXV O GXaX@.E./.T.=.~ J.UX-X$ X l.Q T V.V.M.Y C wXIXs.  i.IXIXIXIXIXIXIXIXIXIXIXIXIXIXIX",
"IXIXIXIXIXIXIXIXIXIXIXIXIXIXIXIXIXIXIXIXIX7X+ t.).P.aXCXiXR.' #.HXJX> ; A.Y V.eXrXF.m.Z G.IXr , 3XIXUXIXIXIXIXIXIXIXIXIXIXIXIXIX",
"IXIXIXIXIXIXIXIXIXIXIXIXIXIXIXIXIXIXIXIXIXIXp 1 R.R.fXUXdXT.[ J.HXIXp u rXR C.BXPXqXm.Z 0XcX. b JXIXIXIXIXIXIXIXIXIXIXIXIXIXIXIX",
"IXIXIXIXIXIXIXIXIXIXIXIXIXIXIXIXIXIXIXIXUXIXz.X ) Y.{.dX{.I./ J.UXIXd.w.IX! m.0XqXD.! H VXe.O l.IXIXIXIXIXIXIXIXIXIXIXIXIXIXIXIX",
"IXIXIXIXIXIXIXIXIXIXIXIXIXIXIXIXIXIXIXIXIXIXUX5 t E.=.I.-... .fXIXIX:X3XIXeXT ! n.Q J D.UX5 6 hXIXIXIXIXIXIXIXIXIXIXIXIXIXIXIXIX",
"IXIXIXIXIXIXIXIXIXIXIXIXIXIXIXIXIXIXIXIXIXUXIXi.O >X_.-.-.T.AXIXIXIXIXIXIXIXVXV.n.m.rXIX=X  9.UXIXIXIXIXIXIXIXIXIXIXIXIXIXIXIXIX",
"IXIXIXIXIXIXIXIXIXIXIXIXIXIXIXIXIXIXIXIXIXIXIXMX# M IXIXUXIXIXIXIXIXIXIXIXIXIXIXIXIXIXIXz % =XIXIXIXIXIXIXIXIXIXIXIXIXIXIXIXIXIX",
"IXIXIXIXIXIXIXIXIXIXIXIXIXIXIXIXIXIXIXIXIXIXUXIXM $ mXIXIXIXIXIXIXIXIXIXIXIXIXIXIXUXUXMX* a MXIXIXIXIXIXIXIXIXIXIXIXIXIXIXIXIXIX",
"IXIXIXIXIXIXIXIXIXIXIXIXIXIXIXIXIXIXIXIXIXIXIXIX3XX y.IXUXIXIXIXIXIXIXIXIXIXIXIXIXUXIXd.  y.IXIXIXIXIXIXIXIXIXIXIXIXIXIXIXIXIXIX",
"IXIXIXIXIXIXIXIXIXIXIXIXIXIXIXIXIXIXIXIXIXIXIXIXIXy 5 UXIXIXIXIXUXxXhXFXIXIXIXIXIXIXIXy 1 2XIXIXIXIXIXIXIXIXIXIXIXIXIXIXIXIXIXIX",
"IXIXIXIXIXIXIXIXIXIXIXIXIXIXIXIXIXIXIXIXIXIXIXIXIXl.  l.IXUXIXxX3.>.,.1.$XPXIXIXIXIX3XO v JXIXIXIXIXIXIXIXIXIXIXIXIXIXIXIXIXIXIX",
"IXIXIXIXIXIXIXIXIXIXIXIXIXIXIXIXIXIXIXIXIXIXIXIXIXUX2 y IXIXDX2.3.6.6.3.>.%XIXIXUXIX0.O j.IXIXIXIXIXIXIXIXIXIXIXIXIXIXIXIXIXIXIX",
"IXIXIXIXIXIXIXIXIXIXIXIXIXIXIXIXIXIXIXIXIXIXIXIXUXIXy.o 7XIXXX2.oX&X#XXX2.8.UXIXIXUX2 6 vXIXIXIXIXIXIXIXIXIXIXIXIXIXIXIXIXIXIXIX",
"IXIXIXIXIXIXIXIXIXIXIXIXIXIXIXIXIXIXIXIXIXIXIXIXIXIXnX% n IX8.6.*XFXzX#X5.3.UXIXIX-XX 0.UXIXIXIXIXIXIXIXIXIXIXIXIXIXIXIXIXIXIXIX",
"IXIXIXIXIXIXIXIXIXIXIXIXIXIXIXIXIXIXIXIXIXIXIXIXIXIXIX4 7 UXXX6.*XHXDX&X4.8.IXIXIXc $ v.IXIXIXIXIXIXIXIXIXIXIXIXIXIXIXIXIXIXIXIX",
"IXIXIXIXIXIXIXIXIXIXIXIXIXIXIXUXIXIXIXIXIXIXIXIXJXIXx.  j.IXjX5.oX*X&XXX3.jXIXIXMX$ a MXIXIXIXIXIXIXIXIXIXIXIXIXIXIXIXIXIXIXIXIX",
"IXIXIXIXIXIXIXIXIXIXIXIXIXIXIXIXIXIXIXIXIXIXIXIXIXJX5 6 JXIXIX&X8.6.6.4.&XIXUXIXi.  y.IXIXIXIXIXIXIXIXIXIXIXIXIXIXIXIXIXIXIXIXIX",
"IXIXIXIXIXIXIXIXIXbX7X3XvXbXbXbXnXnXnXmXmXnXbXvX X7 O ;XIXIXIXIXFX*X&XFXIXIXIXIXy > 3XIXIXIXIXIXIXIXIXIXIXIXIXIXIXIXIXIXIXIXIXIX",
"IXIXIXIXIXIXIXIX3X> $ O * 4 0 y a f c b x p 8 *   X p.IXUXIXDXIXIXIXIXIXIXIXIX:XO M UXIXIXIXIXIXIXIXIXIXIXIXIXIXIXIXIXIXIXIXIXIX",
"IXIXIXIXIXIXIXIX0.o y.q.f r 7 2 , * $ o % , 8 g a.4XIXIXIXIX&X6.IXIXUXIXIXUXIXn O  XIXIXIXIXIXIXIXIXIXIXIXIXIXIXIXIXIXIXIXIXIXIX",
"IXIXIXIXIXIXIXJX2 f IXIXIXIXUXGX+XhXbX7XnX+XDXIX#X7.6.&XDXXX7.1.@XDXIXIXIXIXbX# d UXIXIXIXIXIXIXIXIXIXIXIXIXIXIXIXIXIXIXIXIXIXIX",
"IXIXIXIXIXIXIXg.  v.IXJXIXIXIXLX6.7.IXIXjX1.*X4.7.*X@X2..XOX6.2.6.DXIXIXUXIXM X -XIXIXIXIXIXIXIXIXIXIXIXIXIXIXIXIXIXIXIXIXIXIXIX",
"IXIXIXIXIXIXIXe 5 IXIXIXIXIXIXIXzX>.lXIX3.oX7.4.jXkXkX&X<.kX*X3.IXIXIXUXIX3X  n UXIXIXIXIXIXIXIXIXIXIXIXIXIXIXIXIXIXIXIXIXIXIXIX",
"IXIXIXIXUXIX:X  i.IXIXIXIXIXIXIXIX7.7.jX2.DX3.7.#XOXOX#X.XlX&X3.UXIXIXUXUXe > MXIXIXIXIXIXIXIXIXIXIXIXIXIXIXIXIXIXIXIXIXIXIXIXIX",
"IXIXIXIXIXIXn = MXIXIXIXIXIXIXUXIXDX2.<.OXIX#X3.lXPXUXOX4.LX&X2.UXIXIXIXn   -XIXUXIXIXIXIXIXIXIXIXIXIXIXIXIXIXIXIXIXIXIXIXIXIXIX",
"IXIXIXIXIXnX$ N IXIXIXIXIXIXIXIXIXIXXX1.FXIXIX.X1.4.3.7.DXUX#X.XIXIXMXx   p.IXIXIXIXIXIXIXIXIXIXIXIXIXIXIXIXIXIXIXIXIXIXIXIXIXIX",
"IXIXIXUXIXy.O 7XIXIXIXIXIXIXIXIXIXDX1.OXIXUXIXIXFXlXzXIXIXIXIXIXMXy.* O d.IXUXIXIXIXIXIXIXIXIXIXIXIXIXIXIXIXIXIXIXIXIXIXIXIXIXIX",
"IXIXIXIXnX5 8 7XnXSXUXIXIXIXIXIXIXkX.XLXIXIXIXIXIXIXIXJXbX:Xd.f &   a 5XIXIXIXIXIXIXIXIXIXIXIXIXIXIXIXIXIXIXIXIXIXIXIXIXIXIXIXIX",
"IXIXUXIXy.  O $ * > 2 2 4 5 5 6 6 8 9 6 6 5 5 3 3 2 1 > %     2 M :XIXIXUXIXIXIXIXIXIXIXIXIXIXIXIXIXIXIXIXIXIXIXIXIXIXIXIXIXIXIX",
"IXIXIXIXnX;Xl.i.0.V v x d s s a a p p a a s d f d a v V w.j.3XUXIXIXIXIXIXIXIXIXIXIXIXIXIXIXIXIXIXIXIXIXIXIXIXIXIXIXIXIXIXIXIXIX",
"IXIXIXIXIXIXIXIXIXIXIXIXIXIXIXIXIXIXIXIXIXIXIXIXIXIXIXIXIXIXIXIXUXIXIXIXIXIXIXIXIXIXIXIXIXIXIXIXIXIXIXIXIXIXIXIXIXIXIXIXIXIXIXIX",
"IXIXIXIXIXIXUXIXIXUXUXIXIXIXIXUXIXIXUXIXIXUXUXIXIXIXIXUXUXIXIXIXIXIXIXIXIXIXIXIXIXIXIXIXIXIXIXIXIXIXIXIXIXIXIXIXIXIXIXIXIXIXIXIX",
"IXIXIXIXIXIXIXIXIXIXIXIXIXIXIXIXIXIXIXIXIXIXIXIXIXIXIXIXIXIXIXIXIXIXIXIXIXIXIXIXIXIXIXIXIXIXIXIXIXIXIXIXIXIXIXIXIXIXIXIXIXIXIXIX"
};
