/* XPM */
static char *yorick[] = {
/* columns rows colors chars-per-pixel */
"64 64 252 2",
"   c #0D0D0D0D0707",
".  c #161615150C0C",
"X  c #1B1B1A1A0F0F",
"o  c #1F1F1E1E1212",
"O  c #21211E1E1212",
"+  c #252523231515",
"@  c #292926261616",
"#  c #262625251A1A",
"$  c #2A2A27271B1B",
"%  c #2C2C2A2A1A1A",
"&  c #31312F2F1D1D",
"*  c #353532321F1F",
"=  c #343432322222",
"-  c #3A3A36362121",
";  c #3C3C3A3A2525",
":  c #303036362E2E",
">  c #363639392A2A",
",  c #3B3B3D3D2D2D",
"<  c #3B3B3E3E3333",
"1  c #33333C3C3838",
"2  c #41413D3D2828",
"3  c #3E3E41413434",
"4  c #343440403D3D",
"5  c #3D3D43433A3A",
"6  c #444442422C2C",
"7  c #494945452B2B",
"8  c #434344443434",
"9  c #494947473232",
"0  c #4B4B4A4A3434",
"q  c #444447473939",
"w  c #464649493939",
"e  c #4B4B4D4D3A3A",
"r  c #51514D4D3232",
"t  c #51514F4F3A3A",
"y  c #4F4F50503D3D",
"u  c #575754543838",
"i  c #545454543D3D",
"p  c #5C5C5A5A3D3D",
"a  c #63635E5E3F3F",
"s  c #6A6A63633E3E",
"d  c #2D2D3F3F4242",
"f  c #2E2E44444C4C",
"g  c #343442424242",
"h  c #393948484A4A",
"j  c #2E2E48485656",
"k  c #35354C4C5656",
"l  c #3C3C50505858",
"z  c #353554546666",
"x  c #2F2F58587474",
"c  c #35355D5D7676",
"v  c #363661617D7D",
"b  c #3D3D64647C7C",
"n  c #4E4E53534444",
"m  c #545455554242",
"M  c #575759594444",
"N  c #5B5B5C5C4444",
"B  c #515158584B4B",
"V  c #5B5B5E5E4A4A",
"C  c #484855555252",
"Z  c #5E5E61614747",
"A  c #5D5D60604C4C",
"S  c #5F5F62625252",
"D  c #656562624444",
"F  c #6A6A67674747",
"G  c #626264644B4B",
"H  c #6C6C6B6B4B4B",
"J  c #74746D6D4545",
"K  c #76766E6E4848",
"L  c #787870704646",
"P  c #7B7B74744B4B",
"I  c #666668685555",
"U  c #6B6B6C6C5353",
"Y  c #70706D6D5050",
"T  c #6F6F70705454",
"R  c #737373735555",
"E  c #797977775656",
"W  c #7C7C7A7A5555",
"Q  c #747475755B5B",
"!  c #7B7B7B7B5C5C",
"~  c #40405A5A6262",
"^  c #464661616969",
"/  c #4D4D6C6C7979",
"(  c #595971717272",
")  c #757576766262",
"_  c #7B7B7D7D6363",
"`  c #666676767272",
"'  c #73737F7F7575",
"]  c #81817B7B4E4E",
"[  c #82827D7D5454",
"{  c #80807F7F5D5D",
"}  c #82827F7F6262",
"|  c #7F7F81815E5E",
" . c #7F7F80806161",
".. c #757583837979",
"X. c #838381815D5D",
"o. c #8A8A84845858",
"O. c #92928C8C5C5C",
"+. c #838383836363",
"@. c #898989896767",
"#. c #848485856C6C",
"$. c #8B8B8C8C6B6B",
"%. c #92928D8D6464",
"&. c #8F8F91916E6E",
"*. c #9B9B94946363",
"=. c #929292926D6D",
"-. c #999995956E6E",
";. c #858587877272",
":. c #8B8B8B8B7272",
">. c #909090907272",
",. c #949495957474",
"<. c #9C9C9B9B7474",
"1. c #949496967979",
"2. c #9C9C9D9D7A7A",
"3. c #A2A29A9A6767",
"4. c #A1A19E9E7676",
"5. c #9E9EA1A17B7B",
"6. c #AAAAA3A36E6E",
"7. c #A5A5A3A37676",
"8. c #ACACA3A37070",
"9. c #A2A2A2A27D7D",
"0. c #B3B3ACAC7575",
"q. c #BCBCB7B77D7D",
"w. c #373766668686",
"e. c #3B3B67678383",
"r. c #3A3A6A6A8B8B",
"t. c #37376F6F9797",
"y. c #3B3B6E6E9292",
"u. c #3D3D71719494",
"i. c #3C3C74749C9C",
"p. c #3C3C7777A2A2",
"a. c #3D3D7979A3A3",
"s. c #3D3D7D7DACAC",
"d. c #3D3D7F7FB0B0",
"f. c #505075758A8A",
"g. c #404078789F9F",
"h. c #44447D7DA5A5",
"j. c #41417E7EABAB",
"k. c #3D3D8282B6B6",
"l. c #3E3E8585BBBB",
"z. c #3F3F8888BFBF",
"x. c #585882829898",
"c. c #7B7B8D8D8A8A",
"v. c #6E6E8D8D9898",
"b. c #71718C8C9292",
"n. c #73738D8D9292",
"m. c #7B7B94949999",
"M. c #45458282ADAD",
"N. c #54548484A3A3",
"B. c #57578B8BABAB",
"V. c #42428484B5B5",
"C. c #4B4B8B8BB7B7",
"Z. c #41418686BABA",
"A. c #42428989BDBD",
"S. c #56568E8EB2B2",
"D. c #67678E8EA3A3",
"F. c #6A6A9393A6A6",
"G. c #7B7B9C9CA6A6",
"H. c #66669A9AB7B7",
"J. c #3F3F8989C0C0",
"K. c #42428C8CC4C4",
"L. c #4C4C8F8FC1C1",
"P. c #42428E8EC9C9",
"I. c #43439191CCCC",
"U. c #858595958C8C",
"Y. c #95959B9B8686",
"T. c #9C9C9E9E8383",
"R. c #858597979292",
"E. c #9F9FA0A08686",
"W. c #9696A5A59A9A",
"Q. c #A3A3A4A48282",
"!. c #A9A9A7A78383",
"~. c #A7A7A8A88383",
"^. c #AAAAAAAA8585",
"/. c #A4A4A4A48A8A",
"(. c #ACACACAC8B8B",
"). c #B1B1AFAF8888",
"_. c #AFAFB0B08A8A",
"`. c #B2B2B2B28B8B",
"'. c #B9B9B7B78888",
"]. c #A8A8ABAB9595",
"[. c #B1B1AFAF9292",
"{. c #AFAFB0B09494",
"}. c #B5B5B5B59393",
"|. c #B3B3B5B59696",
" X c #BBBBBBBB9595",
".X c #B6B6B9B99E9E",
"XX c #BCBCBCBC9B9B",
"oX c #81819F9FA8A8",
"OX c #8989A4A4A5A5",
"+X c #9696ABABAAAA",
"@X c #9B9BB4B4AFAF",
"#X c #ABABB8B8A9A9",
"$X c #B7B7BEBEA9A9",
"%X c #C2C2BCBC8484",
"&X c #C0C0BEBE9B9B",
"*X c #BFBFC0C09898",
"=X c #BEBEC0C0A3A3",
"-X c #B8B8C7C7B7B7",
";X c #C2C2C2C29595",
":X c #C2C2C3C39D9D",
">X c #C9C9C7C79C9C",
",X c #C5C5C5C5A3A3",
"<X c #C7C7C8C8A3A3",
"1X c #CBCBCBCBA5A5",
"2X c #C5C5C8C8AAAA",
"3X c #CCCCCCCCACAC",
"4X c #D0D0CFCFAFAF",
"5X c #CECED0D0AAAA",
"6X c #D6D6D6D6ABAB",
"7X c #D3D3D3D3ADAD",
"8X c #C4C4CBCBB6B6",
"9X c #CBCBCECEB2B2",
"0X c #CDCDD1D1B2B2",
"qX c #CBCBD2D2BABA",
"wX c #D3D3D4D4B3B3",
"eX c #D6D6D9D9B5B5",
"rX c #DADADBDBB4B4",
"tX c #D3D3D5D5BBBB",
"yX c #D7D7D9D9BBBB",
"uX c #DBDBDCDCBBBB",
"iX c #E0E0DFDFBABA",
"pX c #DFDFE0E0BDBD",
"aX c #E1E1E1E1B7B7",
"sX c #E2E2E2E2BDBD",
"dX c #CBCBDADACACA",
"fX c #D6D6D9D9C1C1",
"gX c #D3D3DADAC4C4",
"hX c #DCDCDEDEC3C3",
"jX c #E0E0DFDFC2C2",
"kX c #DEDEE1E1C4C4",
"lX c #DFDFE2E2C8C8",
"zX c #E3E3E4E4C4C4",
"xX c #E8E8E7E7C2C2",
"cX c #E6E6E8E8C6C6",
"vX c #EAEAE9E9C6C6",
"bX c #E5E5E6E6C9C9",
"nX c #E6E6E9E9CACA",
"mX c #EAEAECECCCCC",
"MX c #F1F1EFEFCECE",
"NX c #F1F1F1F1CFCF",
"BX c #ECECEEEED2D2",
"VX c #F0F0EFEFD2D2",
"CX c #EEEEF0F0D3D3",
"ZX c #F1F1F3F3D5D5",
"AX c #F3F3F5F5DADA",
"SX c #F6F6F8F8DDDD",
"DX c #F9F9FAFADEDE",
"FX c #F6F6F7F7E2E2",
"GX c #F7F7F9F9E3E3",
"HX c #FAFAFBFBE4E4",
"JX c #FBFBFBFBEBEB",
"KX c #FDFDFDFDF2F2",
/* pixels */
"I.I.I.I.I.I.I.I.I.I.I.I.I.I.I.I.I.I.I.I.I.I.I.I.I.I.I.I.I.I.I.I.I.I.I.I.I.I.I.I.I.I.I.I.I.I.I.I.I.I.I.I.I.I.I.I.I.I.I.I.I.I.I.I.",
"I.I.I.I.I.I.I.I.I.I.I.I.I.I.I.I.I.I.I.I.I.I.I.I.I.I.I.I.I.I.I.I.I.I.I.I.I.I.I.I.I.I.I.I.I.I.I.I.I.I.I.I.I.I.I.I.I.I.I.I.I.I.I.I.",
"I.I.I.I.I.I.I.I.I.I.I.I.I.I.I.I.I.I.I.I.I.I.I.I.I.I.I.I.I.I.I.I.I.I.I.I.I.I.I.I.I.I.I.I.I.I.I.I.I.I.I.I.I.I.I.I.I.I.I.I.I.I.I.I.",
"I.I.I.I.I.I.I.I.I.I.I.I.I.I.I.I.I.I.I.I.I.I.I.I.I.I.I.I.P.K.A.Z.Z.Z.A.A.A.P.P.I.I.I.I.I.I.I.I.I.I.I.I.I.I.I.I.I.I.I.I.I.I.I.I.I.",
"I.I.I.I.I.I.I.I.I.I.I.I.I.I.I.I.I.I.I.I.I.I.I.I.I.I.I.I.L.h.y.r.e.e.e.r.g.j.z.P.K.P.P.I.I.I.I.I.I.I.I.I.I.I.I.I.I.I.I.I.I.I.I.I.",
"I.I.I.I.I.I.I.I.I.I.I.I.I.I.I.I.I.I.I.I.I.I.I.L.L.h.f.f.R.R.c.....' ' f.` ( f.e.g.A.K.I.I.I.I.I.I.I.I.I.I.I.I.I.I.I.I.I.I.I.I.I.",
"I.I.I.I.I.I.I.I.I.I.I.I.I.I.I.I.I.I.I.I.I.L.j.h.D.R.R.Y.E./.E.T.1.;.} } ) ) S S ~ / t.d.P.P.P.I.I.I.I.I.I.I.I.I.I.I.I.I.I.I.I.I.",
"I.I.I.I.I.I.I.I.I.I.I.I.I.I.I.I.I.I.I.I.L.j.D.n./.].]./.]./././.E.1.} } ) I S S V B ~ ^ p.K.P.P.I.I.I.I.I.I.I.I.I.I.I.I.I.I.I.I.",
"I.I.I.I.I.I.I.I.I.I.I.I.I.I.I.I.I.P.L.L.h.R.].{.[.[.[.[.|.|.|.[.].E.} >.} Q I S A M n n z y.d.K.I.I.I.I.I.I.I.I.I.I.I.I.I.I.I.I.",
"I.I.I.I.I.I.I.I.I.I.I.I.I.I.I.I.P.L.S.v.W..X.X.X$X$X=X&X&XXXXXXX[.[.E.T.;.} ) U I N n n n l e.s.P.I.I.I.I.I.I.I.I.I.I.I.I.I.I.I.",
"I.I.I.I.I.I.I.I.I.I.I.I.I.I.I.P.A.S.oX].$X=X=X=X&X=X,X,X,X2X,X:X&X[.!.E.>.#.} ) U G n n w q h c j.K.P.I.I.I.I.I.I.I.I.I.I.I.I.I.",
"I.I.I.I.I.I.I.I.I.I.I.I.I.I.I.k.S.+X$X8X2X2X2X8X9X4XwXwXwX4X4X3X3X&X&X!.T.1.:.} ) I M n w 8 q h c s.P.I.I.I.I.I.I.I.I.I.I.I.I.I.",
"I.I.I.I.I.I.I.I.I.I.I.I.I.K.V.D.+X8XqXwX9XwXwXfXfXfXjXiXuXyXwXwX3X,X&X&X!.E.1.>.;.! I A n 8 8 5 d e.d.P.I.I.I.I.I.I.I.I.I.I.I.I.",
"I.I.I.I.I.I.I.I.I.I.I.I.I.A.H.+X8XgXfXfXfXfXfXlXlXbXjXjXjXhXuXwX4X,X&X&X&X).!.4.>.@._ U M e 8 < 2 l w.l.I.I.I.I.I.I.I.I.I.I.I.I.",
"I.I.I.I.I.I.I.I.I.I.I.I.K.S.+X8XgXhXjXjXjXlXlXbXbXbXbXbXxXjXuXeX4X1X&X&X&X).!.!.4.1.$.Q G n 8 8 2 < z p.P.I.I.I.I.I.I.I.I.I.I.I.",
"I.I.I.I.I.I.I.I.I.I.I.P.L.oX-XhXlXlXhXjXlXmXmXmXmXmXmXMXnXzXjXrX4X3X1X>X&X&X[.).!.Q.1.+.U M e 8 2 < d z K.I.I.I.I.I.I.I.I.I.I.I.",
"I.I.I.I.I.I.I.I.I.I.I.A.N.-XgXjXzXlXbXbXnXBXBXAXCXAXAXBXBXnXbXhXeXwX1X1X,X;X X}._.~.2.#.Q A y q 5 2 d k d.K.P.I.I.I.I.I.I.I.I.I.",
"I.I.I.I.I.I.I.I.I.I.I.C.m.qXjXjXlXbXbXBXBXZXAXFXFXFXFXFXZXBXnXzXuXeX5X<X<X=X*X|._.^.5.@.! G m w q 5 2 d w.l.I.I.I.I.I.I.I.I.I.I.",
"I.I.I.I.I.I.I.I.I.I.P.H.#XgXhXhXbXmXBXBXAXAXHXJXJXJXJXGXAXAXbXbXkXyX0X3X<X=X*XXX}._.5.$.| I N w 2 5 2 h z d.I.I.I.I.I.I.I.I.I.I.",
"I.I.I.I.I.I.I.I.I.I.A.H.gXfXjXzXmXBXAXFXFXFXJXKXKXKXJXJXGXCXbXzXkXuXeX7X<X>X*X X}._.5.$.| T N e q 5 2 q d d.I.I.I.I.I.I.I.I.I.I.",
"I.I.I.I.I.I.I.I.I.I.k.D.fXhXkXcXnXBXZXDXGXHXJXKXKXJXJXFXGXAXmXxXzXkXeXwX5X<X:X X X_.5.$. .T Z e 2 5 q n d j.I.I.I.I.I.I.I.I.I.I.",
"I.I.I.I.I.I.I.I.I.I.h.n.tXhXkXkXnXmXZXAXHXHXJXKXKXKXGXJXFXSXBXmXkXpXrXwX5X>X>X*X X_.<.$.| R Z y 5 2 2 5 d j.I.I.I.I.I.I.I.I.I.I.",
"I.I.I.I.I.I.I.I.I.I.M.n.0XuXkXzXcXmXZXDXHXHXJXJXJXHXFXAXAXCXBXmXkXpXeXwX5X1X<X*X*X`.5.&.+.Q Z y q 2 < 2 ~ j.P.I.I.I.I.I.I.I.I.I.",
"I.I.I.I.I.I.I.I.I.I.N.c.qXyXkXnXZXBXAXDXHXHXHXJXHXFXCXnXnXnXnXnXpXpXeX7X7X5X5X*X*X`.9.&. .T A y 2 5 < d C d.P.I.I.I.I.I.I.I.I.I.",
"I.I.I.I.I.I.I.I.I.I.N.R.9XwXkXBXAXAXSXFXHXHXHXJXHXAXVXvXzXuXkXzXkXpXpXrXeXrX7X<X*X^.5.&.| H Z m q 5 2 1 k j.I.I.I.I.I.I.I.I.I.I.",
"I.I.I.I.I.I.I.I.I.I.h.n.2XwXkXCXAXGXHXHXHXHXHXHXDXAXVXvXuXeXeXiXpXpXpXpXkXpX6X>X*X_.5.@.! U Z m n q 2 5 d j.I.I.I.I.I.I.I.I.I.I.",
"I.I.I.I.I.I.I.I.I.I.h.n.9X0XhXBXDXHXHXHXJXJXAXVXmXbXjXcXzXsXuXuXpXkXkXcXxXpX5X*X7.5.=.@.Q U G Z m 2 q 5 z j.I.I.I.I.I.I.I.I.I.I.",
"I.I.I.I.I.I.I.I.I.I.M.v.tXyXkXCXHXHXHXJXJXFXAXmXxXvXbXmXmXmXnXiXpXcXcXpX7X:X_.5.5.,.&.$. .| T I A M 2 1 1 s.I.I.I.I.I.I.I.I.I.I.",
"I.I.I.I.I.I.I.I.I.I.M.v.yXuXnXZXSXAXBXbXhXyX7X1X&X1XyXxXmXmXmXiXrXpXrX1X*X_.5.&.$.X.$.&.=.$.+.Q I G m 2 : g.I.I.I.I.I.I.I.I.I.I.",
"I.I.I.I.I.I.I.I.I.I.V.F.yXhXBXZXmXwXXX!.4.4.4.-.%.4.%X4XiXiXxX6X6X6X5X X5.&.| T F a H E } +.X.{ { I S 2 , g.I.I.I.I.I.I.I.I.I.I.",
"I.I.I.I.I.I.I.I.I.I.V.F.hXkXcXuXXX-.E K K J J L J ] O.'.1XiX6X7X7X5X X9.@.H i 0 7 2 6 7 p a F E } Q S w : t.P.I.I.I.I.I.I.I.I.I.",
"I.I.I.I.I.I.I.I.I.I.A.H.yXyX5X).o.P J L K K L J a J ] 4.&X6X6XwXeX>X9.@.G e 7 ; 2 * * 2 7 r a F [ } Y w : w.l.I.I.I.I.I.I.I.I.I.",
"I.I.I.I.I.I.I.I.I.I.P.H.=X3X`.%.] L L L ] ] ] F r r s %.&XrXiXvXzXXX} R i 6 ; = & @ & - 2 r s | O.<.X.Z < w.d.I.I.I.I.I.I.I.I.I.",
"I.I.I.I.I.I.I.I.I.I.P.S.R.2X`.X.s L ] ] ] ] ] ] 2 = 2 { '.vXZXAXnX_.G N e 2 & + o X @ - r s | 6.*X;X|. .2 c d.I.I.I.I.I.I.I.I.I.",
"I.I.I.I.I.I.I.I.I.I.I.C.n.-X*XO.] ] o.o.o.*.3.*.K = O I  XmXDXZXyXQ.m t 0 2 @ . . o & 7 s o.6.*X6XaX7XE.8 e.k.I.I.I.I.I.I.I.I.I.",
"I.I.I.I.I.I.I.I.I.I.I.V.f.8X>X=.] ] O.*.*.6.0.0.-.p O G 3XMXMXmX7X2.m 9 6 2 $ . X @ - u | *.*X1XsXvXpXE.q w.l.I.I.I.I.I.I.I.I.I.",
"I.I.I.I.I.I.I.I.I.I.I.V.N.qX7X5.] O.3.3.8.0.q.q.0.} m :.jXVXxXiX>X1.m 8 6 6 & X X & 7 s %.q.6XaXvXNXyX1.8 r.K.P.I.I.I.I.I.I.I.I.",
"I.I.I.I.I.I.I.I.I.I.I.A.B.dXpX5.] [ *.3.8.0.%X%X8.3.&XjXMXVXjXeXXX,.D 9 2 6 ; $ + & r o.7.;X6XsXNXNX0X;.3 u.K.I.I.I.I.I.I.I.I.I.",
"I.I.I.I.I.I.I.I.I.I.I.A.S.dXcX`.[ [ O.O.%.O.[ [ 8.&XiXMXVXlX[.V 6 9 6 9 6 6 2 ; * * u | 7.;X6XsXvXNX1X) 4 i.I.I.I.I.I.I.I.I.I.I.",
"I.I.I.I.I.I.I.I.I.I.l.h.v.gXCX1X3.[ [ ] D D [ 4.>XiXMXVXVX9XT & @ % & 0 0 6 7 7 7 7 r p T O.*XaXsXsX_.S g a.P.I.I.I.I.I.I.I.I.I.",
"I.I.I.I.I.I.I.I.I.I.M.x.].lXCXcX&X%.[ P Y [ <.>XrXxXVXAXbX[.0 O + @ @ u i 6 9 0 r u u p p T '.5XrX1X1.m 1 x s.I.I.I.I.I.I.I.I.I.",
"I.I.I.I.I.I.I.I.I.I.M.m.uXmXSXSXjX&X!.4.).&X1X7XsXmXAXSXwX@.; O + @ % u u 0 e N F F R W | O._.*X;X^.Q w > 1 r.I.I.I.I.I.I.I.I.I.",
"I.I.I.I.I.I.I.I.I.I.l.F.qXnXSXSXAXbXiXuXrXrXsXmXZXAXDXAXXXN $ O @ $ @ 6 N u i R | X.$.=.=.=.7._.~.$.Z q > g t.I.I.I.I.I.I.I.I.I.",
"I.I.I.I.I.I.I.I.I.I.P.H.=XgXCXSXAXMXmXxXcXzXzXBXAXAXDXBX/.9 $ O $ % $ 6 U D N Q +.X.&.<.5.5.5.5.&.Q N 5 < j p.I.I.I.I.I.I.I.I.I.",
"I.I.I.I.I.I.I.I.I.I.I.C.n.-XCXAXCXmXkXpXeX<XXX9XzXCXAXfX,.6 = $ % & = G ,.R N H T H T @.5.5.5.E.&.Q V w : w.l.I.I.I.I.I.I.I.I.I.",
"I.I.I.I.I.I.I.I.I.I.I.A.N.-XkXNXmXcXkXrXeX:XXXwXzXBXAX3X} 6 = $ = - ; -.`.} N Z Z Z W &.5.~.^.~.1.Q N 3 1 i.P.P.I.I.I.I.I.I.I.I.",
"I.I.I.I.I.I.I.I.I.I.I.I.C.G.-XsXpXrXeXeXyX0X0XmXbXnXBX&XU ; # + ; ; = { <.Q m i M U @.5.5.^._.~.&.T y 1 f s.I.I.I.I.I.I.I.I.I.I.",
"I.I.I.I.I.I.I.I.I.I.I.I.J.N.G.=X=X|.=X3XwXhXlXCXBXnXbX}.V $ . + 6 , X 8 Y F t t Z R $.,.5.~.E.,._ A q 4 w.J.I.I.I.I.I.I.I.I.I.I.",
"I.I.I.I.I.I.I.I.I.I.I.I.I.K.i.f.( ..1.|.9XkXmXCXCXBXlX=XG +   = i 2   # U U y y Z Q @.&.$._ Q T S m h z J.I.I.I.I.I.I.I.I.I.I.I.",
"I.I.I.I.I.I.I.I.I.I.I.I.I.I.A.A.C.C.S.x.+XqXBXCXZXZXmXpX1.9 * H W p 2 H $.G y N Z ! ! T A C b b b w.y.k.I.I.I.I.I.I.I.I.I.I.I.I.",
"I.I.I.I.I.I.I.I.I.I.I.I.I.I.I.I.I.I.P.V.B.-XpXSXSXSXCXmX<X1.| 7.-.H a =.=.A y N Z Q G B z u.k.k.k.k.l.I.I.I.I.I.I.I.I.I.I.I.I.I.",
"I.I.I.I.I.I.I.I.I.I.I.I.I.I.I.I.I.I.I.I.l.G.-XSXHXHXSXCXmXpX7X6X2.H H -.&.G y Z G Z M l i.J.I.I.J.I.I.I.I.I.I.I.I.I.I.I.I.I.I.I.",
"I.I.I.I.I.I.I.I.I.I.I.I.I.I.I.I.I.I.I.I.I.B.+XSXJXHXHXHXSXSXSXZX~.U R $.<.Q Z Z Z y 5 b J.I.I.I.I.I.I.I.I.I.I.I.I.I.I.I.I.I.I.I.",
"I.I.I.I.I.I.I.I.I.I.I.I.I.I.I.I.I.I.I.I.I.M.G.ZXSXSXSXDXHXHXDXSXXX@.=.1.5.1.T Z Z 3 4 r.I.I.I.I.I.I.I.I.I.I.I.I.I.I.I.I.I.I.I.I.",
"I.I.I.I.I.I.I.I.I.I.I.I.I.I.I.I.I.I.I.I.I.M.G.mXCXCXCXZXAXSXSXSX9X(.9.,.~._.| M e 3 4 t.I.I.I.I.I.I.I.I.I.I.I.I.I.I.I.I.I.I.I.I.",
"I.I.I.I.I.I.I.I.I.I.I.I.I.I.I.I.I.I.I.I.I.M.G.lXmXmXxXvXmXNXvXCXuX:X^.-.1.`.&.i 9 3 f t.I.I.I.I.I.I.I.I.I.I.I.I.I.I.I.I.I.I.I.I.",
"I.I.I.I.I.I.I.I.I.I.I.I.I.I.I.I.I.I.I.I.I.M.m.pXnXvXzXcXNXmXxXpXuX5X(.=.=.!.$.M 8 > z p.J.J.I.I.I.I.I.I.I.I.I.I.I.I.I.I.I.I.I.I.",
"I.I.I.I.I.I.I.I.I.I.I.I.I.I.I.I.I.I.I.I.I.V.D.#XqXeXrXkXmXcX9X<XwX7X!.+._ #.) C g 4 w.k.I.I.I.I.I.I.I.I.I.I.I.I.I.I.I.I.I.I.I.I.",
"I.I.I.I.I.I.I.I.I.I.I.I.I.I.I.I.I.I.I.I.I.P.C.G.@X@X#X-X-X-XOXW.#X#XU.` ( ( / r.v x s.I.I.I.I.I.I.I.I.I.I.I.I.I.I.I.I.I.I.I.I.I.",
"I.I.I.I.I.I.I.I.I.I.I.I.I.I.I.I.I.I.I.I.I.I.I.I.I.P.k.k.s.s.P.s.g.h.K.K.J.I.I.I.I.I.I.I.I.I.I.I.I.I.I.I.I.I.I.I.I.I.I.I.I.I.I.I.",
"I.I.I.I.I.I.I.I.I.I.I.I.I.I.I.I.I.I.I.I.I.I.I.I.I.I.P.K.J.I.I.K.K.I.I.J.I.I.I.I.I.I.I.I.I.I.I.I.I.I.I.I.I.I.I.I.I.I.I.I.I.I.I.I.",
"I.I.I.I.I.I.I.I.I.I.I.I.I.I.I.I.I.I.I.I.I.I.I.I.I.I.I.I.I.I.I.I.I.I.I.I.I.I.I.I.I.I.I.I.I.I.I.I.I.I.I.I.I.I.I.I.I.I.I.I.I.I.I.I.",
"I.I.I.I.I.I.I.I.I.I.I.I.I.I.I.I.I.I.I.I.I.I.I.I.I.I.I.I.I.I.I.I.I.I.I.I.I.I.I.I.I.I.I.I.I.I.I.I.I.I.I.I.I.I.I.I.I.I.I.I.I.I.I.I.",
"I.I.I.I.I.I.I.I.I.I.I.I.I.I.I.I.I.I.I.I.I.I.I.I.I.I.I.I.I.I.I.I.I.I.I.I.I.I.I.I.I.I.I.I.I.I.I.I.I.I.I.I.I.I.I.I.I.I.I.I.I.I.I.I."
};
