/* XPM */
static char *car_t[] = {
/* columns rows colors chars-per-pixel */
"64 64 208 2",
"   c #3ED836231D95",
".  c #45583C8B2253",
"X  c #5BC74A6618D7",
"o  c #61044EBD1BC9",
"O  c #4DE640C722B8",
"+  c #47AF424D2DD3",
"@  c #4EF144AE2A1F",
"#  c #520544192535",
"$  c #53E1468A2860",
"%  c #50A2494B2DC3",
"&  c #59F64B6F2AC6",
"*  c #5F7A50EE2F4C",
"=  c #4D7647A031E1",
"-  c #4CCB48CA34DB",
";  c #5B7C4E5A32ED",
":  c #53204EBC38CB",
">  c #5D21528E3437",
",  c #6B7B5CC02C4E",
"<  c #725D5CD6269B",
"1  c #654F54DF3345",
"2  c #638C587E372B",
"3  c #698E5AFC2FBF",
"4  c #67DB5977388F",
"5  c #6C635C823CAC",
"6  c #71195E3F3B3C",
"7  c #740E6406349F",
"8  c #731163453C6F",
"9  c #7AF3633E3D1E",
"0  c #7D726C8D3C68",
"q  c #6AB75CB1419E",
"w  c #71125F334038",
"e  c #6D55628C4398",
"r  c #731F621B41B4",
"t  c #7A5669D846FE",
"y  c #78C967164966",
"u  c #75206A5E4B28",
"i  c #7B206B324BC5",
"p  c #77896DCF50F6",
"a  c #7C5E6E3B51DA",
"s  c #74076C135F1D",
"d  c #78C86F7B5BCE",
"f  c #7E0571D552DB",
"g  c #7E0B745D5BCE",
"h  c #7F24796B5DE6",
"j  c #5DDC58677F64",
"k  c #64EB639D6EC8",
"l  c #6C4F63876A2A",
"z  c #724667ED6FC1",
"x  c #70DD69AA7424",
"c  c #82956E7A4AD6",
"v  c #839D73A244AE",
"b  c #854E73964BDD",
"n  c #8B1372E04FCE",
"m  c #8B487C714CBE",
"M  c #81F46F8D52AC",
"N  c #84F173135457",
"B  c #8A3274EB538A",
"V  c #8AA97A65533A",
"C  c #845975095A92",
"Z  c #8A74769B58E8",
"A  c #83BE7B9C5D42",
"S  c #8C937B4E5C92",
"D  c #91E37C92569B",
"F  c #917A7D335D0C",
"G  c #80D177AC6561",
"H  c #86467BA661E7",
"J  c #8D117D0562B0",
"K  c #80F17ABA69F3",
"L  c #8CB97E8168E1",
"P  c #91877EB06284",
"I  c #851A780C71D1",
"U  c #8E6E7FF57062",
"Y  c #8F8B81735B72",
"T  c #947782E55D30",
"R  c #8D3382E06521",
"E  c #8DFA834B6BFA",
"W  c #8EB98A4D6E7E",
"Q  c #940E83AA64A4",
"!  c #995183ED64A7",
"~  c #975F899B64A9",
"^  c #9A308B9B66EC",
"/  c #949584A869CA",
"(  c #9A6486DB6B57",
")  c #962C8B926CCA",
"_  c #9C148B4C6CA0",
"`  c #9EBD914B6DC6",
"'  c #8F5B87D777EC",
"]  c #96C287F471BF",
"[  c #959D8B5774E7",
"{  c #9CBE8D4D72C3",
"}  c #94B38923799E",
"|  c #976893BC71FA",
" . c #9E1B922E7284",
".. c #9DFD93CF7AEA",
"X. c #A12E8965670B",
"o. c #A0B88CCC6E27",
"O. c #A35590A46F63",
"+. c #A2218F0272F5",
"@. c #A390935774F7",
"#. c #A9B794137564",
"$. c #A5DE999676FD",
"%. c #A48194CA7B51",
"&. c #A93296577AFB",
"*. c #A5539AFB7D02",
"=. c #AAE59A917D61",
"-. c #B1FEA0787F30",
";. c #49EA47948310",
":. c #4B494AB98489",
">. c #443044278D53",
",. c #58BC57138AA4",
"<. c #4B584B3F945B",
"1. c #43C543DB9C65",
"2. c #4BDF4BE09CC1",
"3. c #5AEC588D9197",
"4. c #52BB52BC9F80",
"5. c #589357B19B6A",
"6. c #5A445A4498B1",
"7. c #70276C9D8839",
"8. c #76FA751E8217",
"9. c #7FC37B1E9B8E",
"0. c #466E466EA2FC",
"q. c #4CDB4CDCA468",
"w. c #4DA44DA4A9EF",
"e. c #526B526BA4E8",
"r. c #5B095B09A552",
"t. c #51D151D1AA3C",
"y. c #9B678E948043",
"u. c #963B8C068A2D",
"i. c #9D14943A8179",
"p. c #8FF58E2797B9",
"a. c #A26A96CB84DB",
"s. c #A58B99BF844A",
"d. c #AC9C9D678398",
"f. c #A086978A8BEA",
"g. c #A6179C7F898B",
"h. c #AA1E9EBD8A1E",
"j. c #B1E39F5B81E0",
"k. c #B0689ED98966",
"l. c #A04197C69601",
"z. c #A51C9EDE95D2",
"x. c #AD15A224860D",
"c. c #AD3CA2778B23",
"v. c #AFF7A8848D5C",
"b. c #B2D5A221864F",
"n. c #B86BA551875E",
"m. c #B421A9528692",
"M. c #B3A8A4E88B83",
"N. c #BA75A7868D4A",
"B. c #B4A7AA208E4F",
"V. c #BA57AA3C8EDC",
"C. c #ACDDA47B947F",
"Z. c #A843A5D39DD0",
"A. c #AFCDA9569A69",
"S. c #B38EA70E9365",
"D. c #B58BAB5193F2",
"F. c #BACEAD4195B9",
"G. c #B563ABE79B8D",
"H. c #BB90AF1C9A1A",
"J. c #BDC0B04997EF",
"K. c #B762B0B49BE5",
"L. c #BC89B3BC9C3A",
"P. c #BDD2BA3B9E89",
"I. c #B55BAE79A24A",
"U. c #B9C4AE6AA06C",
"Y. c #B5F2AFD5A841",
"T. c #B70FB15FA378",
"R. c #BDC3B475A1DA",
"E. c #BE85BA0AA2A6",
"W. c #B3FAB159AEF8",
"Q. c #BB47B5A7AA68",
"!. c #BF06B955ABBE",
"~. c #B9E3B7ABB183",
"^. c #C0C1B1D8980F",
"/. c #C2ACB5279E68",
"(. c #C0E5B83D9C19",
"). c #C160B683A293",
"_. c #C336BA47A491",
"`. c #C4ACBCDDAB87",
"'. c #C8EEBE66AB0F",
"]. c #C282BD1BB230",
"[. c #C41FBFBDBAF4",
"{. c #C5DAC163ADAB",
"}. c #CB72C224AD29",
"|. c #C66FC51FB1C5",
" X c #CADDC5BBB52B",
".X c #CB02CB24B758",
"XX c #C70AC368BC60",
"oX c #CBDAC603BB0A",
"OX c #CEBECB9CBBAE",
"+X c #D152CC92BE38",
"@X c #C705C693C1BB",
"#X c #C9CAC664C1C8",
"$X c #C817C849C3B0",
"%X c #CD4BCB8DC44C",
"&X c #CC50CD1ECAAD",
"*X c #D1D9CEF2C495",
"=X c #D276D1ECC31A",
"-X c #D56AD5ADCB75",
";X c #D601D8FCCB43",
":X c #D3A0D504D63C",
">X c #D97BD7C7D663",
",X c #D8D0DA81D420",
"<X c #D62DD61CD92A",
"1X c #D800DB3EDD51",
"2X c #DA93DCAEDCFE",
"3X c #E06BE69DDEB9",
"4X c #DAD8DDEFE2F9",
"5X c None",
/* pixels */
"5X5X5X5X5X5X5X5X5X5X5X5X5X5X5X5X5X5X5X5X5X5X5X5X5X5X5X5X5X5X5X5X5X5X5X5X5X5X5X5X5X5X5X5X5X5X5X5X5X5X5X5X5X5X5X5X5X5X5X5X5X5X5X5X",
"5X5X5X5X5X5X5X5X5X5X5X5X5X5X5X5X5X5X5X5X5X5X5X5X5X5X5X5X5X5X5X5X5X5X5X5X5X5X5X5X5X5X5X5X5X5X5X5X5X5X5X5X5X5X5X5X5X5X5X5X5X5X5X5X",
"5X5X5X5X5X5X5X5X5X5X5X5X5X5X5X5X5X5X5X5X5X5X5X5X5X5X5X5X5X5X5X5X5X5X5X5X5X5X5X5X5X5X5X5X5X5X5X5X5X5X5X5X5X5X5X5X5X5X5X5X5X5X5X5X",
"5X5X5X5X5X5X5X5X5X5X5X5X5X5X5X5X2.2.5X5X5X5X5X5X5X5X5X5X5X5X5X5X5X5X5X5X5X5X5X5X5X5X5X5X5X5X5X5X5X5X5X5X5X5X5X5X5X5X5X5X5X5X5X5X",
"5X5X5X5X5X5X5X5X5X5X5X5X5X5X5X5X<.2.5X5X5X5X5X5X5X5X5X5X5X5X5X5X5X5X5X5X5X5X5X5X5X5X5X5X5X5X5X5X5X5X5X5X5X5X5X5X5X5X5X5X5X5X5X5X",
"5X5X5X5X5X5X5X5X5X5X5X5X5X5X5X2.5X5X2.5X5X5X5X5X5X5X5X5X5X5X5X5X5X5X5X5X5X5X5X5X5X5X5X5X5X5X5X5X5X5X5X5X5X5X5X5X5X5X5X5X5X5X5X5X",
"5X5X5X5X5X5X5X5X5X5X5X5X5X5X0.5X5X5X2.2.5X5X5X5X5X5X5X5X5X5X5X5X5X5X5X5X5X5X5X5X5X5X5X5X5X5X5X5X5X5X5X5X5X5X5X5X5X5X5X5X5X5X5X5X",
"5X5X5X5X5X5X5X5X5X5X5X5Xw.q.5X5X5X5X5Xe.5X5X5X5X5X5X5X5X5X5X5X5X5X5X5X5X5X5X5X5X5X5X5X5X5X5X5X5X5X5X5X5X5X5X5X5X5X5X5X5X5X5X5X5X",
"5X5X5X5X5X5X5X5X5X5X5Xt.e.5X5X5X5X5X5X5Xq.5X5X5X5X5X5X5X5X5X5X5X5X5X5X5X5X5X5X5X5X5X5X5X5X5X5X5X5X5X5X5X5X5X5X5X5X5X5X5X5X5X5X5X",
"5X5X5X5X5X5X5X5X5X5X5Xe.5X5X5X5X5X5X5X5X4.q.5X5X5X5X5X5X5X5X5X5X5X5X5X5X5X5X5X5X5X5X5X5X5X5X5X5X5X5X5X5X5X5X5X5X5X5X5X5X5X5X5X5X",
"5X5X5X5X5X5X5X5X5X5Xq.q.5X5X5X5X5X5X5X5X5Xq.e.5X5X5X5X5X5X5X5X5X5X5X5X5X5X5X5X5X5X5X5X5X5X5X5X5X5X5X5X5X5X5X5X5X5X5X5X5X5X5X5X5X",
"5X5X5X5X5X5X5X5X5Xw.e.5Xq.5X5X5X5X5X5X5X5X5Xe.5X5X5X5X5X5X5X5X5X5X5XX o 7 Y 0 v ~ 5X5X5X5X5X5X5X5X5X5X5X5X5X5X5X5X5X5X5X5X5X5X5X",
"5X5X5X5X5X5X5X5X5Xw.5X5X5Xq.5X5X5X5X5X5X5X5X5Xe.5X5X5X5X5X5X, , 7 Y < b .XP.v *..XB.T x.|.5X5X5X5X5X5X5X5X5X5X5X5X5X5X5X5X5X5X5X",
"5X5X5X5X5X5X5X5Xe.e.5X5X5X5Xq.e.5X5X5X5X5X5X5Xq.5X5X5X5X2.l v 3 P.P.0 *.3X| Y ;X,X` ` +X,X|.c.5X5X5X5X5X5X5X5X5X5X5X5X5X5X5X5X5X",
"5X5X5X5X5X5X5X5Xe.5X5X5X5X5X5Xe.e.5X5X5X5X5X5X5Xe.5Xe.w.q.p.x.T .X.X^ m.=X~ *.;XK.Y K.;XP.Y v.&X%X5X5X5X5X5X5X5X5X5X5X5X5X5X5X5X",
"5X5X5X5X5X5X5Xe.e.5X5X5X5X5X5X5Xe.q.5X5X5X5X5X5X5Xq.4.5X5X5XE.m.|..Xm.L.P.$.B.{.$.^ K.K.Y T |.,X2X&X5X5X5X5X5X5X5X5X5X5X5X5X5X5X",
"5X5X5X5X5X5X5Xe.5X5X5X5X5X5X5X5X5Xe.w.5X5X5X5X5X5Xq.5X5X5X5XT.E.|.{.E.P.B.B.v.D.@.{ %._ V %.`.oXv.!.1X5X5X5X5X5X5X5X5X5X5X5X5X5X",
"5X5X5X5X5X5Xt.q.5X5X5X5X5X5X5X5X5X5X5Xw.5X5X5X5X5X5X2.5X5X5X5XK.P.K.P.v.$.x. .c.*.R ) _ Q s.G.@.x.!.$X2X5X5X5X5X5X5X5X5X5X5X5X5X",
"5X5X5X5X5X5Xt.q.q.5X5X5X5X5X5X5X5X5X5X5Xe.5X5X5X5X5X5Xq.5X5X5Xc.$.*.*.$.^ $.~ *.@._ x.@.Q { ( P ..G.%X&X<X5X5X5X5X5X5X5X5X5X5X5X",
"5X5X5X5X5X5Xe.5X5Xw.q.5X5X5X5X5X5X5X5X5X5Xq.5X5X5X5X5Xq.5X5X5X..@. .^ ` Y ` ~ @.S { _.~ Q { F J *.T.K.K.$X&X5X5X5X5X5X5X5X5X5X5X",
"5X5X5X5X5Xr.w.5X5X5X5Xw.w.5X5X5X5X5X5X5X5X5Xw.t.5X5X5X5X4.5X5Xl f m ^ ` ~ $.T ^ Q @.x.S d.#.M / ..Q P a.C.!.$X5X5X5X5X5X5X5X5X5X",
"5X5X5X5X5Xe.5X5X5X5X5X5X5Xw.t.r.5X5X5X5X5X5X5Xw.w.5X5X5X5Xq.5X5Xh ^ @.^ g Y e u T $._  ._.P F ( B i C z.%X:X4X~.5X5X5X5X5X5X5X5X",
"5X5X5X5X5Xt.5X5X5X5X5X5X5X5X5Xe.w.e.5X5X5X5X5X5X5Xq.5X5X5Xq.5X5XC.P.P.B.K.*.c.T 2 p @.#.=.%.H.+.B S ..Y.~.].<X$X5X5X5X5X5X5X5X5X",
"5X5X5X5X5Xt.5X5X5X5X5X5X5X5X5X5X5X5Xt.w.5X5X5X5X5X5Xq.e.5X5X2.5XZ.L.F.B.D.v.c.=.@.t @ g j.S./.P { { ] { ] [ a.C.i.5X5X5X5X5X5X5X",
"5X5X5X5X5Xt.5X5X5X5X5X5X5X5X5X5X5X5X5X5Xt.e.5X5X5X5X5Xe.e.5X5X<.5Xx.) / / *.d.@.=.P i ; J &.=.N.^.+.P J L a.I.Y.G.5X5X5X5X5X5X5X",
"5X5X5X5X5Xq.5X5X5X5X5X5X5X5X5X5X5X5X5X5X5X5Xw.t.5X5X5X5Xq.5X5X2.:.d S i V ` @.%.h.P +.t q +.+.'.k.P U %.S.[.:X4X&XC.5X5X5X5X5X5X",
"5X5X5X5Xr.q.q.w.w.5X5X5X5X5X5X5X5X5X5X5X5X5X5X5Xw.q.5X5X5Xw.e.5X>.x s.=.o.-.~ @.k.k.n J ( ! S &.k.+.P ] } a.z.].&XZ.5X5X5X5X5X5X",
"5X5X5X5Xr.e.5X5X5Xt.t.q.w.w.t.5X5X5X5X5X5X5X5X5X5X5Xt.q.5X5Xq.2.>.,.a.x.n.n.Q Q &.k.&.+.+.( F P '.N.J M c M Z M L y.5X5X5X5X5X5X",
"5X5X5X5X5X6.5X5X5X5X5X5X5X5X5Xe.t.w.t.t.t.5X5X5X5X5X5X5Xq.q.2.<.<.<.z ! =.M.b.N F N.N.P #.k.#.n %.d.P P P a.G.U.C.c.G 5X5X5X5X5X",
"5X5X5X5X5X2.5X5X5X5X5X5X5X5X5X5X5X5X5X5X5X5Xw.w.q.w.t.e.5X5X2.2.2.1.j / ^ @.v._ F &.^.d.P #.U F P ^.&.+.y.G.#X4X4XXXi.5X5X5X5X5X",
"5X5X5X5X5Xe.5X5X5X5X5X5X5X5X5X5X5X5X5X5X5X5X5X5X5X5X5X5X4.w.2.2.q.1.;.U d.~ =.M.+.o./.N.#.k.P w F /.d.M M J L u.Y.I.C.5X5X5X5X5X",
"5X5X5X5X5Xt.5X5X5X5X5X5X5X5X5X5X5X5X5X5X5X5X5X5X5X5X5X5X5X2.q.2.w.1.>.u.B.d.] B.&.P n.N.&.#.a.n n /.k.P S P H J J H E 5X5X5X5X5X",
"5X5X5X5X5Xt.5X5X5X5X5X5X5X5X5X5X5X5X5X5X5X5X5Xw.t.t.q.e.5Xq.e.2.w.1.3.G.V.%.{ b.k.P =.M.&.%.#.P Z N.+.U y./.[.*X[.f.] 5X5X5X5X5X",
"5X5X5X5X5Xw.5X5X5X5X5X5X5X5Xt.w.t.w.r.q.q.r.q.e.5X5X5X5X5X2.2.<.4.q.9.c.%.s.=.V.k.P j.N.o.d./.U P ^.N.P Z U l.#X<X*X} 5X5X5X5X5X",
"5X5X5X5X5Xw.q.t.w.w.t.w.e.5X5X5X5X5X5X5X5X5X5X5X5X5X5Xq.q.q.4.<.<.5.l.%.B.d.B.J.).d.k.n.d.+.P P #./.N.U P P Z C U a.U 5X5X5X5X5X",
"5X5X5X5X5Xq.q.5X5X5X5X5X5X5X5X5X5X5X5X5X5X5X5X5Xw.q.q.5X5X5Xe.<.>.7.D.^./.J./.).n.X.^.j.k.oXS.P P P P &.k.U.U.k.n w q 5X5X5X5X5X",
"5X5X5X5X5Xe.w.5X5X5X5X5X5X5X5X5X5X5X5X5X5X5Xe.q.q.5X5X5Xe.q.5X2.<.z.L.}.}.}.'.N.M.X.#.k.+.{ s.Z #./.U F U '.4X>Xh.S t 5X5X5X5X5X",
"5X5X5X5X5X5Xe.5X5X5X5X5X5X5X5X5X5X5X5Xt.t.t.5X5X5X5X5Xq.q.5X4.2.5Xc./.'.'._.F.^.O.%.n.k.[.M.P B #.^.d.P P P u.[.XX%.y 5X5X5X5X5X",
"5X5X5X5X5X5Xq.5X5X5X5X5X5X5X5X5X5Xt.t.w.5X5X5X5X5X5Xe.5X5X5Xq.5Xi.M.J.J.F.F.V.n.N.H._.=.&.U.! c n P #.a.U U F Z } { * 5X5X5X5X5X",
"5X5X5X5X5X5Xr.t.5X5X5X5X5X5Xw.w.t.5X5X5X5X5X5X5Xw.w.5X5X5Xe.5X5XG.`.}.'._.V.-.b.^.M.H.oX! Z c B F.#.U /.+X'.y.n r i 5X5X5X5X5X5X",
"5X5X5X5X5X5X5Xe.5X5X5X5Xw.w.t.5X5X5X5X5X5X5X5Xt.t.5X5X5Xq.e.5X5XG. X'.D.D.B.^.)._.)._ H.M.F 9 9 #.%.L { S.#X#X..5 & 5X5X5X5X5X5X",
"5X5X5X5X5X5X5Xt.5X5Xw.w.w.5X5X5X5X5X5X5X5X5Xw.e.5X5X5X5Xe.5X5Xy.D. X`./._.`.).}.M.).+.P O.n &.&.F k.%.( P ] Q.C.c # 5X5X5X5X5X5X",
"5X5X5X5X5X5X5Xq.q.q.5X5X5X5X5X5X5X5X5X5X5Xt.5X5X5X5X5Xe.5X5X5X%.b.J.}.)._.R.M.D.d.o.=.d.D n d.^.&.+.oX)./ S J / N 5X5X5X5X5X5X5X",
"5X5X5X5X5X5X5X5Xe.5X5X5X5X5X5X5X5X5X5Xt.w.5X5X5X5X5Xt.5X5X5XI D.@.D.L.M.J.c.{ %.C M =.o.P +.&.k.&.P s.&XS.P y 4 2 5X5X5X5X5X5X5X",
"5X5X5X5X5X5X5X5X5Xq.5X5X5X5X5X5X5X5Xw.e.5X5X5X5X5Xe.e.5X5X5X} E./ x.*.{ D.%.P +.k.@.D ~ j.'.S.`.F.P U %.].{ r 1 5X5X5X5X5X5X5X5X",
"5X5X5X5X5X5X5X5X5Xe.e.5X5X5X5X5X5Xt.5X5X5X5X5X5X5Xq.5X5X5X5XC.x.v.M.M.K.F.F.M.j.&.D o.&.).V.M.k.%XS.( P s.s.M & 5X5X5X5X5X5X5X5X",
"5X5X5X5X5X5X5X5X5X5Xe.e.5X5X5Xe.q.5X5X5X5X5X5X5Xe.5X5X5X5XW.D.c.E.S.M.E.'.L.x.$.+.d.H.).`.oX&.&.h.XXa.P J S t 5X5X5X5X5X5X5X5X5X",
"5X5X5X5X5X5X5X5X5X5X5Xq.5X5Xw.t.5X5X5X5X5X5X5Xq.5X5X5X5X5X2X.Xx.{.d.` E.L.=.'.F.d.`.L.H.M.-XR.] ( h.S.S r 4 5X5X5X5X5X5X5X5X5X5X",
"5X5X5X5X5X5X5X5X5X5X5X5Xq.q.5X5X5X5X5X5X5X5Xe.5X5X5X5X5X5X=XE.%.-XL.d.;X).B.*X+X`.`.OXa.d.D.*X%.P ( %.N 1 . 5X5X5X5X5X5X5X5X5X5X",
"5X5X5X5X5X5X5X5X5X5X5X5Xq.q.5X5X5X5X5X5X5X5Xe.5X5X5X5X5X' D.v.*.|.L.B.-XOXL.`.*XL.).'.%.+.] G.D.C P Z 8 # 5X5X5X5X5X5X5X5X5X5X5X",
"5X5X5X5X5X5X5X5X5X5X5X5X5Xe.q.5X5X5X5X5X5Xq.5X5X5X5X5X5XR %.v.v.S.d.F.!. X/.L..Xk.H.H.c.Z { / g.N 6 r $ 5X5X5X5X5X5X5X5X5X5X5X5X",
"5X5X5X5X5X5X5X5X5X5X5X5X5X5X5Xq.e.5X5X5Xq.5X5X5X5X5X5XK R  .P.v.%.%. XG._.H.D.E.d.M.+.*.Z _ _ Y c 1 $ 5X5X5X5X5X5X5X5X5X5X5X5X5X",
"5X5X5X5X5X5X5X5X5X5X5X5X5X5X5X5Xq.q.5Xq.5X5X5X5X5X5X5XR R  .OXc. .x.+Xv.D.m.J.v.c.=.+.@.S N  .N 6 $ 5X5X5X5X5X5X5X5X5X5X5X5X5X5X",
"5X5X5X5X5X5X5X5X5X5X5X5X5X5X5X5X5X4.q.2.5X5X5X5X5X5X5XR R d.;X..Q g.OX@. .%.B.d.*.=.=._ f q S 4 & 5X5X5X5X5X5X5X5X5X5X5X5X5X5X5X",
"5X5X5X5X5X5X5X5X5X5X5X5X5X5X5X5X5X5Xq.0.2.5X5X5X5X5XK R ) P..X .) x.{._ ) %.B.` S ) b.S e 1 > 5X5X5X5X5X5X5X5X5X5X5X5X5X5X5X5X5X",
"5X5X5X5X5X5X5X5X5X5X5X5X5X5X5X5X5X5X5X5X5Xq.q.5X5X5Xh A *.P.F.R | B.D.W ~ x.B.Q u R  .8 #   5X5X5X5X5X5X5X5X5X5X5X5X5X5X5X5X5X5X",
"5X5X5X5X5X5X5X5X5X5X5X5X5X5X5X5X5X5X5X5X5X5X5X2.q.x | ..*.*.R h ..v...p R D.*.u r u > . 5X5X5X5X5X5X5X5X5X5X5X5X5X5X5X5X5X5X5X5X",
"5X5X5X5X5X5X5X5X5X5X5X5X5X5X5X5X5X5X5X5X5X5X5X5X5Xk | W W W R R ..*.A u R W e > % 5X5X5X5X5X5X5X5X5X5X5X5X5X5X5X5X5X5X5X5X5X5X5X",
"5X5X5X5X5X5X5X5X5X5X5X5X5X5X5X5X5X5X5X5X5X5X5X5X5X5X5X5X5X5X5X- - : = + 5X5X5X5X5X5X5X5X5X5X5X5X5X5X5X5X5X5X5X5X5X5X5X5X5X5X5X5X",
"5X5X5X5X5X5X5X5X5X5X5X5X5X5X5X5X5X5X5X5X5X5X5X5X5X5X5X5X5X5X5X5X5X5X5X5X5X5X5X5X5X5X5X5X5X5X5X5X5X5X5X5X5X5X5X5X5X5X5X5X5X5X5X5X",
"5X5X5X5X5X5X5X5X5X5X5X5X5X5X5X5X5X5X5X5X5X5X5X5X5X5X5X5X5X5X5X5X5X5X5X5X5X5X5X5X5X5X5X5X5X5X5X5X5X5X5X5X5X5X5X5X5X5X5X5X5X5X5X5X",
"5X5X5X5X5X5X5X5X5X5X5X5X5X5X5X5X5X5X5X5X5X5X5X5X5X5X5X5X5X5X5X5X5X5X5X5X5X5X5X5X5X5X5X5X5X5X5X5X5X5X5X5X5X5X5X5X5X5X5X5X5X5X5X5X",
"5X5X5X5X5X5X5X5X5X5X5X5X5X5X5X5X5X5X5X5X5X5X5X5X5X5X5X5X5X5X5X5X5X5X5X5X5X5X5X5X5X5X5X5X5X5X5X5X5X5X5X5X5X5X5X5X5X5X5X5X5X5X5X5X",
"5X5X5X5X5X5X5X5X5X5X5X5X5X5X5X5X5X5X5X5X5X5X5X5X5X5X5X5X5X5X5X5X5X5X5X5X5X5X5X5X5X5X5X5X5X5X5X5X5X5X5X5X5X5X5X5X5X5X5X5X5X5X5X5X"
};
