/* XPM */
static char *freemat[] = {
/* columns rows colors chars-per-pixel */
"64 46 125 2 ",
"   c #000001",
".  c #02060C",
"X  c #05090C",
"o  c #080D0F",
"O  c #040A13",
"+  c #060E1D",
"@  c #0B1215",
"#  c #0E1619",
"$  c #101A1E",
"%  c #071121",
"&  c #091426",
"*  c #08152B",
"=  c #0A182F",
"-  c #121E26",
";  c #0A1A35",
":  c #0C1D3A",
">  c #162328",
",  c #1F3038",
"<  c #21343B",
"1  c #0D2244",
"2  c #0F274E",
"3  c #112440",
"4  c #10274E",
"5  c #1F3444",
"6  c #122B53",
"7  c #122E5B",
"8  c #253A43",
"9  c #263D4A",
"0  c #122F60",
"q  c #143263",
"w  c #153569",
"e  c #16386F",
"r  c #183B76",
"t  c #193E7C",
"y  c #2B444D",
"u  c #2C4651",
"i  c #304B57",
"p  c #314E5A",
"a  c #1E4172",
"s  c #19407F",
"d  c #2F516D",
"f  c #375664",
"g  c #385866",
"h  c #3B5D6C",
"j  c #406474",
"k  c #456C7E",
"l  c #1A4182",
"z  c #1C468B",
"x  c #1E498E",
"c  c #1E4B95",
"v  c #1F4E9C",
"b  c #1F4FA0",
"n  c #2152A2",
"m  c #2256AB",
"M  c #245AB3",
"N  c #255DBA",
"B  c #2660BF",
"V  c #3C73B3",
"C  c #3C75BB",
"Z  c #466F80",
"A  c #426F8F",
"S  c #487183",
"D  c #4E7A8E",
"F  c #2761C2",
"G  c #2864C6",
"H  c #2C68C7",
"J  c #2966CB",
"K  c #2E6AC8",
"L  c #3875C6",
"P  c #2B6BD4",
"I  c #2C6EDA",
"U  c #2D70DF",
"Y  c #3274DC",
"T  c #397BD9",
"R  c #2E72E4",
"E  c #2F75EA",
"W  c #3175E0",
"Q  c #357AE5",
"!  c #3077ED",
"~  c #3279ED",
"^  c #317BF4",
"/  c #327EFB",
"(  c #55859A",
")  c #57889D",
"_  c #5A8DA3",
"`  c #5F96AE",
"'  c #6097AF",
"]  c #66A0B9",
"[  c #3C80DD",
"{  c #3980EA",
"}  c #3380FF",
"|  c #4F8ECC",
" . c #4688D7",
".. c #498AD5",
"X. c #4084DE",
"o. c #4F91D9",
"O. c #5597D7",
"+. c #579AD7",
"@. c #5FA3DB",
"#. c #65A4C7",
"$. c #6AA7C2",
"%. c #6EACC8",
"&. c #70B1CC",
"*. c #62A4D4",
"=. c #6BAED6",
"-. c #67ABDB",
";. c #6DB0D7",
":. c #6FB4DC",
">. c #73B4D2",
",. c #76B9D6",
"<. c #70B6DF",
"1. c #77BBD8",
"2. c #66ACE0",
"3. c #75BCE4",
"4. c #7DC4E3",
"5. c #7DC6EA",
"6. c #7FC8E8",
"7. c #82CCED",
"8. c #84CFF1",
"9. c #86D2F3",
"0. c #88D6F7",
"q. c #89D7F8",
"w. c #8CDCFF",
"e. c #8FE0FF",
"r. c None",
/* pixels */
"r.r.r.r.r.r.r.r.r.r.r.r.r.r.r.r.r.r.r.r.r.r.r.r.r.r.r.r.r.r.r.r.r.r.r.r.r.r.r.r.r.r.r.r.r.r.r.r.r.r.r.r.r.r.r.r.r.r.r.r.r.r.r.r.",
"r.r.r.r.r.r.r.r.r.r.r.r.r.r.r.r.r.r.r.r.r.r.H E / / ^ / / / / ^ ^ / ^ / ^ P 1 r.r.r.r.r.r.r.r.r.r.r.r.r.r.r.r.r.r.r.r.r.r.r.r.r.",
"r.r.r.r.r.r.r.r.r.r.r.r.r.r.r.r.r.r.r.r.w.8.V F P U ^ } } } } } } / E I J b &   r.r.r.r.r.r.r.r.r.r.r.r.r.r.r.r.r.r.r.r.r.r.r.r.",
"r.r.r.r.r.r.r.r.r.r.r.r.r.r.r.r.r.r.r.w.w.7.8 . O * 7 J } } } } ~ l : + O       r.r.r.r.r.r.r.r.r.r.r.r.r.r.r.r.r.r.r.r.r.r.r.r.",
"r.r.r.r.r.r.r.r.r.r.r.r.r.r.r.r.r.r.w.w.q.S   r.r.r.  2 E } } } x             r.r.r.r.r.r.r.r.r.r.r.r.r.r.r.r.r.r.r.r.r.r.r.r.r.",
"r.r.r.r.r.r.r.r.r.r.r.r.r.r.r.r.r.w.w.w.' o r.r.r.r.r.r.R } } } q     r.r.r.r.r.r.r.r.r.r.r.r.r.r.r.r.r.r.r.r.r.r.r.r.r.r.r.r.r.",
"r.r.r.r.r.r.r.r.r.r.r.r.r.r.r.r.w.w.w.8.u   r.r.r.r.r.r.E } } } q     r.r.r.r.r.r.r.r.r.r.r.r.r.r.r.r.r.r.r.r.r.r.r.r.r.r.r.r.r.",
"r.r.r.r.r.r.r.r.r.r.r.r.r.r.r.w.w.w.w.7.8 r.r.r.r.r.r.r.R } } } q   r.r.r.r.r.r.r.r.r.r.r.r.r.r.r.r.r.r.r.r.r.r.r.r.r.r.r.r.r.r.",
"r.r.r.r.r.r.r.r.r.r.r.r.r.r.w.w.w.w.w.q.) r.r.r.r.r.r.r.E } } } q   < r.w.w.w.w.q.r.r.r.r.r.r.r.r.r.r.r.r.r.r.r.r.r.r.r.r.r.r.r.",
"r.r.r.r.r.r.r.r.r.r.r.r.r.w.w.w.w.w.w.w.q.%.r.r.r.r.r.r.R } } } 0 < 6.q.w.w.w.w.w.q.r.r.r.r.r.r.r.r.r.r.r.r.r.r.r.r.r.r.r.r.r.r.",
"r.r.r.r.r.r.r.r.r.r.r.r.r.w.w.w.e.w.w.w.w.w.4.r.r.r.r.r.E } } } w u q.w.w.w.w.w.w.w.>.r.r.r.r.r.r.r.r.r.r.r.r.r.r.r.r.r.r.r.r.r.",
"r.r.r.r.r.r.r.r.r.r.r.r.w.w.q.>.$.7.w.w.w.w.q.4.r.r.r.N / } } } M 5 4.e.w.w.w.w.w.w.1.r.r.r.r.r.r.r.r.r.r.r.r.r.r.r.r.r.r.r.r.r.",
"r.r.r.r.r.r.r.r.r.r.r.w.w.8.Z # X f 6.w.w.w.w.w.8.>.L ^ } } } } / n A 7.w.w.w.w.w.w.>.r.r.r.r.r.r.r.r.r.r.r.r.r.r.r.r.r.r.r.r.r.",
"r.r.r.r.r.r.r.r.r.r.r.w.7.h   r.r.r.j 4.w.w.0.<.+.X.} / R G N J R / I C *.4.q.w.w.e.>.# r.r.r.r.r.r.r.r.r.r.r.r.r.r.r.r.r.r.r.r.",
"r.r.r.r.r.r.r.r.r.r.r.>.p   r.r.r.r.r.r.>.-. .Q / ^ m 6 & . . O = w B ^ ^ T | ;.8.e.&.@ r.r.r.r.r.r.r.r.r.r.r.r.r.r.r.r.r.r.r.r.",
"r.r.r.r.r.r.r.r.r.r.r.r.r.r.r.r.r.r.r.r.K ^ / } I 7 .               O t ~ } / Y C $.) r.r.r.r.r.r.r.r.r.r.r.r.r.r.r.r.r.r.r.r.r.",
"r.r.r.r.r.r.r.r.r.r.r.r.r.r.r.r.r.r.J ^ } } } I 1         r.r.r.r.r.r.r.l ^ } } / P a . r.r.r.r.r.r.r.r.r.r.r.r.r.r.r.r.r.r.r.r.",
"r.r.r.r.r.r.r.r.r.r.r.r.r.r.r.r.r.R / } } } ^ 7       r.r.r.r.r.r.r.r.r.r.n / } } } ! v * r.r.r.r.r.r.r.r.r.r.r.r.r.r.r.r.r.r.r.",
"r.r.r.r.r.r.r.r.r.r.r.r.r.r.r.r.^ } } } } } M .     r.r.r.r.r.r.r.r.r.r.r.r.R } } } } } n % r.r.r.r.r.r.r.r.r.r.r.r.r.r.r.r.r.r.",
"r.r.r.r.r.r.r.r.r.r.r.r.r.r.r.! } } } } } } w     r.r.r.r.r.r.r.r.r.r.r.r.r.F } } } } } / z   r.r.r.r.r.r.r.r.r.r.r.r.r.r.r.r.r.",
"r.r.r.r.r.r.r.r.r.r.r.r.r.r.F } / } } } } ^ 1     r.r.r.r.r.r.r.r.r.r.r.r.r.m / } } } / } U & r.r.r.r.r.r.r.r.r.r.r.r.r.r.r.r.r.",
"r.r.r.r.r.r.r.r.r.r.r.r.r.r.J } } } } } } ~ :   r.r.r.r.r.r.r.r.r.r.r.r.r.r.m / } } } } } ^ :   r.r.r.r.r.r.r.r.r.r.r.r.r.r.r.r.",
"r.r.r.r.r.r.r.r.r.r.r.r.r.r.N / } } } / } / 7   r.r.r.r.r.r.r.r.r.r.r.r.r.r.F } } / } } } P +   r.r.r.r.r.r.r.r.r.r.r.r.r.r.r.r.",
"r.r.r.r.r.r.r.r.r.r.r.r.r.r.r.R } } } } } } c   r.r.r.r.r.r.r.r.r.r.r.r.r.r.U } } } } } / e     r.r.r.r.r.r.r.r.r.r.r.r.r.r.r.r.",
"r.r.r.r.r.r.r.r.r.r.r.r.r.r.r.r.U } } } } } R : r.r.r.r.r.r.r.r.r.r.r.r.r.M / } } } } / z .     r.r.r.r.r.r.r.r.r.r.r.r.r.r.r.r.",
"r.r.r.r.r.r.r.r.r.r.r.r.r.r.r.r.7 F / } } } } M & r.r.r.r.r.r.r.r.r.r.r.r.R } } } } R w .     r.r.r.r.r.r.r.r.r.r.r.r.r.r.r.r.r.",
"r.r.r.r.r.r.r.r.r.r.r.r.r.r.r.r.r.r.x Y / / } } N r.r.r.r.r.r.r.r.r.r.r.R } } } ~ v ;       r.r.r.r.r.r.r.r.r.r.r.r.r.r.r.r.r.r.",
"r.r.r.r.r.r.r.r.r.r.r.r.r.r.r.r.r.r.r.=.o.Q / } / U m r.r.r.r.r.r.r.F ! } } R n 6 >       r.r.r.r.r.r.r.r.r.r.r.r.r.r.r.r.r.r.r.",
"r.r.r.r.r.r.r.r.r.r.r.r.r.r.r.r.r.r.r.w.q.3.+.[ ~ / } R J F N G P R / / J l 3 y ( 1.j   r.r.r.r.r.r.r.r.r.r.r.r.r.r.r.r.r.r.r.r.",
"r.r.r.r.r.r.r.r.r.r.r.r.r.r.r.r.r.r.r.w.w.w.q.7.-...~ } } } / } } / m 6 & g ] 7.e.w.8.` r.r.r.r.r.r.r.r.r.r.r.r.r.r.r.r.r.r.r.r.",
"r.r.r.r.r.r.r.r.r.r.r.r.r.r.r.r.r.r.r.w.w.w.w.w.w.0.2.{ } } } } / s X   o D q.w.w.w.w.q.1.r.r.r.r.r.w.w.4.r.r.r.r.r.r.r.r.r.r.r.",
"r.r.r.r.r.r.r.r.r.r.r.r.r.r.r.r.r.r.r.q.w.w.w.w.w.w.w.@.^ } } } b .       r.( 8.e.w.w.w.q.4.r.r.r.w.w.0.h r.r.r.r.r.r.r.r.r.r.r.",
"r.r.r.r.r.r.r.r.r.r.r.r.r.r.r.r.r.r.r.6.w.w.w.w.w.w.e.:.Q } } } q     r.r.r.r.D 7.w.w.w.w.w.0.q.w.w.w._ X r.r.r.r.r.r.r.r.r.r.r.",
"r.r.r.r.r.r.r.r.r.r.r.r.r.r.r.r.r.r.r.r.>.7.0.0.7.1._ d R } } } q     r.r.r.r.r.D 7.w.w.w.w.w.w.w.w.] $ r.r.r.r.r.r.r.r.r.r.r.r.",
"r.r.r.r.r.r.r.r.r.r.r.r.r.r.r.r.r.r.r.r.r.9 p y < #   = R } } } q   r.r.r.r.r.r.r.r.7.w.w.w.w.w.w.&.>   r.r.r.r.r.r.r.r.r.r.r.r.",
"r.r.r.r.r.r.r.r.r.r.r.r.r.r.r.r.r.r.r.r.r.r.r.r.r.r.r.r.R } } } q   r.r.r.r.r.r.r.r.r.7.w.w.w.w.>.,   r.r.r.r.r.r.r.r.r.r.r.r.r.",
"r.r.r.r.r.r.r.r.r.r.r.r.r.r.r.r.r.r.r.r.r.r.r.r.r.r.r.r.R } } } q   r.r.r.r.r.r.r.r.r.4.w.w.w.4.8   r.r.r.r.r.r.r.r.r.r.r.r.r.r.",
"r.r.r.r.r.r.r.r.r.r.r.r.r.r.r.r.r.r.r.r.r.r.r.r.r.r.r.r.E } } } q   r.r.r.r.r.r.r.r.r.0.w.w.4.p   r.r.r.r.r.r.r.r.r.r.r.r.r.r.r.",
"r.r.r.r.r.r.r.r.r.r.r.r.r.r.r.r.r.r.r.r.r.r.r.r.r.r.r.r.R } } } q   r.r.r.r.r.r.r.r.r.w.e.8.h   r.r.r.r.r.r.r.r.r.r.r.r.r.r.r.r.",
"r.r.r.r.r.r.r.r.r.r.r.r.r.r.r.r.r.r.r.r.r.r.r.r.r.r.r.r.E } } } q   r.r.r.r.r.r.r.r.w.w.9.k X r.r.r.r.r.r.r.r.r.r.r.r.r.r.r.r.r.",
"r.r.r.r.r.r.r.r.r.r.r.r.r.r.r.r.r.r.r.r.r.r.r.r.r.r.r.r.E } } } z   r.r.r.r.r.r.r.w.w.0.k   r.r.r.r.r.r.r.r.r.r.r.r.r.r.r.r.r.r.",
"r.r.r.r.r.r.r.r.r.r.r.r.r.r.r.r.r.r.r.r.r.r.r.r.r.r.r.P / } } } E r ; r.r.r.r.r.r.q.7.k X r.r.r.r.r.r.r.r.r.r.r.r.r.r.r.r.r.r.r.",
"r.r.r.r.r.r.r.r.r.r.r.r.r.r.r.r.r.r.r.r.r.r.r.P U R ^ } } } } } } / R I P N r.r.r.r.r.  r.r.r.r.r.r.r.r.r.r.r.r.r.r.r.r.r.r.r.r.",
"r.r.r.r.r.r.r.r.r.r.r.r.r.r.r.r.r.r.r.r.r.r.B ^ / / } } } } } } } } } / / J ;   r.r.r.r.r.r.r.r.r.r.r.r.r.r.r.r.r.r.r.r.r.r.r.r.",
"r.r.r.r.r.r.r.r.r.r.r.r.r.r.r.r.r.r.r.r.r.r.r.6 7 r t t t t t t t t t 7 1 %     r.r.r.r.r.r.r.r.r.r.r.r.r.r.r.r.r.r.r.r.r.r.r.r.",
"r.r.r.r.r.r.r.r.r.r.r.r.r.r.r.r.r.r.r.r.r.r.r.r.r.                              r.r.r.r.r.r.r.r.r.r.r.r.r.r.r.r.r.r.r.r.r.r.r.r."
};
